<?xml version="1.0" standalone="no"?>
<!DOCTYPE svg PUBLIC "-//W3C//DTD SVG 1.1//EN" "http://www.w3.org/Graphics/SVG/1.1/DTD/svg11.dtd" >
<svg xmlns="http://www.w3.org/2000/svg" xmlns:xlink="http://www.w3.org/1999/xlink" version="1.1">
<metadata>
Created by FontForge 20161013 at Mon Oct 24 21:55:04 2011
 By ,,,
2011 Iconian Fonts - www.iconian.com
</metadata>
<defs>
<font id="Monsterama" horiz-adv-x="346" >
  <font-face 
    font-family="Monsterama"
    font-weight="400"
    font-stretch="normal"
    units-per-em="1000"
    panose-1="0 0 0 0 0 0 0 0 0 0"
    ascent="800"
    descent="-200"
    x-height="750"
    cap-height="840"
    bbox="-62 -160 1265 973"
    underline-thickness="50"
    underline-position="-175"
    unicode-range="U+0020-2122"
  />
<missing-glyph horiz-adv-x="500" 
 />
    <glyph glyph-name=".notdef" horiz-adv-x="500" 
 />
    <glyph glyph-name=".null" horiz-adv-x="0" 
 />
    <glyph glyph-name="nonmarkingreturn" horiz-adv-x="500" 
 />
    <glyph glyph-name="space" unicode=" " horiz-adv-x="284" 
 />
    <glyph glyph-name="space" unicode="&#xa0;" horiz-adv-x="284" 
 />
    <glyph glyph-name="FL0021h" unicode="!" horiz-adv-x="146" 
d="M13 105q1 5 5 18.5t9 28.5q5 16 8 29.5t4 19.5q12 3 31 2.5t34.5 -2.5t22 -5.5t-8.5 -6.5q-11 -2 -9.5 -8.5t7 -15.5t10.5 -20t2 -23q-3 -10 -9 -15t-12.5 -9.5t-12.5 -11.5t-10 -20q-6 1 -17.5 5t-23 9.5t-20.5 12t-10 12.5zM72 316q-6 -3 -10 -11l-5 -10h-4
q-8 0 -8.5 3t-0.5 6v4q0 1 -3 12t-3 13q0 5 -0.5 13t-0.5 19t0.5 18.5t0.5 11.5q-11 2 -14 6.5t-3 9.5v8q0 11 3 21t3 21q0 32 -2.5 64.5t-2.5 66.5v14q8 4 10 10.5t2 13.5v9q0 2 -0.5 6.5t-0.5 6.5q-1 6 -2.5 17t-2.5 18t-1 8l23 55q-2 4 -4 9.5t-2 7.5t-0.5 4.5l-0.5 2.5
q16 0 29 -6t17 -18q9 -29 12.5 -42t-12.5 -23v-8v-10q0 -7 1 -17.5t2 -20t2 -16.5l1 -7l6 -4q2 -15 7.5 -29t5.5 -29v-9q0 -2 -7 -7q0 -5 0.5 -14t0.5 -20t-0.5 -19.5t-0.5 -13.5q0 -2 -1 -8t-2 -12.5l-2 -13t-1 -7.5q0 -2 0.5 -8.5t1.5 -14t2 -14t2 -8.5l11 -8v-2v-3
q-1 -1 -3 -3.5t-2 -4.5t4 -8.5t6 -8.5v-70q-8 2 -11 4t-4 5t-2 6.5t-5 9.5q-8 7 -17.5 9.5t-11.5 14.5zM56 278l1 2l4 4h3q8 0 8.5 -5t0.5 -9q-3 0 -10 0.5t-7 7.5zM79 337l16 -12q2 -3 4 -8.5t2 -8.5h6q-1 3 -1 7v7q0 10 -4 15t-17 8q-3 0 -5.5 -3t-0.5 -5zM72 395v-9
q8 3 8 9h-8zM89 590v-26h6v26h-6z" />
    <glyph glyph-name="FL0022h" unicode="&#x22;" horiz-adv-x="247" 
d="M112 610q0 3 1.5 25t4 49.5t5 52t5.5 32.5q5 16 8 29.5t4 19.5q12 3 31 2.5t34.5 -2.5t22 -5.5t-8.5 -6.5q-11 -2 -9.5 -8.5t7 -15.5t10.5 -20t2 -23q1 2 -10.5 -15t-23 -43t-17.5 -56t5 -54q-6 1 -17.5 5t-23 9.5t-20.5 12t-10 12.5zM10 643q0 2 1 21t2.5 42t3.5 44
t4 27q4 13 6 24.5t2 16.5q8 3 21.5 2.5t24.5 -2.5t15 -4.5t-6 -5.5q-8 -2 -7 -7.5t5 -13t7.5 -17t1.5 -19.5l-2.5 -17t-7 -40t-10.5 -47t-12 -37q-4 1 -12 4.5t-16 8t-14.5 10t-6.5 10.5z" />
    <glyph glyph-name="FL0023h" unicode="#" horiz-adv-x="467" 
d="M41 267l62 -12v-2q0 -8 3.5 -15t16.5 -11q0 -5 -0.5 -19t-0.5 -30q0 -17 0.5 -30t0.5 -21q0 -2 1 -8t2.5 -13t2.5 -12.5t1 -6.5v-6q0 -6 1 -10t9 -4h4q2 3 6.5 15.5t12.5 16.5q1 -10 4.5 -14.5t8.5 -8t10.5 -7t10.5 -10.5q4 -9 5 -14.5t2.5 -9.5t5 -7.5t12.5 -6.5v111
q-2 4 -7 14.5t-5 12.5q0 4 2.5 8t3.5 6v8l-13 13q-2 5 -3 23t-3 33h9q19 0 33 3q0 -8 3.5 -15t16.5 -11q0 -5 -0.5 -19t-0.5 -30q0 -17 0.5 -30t0.5 -21q0 -2 1 -8t2.5 -13t2.5 -12.5t1 -6.5v-6q0 -6 1 -10t9 -4h4q2 3 6.5 15.5t12.5 16.5q1 -10 4.5 -14.5t8.5 -8t10.5 -7
t10.5 -10.5q4 -9 5 -14.5t2.5 -9.5t5 -7.5t12.5 -6.5v111q-2 4 -7 14.5t-5 12.5q0 4 2.5 8t3.5 6v8l-13 13q-2 5 -3 23t-3 33h9q25 0 38 5q-5 1 1.5 0t16 -3t18 -3.5t8.5 0.5q0 8 0.5 17.5t8.5 9.5l8 8q-23 6 -50.5 9t-54.5 5q1 11 2 21.5t1 12.5q0 9 0.5 23.5t0.5 31.5
t-0.5 31.5t-0.5 22.5q8 6 8 12v14q11 0 20 1.5t15 6.5q-21 7 -21 20q0 6 10.5 9t24 4t26.5 0.5t17 -0.5l9 12q-25 10 -54.5 15t-58.5 8q-1 5 -1.5 9t-0.5 9l-8 6l-1 11.5t-2 27.5t-2 32.5t-2 27.5v29q9 7 12.5 15.5t2.5 20.5t-5.5 28.5t-9.5 40.5q-5 19 -20 28.5t-33 9.5
l0.5 -3.5t0.5 -7.5t2.5 -12.5t4.5 -14.5l-27 -89q0 -2 1.5 -13.5t3 -28.5t2.5 -28q0 -2 0.5 -9.5t0.5 -12.5v-13q0 -11 -2.5 -22.5t-11.5 -16.5v-14q-9 -1 -19 -2t-23 -2q-1 4 -1 12l-8 6l-1 11.5t-2 27.5t-2 32.5t-2 27.5v29q9 7 12.5 15.5t2.5 20.5t-5.5 28.5t-9.5 40.5
q-2 7 -7 8.5t-11.5 0t-13.5 -4.5t-13 -4l-27 -89q0 -2 1.5 -13.5t3 -28.5t2.5 -28q0 -2 0.5 -9.5t0.5 -12.5v-13q0 -11 -2.5 -22.5t-11.5 -16.5v-14q-14 -1 -32.5 -3t-44.5 -4q-7 0 -12.5 -4t-5.5 -9q0 -1 3 -5t6.5 -8.5t6.5 -8t2 -3.5q2 -2 1 -7t-1 -7l78 -23
q2 -35 3.5 -69.5t1.5 -69.5q0 -15 -3 -28q-12 0 -28 -1t-38 -3q-6 0 -11 -3t-5 -5q0 -1 2.5 -3.5t6 -5.5t6 -5t1.5 -2q2 -2 1 -4.5t-1 -4.5zM241 471q2 -35 3.5 -69.5t1.5 -69.5q0 -15 -3 -28q-18 0 -43 -3q1 11 2 20t1 11q0 9 0.5 23.5t0.5 31.5t-0.5 31.5t-0.5 22.5
q8 6 8 12v14q17 0 28 4h2zM170 132q-2 4 1 8.5t6 5.5q16 -5 20.5 -13t4.5 -24v-11v-5q0 -2 1 -6h-6q0 5 -3 13.5t-5 13.5zM279 37q0 -11 8 -12t13 -1q0 6 -1 14.5t-10 8.5q-1 0 -2 -0.5l-1 -0.5l-6 -5l-0.5 -1.5t-0.5 -2.5zM299 227h9q0 -10 -9 -13v13zM163 227h9
q0 -10 -9 -13v13z" />
    <glyph glyph-name="FL0024h" unicode="$" horiz-adv-x="237" 
d="M129 97q1 -10 3 -14.5t5 -8t6.5 -7t6.5 -10.5q5 -17 4.5 -24t10.5 -14v111q-2 3 -4.5 12.5t-2.5 13.5h6q26 0 44 20q1 15 6.5 30t11.5 30t10.5 29.5t4.5 29.5q0 24 -7 52.5t-19 58t-27.5 57t-33.5 50.5q-1 11 -2 21.5t-2 22.5l-5 6l-0.5 8.5t-1.5 21t-1.5 27t-0.5 26.5
q8 4 11 5h3q6 0 11.5 -4t9 -9t6 -10t2.5 -8v-58l8 -6l16 25l1 0.5t3 0.5q7 0 15 -5.5t14 -7.5q7 7 7.5 9t0.5 10q0 4 -10.5 23t-26 42.5t-33 47.5t-31.5 39q-1 11 -3 24.5t-4 30.5q-3 19 -12 28.5t-20 9.5v-11q0 -4 1.5 -12.5t3.5 -14.5l-7 -37q-25 -4 -43 -24t-30 -45
t-17.5 -49t-5.5 -36q0 -2 0.5 -5.5t0.5 -4.5q1 -2 4.5 -10t8 -18t8 -18.5t4.5 -10.5v-4q0 -5 -4.5 -6.5t-4.5 -9.5q0 -14 12 -23.5t22 -19.5q8 -11 16.5 -22t16.5 -23q1 -26 1.5 -50.5t0.5 -49.5q0 -12 -1 -23l-2 -22q-2 4 -5.5 15t-7.5 22.5t-7 22t-4 15.5q-3 4 -5.5 12
t-6 15.5t-8.5 13t-12 5.5q-17 0 -17 -13v-7q0 -5 3 -16t5 -16q-2 -4 -6.5 -5l-9 -2t-7.5 -2.5t-3 -6.5q0 -1 0.5 -1.5l0.5 -0.5l17 -20v-3q0 -11 -5 -17.5t-5 -17.5q0 -6 3.5 -25t10 -39t16.5 -35.5t24 -15.5q11 0 21.5 10.5t18.5 17.5v-20q-1 -1 -2 -1v0v-12h2v-32
q0 -2 0.5 -8t1.5 -13t1.5 -12.5t0.5 -6.5v-6q0 -6 0.5 -10t5.5 -4h3q1 3 3.5 15.5t7.5 16.5zM150 264q0 2 0.5 10.5t1 18.5t1.5 19.5t1 13.5q21 -13 27 -29.5t-14 -38.5q-1 0 -3 -0.5t-5 -0.5h-9v7zM134 130q-2 4 0 8.5t4 5.5q9 -5 12 -13t3 -24v-11v-5q0 -2 1 -6h-4
q0 5 -1.5 13.5t-3.5 13.5zM117 35q0 -11 5 -12t8 -1q0 6 -0.5 14.5t-6.5 8.5l-2 -1l-3 -5l-0.5 -1.5t-0.5 -2.5zM102 602q0 -10 -1 -19t-4 -16q-1 3 -5.5 8.5t-10 11.5t-9.5 11.5t-4 7.5q0 5 0.5 8t0.5 4l3.5 5.5t8.5 11.5t9 11.5t6 5.5zM62 670v-19h-10v11t10 8zM141 537h4
v-12q-2 1 -2.5 2t-1.5 2v8zM154 191q5 -1 8 -1.5t5 -0.5l-10 -4z" />
    <glyph glyph-name="FL0025h" unicode="%" horiz-adv-x="460" 
d="M128 174q-8 -1 -17.5 -8t-11.5 -9q-1 0 -2 0.5t-2 0.5q-8 4 -7 7.5t3 7.5l3 6l1 5t2.5 11t2.5 11t2 6q5 14 17 39q6 13 11.5 23t7.5 14q-10 9 -11 16t2 13l5 10q6 13 15 23.5t16 24.5q19 41 35.5 82t36.5 83l8 18q10 0 16 7.5t11 15.5l4 10q2 4 4 10t4 8q2 8 7 22t8 23.5
t4 10.5l57 57q-1 5 0 13t3 11l3 9q17 -8 27 -22t7 -30q-4 -21 -6 -35.5t-5.5 -24t-9.5 -14.5t-17 -7l-5 -10l-6 -12q-3 -9 -8 -22t-10 -25.5t-8 -22l-3 -9.5l4 -9q-7 -19 -9.5 -38.5t-11.5 -38.5l-5 -11q-1 -3 -12 -6q-3 -6 -7.5 -17t-11.5 -25q-6 -13 -11.5 -23.5
t-8.5 -17.5q-1 -2 -5.5 -9t-9.5 -15t-9.5 -15t-5.5 -9q-1 -3 -4 -11t-6.5 -17.5t-6.5 -18t-4 -11.5l7 -16l-1 -2l-1 -3q-2 -2 -6 -4t-5 -4t-0.5 -12t1.5 -14l-41 -86q-7 7 -9 10.5t-1.5 7.5t2 8.5t0.5 13.5q-2 7 -5.5 12l-7 10t-5 10.5t1.5 13.5zM87 134q0 1 1 2l1 1l8 2h1
t2 -1q8 -4 5.5 -11t-4.5 -12q-4 2 -11 6.5t-3 12.5zM146 196l10 -23q1 -4 0.5 -11.5t-2.5 -11.5l6 -3q0 3 1 5l2 4l3 8q6 12 5 20.5t-13 19.5q-3 1 -8 -1.5t-4 -6.5zM174 271l-5 -10q10 0 13 6zM306 504l-15 -31l6 -3l15 31zM31 447q0 2 0.5 6t6.5 4h2q1 0 3 -1t4 -1
q0 8 -9 21.5t-10 21.5v3v5v5v2q-2 5 -6.5 8t-4.5 8q0 1 0.5 1.5l0.5 0.5l22 21v6l0.5 5.5t-4.5 6.5q1 -2 -0.5 -5.5t-3.5 -4.5q-2 -2 -6 0.5t-5 2.5q0 -3 0.5 -4.5t0.5 -3.5l-4 -6q0 2 -0.5 5t-0.5 4q0 17 3.5 33.5t7.5 32.5q5 14 13.5 14.5t12.5 5.5q5 6 10 14.5t11.5 16
t16 13t23.5 5.5q1 0 8.5 -5.5t16.5 -12t16.5 -13t7.5 -8.5l-1.5 -2t-2.5 -2v-2q0 -3 2 -5.5t2 -4.5q0 -6 -4 -7.5t-4 -6.5q0 -8 5 -8q6 0 11 -5q5 -11 7.5 -27.5t2.5 -32.5v-19v-3q0 -2 -1.5 -10.5t-2.5 -10.5q-1 -5 -3.5 -15l-2.5 -10h-7q0 -3 1.5 -13t1.5 -13
q-1 -5 -9.5 -13t-20.5 -16t-24 -14t-21 -6q-10 0 -10 4v1h1l11 8q0 1 -1 1v1q-6 0 -7.5 -1t-6.5 -1q-10 0 -14 8.5t-12 12.5q-4 0 -4 -3v-4q0 -7 3.5 -13.5t7.5 -13.5h-2q-7 0 -12.5 5t-9 11.5t-5 13t-1.5 9.5zM164 444v-2l-9.5 -10.5t-15.5 -15.5q-3 -3 -5 -3h-7q0 4 8 10
q1 1 5 4t9 6.5t9 6.5t6 4zM109 431l-4 -2h4v2zM72 551q0 -23 6 -45.5t12 -43.5q2 -2 3.5 -6.5t6.5 -4.5q3 0 7 3.5t7.5 8t6 9t3.5 5.5q6 26 8.5 55.5t2.5 55.5q4 0 4 3v5q0 5 -5 7t-7 8q-1 2 -1.5 7t-2 10.5t-5 10t-9.5 5.5q-3 1 -12.5 -2.5t-9.5 -6.5v-1q0 -1 1.5 -5.5
l1.5 -4.5q-2 -20 -10 -36.5t-8 -36.5zM154 460q-5 0 -6 -1.5t-2 -3.5l1 -1q5 0 6 2t1 4zM172 537l-0.5 0.5t-1.5 0.5q-3 0 -2.5 -1.5t2.5 -1.5zM14 544q2 0 2 -1t-2 -1.5t-2 1.5q0 1 2 1zM163 564v-4t5 -3v5v5q0 1 -4 3q0 -1 -0.5 -2.5t-0.5 -3.5zM164 590q-3 0 -3 -2
q0 -3 3 -3t3 3q0 2 -3 2zM63 670q0 -5 -3 -10.5t-14 -5.5q0 6 3 11t14 5zM124 667q2 -2 6 -5t10 -3q0 4 -4.5 6t-9.5 2h-2zM104 675h-2l-7 -5l-1 -1q0 -1 0.5 -1.5l0.5 -0.5q1 0 8.5 1.5t9.5 4.5q-1 1 -3.5 1.5t-4.5 0.5h-1zM294 182q0 2 0.5 6t6.5 4h2q1 0 3 -1t4 -1
q0 8 -9 21.5t-10 21.5v3v5v5v2q-2 5 -6.5 8t-4.5 8q0 1 0.5 1.5l0.5 0.5l22 21v6l0.5 5.5t-4.5 6.5q1 -2 -0.5 -5.5t-3.5 -4.5q-2 -2 -6 0.5t-5 2.5q0 -3 0.5 -4.5t0.5 -3.5l-4 -6q0 2 -0.5 5t-0.5 4q0 17 3.5 33.5t7.5 32.5q5 14 13.5 14.5t12.5 5.5q5 6 10 14.5t11.5 16
t16 13t23.5 5.5q1 0 8.5 -5.5t16.5 -12t16.5 -13t7.5 -8.5l-1.5 -2t-2.5 -2v-2q0 -3 2 -5.5t2 -4.5q0 -6 -4 -7.5t-4 -6.5q0 -8 5 -8q6 0 11 -5q5 -11 7.5 -27.5t2.5 -32.5v-19v-3q0 -2 -1.5 -10.5t-2.5 -10.5q-1 -5 -3.5 -15l-2.5 -10h-7q0 -3 1.5 -13t1.5 -13
q-1 -5 -9.5 -13t-20.5 -16t-24 -14t-21 -6q-10 0 -10 4v1h1l11 8q0 1 -1 1v1q-6 0 -7.5 -1t-6.5 -1q-10 0 -14 8.5t-12 12.5q-4 0 -4 -3v-4q0 -7 3.5 -13.5t7.5 -13.5h-2q-7 0 -12.5 5t-9 11.5t-5 13t-1.5 9.5zM427 179v-2l-9.5 -10.5t-15.5 -15.5q-3 -3 -5 -3h-7q0 4 8 10
q1 1 5 4t9 6.5t9 6.5t6 4zM372 166l-4 -2h4v2zM335 286q0 -23 6 -45.5t12 -43.5q2 -2 3.5 -6.5t6.5 -4.5q3 0 7 3.5t7.5 8t6 9t3.5 5.5q6 26 8.5 55.5t2.5 55.5q4 0 4 3v5q0 5 -5 7t-7 8q-1 2 -1.5 7t-2 10.5t-5 10t-9.5 5.5q-3 1 -12.5 -2.5t-9.5 -6.5v-1q0 -1 1.5 -5.5
l1.5 -4.5q-2 -20 -10 -36.5t-8 -36.5zM417 195q-5 0 -6 -1.5t-2 -3.5l1 -1q5 0 6 2t1 4zM435 272l-0.5 0.5t-1.5 0.5q-3 0 -2.5 -1.5t2.5 -1.5zM277 279q2 0 2 -1t-2 -1.5t-2 1.5q0 1 2 1zM426 299v-4t5 -3v5v5q0 1 -4 3q0 -1 -0.5 -2.5t-0.5 -3.5zM427 325q-3 0 -3 -2
q0 -3 3 -3t3 3q0 2 -3 2zM326 405q0 -5 -3 -10.5t-14 -5.5q0 6 3 11t14 5zM387 402q2 -2 6 -5t10 -3q0 4 -4.5 6t-9.5 2h-2zM367 410h-2l-7 -5l-1 -1q0 -1 0.5 -1.5l0.5 -0.5q1 0 8.5 1.5t9.5 4.5q-1 1 -3.5 1.5t-4.5 0.5h-1z" />
    <glyph glyph-name="FL0026h" unicode="&#x26;" 
d="M335 438v2v15t0.5 7t0.5 3v6q0 8 -0.5 20.5t-1.5 23.5l-161 -6q0 -4 -4 -3.5t-9.5 2t-10 3t-5.5 -1.5q-8 10 -14 20.5t-11 20.5q9 10 8.5 21.5t6.5 20.5q22 30 32.5 35.5t19.5 0t23 -15.5t44 -10q-4 20 -6 27.5t-3.5 10.5t-3 5.5t-3.5 12.5q3 2 7 12t4 12q0 8 -10 16
t-19 8h-4q-5 -2 -13 -10q-2 -1 -6 -2t-6 -3l-2 2v3l-0.5 -0.5t-1.5 -0.5q-3 5 -4 11t-1 11h-10l-9.5 -7.5t-13.5 -11.5q-33 -30 -47 -69t-14 -79v-19q0 -15 2 -28.5t9 -24.5l-52 -38q2 -7 1 -11t-2.5 -8t-3.5 -7.5t-2 -9.5q0 -8 7 -14q-16 4 -20 -6t-4 -19q0 -6 -2 -10
q0 -2 -6.5 -5t-7.5 -5q0 -1 -0.5 -3.5t-0.5 -4.5q0 -1 0.5 -4t0.5 -4q1 -2 4 -6.5t6.5 -10.5t6 -11t3.5 -6q9 -17 9 -34v-19q0 -7 -2 -17q9 -5 13.5 -9t8.5 -8t9 -7.5t16 -6.5q9 -2 24.5 -12.5t31 -22t27 -21t12.5 -9.5h53q2 0 7.5 22t12.5 55t15 71.5t14.5 71.5t10.5 55.5
t4 23.5q0 4 -2 12q14 0 25.5 -0.5t19.5 -1.5zM138 431q8 5 17 5q5 0 8.5 -0.5t8.5 -5.5v14l-1.5 -16.5t-0.5 -36.5t7.5 -36.5t22.5 -17.5q-5 -26 -3 -41t1.5 -24.5t-8 -17t-29.5 -19.5q0 -5 -9 -6t-11 -10l-34 30q3 10 0.5 19t-7.5 18.5t-9.5 18.5t-4.5 19q0 2 0.5 6.5
t1.5 5.5l13 3q0 6 1 18.5t4.5 26t10 26.5t17.5 20zM131 618q0 -8 -12 -14v3q0 11 12 11zM110 526q2 -1 2.5 -5t2.5 -7v-3h-5v15zM222 170q1 3 3 3t3.5 -3.5t-3.5 -3.5q-4 0 -3 4zM201 713h9q-4 6 -9 6v-6zM88 440q1 3 2 3q3 0 4 -3t-4 -3q-4 0 -2 3z" />
    <glyph glyph-name="FL0027h" unicode="'" horiz-adv-x="146" 
d="M11 610q0 3 1.5 25t4 49.5t5 52t5.5 32.5q5 16 8 29.5t4 19.5q12 3 31 2.5t34.5 -2.5t22 -5.5t-8.5 -6.5q-11 -2 -9.5 -8.5t7 -15.5t10.5 -20t2 -23q1 2 -10.5 -15t-23 -43t-17.5 -56t5 -54q-6 1 -17.5 5t-23 9.5t-20.5 12t-10 12.5z" />
    <glyph glyph-name="FL0028h" unicode="(" horiz-adv-x="304" 
d="M247 131l32 -110q1 -4 -2.5 -8t-9 -7t-11.5 -4.5t-9 -1.5h-5l-36 7h-8q-8 0 -17 11t-18 11q-25 0 -45.5 16.5t-37 43t-29 59.5t-21 66.5t-12.5 64t-4 51.5q0 46 5 94.5t7 91.5q12 11 16 29.5t4.5 39t1.5 41t7 34.5l21 25q3 5 5 20t2 22h8v-16h7q2 2 8.5 14.5t14.5 27.5
t15.5 27.5t11.5 14.5q6 0 11 -1t10 -1.5t8.5 1.5t6.5 9q6 13 10.5 18.5t10.5 9t13 7.5t17 15q9 -6 11 -18.5t2.5 -26t2.5 -25t12 -14.5q0 3 4.5 18.5t9.5 30.5t9 23t3 -3q-4 -56 -10 -89.5t-14.5 -52t-18 -25.5t-19.5 -9.5t-19.5 -4t-17.5 -9.5q-5 3 -10 3q-9 0 -11 -2.5
t-2 -7.5v-11q0 -7 -5 -15q-1 -2 -5 -7t-9 -10.5t-9.5 -10.5t-5.5 -6q-2 -3 -5 -17.5t-6.5 -35.5t-7 -45.5t-6 -46.5t-4 -39.5t-1.5 -24.5q0 -23 0.5 -60t6 -75t16.5 -68.5t32 -39.5q3 -1 16.5 -1.5t28.5 -0.5q16 0 29 1t15 3zM187 97q-5 11 -10.5 14t-14.5 3q-2 0 -5.5 -0.5
t-5.5 -0.5q5 -26 25 -26h4q2 2 7 10zM62 567q-8 -11 -9 -23.5t-1 -23.5v-11h10v58zM158 55q-5 0 -5 -10q0 -7 5 -7q6 0 6 7q0 10 -6 10zM111 656l-13 21v-9l13 -20v8z" />
    <glyph glyph-name="FL0029h" unicode=")" horiz-adv-x="304" 
d="M57 721l-32 110q-1 4 2.5 8t9 7t11.5 4.5t9 1.5h5l36 -7h8q8 0 17 -11t18 -11q24 0 45 -16.5t37.5 -43t29 -59.5t21 -66.5t12.5 -64t4 -51.5q0 -46 -5 -94.5t-7 -91.5q-12 -11 -16 -29.5t-4.5 -39t-1.5 -41t-7 -34.5l-21 -25q-3 -5 -5 -20t-2 -22h-8v16h-7
q-2 -2 -8.5 -14.5t-14.5 -27.5t-15.5 -28t-11.5 -14q-6 0 -11 1t-10 1.5t-8.5 -1.5t-6.5 -9q-6 -14 -10.5 -19t-10.5 -8.5t-13 -7.5t-17 -15q-9 6 -11 18.5t-2.5 26t-2.5 25t-12 14.5q0 -3 -4.5 -18.5t-9.5 -30.5t-9 -23t-3 3q3 56 9.5 89.5t15 52t18 25.5t19.5 9.5t19.5 4
t17.5 9.5q4 -3 10 -3q9 0 11 2.5t2 7.5v11q0 7 5 15q1 2 5 7t9 10.5t9.5 10.5t5.5 6q2 3 5 17.5t6.5 35.5t7 45.5t6 46.5t4 39.5t1.5 24.5q0 22 -0.5 59.5t-6 75.5t-16.5 68.5t-32 39.5q-3 1 -16.5 1.5t-29.5 0.5q-15 0 -28.5 -1t-14.5 -3zM117 755q5 -11 10.5 -14t14.5 -3
q2 0 5.5 0.5t5.5 0.5q-5 26 -25 26h-4q-3 -3 -7 -10zM242 285q8 11 9 23.5t1 23.5v11h-10v-58zM146 797q5 0 5 10q0 7 -5 7q-6 0 -6 -7q0 -10 6 -10zM193 196l13 -21v9l-13 20v-8z" />
    <glyph glyph-name="FL002Ah" unicode="*" horiz-adv-x="245" 
d="M37 690q-1 -1 -1 -3q0 -5 4.5 -10.5t6.5 -12.5v-2q0 -4 -1 -5.5t-1 -3.5q0 -3 7 -11l27 27q-1 1 -1 7q0 5 1 6h2h4l2 2l-5 10q1 2 6.5 10.5t7.5 10.5t10 7t10 7l3 4l4 -3q8 -7 16.5 -12.5t16.5 -6.5q-5 10 -5 16t3 9q2 2 5 2q6 0 14.5 -5.5t17 -12t15.5 -13t9 -8.5l14 2
q-11 22 -29 42.5t-36 40.5q0 2 2 3l-3 6l7.5 11t12.5 16l6 7q6 -2 9 -2q8 0 9.5 7.5t6.5 20.5l1 4q0 8 -6.5 16t-15.5 16l-2 -2q-3 -3 -3 -12l-36 -8l-5 -8t-7 -13q-1 0 -2 -2t-3 -4l-4 -3q-4 -4 -9 -5q-10 11 -26 22.5t-45 31.5q-2 2 -6 3t-7 1q-5 0 -7 -2q-1 0 -1.5 -4.5
t-1 -9.5t-0.5 -9t-1 -4q-1 -2 -3.5 -4.5l-4.5 -4.5l47 -74l-4 -4l-19 -13l-3 -4q-2 -2 -2 -4q0 -4 7 -11q-2 -2 -5.5 -5t-6.5 -7q-8 -8 -12 -14q-1 0 -3 -6t-3 -7l-1 -1q-2 0 -2 -2q0 -1 5 -6l2 -2h7q7 0 11 -2zM49 694v1q0 1 2 1q4 0 6 -1q8 -9 8 -15q0 -3 -3 -6l-3 -3
l-2 -4l-3 4q2 2 2 5v5zM12 685q-1 -1 -1 -2q0 -3 4 -6.5t6 -5.5q2 2 2 5t-4 6l-1 2l-5 2zM68 722l5 -4q-2 -2 -3 -2q-2 0 -5 3z" />
    <glyph glyph-name="FL002Bh" unicode="+" horiz-adv-x="329" 
d="M169 271q2 -8 11 -9t17 -6q4 -3 4.5 -5.5t1.5 -4t4 -3t11 -2.5v42l-6 6t-4 5q0 2 2 3t3 2v3l-11 5q-2 2 -3.5 13.5t-1.5 14.5q0 2 2.5 12.5t2.5 12.5v7h5q12 0 23 1.5t18 6.5q-21 7 -21 20q0 6 10.5 9t24 4t26.5 0.5t17 -0.5l9 12q-26 11 -56 15.5t-60 7.5q-1 1 -1 4
l-7 2q0 1 -1 7.5t-2.5 16t-1.5 14.5v11q15 6 11.5 14t-11.5 26q-4 8 -17 11.5t-28 3.5l0.5 -1t0.5 -3q0 -3 6 -11l-23 -34l2.5 -10t3.5 -16q0 -1 0.5 -4t0.5 -5v-5q0 -6 -4 -11q-15 2 -37.5 -0.5t-60.5 -6.5q-7 0 -12.5 -4t-5.5 -9q0 -1 3 -5t6.5 -8.5t6.5 -8t2 -3.5
q2 -2 1 -7t-1 -7l95 -28v-6q0 -7 -2.5 -13t-2.5 -12v-5q0 -4 2.5 -6t13.5 -4q0 -2 -0.5 -7.5t-0.5 -11.5q0 -7 0.5 -12t0.5 -8q0 -1 3 -7.5t3 -7.5v-2q0 -2 0.5 -3.5t7.5 -1.5h4q1 1 5 5.5t11 6.5zM175 283q-2 2 0.5 3.5t4.5 2.5q14 -2 17.5 -5t3.5 -9v-5v-1t1 -3h-5
q0 2 -2.5 5.5t-4.5 5.5zM152 247q0 -4 7 -4.5t11 -0.5q0 2 -1 5.5t-9 3.5h-2l-5 -2zM169 320h7q0 -5 -7 -5v5z" />
    <glyph glyph-name="FL002Ch" unicode="," horiz-adv-x="146" 
d="M11 -7q0 3 1.5 25t4 49.5t5 52t5.5 32.5q5 16 8 29.5t4 19.5q12 3 31 2.5t34.5 -2.5t22 -5.5t-8.5 -6.5q-11 -2 -9.5 -8.5t7 -15.5t10.5 -20t2 -23q1 2 -10.5 -15t-23 -43t-17.5 -56t5 -54q-6 1 -17.5 5t-23 9.5t-20.5 12t-10 12.5z" />
    <glyph glyph-name="FL002Dh" unicode="-" horiz-adv-x="329" 
d="M29 394q0 2 1 7t-1 7q1 0 -2 3.5t-6.5 8t-6.5 8.5t-3 5q0 5 5.5 9t12.5 4q29 3 48.5 5t33.5 2.5t23.5 -1.5t18.5 -6q39 -2 82.5 -7t78.5 -19l-9 -12q-4 0 -17 0.5t-26.5 -0.5t-24 -4t-10.5 -9q0 -13 21 -20q-7 -5 -18 -6.5t-23 -1.5h-21h-9q-3 0 -5 1l-9 -13z" />
    <glyph glyph-name="FL002Eh" unicode="." horiz-adv-x="146" 
d="M13 105q1 5 5 18.5t9 28.5q5 16 8 29.5t4 19.5q12 3 31 3.5t34 -1t21.5 -5t-7.5 -9.5q-26 -11 -27 -20t8 -17t20 -15.5t9 -14.5q-3 -10 -9 -15t-12.5 -9.5t-12.5 -11.5t-10 -20q-6 1 -17.5 5t-23 9.5t-20.5 12t-10 12.5z" />
    <glyph glyph-name="FL002Fh" unicode="/" horiz-adv-x="328" 
d="M48 174q-8 -1 -17.5 -8t-11.5 -9q-1 0 -2 0.5t-2 0.5q-8 4 -7 7.5t3 7.5l3 6l1 5t2.5 11t2.5 11t2 6q5 14 17 39q6 13 11.5 23t7.5 14q-10 9 -11 16t2 13l5 10q6 13 15 23.5t16 24.5q19 41 35.5 82t36.5 83l8 18q10 0 16 7.5t11 15.5l4 10q2 4 4 10t4 8q2 8 7 22t8 23.5
t4 10.5l57 57q-1 5 0 13t3 11l3 9q17 -8 27 -22t7 -30q-4 -21 -6 -35.5t-5.5 -24t-9.5 -14.5t-17 -7l-5 -10l-6 -12q-3 -9 -8 -22t-10 -25.5t-8 -22l-3 -9.5l4 -9q-7 -19 -9.5 -38.5t-11.5 -38.5l-5 -11q-1 -3 -12 -6q-3 -6 -7.5 -17t-11.5 -25q-6 -13 -11.5 -23.5
t-8.5 -17.5q-1 -2 -5.5 -9t-9.5 -15t-9.5 -15t-5.5 -9q-1 -3 -4 -11t-6.5 -17.5t-6.5 -18t-4 -11.5l7 -16l-1 -2l-1 -3q-2 -2 -6 -4t-5 -4t-0.5 -12t1.5 -14l-41 -86q-7 7 -9 10.5t-1.5 7.5t2 8.5t0.5 13.5q-2 7 -5.5 12l-7 10t-5 10.5t1.5 13.5zM7 134q0 1 1 2l1 1l8 2h1
t2 -1q8 -4 5.5 -11t-4.5 -12q-4 2 -11 6.5t-3 12.5zM66 196l10 -23q1 -4 0.5 -11.5t-2.5 -11.5l6 -3q0 3 1 5l2 4l3 8q6 12 5 20.5t-13 19.5q-3 1 -8 -1.5t-4 -6.5zM94 271l-5 -10q10 0 13 6zM226 504l-15 -31l6 -3l15 31z" />
    <glyph glyph-name="FL0030h" unicode="0" 
d="M297 205q0 5 -0.5 14t-11.5 9h-4q-2 -1 -7 -2.5t-7 -2.5v1q0 9 5 21.5t11.5 25.5t12.5 25.5t7 21.5v6v11v10v6q3 10 12.5 16.5t9.5 17.5q0 2 -0.5 4l-0.5 2l-43 45l-0.5 4.5t-0.5 9.5q0 1 -0.5 6.5t1.5 12t8 6.5q-2 -4 1 -12t6 -10q2 -2 11 2.5t11 4.5q0 -7 -1 -10t-1 -7
q0 -3 8 -13q0 2 0.5 10t0.5 10q0 36 -7 72.5t-15 71.5q-4 15 -11 21.5t-14 10t-14 5.5t-11 7q-9 14 -18.5 32.5t-22.5 35.5t-31 28.5t-45 11.5q-2 0 -17 -12t-32.5 -27t-31.5 -29t-14 -18q0 -1 3 -4.5t4 -5.5v-3q0 -7 -4 -12t-4 -11t2.5 -9.5t5.5 -6t5.5 -5.5t2.5 -9
q0 -9 -3.5 -12.5t-8 -5.5t-9.5 -4t-9 -7q-11 -25 -15.5 -61t-4.5 -70v-41v-8q0 -2 1 -9t2 -14.5t2 -14t2 -7.5q1 -8 4.5 -22t6 -23.5t2.5 -10.5h13q0 -3 -1 -11t-2 -17t-2 -17t-1 -11q2 -10 18.5 -28t39.5 -36t47 -31t41 -13q6 0 12 1.5t6 7.5q0 1 -0.5 2l-0.5 1l-21 17
q0 2 1 2t1 1q11 0 13.5 -2t12.5 -2t16.5 5.5t11.5 13t10 15.5t12 12q8 0 8 -6v-8q0 -16 -7 -30.5t-15 -28.5q1 0 2 -0.5t2 -0.5q14 0 24.5 11t17 25t9.5 28.5t3 20.5zM41 200v-6q1 -1 9 -10.5t20 -23.5t20 -22q5 -7 9 -7h14q0 7 -5 12l-11 11q-2 2 -10 8.5t-17 14
t-17.5 14.5t-11.5 9zM147 171l7 -5h-7v5zM218 433q0 -49 -11.5 -98t-23.5 -96q-2 -5 -5.5 -14.5t-12.5 -9.5q-6 0 -13.5 8t-14 17.5t-11.5 19t-7 12.5q-13 58 -17.5 122t-4.5 121q-8 2 -8 7v10q0 6 3 10t7 7t8 6.5t5 9.5q2 4 3.5 15.5t4.5 23.5t9 22t18 12q3 1 10 -0.5
t14 -4.5t12.5 -7t5.5 -8v-2q0 -2 -3 -11.5t-3 -10.5q2 -22 7.5 -41.5t11.5 -39t11 -39.5t5 -41zM60 235q8 0 11 -3.5t5 -8.5q-1 0 -2 -0.5l-1 -0.5q-8 0 -10.5 4t-2.5 9zM26 402q-2 3 4 3q5 0 3.5 -3t-3.5 -3q-3 0 -4 3zM331 419q-4 -1 -4 -3t3.5 -3.5t3.5 3.5q0 3 -3 3z
M42 463q0 -4 -0.5 -9t-8.5 -7v11v10q0 5 8 7q0 -2 0.5 -6t0.5 -6zM41 520q5 0 5 -5q0 -6 -5 -6q-6 0 -6 6q0 5 6 5zM130 458q-7 -17 -8 -31.5t4 -22.5t16 -7t28 15q4 12 4.5 23.5t-4 19t-14.5 9t-26 -5.5zM119 689q-5 -5 -12.5 -11.5t-18.5 -6.5q0 8 8.5 13t18.5 5h4z
M157 707q2 0 3 -0.5l1 -0.5l14 -11l0.5 -1t0.5 -2t-0.5 -2l-0.5 -1q-1 0 -6 0.5t-11 2t-11.5 4t-7.5 5.5q2 2 7.5 3t7.5 2z" />
    <glyph glyph-name="FL0031h" unicode="1" horiz-adv-x="180" 
d="M103 147q8 -4 12.5 -14.5t6.5 -13.5h4q8 0 9 3.5t1 8.5v6l1 5t2.5 11t2.5 11t1 6q0 7 0.5 18t0.5 25t-0.5 25.5t-0.5 16.5q13 4 16.5 9.5t3.5 12.5v11q0 14 -3.5 28t-3.5 29q0 45 3 88.5t3 91.5v19q-9 5 -11.5 14t-2.5 19v11q0 4 0.5 10.5t0.5 8.5q1 9 2.5 23.5t3 24
t1.5 11.5l-27 76q2 5 4.5 12t2.5 11q0 2 0.5 5.5l0.5 3.5q-9 0 -26.5 -3t-35.5 -8.5t-32.5 -12.5t-16.5 -15q-6 -23 -10.5 -38t-4.5 -26q0 -15 15 -26v-11l58 -6q-1 -9 -2 -23.5t-2 -28t-2 -23l-1 -9.5l-8 -6q-2 -20 -8 -39t-6 -40v-12q0 -4 8 -10q0 -7 -0.5 -19.5
t-0.5 -26.5t0.5 -26t0.5 -20q0 -2 1 -10.5t2 -17.5t2 -17.5t1 -10.5q0 -3 1.5 -12t3 -18.5t2.5 -18.5t0 -12l-13 -11v-3v-3q1 -2 3.5 -6t2.5 -6t-5 -11t-7 -12v-95q9 3 12.5 5.5t5 6.5t2 8.5t5.5 12.5q5 6 8.5 8.5t6 5.5t4 7t2.5 12zM123 94q0 1 -0.5 2l-0.5 1l-6 5l-1 0.5
t-2 0.5q-9 0 -10 -7.5t-1 -12.5q5 0 13 1t8 10zM96 175l-6 -15q-2 -4 -5 -11t-3 -11h-6q1 2 1 4v5v9q0 7 -1 11.5t-1 8.5t3 6.5t11 4.5q3 -1 6 -5t1 -7zM103 255v-11q-9 3 -9 11h9zM84 522v-35h-7v35h7z" />
    <glyph glyph-name="FL0032h" unicode="2" horiz-adv-x="226" 
d="M130 112l-0.5 0.5t-1.5 0.5q-6 0 -9.5 -4.5t-3.5 -10.5h15v14zM94 112h9v7l-28 14q1 0 7.5 1.5t13.5 3t13.5 2.5t7.5 1h5q3 0 7 -6t9.5 -13t11.5 -13t12 -6q7 0 15 9.5t14.5 23.5t12 30.5t8 31t2 24.5t-5.5 11q-12 2 -21 2t-16.5 -0.5t-15.5 0.5t-18 5q-7 -11 -25 -20.5
t-31 -9.5h-6q-1 30 7.5 62t22 63.5t29.5 61t31 54.5q8 12 18 23.5t10 27.5q0 8 -3 9.5t-3 6.5v6q0 1 3 10.5t6.5 20.5t6.5 20.5t4 11.5q0 2 0.5 5t0.5 6q0 15 -6 45.5t-18 60.5t-30.5 51t-43.5 16q-9 -3 -26 -31t-34.5 -61.5t-30.5 -63t-13 -35.5q0 -8 0.5 -10.5t6.5 -11.5
q5 2 11.5 8.5t12.5 6.5q1 0 2 -0.5l1 -0.5l14 -27l7 7v31v32q0 3 2 9t5.5 12t7.5 10.5t9 4.5h3q2 -1 7.5 -4.5t7.5 -3.5q3 3 6 4.5t2 12.5q0 10 -1 11q4 -2 7.5 -8t6.5 -13t4.5 -14t1.5 -11v-3q0 -2 -3 -10.5t-3 -10.5q1 -2 6.5 -4t6.5 -4q0 -1 0.5 -4.5t0.5 -8.5
q0 -17 -8.5 -35.5t-26.5 -20.5q-17 -24 -33.5 -58t-29 -71t-20 -74.5t-7.5 -67.5q0 -17 4 -33.5t8.5 -33t9 -33.5t5.5 -34q17 -22 37 -22q11 0 14 2.5t3 12.5zM103 155q-2 2 7 2h5q4 0 2 -2q-1 -4 -7 -4t-7 4zM165 671q8 -2 8.5 -8.5t0.5 -11.5h-9v20z" />
    <glyph glyph-name="FL0033h" unicode="3" horiz-adv-x="288" 
d="M136 444l4 -1q11 -9 17.5 -26t10.5 -35t5 -34t1 -24l13 -5q1 -1 1.5 -6.5t0.5 -8.5q0 -13 -4.5 -25t-9.5 -24t-8 -24t0 -25l-34 -39q-1 6 -4.5 8.5t-7 4t-6.5 3t-3 4.5q-38 25 -55.5 37.5t-23.5 14.5t-4.5 -5t1.5 -20t-3.5 -26t-8 -25.5t-8 -25.5t-3.5 -27
q0 -1 4.5 -10.5t10.5 -21t12 -20.5t9 -9h55q1 0 12.5 12t27.5 27.5t32 29t25 16.5q11 4 16.5 8.5t9.5 9.5t8.5 10.5t13.5 11.5q-1 5 -1.5 11.5t-0.5 11.5v24q0 24 9 45q1 2 4 8.5t6.5 14t6.5 14t4 8.5q0 1 0.5 4.5t0.5 5.5t-0.5 5.5t-0.5 4.5q-1 2 -7.5 6.5t-6.5 6.5
q-2 6 -2 13q0 12 -4 25t-21 8q5 5 6 9t1 10q0 7 -2 12t-3.5 9.5t-2.5 10.5t1 15l-53 49q7 14 9 32t2 37v26q0 52 -14.5 102.5t-48.5 90.5q-4 5 -13.5 15l-9.5 10h-11q0 -7 -1 -15t-4 -14q-1 0 -1.5 0.5l-0.5 0.5v-4l-2 -2q-2 2 -6 3.5t-6 2.5q-3 4 -7 8t-6 5h-4
q-10 0 -20 -10t-10 -21q0 -1 1 -5.5t3 -10t3.5 -10t3.5 -5.5q-2 -14 -3.5 -17t-3 -7t-3.5 -13.5t-6 -35.5q20 0 33 6.5t21.5 13.5t14 12.5t12.5 4t16.5 -13t24.5 -37.5q7 -12 6.5 -26.5t8.5 -28.5q-5 -13 -11.5 -26.5t-14.5 -26.5q-1 3 -5.5 1.5t-10 -3.5t-9.5 -2.5t-4 4.5
l-71 10q-1 -15 -1.5 -31t-0.5 -26v-7t0.5 -5t0.5 -10v-19v-2q29 2 50 3t23 2v-18q5 5 8.5 6t8.5 1q9 0 18 -6zM143 688q12 0 12 -14v-4q-12 7 -12 18zM164 568v-20h-5v4q2 4 2.5 9.5t2.5 6.5zM71 813v7q-6 0 -9 -7h9zM49 102q1 -4 -3 -4q-5 0 -3.5 4t3.5 4t3 -4zM187 456
q1 -4 -2 -4q-5 0 -4 3.5t4 3.5z" />
    <glyph glyph-name="FL0034h" unicode="4" horiz-adv-x="332" 
d="M78 678q1 7 4.5 11t8.5 7t10.5 6t10.5 8q4 7 5 11.5t2 7.5t4.5 5.5t12.5 5.5v-88q-2 -3 -7 -11.5t-5 -10.5t2.5 -5.5t3.5 -5.5v-6l-13 -10q-1 -3 -2 -11t-1.5 -17.5t-1 -18t-0.5 -11.5q0 -2 0.5 -8.5t1.5 -14l2 -15t1 -11.5q20 5 39.5 7.5t37.5 4.5v17v19q9 5 11.5 14
t2.5 19v11q0 4 -0.5 10.5t-0.5 8.5q-1 9 -2.5 23.5t-3 24t-1.5 11.5l27 76q-2 5 -4.5 12t-2.5 11q0 2 -0.5 5.5l-0.5 3.5q18 0 33 -8t20 -24q5 -20 9.5 -34t5.5 -24.5t-2.5 -17.5t-12.5 -14v-24q1 -9 2 -23.5t2 -28t2 -23l1 -9.5l8 -6q2 -16 6 -29h1q5 0 9.5 -5t4.5 -10
q1 -1 -2 -6.5t-6 -10.5q1 -5 1 -9v-9v-12q0 -4 -8 -10q0 -7 0.5 -19.5t0.5 -26.5t-0.5 -26t-0.5 -20q0 -2 -1 -10.5t-2 -17.5t-2 -17.5t-1 -10.5q0 -3 0.5 -12t1.5 -19t2 -19t2 -12l13 -11v-6q-1 -2 -3.5 -6t-2.5 -6t5 -11t7 -12v-95q-9 3 -12.5 5.5t-5 6.5t-2.5 8.5
t-5 12.5q-5 6 -10.5 8.5t-10.5 5.5t-8.5 7.5t-4.5 12.5q-8 -4 -12.5 -14.5t-6.5 -13.5h-4q-8 0 -9 3.5t-1 8.5v6l-1 5t-2.5 11t-2.5 11t-1 6q0 7 -0.5 18t-0.5 25t0.5 25.5t0.5 16.5q-13 4 -16.5 9.5t-3.5 12.5v11q0 14 3.5 28t3.5 29v32q0 16 -1 33l-6 -2l-7 14
q-2 -1 -11 -1h-16q-9 0 -17.5 2t-13.5 7q16 7 16 22q0 7 -7.5 10t-18.5 4v-16q0 -13 -0.5 -24.5t-0.5 -18.5q8 -5 8 -9q-39 -5 -59.5 1.5t-29 20.5t-9.5 33t-1 40q0 14 -3 27t-3 26v11q0 6 3.5 11t15.5 9q0 5 -0.5 15.5t-0.5 23.5q0 14 0.5 24t0.5 16q0 1 1 6t2.5 10.5
t2.5 10l1 4.5v6q0 4 1 7.5t9 3.5h4q2 -3 6.5 -12.5t11.5 -13.5zM260 175l19 -16q2 -4 5 -11t3 -11h6q-1 2 -1 4v5v9q0 14 -4.5 20.5t-20.5 11.5q-3 -1 -6 -5t-1 -7zM85 652q-2 -3 1 -7t6 -4q16 4 20 10.5t4 18.5v9q0 5 1 8h-5q0 -3 -3 -10t-5 -10zM233 94q0 1 0.5 2l0.5 1
l6 5l1 0.5t2 0.5q9 0 10 -7.5t1 -12.5q-5 0 -13 1t-8 10zM59 727q0 8 7.5 9.5t12.5 1.5q0 -5 -1 -12t-9 -7q-1 0 -2 0.5l-1 0.5l-6 4l-0.5 1t-0.5 2zM262 255h-9v-11q9 3 9 11zM78 577h9q0 8 -9 10v-10zM279 522h-7v-10q5 0 7 -1v11z" />
    <glyph glyph-name="FL0035h" unicode="5" horiz-adv-x="226" 
d="M132 744l-0.5 -0.5t-1.5 -0.5q-6 0 -9.5 4.5t-3.5 10.5h15v-14zM96 744h9v-7l-28 -14q1 0 7.5 -1.5t13.5 -3t13.5 -2.5t7.5 -1h5q3 0 7 6t9.5 13t11.5 13t12 6q7 0 15 -9.5t14.5 -23.5t12 -30.5t8 -31t2 -24.5t-5.5 -11q-12 -2 -21 -2t-16.5 0.5t-15.5 -0.5t-18 -5
q-7 11 -25 20.5t-31 9.5h-6q-1 -30 8 -43t23.5 -21.5t31 -19t31.5 -35.5q8 -12 18 -23.5t10 -27.5q0 -8 -3 -9.5t-3 -6.5v-6q0 -1 1 -14.5t2.5 -33.5t3.5 -43.5t3.5 -43.5t3 -34t2.5 -16q0 -2 0.5 -5t0.5 -6q0 -15 -6 -45.5t-18 -60.5t-30.5 -51t-43.5 -16q-9 3 -26 31
t-34.5 61.5t-30.5 63t-13 35.5q0 8 0.5 10.5t6.5 11.5q5 -2 11.5 -8.5t12.5 -6.5q1 0 2 0.5l1 0.5l14 27l7 -7v-31v-32q0 -3 2 -9t5.5 -12t7.5 -10.5t9 -4.5h3q2 1 7.5 4.5t7.5 3.5q3 -3 6 -4.5t2 -12.5q0 -10 -1 -11q4 2 7.5 8t6.5 13t4.5 14t1.5 11v3q0 2 -3 10.5t-3 10.5
q1 2 6.5 4t6.5 4q0 1 0.5 4.5t0.5 8.5q0 8 -1.5 36.5t-5 60t-9.5 56t-15 25.5q-17 24 -34.5 39t-31 29t-21.5 32.5t-7 48.5l4 153q4 5 12 6t17 0.5t17.5 -2t13.5 -1.5q11 0 14 -2.5t3 -12.5zM105 701q-2 -2 7 -2h5q4 0 2 2q-1 4 -7 4t-7 -4zM167 185q8 2 8.5 8.5t0.5 11.5
h-9v-20z" />
    <glyph glyph-name="FL0036h" unicode="6" horiz-adv-x="313" 
d="M184 652q1 -8 7 -19t12.5 -23t12 -23t5.5 -20q25 -3 39 -1t20 7t6 11q0 7 -2 12l-24 89q0 4 -2.5 11t-6.5 14t-8 12.5t-7 5.5l-5 1l-33 -3h-7q-8 1 -10 7t-10 8q-22 2 -42 -9t-37 -30.5t-31 -45t-24.5 -51t-16.5 -49.5t-8 -41q-4 -35 -1 -68t1 -67q10 -10 12.5 -25
t1.5 -31.5t-2 -32.5t4 -28l16 -21q3 -6 4 -17.5t0 -16.5l7 -1l1 12h7l6.5 -13t11.5 -23.5t12 -23.5t9 -12q11 -2 19.5 -0.5t12.5 -9.5t8 -16t9 -8t11 -7t14 -13q9 3 11.5 13t4 20.5t4.5 19.5t12 11v-12t1.5 -19t5 -18t11.5 -9q7 -1 16.5 15t17.5 37.5t14 42.5t7 31l1 11
q1 8 1 13t1 13l1 5q2 31 3.5 77.5t3.5 87.5q-12 31 -37 49.5t-55.5 25.5t-62 4t-54.5 -13v5q2 18 6.5 43t13.5 49t22.5 42.5t33.5 24.5q5 2 14 -2.5t11 -7.5zM179 218h-7q-5 0 -12 1t-12.5 1.5t-6.5 0.5q-8 1 -9.5 2.5t-1.5 5.5l1 9q0 5 -3 13q0 1 -3.5 9t-7.5 17t-8 16.5
t-5 9.5q-5 5 -9 32.5t-7 63.5l112 6q5 0 5 -15q0 -14 -3.5 -35.5t-8 -46.5t-8.5 -46t-6 -34t0 -10zM233 608l-28 41q0 18 16 16l-1 -10q-1 -5 3 -10.5t9.5 -10t10 -8t4.5 -6.5q-1 -11 -4.5 -12l-3.5 -1zM188 684q-6 -8 -11.5 -10t-13.5 -1q-2 0 -5 1t-5 1q7 21 25 19l4 -1
q1 -2 6 -9zM226 294l-11 1q0 3 1.5 10t4 14.5t7 13.5t10.5 7v-5q-1 -11 -6 -20t-6 -21zM42 336q-7 8 -7.5 18t1.5 21l1 8h9zM164 721q-3 0 -3 9q1 5 5 5q6 0 5 -6q0 -8 -7 -8zM78 244l-12 1v6l13 -1z" />
    <glyph glyph-name="FL0037h" unicode="7" horiz-adv-x="262" 
d="M192 769l-123 -1q0 -11 -6 -15t-6 -15v-4q1 -2 2 -6t3 -6h-38v-31h80q3 -18 17.5 -21t23.5 -3h6q1 0 8 3.5t9 3.5l9 3q-4 -23 -15 -50t-28 -40q-3 -1 -6 -14.5t-5.5 -29.5t-4 -30t-1.5 -16l1 -11q0 -1 3 -5t7 -8.5t7.5 -8.5t5.5 -5q0 -5 -3.5 -12.5t-8.5 -14.5t-10 -13
t-8 -9l-48 -187q4 0 5 -8q0 -4 -5 -4q-2 0 -3 1l-5 -18l11 -12q-1 0 -1.5 -1t-1.5 -1h-3l-6 10l-21 -87q32 -9 47.5 -5.5t23 12.5t12 20t13.5 17q2 2 4.5 15t5 29t4.5 29.5t2 16.5l-1 9q0 8 -6 8q-1 2 -2 11.5t-2 11.5q0 10 -1 20t3 20q1 0 5.5 -2.5t10 -5.5t10.5 -5t7 0
l61 324l8 36v4q0 2 -0.5 4t-0.5 5h12q1 0 3 2t3 4q2 6 3.5 12.5t1.5 9.5q0 1 -1.5 3t-3.5 4q-6 6 -13 8t-14 3q-3 14 -5.5 24l-3.5 14q0 5 -7 5q-2 -3 -5 -10.5t-4 -9.5q-2 -3 -2.5 -9.5t-0.5 -11.5h-3q0 7 -4 5q-2 0 -2 -3l-4 4q4 2 9.5 5.5t5.5 12.5l-1 4q-2 3 -4.5 9.5
t-4.5 6.5zM66 105q-7 -6 -8.5 -6.5t-1 2.5t3.5 8t5 10zM194 624q2 9 2.5 22.5l0.5 13.5l13 2q1 -14 -5 -28t-10 -24zM149 632q6 -8 15 -8q-2 13 -9 18zM138 99q-3 6 -6 7.5t-8 1.5q1 -6 3 -10t5 -8zM215 663q-6 -2 -6 5q-1 4 5 6q4 0 5 -4q0 -7 -4 -7zM215 486q4 0 4 7
q0 6 -4 6q-6 0 -6 -7q1 -6 6 -6zM71 722q-3 0 -3 8q0 4 3 4q5 0 5 -4q0 -8 -5 -8zM206 534l-12 13q1 0 1.5 0.5t1.5 0.5l3 -1l6 -6l1 -3l-0.5 -1t-0.5 -3zM143 710l-2 1l4 5l3 1q1 0 1.5 -0.5t1.5 -0.5q-2 -4 -3 -4.5t-3 -0.5l-0.5 -0.5t-1.5 -0.5zM62 223q-5 0 -3 -8v-1
q1 0 1 -2l3 11h-1zM54 195q0 -1 -1 -1v-2l1 -2l1 4z" />
    <glyph glyph-name="FL0038h" unicode="8" horiz-adv-x="330" 
d="M148 818h-9l-7.5 -10t-11.5 -15q-26 -40 -37.5 -90.5t-11.5 -102.5v-26q0 -19 1.5 -37t6.5 -32l-41 -49q3 -18 -1.5 -25.5t-4.5 -21.5q0 -6 1 -10t5 -9q-14 5 -16.5 -8t-2.5 -25q0 -7 -2 -13q0 -2 -5 -6.5t-6 -6.5q0 -1 -0.5 -4.5t-0.5 -5.5t0.5 -5.5t0.5 -4.5
q1 -2 3 -8.5t5 -14t5 -14t3 -8.5q8 -22 8 -45v-24q0 -5 -0.5 -11.5t-1.5 -11.5q7 -6 10.5 -11.5t6.5 -10.5t7.5 -9.5t13.5 -8.5q5 -2 12 -9t15.5 -16.5t16.5 -19.5t15 -19q4 -9 7.5 -15t5.5 -6h3h1h44q2 0 5 6.5t7 15.5q7 9 15.5 19t16.5 19t15.5 16t12.5 9q8 4 12.5 8.5
t7.5 9.5t7 10.5t11 11.5q-1 5 -1.5 11.5t-0.5 11.5v24q0 12 2 23t5 22q1 2 3.5 8.5t5 14t5 14t2.5 8.5q0 1 0.5 4.5t0.5 5.5t-0.5 5.5t-0.5 4.5q0 2 -5 6.5t-5 6.5q-2 6 -2 13q0 12 -3 25t-16 8q5 9 5 19q0 7 -1.5 12t-3 9.5t-2 10.5t1.5 15l-42 49q2 7 8.5 15.5t13 17.5
t11.5 18.5t5 18.5v26q0 26 -7.5 51.5t-19 50.5t-25.5 47.5t-27 42.5q-4 5 -11 15l-7 10h-9q2 -5 -2.5 -9t-11.5 -4t-13 -2q-1 5 -1 15zM124 379q3 3 -1.5 5.5t0.5 2.5q4 0 6 -1t7 -6v14q7 1 13 1t11 1q5 -1 10 -1t10 -1q5 -5 7 -6t7 -1q7 0 13 -6l4 -1q9 -9 13 -10.5t6 -0.5
t2 0v-8l5 -50q1 -1 1 -7v-8q0 -13 -3.5 -25t-7.5 -24t-6.5 -24t0.5 -25l-12 -8q-9 15 -17 17.5t-13.5 -0.5t-8.5 -9t-4 -9q-8 -4 -9 -12l-27 39q3 13 0.5 25t-6.5 24t-7.5 24t-3.5 25q0 3 0.5 8.5t1.5 6.5l10 5q0 8 -4 12.5t-7 8t-3 8.5q0 6 9 15zM135 548q-7 13 -12 26.5
t-9 26.5q4 7 2.5 13.5t-4 13.5t-4.5 13.5t1 12.5l5.5 11t4.5 10v-7q16 0 26 6t16 14q3 -4 4.5 -8.5t4 -9t6.5 -7.5t12 -3q-1 2 -1 7q1 -2 10 -3t19 -2t18.5 -2.5t10.5 -4.5q2 -6 -6.5 -14t-19.5 -16t-19 -16t-4 -15q-2 -6 3 -11.5t11 -10.5t10.5 -10.5t1.5 -11.5
q0 1 -3.5 -2.5t-7.5 -8l-8 -9t-5 -5.5l16 14l-52 -10l-17 8q0 -3 -9 -6.5t-9 -5.5q-2 1 -0.5 5t3.5 8.5t3.5 7.5t1.5 2zM247 689q10 0 10 -14v-4q-10 7 -10 18zM263 569v-20h-4v4q2 4 2.5 9.5t1.5 6.5zM107 570q1 -1 1.5 -6.5t2.5 -9.5v-4h-4v20zM157 466q0 1 -10.5 -0.5
t-23.5 -3.5t-23.5 -3.5l-10.5 -1.5q2 0 3 -3.5t-3 -3.5q-5 0 2.5 5.5t20 10.5t26 6.5t19.5 -6.5z" />
    <glyph glyph-name="FL0039h" unicode="9" horiz-adv-x="343" 
d="M136 169q-1 9 -7.5 21.5t-13.5 26t-13 26t-6 22.5q-28 3 -43 0.5t-21.5 -8t-6.5 -12.5t2 -13l26 -101q0 -4 3 -12t7.5 -16t9 -14t7.5 -6l5 -1l36 3h8q8 -1 10.5 -8t11.5 -9q24 -3 46 10t40.5 35t33.5 50.5t26.5 57.5t18 56t8.5 46q5 41 1.5 78t-1.5 76q-11 11 -13.5 28
t-1.5 35.5l2 37t-4 31.5l-18 24q-3 7 -4 20.5t0 18.5l-8 1l-1 -14h-7q-2 2 -7.5 14.5t-12 26.5t-13 26t-10.5 14q-11 2 -20.5 0.5t-14.5 11.5q-5 12 -9 17.5t-9.5 9t-12 8t-15.5 14.5q-10 -4 -13 -15t-4.5 -23t-4.5 -22t-13 -12v13q0 11 -1.5 22t-5.5 20t-13 10
q-8 1 -18 -17t-19 -42t-15.5 -48t-7.5 -35l-1 -12q-1 -9 -1 -15t-1 -15l-1 -6q-2 -35 -4 -87.5t-4 -99.5q13 -36 40.5 -56t61 -28t67.5 -5t60 15v-6q-2 -20 -7 -48.5t-15 -55.5t-24.5 -48.5t-36.5 -27.5q-5 -2 -15.5 3t-12.5 9zM142 660h7t13.5 -1t13.5 -1.5t7 -0.5
q9 -1 10.5 -3t1.5 -6l-1 -11q0 -7 4 -15q0 -2 4 -10.5t8.5 -18.5t8.5 -19t5 -10q5 -6 9.5 -37t7.5 -72l-122 -7q-6 0 -5.5 16.5t4 41t8.5 53t9.5 52t6.5 38t0 11.5zM83 218l31 -46q-2 -19 -18 -18l1 11q1 6 -3.5 12t-10.5 11t-10.5 9t-4.5 7q1 13 4.5 14l3.5 1zM132 132
q7 10 12.5 12t14.5 1q2 0 5.5 -1.5t5.5 -1.5q-8 -23 -27 -21l-4 1q-1 1 -7 10zM91 574l11 -1q0 -3 -1.5 -11.5t-4.5 -17t-7.5 -15t-11.5 -7.5v5q2 14 7 23.5t7 23.5zM292 526q8 -10 8 -21t-2 -22l-1 -10l-10 1zM158 91q4 0 4 -10q-1 -6 -6 -6q-6 0 -5 7q0 9 7 9zM252 630
l14 -1l-1 -7l-14 1z" />
    <glyph glyph-name="FL003Ah" unicode=":" horiz-adv-x="146" 
d="M13 105q1 5 5 18.5t9 28.5q5 16 8 29.5t4 19.5q12 3 31 2.5t34.5 -2.5t22 -5.5t-8.5 -6.5q-11 -2 -9.5 -8.5t7 -15.5t10.5 -20t2 -23q-3 -10 -9 -15t-12.5 -9.5t-12.5 -11.5t-10 -20q-6 1 -17.5 5t-23 9.5t-20.5 12t-10 12.5zM16 370q1 4 4 14t8 22t7 22l3 15q10 2 26 2
q17 0 30 -2t18 -4.5t-7 -4.5q-9 -2 -8 -7t5.5 -11.5t9.5 -15t2 -17.5q-3 -8 -8 -11.5t-10.5 -7.5t-11 -9t-8.5 -15q-5 1 -14.5 4t-19.5 7.5t-17.5 9t-8.5 9.5z" />
    <glyph glyph-name="FL003Bh" unicode=";" horiz-adv-x="146" 
d="M16 370q1 4 4 14t8 22t7 22l3 15q10 2 26 2q17 0 30 -2t18 -4.5t-7 -4.5q-9 -2 -8 -7t5.5 -11.5t9.5 -15t2 -17.5q-3 -8 -8 -11.5t-10.5 -7.5t-11 -9t-8.5 -15q-5 1 -14.5 4t-19.5 7.5t-17.5 9t-8.5 9.5zM11 -7q0 3 1.5 25t4 49.5t5 52t5.5 32.5q5 16 8 29.5t4 19.5
q12 3 31 2.5t34.5 -2.5t22 -5.5t-8.5 -6.5q-11 -2 -9.5 -8.5t7 -15.5t10.5 -20t2 -23q1 2 -10.5 -15t-23 -43t-17.5 -56t5 -54q-6 1 -17.5 5t-23 9.5t-20.5 12t-10 12.5z" />
    <glyph glyph-name="FL003Ch" unicode="&#x3c;" horiz-adv-x="276" 
d="M9 374q3 -3 14.5 -13t24.5 -22t23 -23t10 -17q-8 -2 -8 -8v-10q0 -2 3 -16t7.5 -30t9.5 -29.5t8 -14.5q15 -8 28.5 -23t26 -31.5t25.5 -32t27 -24.5l7 -3.5t6 -4.5l0.5 -1t1.5 -4q1 -5 2 -13t3 -10q2 -3 6.5 -11.5t6.5 -10.5q7 0 7 7q1 4 3 18.5t4.5 30.5t4.5 30t2 18v4
l-14 36q-10 31 -23 62t-26.5 62.5t-24.5 63t-17 64.5q-2 2 -4.5 5.5t-5.5 7.5q12 22 29.5 49t33 53.5t27 50t11.5 40.5v8q0 6 -0.5 11.5t-0.5 11.5v8q-5 11 -9.5 17.5t-15.5 6.5q0 -7 -0.5 -19t-2.5 -23.5t-6 -20t-11 -8.5q0 24 4.5 43t10.5 36t10.5 36t4.5 43
q-11 0 -18 -10.5t-10 -12.5q-14 -21 -27 -31.5t-23 -18.5t-15 -18.5t-3 -31.5v-83l-56 -95zM208 166v14q5 -8 13.5 -22t8.5 -28h-15q-1 0 -3 13.5t-4 22.5zM202 288q4 0 4 -7t-4 -7q-6 0 -6 7t6 7zM235 130q4 0 4 -7t-4 -7q-6 0 -6 7t6 7zM215 72q-5 0 -5 -7t5 -7t5 7t-5 7z
M241 108q5 0 5 -7t-5 -7q-4 0 -4 7t4 7zM215 260v-4v-4l-7 -7l-1.5 -0.5t-2.5 -0.5h-1q0 1 -1 1z" />
    <glyph glyph-name="FL003Dh" unicode="=" horiz-adv-x="329" 
d="M29 394q0 2 1 7t-1 7q1 0 -2 3.5t-6.5 8t-6.5 8.5t-3 5q0 5 5.5 9t12.5 4q29 3 48.5 5t33.5 2.5t23.5 -1.5t18.5 -6q39 -2 82.5 -7t78.5 -19l-9 -12q-4 0 -17 0.5t-26.5 -0.5t-24 -4t-10.5 -9q0 -13 21 -20q-7 -5 -18 -6.5t-23 -1.5h-21h-9q-3 0 -5 1l-9 -13zM39 267
q0 2 1 4.5t-1 4.5q1 0 -1.5 2t-6 5t-6 5.5t-2.5 3.5q0 2 5 5t11 3q27 2 45.5 3t31 1.5t21.5 -0.5t17 -4q36 -2 76.5 -5t72.5 -11l-8 -8q-8 0 -8.5 -9.5t-0.5 -17.5q0 -2 -8.5 -0.5t-18 3.5t-16 3t-1.5 0q-13 -5 -38 -5h-19q-11 0 -13 1l-9 -8z" />
    <glyph glyph-name="FL003Eh" unicode="&#x3e;" horiz-adv-x="276" 
d="M261 422q-3 3 -14.5 12.5t-24.5 21.5t-23 23.5t-10 17.5q8 2 8 8v10q0 2 -3.5 16t-8 30t-9 29.5t-7.5 14.5q-15 8 -28.5 23t-26 31.5t-25.5 32t-27 24.5l-7 3.5t-6 4.5l-0.5 1t-1.5 4q-1 5 -2 13t-3 10q-2 3 -6.5 11.5t-6.5 10.5q-7 0 -7 -7q-1 -4 -3 -18.5t-4.5 -30.5
t-4.5 -30t-2 -18v-4l14 -36q10 -31 23 -62t26.5 -62.5t24.5 -63t17 -64.5q2 -2 4.5 -5.5t5.5 -7.5q-12 -22 -29.5 -49t-33 -53.5t-27 -50.5t-11.5 -40v-8q0 -6 0.5 -11.5t0.5 -11.5v-8q5 -11 9.5 -17.5t15.5 -6.5q0 7 0.5 19t2.5 23.5t6 20t11 8.5q0 -24 -4.5 -43t-10.5 -36
t-10.5 -36t-4.5 -43q11 0 18 10.5t10 12.5q14 21 27 31.5t23 18.5t15 18.5t3 31.5v83l56 95zM62 630v-14q-5 8 -13.5 22t-8.5 28h15q1 0 3 -13.5t4 -22.5zM68 508q-4 0 -4 7t4 7q6 0 6 -7t-6 -7zM35 666q-4 0 -4 7t4 7q6 0 6 -7t-6 -7zM55 724q5 0 5 7t-5 7t-5 -7t5 -7z
M29 688q-5 0 -5 7t5 7q4 0 4 -7t-4 -7zM55 536v4v4l7 7l1.5 0.5t2.5 0.5t1 -1h1z" />
    <glyph glyph-name="FL003Fh" unicode="?" horiz-adv-x="216" 
d="M116 739q-1 5 -7 5t-7 -5q-2 -3 2 -3h5q8 0 7 3zM125 790q0 11 3 14.5t14 3.5q20 0 37 -27q1 -20 5.5 -40t9 -39.5t8.5 -39.5t4 -39q0 -36 -7.5 -80t-20 -88t-29 -84t-33.5 -68q-9 0 -15.5 -5.5t-11.5 -12t-10 -12.5t-11.5 -6.5t-15 7.5t-20.5 29v6q0 6 -3 8t-3 12
q0 19 10 32t18 27q15 30 31 65t29.5 72t22 75t7.5 73l-2 0.5t-4 0.5q-13 0 -31 -11t-25 -24q-2 -6 -5 -20t-6 -30t-6 -30t-4 -20q-2 -6 -4.5 -16.5t-5.5 -20t-7.5 -16.5t-10.5 -7q-13 0 -13 16v10q0 6 2.5 21t4.5 21q-2 6 -6 7t-7.5 2t-6.5 2.5t-3 8.5q0 2 0.5 3l0.5 1
l15 26v4q0 14 -4.5 22.5t-4.5 22.5q0 9 3 34t9 52t14.5 47.5t19.5 20.5q6 0 12 -7t11.5 -15t9.5 -15t7 -7h5q1 0 7.5 1t13.5 2.5t13.5 3t7.5 2.5l-28 16v9h9zM89 806h15q0 -7 -3.5 -12t-9.5 -5q-1 0 -1.5 0.5l-0.5 0.5v16zM12 79q1 5 5 18.5t9 28.5q5 16 8 29.5t4 19.5
q12 3 31 2.5t34.5 -2.5t22 -5.5t-8.5 -6.5q-11 -2 -9.5 -8.5t7 -15.5t10.5 -20t2 -23q-3 -10 -9 -15t-12.5 -9.5t-12.5 -11.5t-10 -20q-6 1 -17.5 5t-23 9.5t-20.5 12t-10 12.5z" />
    <glyph glyph-name="FL0040h" unicode="@" horiz-adv-x="481" 
d="M152 263q0 -4 2.5 -12.5t7 -17t12 -15t17.5 -6.5h3q-5 9 -10.5 18t-5.5 17v5q0 4 6 4q5 -2 9 -6.5t7.5 -9t8 -8t11.5 -3.5q8 0 10 1.5t10 1.5v-2q1 0 1 -1l-15 -10h-1t-1 -2q0 -4 4.5 -4.5t9.5 -0.5q12 0 29.5 7.5t34 18t28 21.5t13.5 17q0 3 -1 7q13 -2 32.5 1.5
t48.5 13.5v20h10v-11v-6q6 2 12 4.5t14 5.5q2 43 7 91.5t5 94.5q0 21 -4 51.5t-12.5 64t-21 66.5t-29 59.5t-37 43t-45.5 16.5q-9 0 -17.5 10t-16.5 12v9t1 9q1 11 -3 3.5t-9 -21.5l-30 6q-1 8 -3.5 15.5t-8.5 11.5q-10 -11 -17 -15t-13 -7.5t-10.5 -9t-10.5 -18.5
q-3 -7 -6.5 -9t-8.5 -1.5t-10 1.5t-11 1q-4 -2 -11.5 -14.5t-15.5 -27.5t-14.5 -27.5t-8.5 -14.5h-7v16h-8q0 -7 -2 -22t-5 -20l-21 -25q-6 -14 -7 -34.5t-1.5 -41t-4.5 -39t-16 -29.5q-2 -43 -7 -91.5t-5 -94.5q0 -21 4 -51.5t12.5 -64t21 -66.5t29 -59.5t37.5 -43
t45 -16.5q9 0 18 -11t17 -11h8l36 -7h5q3 0 22.5 6t41.5 14t39.5 16t16.5 12l-32 110q-1 -2 -14 -5t-31.5 -7t-40.5 -8t-41.5 -7l-32.5 -5t-15 -1q-14 6 -23.5 22.5t-16 39t-10 48.5t-5 51.5t-2 48t-0.5 37.5q0 7 1.5 24.5t4 39.5t6 46.5t7 45.5t6.5 35.5t5 17.5q1 1 5.5 6
t9.5 10.5t9 10.5t5 7q5 8 5 15v11q0 5 2 7.5t11 2.5q5 0 10 -3q8 8 18 9.5t20 4.5t20 10.5t18 27.5q18 1 37.5 0.5t23.5 -2.5q21 -9 32 -39.5t16.5 -68.5t6 -75.5t0.5 -59.5q0 -11 -6 -24.5t-13 -24.5q-1 19 -4 38t-10 33q-6 6 -14 6.5t-8 10.5q0 7 5.5 8.5t5.5 9.5
q0 3 -3 6t-3 7v3q2 0 4 2.5l2 2.5q0 3 -10.5 11t-23 17t-23.5 16t-12 7q-20 0 -33 -7t-22.5 -17t-16 -21t-13.5 -19q-3 -3 -7.5 -4t-10 -3t-11 -6t-8.5 -13q-5 -20 -10 -42t-5 -44q0 -1 0.5 -5.5t0.5 -6.5l6 8q0 2 -0.5 4t-0.5 6q1 0 7 -3t8 -1t4.5 6.5t1.5 7.5q6 -2 5.5 -9
l-0.5 -7v-8l-31 -27l-0.5 -1t-0.5 -2q0 -7 6.5 -11t8.5 -10v-19q1 -5 5.5 -12.5t9 -15.5t8.5 -15.5t4 -13.5q-2 0 -5 1.5t-5 1.5h-3q-8 0 -8.5 -5.5t-0.5 -7.5zM209 399q0 13 3.5 24.5t8 23t8.5 23t5 24.5l-2 6t-2 7v1q0 2 4 4.5t9 4t10.5 2.5t7.5 1q9 -1 13.5 -6.5t6.5 -13
t2.5 -14t2.5 -9.5q2 -8 9.5 -10t7.5 -10v-6q0 -4 -6 -4q0 -33 -3.5 -71.5t-11.5 -73.5q-2 -2 -5.5 -7.5t-8 -11.5t-10 -10.5t-10.5 -4.5q-6 0 -9 6t-5 9q-8 27 -16.5 57t-8.5 59zM298 730q4 7 7 10h4q20 0 25 -26q-2 0 -5.5 -0.5t-5.5 -0.5q-9 0 -14.5 3t-10.5 14zM187 97
q-5 -8 -7 -10h-4q-20 0 -25 26q2 0 5.5 0.5t5.5 0.5q9 0 14.5 -3t10.5 -14zM338 259q-2 -1 -8.5 -5t-13 -8.5t-12.5 -8.5t-7 -5q-4 -3 -7.5 -6t-3.5 -7q6 0 9 -0.5t8 3.5q5 5 14 13.5t14.5 14l6.5 6.5v3zM62 567v-58h-10v11q0 11 1 23.5t9 23.5zM196 554q-14 0 -18.5 -6.5
t-4.5 -14.5q14 0 18.5 7t4.5 14zM423 260q7 9 8.5 19.5t1.5 21.5q-4 -1 -10 -3v-38zM251 561h4q2 0 6 -1t5 -2q-2 -4 -12.5 -6t-12.5 -2l-0.5 0.5t-0.5 2.5l1 1zM158 55q6 0 6 -10q0 -7 -6 -7q-5 0 -5 7q0 10 5 10zM327 772q-6 0 -6 10q0 7 6 7q5 0 5 -7q0 -10 -5 -10z
M111 656v-8l-13 20v9zM282 550h3q6 0 12.5 -2.5t6.5 -7.5q-8 0 -13.5 4t-8.5 6zM336 416q0 2 1 4t1 4q5 -3 5 -4v-13q-6 1 -6.5 4t-0.5 5zM324 280q0 -2 -2 -5t-8 -3l-1 1q1 3 2.5 5t8.5 2zM338 450q4 0 4 -3q0 -4 -4 -4t-4 4q0 3 4 3zM128 390q-3 0 -3 -2q0 -3 3 -2t3 2
q0 2 -3 2zM347 378h-1q-2 0 -3 2t3 2q1 0 3 -2zM261 242v-3h-6z" />
    <glyph glyph-name="FL0041h" unicode="A" horiz-adv-x="341" 
d="M236 751q-1 4 -7 6t-13.5 3t-15 1.5t-11.5 0.5q-3 -9 -5.5 -11.5t-5.5 -3t-5.5 -2t-4.5 -8.5q-5 -17 -2 -31t0 -31q0 -6 -2.5 -7.5t-6 -2.5t-7.5 -1t-6 -3q-3 -4 -6.5 -12.5t-7.5 -18t-7 -18.5t-4 -13l-4 -13q-2 -9 -5 -20.5t-8 -25.5l-8 -27l-6 -25q-4 -14 -6.5 -25.5
t-4.5 -19.5l-3 -15l-9 -3l-1 -6l-6 -22l-3 -11l-10 -35q-7 -25 -11.5 -47t-8.5 -52l19 8l-31 -113q-1 -4 4 -7.5t10 -5.5q1 0 7 1t13.5 3l7.5 2q2 0 2.5 -1t2.5 -1l1 -1.5t-1 -3.5l-8 -4l-1 -3v-3q2 -2 3 -3.5t3 -1.5l1 -1t2 -1q4 0 11 3.5t12 3.5l5 17q6 24 10 48t9 49
l55 -20l7 12q2 -1 11 -1h16q14 0 23 4q3 -18 4 -31.5t-1 -18.5q-2 -7 -11 -12t-11 -14q-2 -7 -1.5 -11.5t11.5 -6.5q7 -1 11 1t7 4t5.5 3.5t8.5 0.5q-2 -6 -5 -16t-4.5 -20t2 -18.5t15.5 -11.5l4 -1l4 2l4 2q15 29 23.5 57.5t14.5 58.5q9 3 16.5 8t9.5 13l1 3
q-18 36 -28 68.5t-18.5 63t-18 60.5t-27.5 60q4 8 3.5 31t-3 49.5t-5.5 50.5t-4 34l-6.5 19.5t-2.5 20.5q1 5 3 14.5t6 20.5q3 11 6 21t4 14zM205 294q-12 2 -25 3.5t-24 3.5q-12 6 -28 6q8 21 15.5 42t12.5 43q3 8 1 15t0 16q5 14 8.5 23t13.5 24q5 -9 2.5 -18.5
t-0.5 -20.5q0 -6 1.5 -19.5t3 -29.5t2.5 -29.5t1 -19.5q8 -7 16 -39zM147 606l-7 -5l12 43l7 3zM218 239q-8 5 -8 15q0 5 4 6l2 -10t2 -11z" />
    <glyph glyph-name="FL0042h" unicode="B" horiz-adv-x="288" 
d="M197 444q-2 3 -3 3q-3 0 -4 -2.5t4 -2.5t3 2zM50 144q-2 3 -3 3q-2 0 -3.5 -3t3.5 -3q4 0 3 3zM74 749h-11q2 2 4.5 3.5t6.5 1.5v-5zM173 541q-2 -1 -3 -6.5t-3 -7.5v-4h6v18zM150 642q0 -8 13 -16v4q0 5 -2.5 8.5t-10.5 3.5zM147 613q-5 4 -10.5 9t-10.5 10q1 -9 -2 -18
t-7 -16.5t-7 -13t-3 -8.5v-26q0 -4 4 -8t9 -7.5t9.5 -7t5.5 -6.5q9 11 16 22.5t12 22.5q-5 6 -6.5 12.5t-2 12.5t-2 11.5t-5.5 10.5zM142 436q-5 2 -9 3t-9 1q-6 0 -9.5 -1t-8.5 -6v17q-4 -2 -10 -6q2 -6 4 -13.5t3 -7.5h14v-207q0 -3 3 -4t7 -2t7.5 -3t4.5 -7l37 33
q-4 11 -1 21t8.5 20.5t10.5 20.5t5 21q0 2 -0.5 6.5t-1.5 5.5l-14 5q0 6 -1.5 19.5t-5 29t-10.5 29.5t-19 22l-5 -7v10zM58 739q2 -1 6.5 -4t8.5 -6q2 -1 6 -2.5t6 -3.5l2 2v4l0.5 -0.5t1.5 -0.5q5 5 6 11.5t1 12.5h11l10 -8.5t14 -13.5q17 -18 33 -39t29.5 -42.5t23.5 -42
t15 -36.5v-21q0 -8 -6 -16.5t-13.5 -16.5l-15 -16t-11.5 -14l57 -42q-2 -8 -1 -12.5t3 -8t4 -8t2 -10.5q0 -5 -1.5 -8t-6.5 -8q9 2 14 0t7.5 -6.5t3.5 -10.5t1 -11q0 -6 2 -12q2 -2 8.5 -5t7.5 -5q0 -1 0.5 -4t0.5 -5t-0.5 -4.5t-0.5 -3.5q-1 -2 -4.5 -7.5t-7 -12t-7 -12
t-4.5 -7.5q-9 -18 -9 -38v-20q0 -5 0.5 -10t1.5 -10q-9 -6 -14 -10.5t-9.5 -8t-10.5 -7t-18 -7.5q-10 -3 -27 -15t-33.5 -24.5t-28.5 -23t-13 -10.5h-60q-3 0 -9.5 7.5t-13 17t-11 18t-4.5 9.5q0 12 3.5 23t8 21.5t8.5 21.5t4 23q0 19 -8.5 28.5t-8.5 20.5q0 2 0.5 3.5
l0.5 1.5l15 -5q0 8 -0.5 25t-0.5 40v92q0 23 0.5 40t0.5 25q0 6 0.5 16.5l1 21t1.5 20.5t2 15q-2 5 -3.5 10t-1.5 13q0 21 0.5 39t4.5 42q-2 0 -3.5 3.5t-3.5 8t-3 8.5t-1 5q0 9 10.5 18t21.5 9q1 0 2.5 -0.5zM56 396q0 -2 -1.5 -13.5t-3 -25t-3 -25.5t-1.5 -15q0 -8 6 -13
t6 -7v-1q-1 -2 2 -1t6.5 4t7 8t3.5 10q0 9 -10 15.5t-10 8.5z" />
    <glyph glyph-name="FL0043h" unicode="C" horiz-adv-x="309" 
d="M187 743q33 -58 50.5 -84.5t25 -34t7 -2t-3.5 12.5v160q0 4 -3.5 12t-9 16.5t-10.5 14.5t-8 6h-5l-36 -7h-8q-8 0 -11 8t-12 8q-25 0 -45.5 -16.5t-37 -43t-29 -59.5t-21 -66.5t-12.5 -64t-4 -51.5q0 -46 5 -94.5t7 -91.5q12 -11 16 -29.5t4.5 -39t1.5 -41t7 -34.5
l21 -25q3 -5 5 -20t2 -22h8v16h7q2 -2 8.5 -14.5t14.5 -27.5t15.5 -28t11.5 -14q6 0 11 1t10 1.5t8.5 -1.5t6.5 -9q6 -14 10.5 -19t10.5 -8.5t13 -7.5t17 -15q9 6 11 18.5t2.5 26t2.5 25t12 14.5q0 -3 4.5 -18.5t9.5 -30.5t9 -23t3 3q-4 56 -10 89.5t-14.5 52t-18 25.5
t-19.5 9.5t-19.5 4t-17.5 9.5q-5 -3 -10 -3q-9 0 -11 2.5t-2 7.5v11q0 7 -5 15q-1 2 -5 7t-9 10.5t-9.5 10.5t-5.5 6q-3 4 -5.5 33.5t-4 65.5t-2.5 68.5t-1 43.5q0 22 -2 59.5t0 74.5t10.5 67.5t29.5 39.5q5 2 15.5 -1.5t13.5 -8.5zM209 642v101q0 22 16 22v-12
q0 -14 -1 -30t-1 -22q0 -9 -2 -23.5t-3.5 -24t-1.5 -11.5h-7zM187 785q-5 -11 -10.5 -14t-14.5 -3q-2 0 -5.5 0.5t-5.5 0.5q5 26 25 26h4q2 -3 7 -10zM62 315q-8 11 -9 23.5t-1 23.5v11h10v-58zM158 827q-5 0 -5 10q0 7 5 7q6 0 6 -7q0 -10 -6 -10zM111 226l-13 -21v9l13 20
v-8z" />
    <glyph glyph-name="FL0044h" unicode="D" horiz-adv-x="319" 
d="M140 49h-8l-34 -8h-5q-3 0 -8 6t-10 14.5t-8.5 16.5t-3.5 13v159q-6 14 -9.5 30.5t-15.5 19.5v-83l-9 8q0 2 -1.5 23.5t-3.5 59t-4 78.5l-4 82t-2 69v6q0 10 -0.5 16.5t-0.5 16.5v14q0 8 0.5 28t1.5 46t3 54t4.5 51.5t6.5 38.5t9 15q9 0 14 -9.5t7.5 -21.5t3 -23.5
t0.5 -14.5q9 3 11.5 14.5t3 25t2 26t10.5 18.5q10 -11 17 -15t12.5 -7t10 -9t9.5 -19q3 -6 6.5 -8t7.5 -2q5 0 10.5 1t10.5 0q4 -1 11 -13.5t14.5 -27.5t14 -27.5t8.5 -14.5h7v16h8q0 -6 2 -20.5t5 -21.5l20 -24q6 -14 7 -34.5t1.5 -41.5t4 -39.5t15.5 -28.5q2 -43 8 -83.5
t6 -85.5q0 -21 -4 -51.5t-12 -64t-20 -66.5t-28 -59.5t-36 -43t-43 -16.5q-9 0 -12 8.5t-11 8.5zM167 58q-5 0 -5 -9q0 -8 5 -8t5 8q0 9 -5 9zM139 100q5 -8 7 -9h4q20 0 24 25q-2 0 -5 1t-5 1q-9 0 -14.5 -3.5t-10.5 -14.5zM119 243h-7q0 -1 -1.5 -11t-3.5 -24.5t-2 -23.5
q0 -6 -1 -21.5t-1 -30.5v-11q16 0 16 21v101zM139 142q3 -4 13 -8t15 -2q20 9 32.5 40t19 68.5t8.5 75t2 60.5q0 7 -2.5 24.5t-6 40t-8.5 47t-9.5 45.5t-8.5 36t-6 17q-1 1 -5.5 6t-9 11t-8.5 10.5t-5 6.5q-5 10 -5 15v12q0 5 -2 7t-11 2q-4 0 -10 -2q-2 -41 -3 -73.5
t-2.5 -62.5t-2 -60t-0.5 -66v-15q0 -10 0.5 -18t0.5 -18v-6q1 -11 2.5 -38.5t3.5 -58.5t4 -58.5t4 -37.5zM79 511q0 -15 -4.5 -27t-4.5 -28v-4q7 1 10.5 9t5.5 17.5t2.5 19t0.5 13.5h-10zM257 553v-59h10v12q0 11 -1 24t-9 23zM209 662v-8h13v8h-13z" />
    <glyph glyph-name="FL0045h" unicode="E" horiz-adv-x="266" 
d="M51 138q0 20 8 42t8 47q0 14 -3 21.5t-19 18.5q-1 10 -2.5 36t-2.5 55t-1.5 55t-0.5 37q0 3 0.5 9t-0.5 8l-2 5t-5 11t-5 11t-2 6q0 6 4.5 11.5t9.5 5.5l-7 168q-1 1 -5 16t-8 32.5t-7 33t-3 18.5q0 2 6 7t14 10.5t15 10t9 5.5q3 1 11 3t17.5 3t18 2t11.5 1
q-1 13 2.5 15.5t11.5 2.5q1 0 7 -4t12 -9.5t11 -10.5t5 -7h66q3 0 6 -5t5.5 -11t3.5 -12.5t1 -9.5h-55l-5 -12.5t6 -8.5l16 -4t8 -12v-4q-3 -4 -5.5 -8.5l-2.5 -4.5h-64q-5 0 -8.5 -20t-5 -45.5t-2 -50t-0.5 -33.5v-28t9 -28q29 -4 62 -9.5t59 -24.5l-7 -16q-3 0 -12.5 0.5
t-20 0t-18.5 -4t-8 -12.5q0 -17 16 -27q-5 -5 -13.5 -7.5t-17.5 -2.5h-16q-9 0 -11 1l-6 -15v-151q0 -4 -3 -13t-7 -18.5t-7.5 -17.5t-4.5 -9l7 -9q21 7 36.5 8.5t32.5 1.5h25h7q5 0 10.5 -0.5t10.5 -0.5h7q6 -4 7 -7.5t1 -8.5q0 -4 -0.5 -6.5t-0.5 -3.5q-2 -1 -10 -3.5
t-17 -6.5t-18 -9.5t-12 -12.5q-2 -3 -0.5 -7.5l1.5 -4.5h28v-13q0 -9 -9.5 -13.5t-23.5 -8l-30 -7.5t-28 -10.5t-17.5 -17.5t0.5 -28q-1 0 -3 -0.5t-4 -0.5q-1 0 -7.5 6t-14.5 13.5t-16.5 14t-12.5 8.5q-8 4 -11 12.5t-4 19.5t-0.5 22t0.5 20z" />
    <glyph glyph-name="FL0046h" unicode="F" horiz-adv-x="310" 
d="M69 735q-1 0 -2 0.5l-1 0.5q-2 2 -4.5 6.5t-3.5 6.5q-2 0 -4.5 -2.5t-2.5 -3.5q0 -2 4 -6t3 -6t-7 -6t-7 -6v-24q-2 -5 -6.5 -13t-6.5 -12v-78q-12 -2 -14 -7.5t0.5 -12.5t6 -15t3.5 -16q0 -14 1 -26.5t3 -26.5q-7 -4 -7 -11q-1 -1 3 -6t7 -10q1 -8 1.5 -15.5t0.5 -15.5
v-12q0 -12 -1.5 -24.5t-6.5 -22.5q-1 -2 -7 -3.5t-8 -2.5l-7 -5q8 -66 9.5 -125t5.5 -127q1 -2 3 -3.5t4 -3.5l1 -0.5t2 -0.5q12 0 20.5 5.5t16 12t13.5 12t13 5.5q0 -1 -1.5 -7.5t-2 -13.5t1.5 -13t10 -6q1 0 2.5 0.5l1.5 0.5q6 4 7 5q-5 81 -4 158t3 156l25 -9l7 11h11h16
q9 0 17 1t13 6q-15 6 -15 19q0 6 8 8t18 3t19.5 0.5t12.5 -0.5l7 12q-26 13 -59 17t-62 6l-8 4t-8 3q3 78 3 157q0 5 -0.5 11l-0.5 6q0 2 -4 6t-3 6q1 3 6 7.5t7 5.5q1 0 9 -1t18 -2t18.5 -2t9.5 -1h13h8q2 2 5.5 10.5t1.5 13.5h50q0 1 5.5 6t13 11t14.5 12t9 8q-2 4 -9 7.5
t-12 3.5h-104q3 -2 3 -6q0 -5 -5 -5q-6 0 -6 5q0 4 2 6h-64q-3 -5 -13.5 -13.5t-15.5 -11.5l-1.5 -0.5t-2.5 -0.5zM39 297q0 16 9 33q6 -4 8 -7v-6q-2 -5 -4 -12.5t-13 -7.5zM122 743q-5 0 -5 6t5 6h6q6 0 11.5 -1t10 -2t4.5 -2q0 -2 -4.5 -3.5t-10 -2l-11 -1t-6.5 -0.5z
M65 667q0 1 0.5 2l0.5 1q1 3 7 7q0 -1 0.5 -1.5t0.5 -1.5t-0.5 -2.5l-0.5 -1.5l-7 -5q0 1 -0.5 1.5zM99 497h-8q0 4 8 6v-6zM170 761h-4h6h-2z" />
    <glyph glyph-name="FL0047h" unicode="G" horiz-adv-x="343" 
d="M212 724q1 -11 2 -26.5t1.5 -32t0.5 -32.5v-26q28 -4 43 -1.5t22 8.5t7 14t-3 15l11 124q0 4 -3 13t-7.5 18t-9.5 16t-8 7l-5 1l-36 -3h-8q-8 1 -10.5 9t-11.5 10q-37 4 -68 -28.5t-54 -80t-36.5 -98t-16.5 -82.5q-5 -47 -1.5 -88.5t1.5 -86.5q11 -12 13.5 -31.5
t1.5 -40.5t-2 -41.5t4 -34.5l18 -29q1 -4 2 -10t1.5 -12.5t0.5 -12.5v-8l8 -2l1 16h8q2 -3 7.5 -17t12 -30t13 -30t10.5 -15q11 -2 20.5 -0.5t14.5 -13.5q4 -14 8.5 -20t10 -10t12.5 -9t16 -16q10 4 13 16.5t4.5 26t4.5 25t13 14.5q0 -4 -0.5 -15.5t1 -24t6 -23t13.5 -11.5
q8 -1 18 19.5t19 47.5t16 54t8 39l1 14q1 11 1 18t1 18l1 6q1 19 2 45t2 54t2 57t2 55q-23 -6 -54.5 -9t-60 -4.5t-48 -2t-18.5 -1.5l53 -59q13 -15 22 -22t14 -11.5t5.5 -10.5t-3.5 -20t-13 -39t-22 -68q-1 -1 -7.5 -0.5t-13.5 1.5t-13.5 2t-7.5 1q-9 1 -10.5 3t-1.5 7
l1 11q0 10 -4 19q0 1 -4 6.5t-8.5 12t-8.5 11.5t-5 7q-2 3 -5 18t-5.5 37t-5.5 48t-5 49.5t-3.5 42t-0.5 25.5q1 15 4 37.5t7.5 47.5t11.5 51t16 48t20.5 37.5t26.5 19.5q5 2 15.5 -3.5t12.5 -9.5zM229 661l5 60q2 21 18 20l-1 -13q-2 -14 -4 -30t-3 -21q-1 -15 -4.5 -16.5
l-3.5 -1.5zM257 264l-11 2q0 4 1.5 13t4.5 18.5t7.5 17.5t11.5 9v-6q-2 -15 -7 -26.5t-7 -27.5zM216 766q-7 -11 -12.5 -13.5t-14.5 -1.5q-2 0 -6 1.5t-6 1.5q9 26 28 24l4 -1q2 -1 3.5 -4zM54 319q-8 11 -8 24t2 25l1 12l10 -2zM190 812q-4 0 -4 11q1 8 6 8q7 0 5 -9
q0 -10 -7 -10zM95 201l-14 1l1 8l14 -1z" />
    <glyph glyph-name="FL0068h" unicode="H" horiz-adv-x="320" 
d="M246 678q-1 7 -4.5 11t-8.5 7t-10.5 6t-10.5 8q-4 7 -5 11.5t-2 7.5t-4.5 5.5t-12.5 5.5v-88q2 -3 7 -11.5t5 -10.5t-2.5 -5.5t-3.5 -5.5v-6l13 -10q1 -3 1.5 -11t1.5 -17.5t1.5 -18t0.5 -11.5q0 -2 -0.5 -8.5t-1.5 -14l-2 -15t-1 -11.5q-20 5 -39.5 7.5t-37.5 4.5v17v19
q-9 5 -11.5 14t-2.5 19v11q0 4 0.5 10.5t0.5 8.5q1 9 2.5 23.5t3 24t1.5 11.5l-27 76q2 5 4.5 12t2.5 11q0 2 0.5 5.5l0.5 3.5q-18 0 -33 -8t-20 -24q-5 -20 -9.5 -34t-5.5 -24.5t2.5 -17.5t12.5 -14v-24q-1 -9 -2 -23.5t-2 -28t-2 -23l-1 -9.5l-8 -6q-2 -16 -6 -29h-1
q-5 0 -9.5 -5t-4.5 -10q-1 -1 2 -6.5t6 -10.5q-1 -5 -1 -9v-9v-12q0 -4 8 -10q0 -7 -0.5 -19.5t-0.5 -26.5t0.5 -26t0.5 -20q0 -2 1 -10.5t2 -17.5t2 -17.5t1 -10.5q0 -3 -0.5 -12t-1.5 -19t-2 -19t-2 -12l-13 -11v-6q1 -2 3.5 -6t2.5 -6t-5 -11t-7 -12v-95q9 3 12.5 5.5
t5 6.5t2 8.5t5.5 12.5q5 6 10.5 8.5t10.5 5.5t8.5 7.5t4.5 12.5q8 -4 12.5 -14.5t6.5 -13.5h4q8 0 9 3.5t1 8.5v6l1 5t2.5 11t2.5 11t1 6q0 7 0.5 18t0.5 25t-0.5 25.5t-0.5 16.5q13 4 16.5 9.5t3.5 12.5v11q0 14 -3.5 28t-3.5 29v32q0 16 1 33l6 -2l7 14q2 -1 11 -1h16
q9 0 17.5 2t13.5 7q-16 7 -16 22q0 7 7.5 10t18.5 4v-16q0 -13 0.5 -24.5t0.5 -18.5q-8 -5 -8 -9v-11q0 -20 5.5 -37.5t7.5 -36.5l8 -5l1 -9t2 -22l2 -26t2 -22v-22q-9 -6 -12 -13t-2 -16.5t5 -22.5t9 -32q5 -15 19.5 -22.5t32.5 -7.5l-0.5 3t-0.5 5q0 4 -2.5 10.5
t-4.5 11.5l27 71q0 1 -1.5 10.5t-3 23t-2.5 21.5q0 2 -0.5 8t-0.5 9v11q0 9 2.5 17.5t10.5 13.5v17q0 45 -2.5 85.5t-2.5 82.5q0 14 3 27t3 26v11q0 6 -3.5 11t-15.5 9q0 5 0.5 15.5t0.5 23.5q0 14 -0.5 24t-0.5 16q0 1 -1 6t-2.5 10.5t-2.5 10l-1 4.5v6q0 4 -1 7.5t-9 3.5
h-4q-2 -3 -6.5 -12.5t-11.5 -13.5zM64 175l-19 -16q-2 -4 -5 -11t-3 -11h-6q1 2 1 4v5v9q0 14 4.5 20.5t20.5 11.5q3 -1 6 -5t1 -7zM239 652q2 -3 -1 -7t-6 -4q-16 4 -20 10.5t-4 18.5v9q0 5 -1 8h5q0 -3 3 -10t5 -10zM91 94q0 1 -0.5 2l-0.5 1l-6 5l-1 0.5t-2 0.5
q-9 0 -10 -7.5t-1 -12.5q5 0 13 1t8 10zM265 727q0 8 -7.5 9.5t-12.5 1.5q0 -5 1 -12t9 -7q1 0 2 0.5l1 0.5l6 4l0.5 1t0.5 2zM227 328h-7v33h7v-33zM62 255h9v-11q-9 3 -9 11zM246 577h-9q0 8 9 10v-10zM45 522h7v-10q-5 0 -7 -1v11z" />
    <glyph glyph-name="FL0049h" unicode="I" horiz-adv-x="156" 
d="M81 101q-8 -4 -12.5 -16.5t-6.5 -15.5h-4q-8 0 -9 4t-1 10v6q0 1 -1 6.5t-2.5 12.5t-2.5 13t-1 8q0 8 -0.5 21t-0.5 30q0 16 0.5 30t0.5 19q-13 4 -16.5 11t-3.5 15v13q0 17 3.5 33t3.5 33q0 53 -3 104.5t-3 107.5v23q9 5 11.5 16.5t2.5 22.5v13q0 5 -0.5 12.5t-0.5 9.5
q-1 11 -2.5 28t-3 28.5t-1.5 13.5l27 89q-2 6 -4.5 14.5t-2.5 12.5t-0.5 7.5l-0.5 3.5q18 0 33 -9.5t20 -28.5q5 -24 9.5 -40.5t5.5 -28.5t-2.5 -20.5t-12.5 -15.5v-13v-16q1 -11 2 -27.5t2 -32.5t2 -27.5l1 -11.5l8 -6q2 -25 8 -47t6 -47v-14q0 -6 -8 -12q0 -8 0.5 -22.5
t0.5 -31.5t-0.5 -31.5t-0.5 -23.5q0 -2 -1 -11.5t-2 -20.5t-2 -20.5t-1 -12.5q0 -4 0.5 -14.5t1.5 -22.5t2 -22.5t2 -13.5l13 -13v-3v-5q-1 -2 -3.5 -6t-2.5 -8q0 -2 5 -12.5t7 -14.5v-111q-9 3 -12.5 6.5t-5 7.5t-2.5 9.5t-5 14.5q-5 7 -10.5 10.5t-10.5 7t-8.5 8
t-4.5 14.5zM61 39q0 1 0.5 2.5l0.5 1.5l6 5l1 0.5t2 0.5q9 0 10 -8.5t1 -14.5q-5 0 -13 1t-8 12zM88 134l19 -18q2 -5 5 -13.5t3 -13.5h6q-1 4 -1 6v5v11q0 16 -4.5 24t-20.5 13q-3 -1 -6 -5.5t-1 -8.5zM81 229v-13q9 3 9 13h-9zM100 543v-41h7v41h-7z" />
    <glyph glyph-name="FL004Ah" unicode="J" 
d="M215 427q0 -50 -4.5 -99t-16.5 -97q-2 -4 -12.5 -14.5t-19.5 -10.5q-6 0 -13 8t-14 18t-12 19.5t-7 12.5q-4 16 -6 27t-3 21t-2 21.5t-2 29.5l-94 -18v-8q0 -2 1 -9t2 -14.5t2 -14t2 -7.5q2 -13 5 -14.5l3 -1.5h13q0 -4 -1 -12t-2 -17t-2 -17t-1 -11q2 -10 18.5 -28.5
t39 -36.5t46.5 -31.5t41 -13.5q6 0 12.5 1.5t6.5 8.5q0 1 -0.5 1.5l-0.5 0.5l-22 17q0 2 1 2.5t1 2.5q11 0 14 -3t13 -3h12t4 1.5t3 3.5t9 7q8 -2 8 -6v-8q0 -8 1.5 -10t2 -3t0 -3t-4.5 -9q1 0 2 -0.5t2 -0.5q14 0 24.5 11t17 25.5t9.5 28.5t3 20t-0.5 15.5t-11.5 9.5h-4
q-2 -1 -7 -2.5t-7 -3.5v2q0 9 5 21.5t11.5 26t12.5 26t7 20.5v35q4 10 13 17t9 18q0 2 -0.5 3.5l-0.5 1.5l-43 46l-0.5 4.5t-0.5 9.5q0 1 -0.5 6.5t1.5 12t8 7.5q-2 -5 1 -13.5t6 -10.5q1 -1 4.5 0.5l7 3l7 3t4.5 1.5q0 -7 -1 -10t-1 -7q0 -3 7 -13q0 2 0.5 10t0.5 10
q0 36 4.5 75t-4.5 74q-4 15 -3 37t3 43t3 37.5t-3 21.5q-35 21 -51.5 24t-22.5 -5.5t-5 -25t2 -34.5l4 -75q0 -2 -3.5 -12t-3.5 -12q2 -21 -2 -41.5t-9.5 -40.5t-10.5 -40.5t-5 -42.5zM38 190v-5l5.5 -7t13.5 -16t16.5 -18.5t14.5 -15.5q5 -7 8 -7h14q0 6 -5 11.5t-11 11.5
q-2 2 -10 8.5t-17 14t-17.5 14.5t-11.5 9zM284 534q2 0 3 -0.5l1 -0.5l14 -12l1 -2q0 -1 -0.5 -1.5t-0.5 -1.5q-1 0 -6 0.5t-11 2t-11.5 3.5t-7.5 5t5.5 4t9.5 2zM49 407q2 4 -3 5t-12 -0.5t-13 -5t-6 -8.5v-20q19 -7 38 -9.5t28 0t3.5 12t-35.5 26.5zM57 227q8 0 11.5 -4.5
t5.5 -9.5q-1 0 -2 -0.5t-2 -0.5q-8 0 -10.5 5t-2.5 10zM30 354q1 -3 4 -3q2 0 3.5 3t-3.5 3t-4 -3zM328 413q-4 -1 -4 -4q0 -2 3.5 -3t3.5 3t-3 4zM145 162l6 -6h-6v6z" />
    <glyph glyph-name="FL004Bh" unicode="K" horiz-adv-x="332" 
d="M58 732q1 10 5 15t9 8.5t10.5 6.5t10.5 8q4 9 4 15v12t2.5 9.5t11.5 7.5v-106q-1 -2 -2 -7l-2 -10t-1.5 -9.5t-0.5 -5.5q0 -2 2.5 -7l3.5 -7v-6l-13 -14q-1 -3 1.5 -13.5t5.5 -21.5t6 -21t3 -13t0.5 -10.5t1.5 -17t2 -18.5t1 -14l26 7q5 3 12 10.5t13.5 17t11 19
t4.5 15.5v13q0 2 4 10t9.5 16.5t9.5 16t4 8.5q-1 11 -2.5 29t-3 29.5t-1.5 13.5l27 92q-2 5 -4.5 13.5t-2.5 12.5q0 5 -0.5 8.5l-0.5 3.5q19 0 34 -10t20 -28q6 -24 12 -41t9.5 -29t2.5 -21t-11 -18v-27q1 -12 -2.5 -29.5t-7.5 -34.5t-7.5 -29l-3.5 -12l-54 -92l64 -136
q0 -9 3 -9.5t7 1.5t7 3t3 -3q0 -3 -1 -13t-2 -21.5t-2 -21t-1 -11.5q0 -4 0.5 -15t1.5 -23.5t2 -23t2 -14.5l15 -12v-9q-1 -2 -4 -6t-3 -8q0 -3 5.5 -13t7.5 -14v-114q-10 4 -13.5 7t-5 7.5t-2.5 10.5t-6 15q-5 7 -11 10t-11 6.5t-8.5 8.5t-4.5 16q-8 -5 -13 -18t-7 -16h-4
q-8 0 -9 4t-1 11v6l-1 6t-2.5 13t-2.5 13t-1 8q0 8 -0.5 21t-0.5 31q0 17 0.5 31t0.5 19q-14 5 -17.5 12t-3.5 15v14q0 17 4 33t4 35q0 9 -5 15t-11 11t-11.5 11t-5.5 15l-7 -2l-7 17q-2 -1 -11 -1l14 25q-10 0 -18.5 2t-13.5 9q8 4 12 11t4 14q0 9 -7.5 12.5t-18.5 4.5v-19
q0 -15 -0.5 -29t-0.5 -22q8 -5 8 -11v-12q0 -24 -5.5 -45.5t-7.5 -44.5l-9 -6l-1 -11t-2 -26.5t-2 -31.5t-2 -26v-27q9 -8 12.5 -16t2.5 -19t-5.5 -27t-9.5 -39q-5 -17 -20 -26t-34 -9l0.5 4t0.5 6q0 4 3 12t5 13l-29 85q0 2 1.5 13t3 27.5t2.5 26.5q0 2 0.5 9.5t0.5 11.5
v13q0 11 -2.5 21.5t-10.5 15.5v20q0 54 2.5 103t2.5 99q0 18 -3 33.5t-3 30.5v13q0 7 3.5 13t15.5 11q0 6 -10.5 19t-10.5 29t0.5 28t0.5 20q0 1 1 7t2.5 12.5t2.5 12l1 5.5v6q0 6 1 10t9 4h4q2 -3 7 -14.5t13 -17.5zM267 128l20 -19q2 -5 5 -13.5t3 -13.5h6q-1 2 -1 6v6v9
q0 17 -4.5 25.5t-21.5 14.5q-3 -1 -6 -6t-1 -9zM65 701q-2 -3 1 -7.5t7 -4.5q16 5 19.5 13t3.5 22v9v5q0 4 2 6h-5q0 -3 -3 -11.5t-5 -13.5zM239 31q0 1 0.5 2l0.5 1l7 7l1 0.5t2 0.5q9 0 10 -9t1 -16q-5 0 -13.5 1.5t-8.5 12.5zM37 792q0 9 8.5 10.5t13.5 1.5
q0 -5 -1 -13.5t-10 -8.5q-1 0 -2 0.5l-1 0.5l-7 4l-0.5 2t-0.5 3zM98 313h7v39h-7v-39zM269 224h-9v-13q9 3 9 13zM79 611h9q0 10 -9 12v-12z" />
    <glyph glyph-name="FL004Ch" unicode="L" horiz-adv-x="310" 
d="M97 110q-1 0 -2 -0.5l-1 -0.5q-6 -6 -8 -13q-7 0 -7 7q0 2 4 6t3 6t-7 6t-7 6v5v8v7v5q-2 5 -7 13.5t-7 10.5v82q-22 5 -25 21t-3 33q0 29 4.5 56t4.5 58v12q0 13 -1.5 25.5t-6.5 22.5q-1 2 -7 3.5t-8 2.5l-7 6q4 34 6 65.5t3.5 63t2.5 64t3 68.5q1 1 7 5l1 0.5t2 0.5
q11 0 19.5 -5.5t16 -12t13.5 -12t13 -5.5q0 1 -1.5 7.5t-2 14t1.5 13.5t9 6h4q4 -3 7 -7q-4 -72 0 -143.5t10.5 -142.5t12.5 -141.5t6 -141.5v-19q0 -2 -4 -5.5t-3 -5.5q1 -3 6 -7.5t7 -5.5q1 0 5 1t8.5 2l9 2t5.5 1t6 0.5t7 0.5t5.5 -0.5l3.5 -0.5q2 -2 5.5 -11t1.5 -14h48
l5.5 -5.5t13 -11.5t14.5 -12t9 -8q-2 -5 -8.5 -8.5t-11.5 -3.5h-147q-3 4 -13 13t-15 12l-1.5 0.5t-2.5 0.5zM170 96q-6 0 -6 -7q0 -5 6 -5q5 0 5 5q0 7 -5 7zM149 103q-5 0 -5 -7t5 -7q6 0 6 7t-6 7zM93 180q0 -1 0.5 -2.5l0.5 -1.5q3 -3 7 -5v2v3l-7 7q0 -1 -0.5 -2z
M93 369v-11q0 -6 8 -8v12q0 5 -0.5 11.5t-6.5 8.5q0 -2 -0.5 -7t-0.5 -6zM41 564q0 -19 9 -35q6 4 8 7v3v3q-2 5 -4 13.5t-13 8.5z" />
    <glyph glyph-name="FL004Dh" unicode="M" horiz-adv-x="404" 
d="M278 411q-3 -14 -10 -25t-14.5 -22t-13 -22t-5.5 -25v-8q0 -4 0.5 -8t0.5 -7v-4q0 -2 3.5 -9t3.5 -9t-2.5 -9.5t-4.5 -9.5v-115q-15 -7 -18.5 -12.5t-3.5 -16.5q0 -14 8 -24t8 -25h-8q-2 13 -9.5 18t-15.5 8.5t-15 7.5t-8 14q-5 28 -10 57t-12.5 58t-18.5 57t-28 52v-10
q0 -7 -0.5 -15t-0.5 -15v-11q0 -38 7.5 -73.5t7.5 -72.5q0 -5 -3 -8t-6.5 -5.5t-7 -5.5t-4.5 -8q0 -2 -1 -7t-2.5 -11t-2.5 -11t-1 -6l-15 6q0 5 -1 14.5t-2.5 20t-4 20.5t-5.5 16q-2 2 -3.5 4t-3.5 4l-14 -50q-12 7 -21 18.5t-7 23.5q0 2 2 9.5t4.5 15.5t4.5 15.5t3 9.5v3
v3q-2 2 -7 4t-7 2v278q-8 6 -8 17v18q0 27 5.5 52t2.5 51l8 6v92q-7 9 -8 20t-1 21q3 0 10 1t13.5 3.5t10.5 7.5t1 14h35q-2 -25 4 -51t24 -46v-85q3 -1 8.5 -5.5t6.5 -6.5q0 -2 -3.5 -6t-4.5 -6v-4q0 -2 6 -15t13.5 -29.5t14 -34t8.5 -27.5q1 -7 1.5 -16.5t1.5 -20t3.5 -21
t7.5 -19.5q5 -7 7 -8q1 8 5 30t8.5 46t8 46t5.5 30q1 4 3 10t4 8l1 0.5t3 0.5q1 0 2 -0.5l1 -0.5l14 -12q4 31 11.5 60t14.5 57.5t12 57.5t4 61q9 5 19.5 6t21.5 1v-53q2 0 3.5 -2t3.5 0t4 8.5t4 8.5l0.5 0.5t1.5 0.5q6 0 11.5 -13t10 -30t7.5 -33t3 -21v-31v-29l7 -6
q-3 -90 5 -178t8 -177v-3q0 -2 -3 -8.5t-3 -8.5q0 -5 -0.5 -12.5t-0.5 -17.5q0 -11 0.5 -18.5t0.5 -11.5q-14 -4 -17.5 -7t-5.5 -5t-8 -3t-25 -1v-88q0 -1 -2.5 -2.5t-4.5 -3.5l-3 -1q-1 0 -2 0.5t-2 0.5q-12 43 -15.5 87.5t-5.5 87.5q-2 42 1.5 87.5t-7.5 89.5q-1 1 -3 5
t-4 6zM27 85q0 5 2 8t10 3h3q2 -4 4 -11t2 -12q0 -2 -2 -3t-4 -3l-3 -1q-8 0 -10 7t-2 12zM195 115l7 -19v19h-7zM354 163q-3 1 -3 -3q0 -5 3.5 -3.5t3.5 3.5t-4 3zM159 256q0 -6 2 -15t5.5 -18.5t8.5 -17.5t12 -11v6q0 7 -1.5 16.5t-4.5 19t-8 17.5t-13 12q0 -2 -0.5 -4.5
t-0.5 -4.5zM187 285q-4 0 -4 -7q0 -6 4 -6q6 0 6 6q0 7 -6 7zM222 477q0 -5 7 -5v30q-2 -5 -4.5 -12.5t-2.5 -12.5zM291 550q-3 0 -3 -9q0 -4 0.5 -7.5t2.5 -1.5q4 4 4 9q0 6 -4 9zM105 599q-5 0 -5 -6t5 -6q4 0 4 6t-4 6zM98 743q0 7 7 7q8 -2 8 -9v-12q-15 0 -15 14z" />
    <glyph glyph-name="FL004Eh" unicode="N" horiz-adv-x="353" 
d="M250 127q0 4 0.5 13t0.5 20q0 12 -0.5 21.5t-0.5 13.5q-2 10 -8.5 19.5t-11.5 17.5q-4 9 -14 30.5t-19.5 46t-16 46t-4.5 29.5l-14 -6l-8 11l-3 -3t-3 -2q-2 -5 -4 -16.5t-2 -15.5v-192q-20 0 -26.5 11t-11.5 24v-53q0 -2 -6 -3t-11 -1q-1 0 -3.5 1t-3.5 3
q-2 4 -6.5 12.5t-4.5 9.5v167q-2 -4 -5.5 -10t-3.5 -11q-1 -3 -2 -13t-2 -21t-2 -20.5t-1 -13.5l-14 6v4q0 4 -0.5 9t-0.5 11v11q0 66 4 128t4 128q0 4 -4.5 12t-10.5 17.5t-11.5 19t-7.5 16.5v2q0 9 6.5 14.5t13.5 10.5q-2 29 -1.5 57t8.5 58q2 2 3.5 3t3.5 2h4
q13 0 19 -7.5t8 -17.5t1.5 -20t-0.5 -16q6 0 8.5 2t5 5t5.5 5t10 2q12 0 13 -4t1 -11q0 -8 -7 -14.5t-7 -12.5q0 -7 8.5 -27.5t20.5 -43.5t24.5 -42t20.5 -23q2 -5 7 -18t11 -27t10.5 -27t6.5 -18q5 -9 5.5 -18.5t8.5 -18.5q5 16 6.5 25t1.5 23q0 10 -4 15t-4 15q0 35 4 68
t4 68q0 29 -4 55.5t-4 55.5v17q5 1 12 5.5t12 4.5h3q2 -1 3.5 -2t3.5 -3v-3v-2l-7 -6q-1 -2 0 -3l1 -1q2 0 3 -1t3 0l7 3t13 5.5t7 2.5q5 0 10.5 -3.5t5.5 -7.5v-111l18 12q5 -29 6.5 -51t1.5 -46v-34v-10v-22v-6l-8 -5v-14q0 -8 0.5 -19t0.5 -25v-26v-26q0 -13 -0.5 -24
t-0.5 -20v-14q0 -4 -0.5 -12.5t-1.5 -18.5t-2.5 -19t-2.5 -13q-2 -3 -6 -3.5t-7.5 -1.5t-6 -3t-0.5 -7q1 -8 5.5 -15.5t9.5 -14t9 -14t4 -15.5q0 -7 -3 -11.5t-7 -8.5t-7 -9t-3 -14q-4 0 -12.5 1.5t-17.5 4t-16.5 6t-9.5 6.5zM107 138q2 6 9 6h12v-13q-1 0 -4 0.5t-4 0.5
q-2 1 -6.5 2.5t-6.5 3.5zM298 279v-42l7 5v42zM147 426v-10q0 -4 7 -6v5v5q-1 2 -2.5 8t-3.5 8q0 -2 -0.5 -5t-0.5 -5z" />
    <glyph glyph-name="FL004Fh" unicode="O" 
d="M43 205q0 5 0.5 14t11.5 9h4q2 -1 7 -2.5t7 -2.5v1q0 9 -5 21.5t-11.5 25.5t-12.5 25.5t-7 21.5v6v11v10v6q-3 10 -12.5 16.5t-9.5 17.5q0 2 0.5 4l0.5 2l43 45l0.5 4.5t0.5 9.5q0 1 0.5 6.5t-1.5 12t-8 6.5q2 -4 -1 -12t-6 -10q-2 -2 -11 2.5t-11 4.5q0 -7 1 -10t1 -7
q0 -3 -8 -13q0 2 -0.5 10t-0.5 10q0 36 7 72.5t15 71.5q4 15 11 21.5t14 10t14 5.5t11 7q9 14 18.5 32.5t22.5 35.5t31 28.5t45 11.5q2 0 17 -12t32.5 -27t31.5 -29t14 -18q0 -1 -3 -4.5t-4 -5.5v-3q0 -7 4 -12t4 -11t-2.5 -9.5t-5.5 -6t-5.5 -5.5t-2.5 -9q0 -9 3.5 -12.5
t8 -5.5t9.5 -4t9 -7q11 -25 15.5 -61t4.5 -70v-41v-8q0 -2 -1 -9t-2 -14.5t-2 -14t-2 -7.5q-1 -8 -4.5 -22t-6 -23.5t-2.5 -10.5h-13q0 -3 1 -11t2 -17t2 -17t1 -11q-2 -10 -18.5 -28t-39.5 -36t-47 -31t-41 -13q-6 0 -12 1.5t-6 7.5q0 1 0.5 2l0.5 1l21 17q0 2 -1 2t-1 1
q-11 0 -13.5 -2t-12.5 -2t-16.5 5.5t-11.5 13t-10 15.5t-12 12q-8 0 -8 -6v-8q0 -16 7 -30.5t15 -28.5q-1 0 -2 -0.5t-2 -0.5q-14 0 -24.5 11t-17 25t-9.5 28.5t-3 20.5zM299 200v-6q-1 -1 -9 -10.5t-20 -23.5t-20 -22q-5 -7 -9 -7h-14q0 7 5 12l11 11q2 2 10 8.5t17 14
t17.5 14.5t11.5 9zM193 171l-7 -5h7v5zM122 433q0 -49 11.5 -98t23.5 -96q2 -5 5.5 -14.5t12.5 -9.5q6 0 13.5 8t14 17.5t11.5 19t7 12.5q13 58 17.5 122t4.5 121q8 2 8 7v10q0 6 -3 10t-7 7t-8 6.5t-5 9.5q-2 4 -3.5 15.5t-4.5 23.5t-9 22t-18 12q-3 1 -10 -0.5t-14 -4.5
t-12.5 -7t-5.5 -8v-2q0 -2 3 -11.5t3 -10.5q-2 -22 -7.5 -41.5t-11.5 -39t-11 -39.5t-5 -41zM280 235q-8 0 -11 -3.5t-5 -8.5q1 0 2 -0.5l1 -0.5q8 0 10.5 4t2.5 9zM314 402q1 3 -4 3t-3.5 -3t3.5 -3t4 3zM9 419q4 -1 4 -3t-3.5 -3.5t-3.5 3.5q0 3 3 3zM298 463q0 -4 0.5 -9
t8.5 -7v11v10q0 5 -8 7q0 -2 -0.5 -6t-0.5 -6zM299 520q-5 0 -5 -5q0 -6 5 -6q6 0 6 6q0 5 -6 5zM103 695q0 -12 -5.5 -24t-25.5 -12q0 14 5.5 25t25.5 11zM221 689q5 -5 12.5 -11.5t18.5 -6.5q0 8 -8.5 13t-18.5 5h-4zM183 707q-2 0 -3 -0.5l-1 -0.5l-14 -11l-0.5 -1
t-0.5 -2t0.5 -2l0.5 -1q1 0 6 0.5t11 2t11.5 4t7.5 5.5q-2 2 -7.5 3t-7.5 2z" />
    <glyph glyph-name="FL0050h" unicode="P" horiz-adv-x="288" 
d="M66 104l14 -8q2 5 4 16t2 15q0 2 -0.5 2.5t-0.5 2.5l-5 3q-2 -2 -3.5 -6.5t-3.5 -6.5l-1 -0.5t-3 -0.5q-1 0 -2 0.5l-1 0.5q-2 2 -4.5 2.5t-2.5 2.5v88l-21 25q-1 1 -2 11.5t-2 24.5t-2 28.5t-1 23.5q0 10 -0.5 28.5t-0.5 44.5v52v51q0 26 0.5 45t0.5 28l-15 -5l-0.5 1.5
t-0.5 3.5q0 6 2.5 11.5t6 11.5t6 13.5t2.5 18.5q0 13 -4 25.5t-8.5 24.5t-8 24t-3.5 25q0 1 4.5 10.5t11 20.5t12.5 19.5t9 8.5h56q1 0 13 -11.5t28 -26t32.5 -27.5t26.5 -17q11 -4 16.5 -8t9.5 -8.5t8.5 -9.5t13.5 -11q0 -5 -0.5 -11t-0.5 -11v-23q0 -25 8 -42q1 -2 4 -8.5
t7 -13.5t7 -13.5t4 -7.5q0 -1 0.5 -4.5t0.5 -5.5t-0.5 -5.5t-0.5 -4.5q-1 -2 -7.5 -6t-7.5 -6q-2 -4 -2 -13q0 -12 -4 -24t-21 -7q5 -5 6.5 -8.5t1.5 -10.5t-2 -11.5l-4 -9t-3 -9.5t1 -14l-79 -68q-2 -2 -10 -6t-10 -6q-5 -5 -6 -16.5t-1 -24.5v-15v-14q-1 -8 -3 -30.5
t-4.5 -47.5t-4.5 -47t-3 -31q-5 -7 -14 -8.5t-15 -3.5v7q-2 -2 -6.5 -4t-6.5 -3q-1 -1 -3.5 -1.5t-3.5 -0.5v22zM86 190q-8 -15 -8 -37h8v37zM94 399v-3q2 -2 5 -3.5l5 -2.5v25q5 -5 8.5 -6t9.5 -1q19 0 30 15.5t17 35.5t8 39.5t2 28.5l14 6q1 1 1.5 6t0.5 7q0 12 -5 24
t-10.5 23.5t-8.5 23t1 23.5l-35 37q-1 -5 -4.5 -7.5t-7.5 -4t-7 -3t-3 -4.5v-230h-14q-1 0 -3 -9t-4 -17v-3zM193 402q1 4 -3 4q-5 0 -4 -3t4 -3q1 0 3 2zM52 740q1 3 -3 3q-5 0 -3.5 -3.5t3.5 -3.5t3 4z" />
    <glyph glyph-name="FL0051h" unicode="Q" horiz-adv-x="364" 
d="M77 120q9 -6 12.5 -14.5t6.5 -17t7.5 -16t15.5 -10.5q1 0 8 -1t14.5 -2t14 -2t7.5 -2q13 -10 18.5 -24t5.5 -30q10 0 21.5 12.5t22 31.5t20 42t15.5 43q5 -16 11.5 -28t20.5 -16q2 0 7.5 -1.5t7.5 -4.5l0.5 -0.5t2.5 -3.5q2 -6 5 -14t6 -10t9.5 -9.5t9.5 -9.5q6 1 5 8
q0 5 -1 21.5t-2.5 34.5t-2.5 34t-2 20l-1 4l-23 36q-14 26 -27 51t-25 51q3 20 7 37.5t9 22.5q10 7 15.5 8.5t8.5 5t4 12.5t1 32q0 15 -2.5 43.5t-8.5 56.5t-17 48.5t-29 20.5v-66q-11 19 -13 31t-2 33q0 3 0.5 12.5t0.5 11.5q13 3 21 16q8 -11 16 -23t24 -12q0 47 -11 81
t-28.5 63t-40 56t-45.5 60l-14 16l-1.5 0.5t-2.5 0.5t-2.5 -0.5l-1.5 -0.5l-7 -8v-8l15 -32v-8q-20 9 -37 9q-20 0 -34 7q-1 0 -4 2.5t-7 6t-7 6t-4 2.5q-2 0 -6.5 -3.5t-6.5 -5.5q-21 -57 -30 -118.5t-11 -124t0.5 -125.5t4.5 -123q-11 1 -13.5 -2.5t-2.5 -13.5
q0 -2 0.5 -4.5l0.5 -2.5q0 -2 7.5 -8.5t7.5 -8.5q8 -16 10.5 -32.5t4.5 -33t6 -32.5t15 -31l7.5 -7.5t5.5 -7.5q1 -9 -3.5 -14t-10 -8t-10.5 -6t-5 -10q0 -1 0.5 -2l0.5 -1q6 -16 7.5 -20.5t12.5 -4.5q13 0 15.5 10t-0.5 24zM118 517q0 50 11 96.5t26 92.5q13 -7 22.5 -40
t15.5 -72.5t9 -75.5t3 -49q0 -8 -0.5 -16.5t-1.5 -16.5q-1 2 -2 4.5t-2 5.5q-18 19 -40.5 17.5t-37.5 -10.5q-3 30 -3 64zM173 295q0 -2 7.5 -19.5t17.5 -35.5q-1 -5 -1 -9v-8q0 -5 0.5 -13.5t0.5 -9.5l14 -17q-8 -6 -18 -11t-21 -5h-3q-10 17 -12.5 27t-2 19t1.5 20t-2 31
q-11 14 -21.5 27.5t-15.5 29.5t-3.5 35.5t14.5 44.5q2 -1 4 -1.5t4 -1.5h4l4 1q15 -11 19 -24t8 -31q0 -3 2 -13.5t3 -13.5q-8 -3 -6 -11zM277 187l-1 7q7 -8 18.5 -20t14.5 -28l-16 -4q-1 0 -5.5 14t-9.5 24zM92 787l0.5 0.5t1.5 0.5q9 0 11 -9t2 -16h-15v24zM241 666
q5 0 5 -9q0 -7 -5 -7q-6 0 -6 7q0 9 6 9zM306 79q-4 -2 -2 -9q2 -8 5 -6q5 1 4 8q-1 8 -7 7zM314 147q4 1 6 -5q2 -10 -3 -10q-6 -1 -7 7q-3 6 4 8zM70 135q5 0 5 -8q0 -7 -5 -7t-5 7q0 8 5 8zM326 125q5 2 6 -5q1 -9 -3 -10t-7 8q-2 7 4 7zM119 723q0 -1 0.5 -2.5t0.5 -2.5
t-0.5 -2l-0.5 -1l-14 -17q0 1 -0.5 2.5t-0.5 2.5t0.5 2l0.5 1zM198 120q3 -2 3 -6q0 -2 -3.5 -3.5t-3.5 3.5q0 7 4 6zM234 674q3 -2 3 -4t-3.5 -3.5t-3.5 3.5q0 4 4 4zM265 280q1 0 1 -1v0v-4l-2 -4q1 4 1 9z" />
    <glyph glyph-name="FL0052h" unicode="R" horiz-adv-x="317" 
d="M169 308v7q0 4 8 6q0 3 0.5 10t0.5 9q0 12 -1 21.5t-13 20.5h-4h-4l-28 -12v-62v-63q-1 -15 -5.5 -27.5t-9.5 -25t-9 -25.5t-4 -30q-3 -2 -10.5 -9t-18.5 -7q0 35 3 71t3 73q-8 0 -12 -6.5t-6 -15t-2.5 -17.5t-0.5 -14q-12 0 -16.5 5t-9.5 13v5q0 5 -0.5 9t-0.5 9v5
q0 25 3.5 49.5t7.5 49t7.5 49t3.5 48.5q0 6 0.5 14.5t0 18t-2.5 19t-6 15.5q-10 15 -15 21.5t-5 24.5q0 26 1 49t6 52q-4 2 -9.5 15.5t-5.5 18.5q0 11 14 22t29 11q2 0 4.5 -0.5l2.5 -0.5q5 -2 15 -10.5t13 -12.5q14 5 17.5 17t3.5 21h14q1 -1 7.5 -5.5t15.5 -11t13 -10.5
q48 -43 70 -96t22 -109v-28q0 -23 -5 -48t-25 -39q12 -49 27.5 -95t36.5 -94l14 -26v-4q0 -3 -2 -13.5t-4 -23t-4.5 -23t-3.5 -13.5q0 -5 -7 -5q-2 2 -7 8t-7 8t-3.5 8l-2.5 10q-1 2 -1.5 2.5l-0.5 0.5q-1 2 -6 3.5t-7 3.5q-15 7 -18.5 20t-5 27t-5.5 26t-20 18
q-3 1 -8.5 11.5t-10 22.5t-8 22t-3.5 12zM254 142q6 0 6 -5t-6 -5q-4 0 -4 5t4 5zM283 169q-5 0 -5 -5t5 -5t5 5t-5 5zM276 187q-6 0 -6 -6t6 -6q5 0 5 6t-5 6zM248 219v-6q2 -7 4 -16.5l2 -9.5h17q0 10 -9 20.5t-14 16.5v-5zM191 202q8 8 17 8q0 -8 -9 -14zM254 284
l-13 -11q1 0 1.5 -0.5t1.5 -0.5t2.5 0.5l1.5 0.5l6 5l0.5 1t0.5 2t-0.5 1.5t-0.5 1.5zM241 305q-6 0 -6 -5t6 -5q5 0 5 5t-5 5zM127 507v-20q0 -11 1.5 -22.5t6.5 -30.5q27 15 43.5 37.5t27.5 44.5q-6 7 -8 15t-3 16t-3 15.5t-8 13.5q-4 3 -9.5 8t-10.5 9t-9.5 7t-5.5 3h-14
q-2 -16 -3.5 -27.5t-2.5 -22t-1.5 -21.5t-0.5 -25zM219 484q-2 -2 -4 -8t-3 -8q0 -2 -0.5 -3t-0.5 -3h8v22zM8 555q2 -2 4.5 -8t2.5 -8q0 -6 -7 -6v22zM190 610q0 -11 16 -18v4q0 14 -16 14zM149 625q-5 0 -5 -5t5 -5q6 0 6 5t-6 5zM93 695v-21h9v4q0 4 -1.5 9.5t-7.5 7.5z
M85 751v-7h-13q4 7 13 7z" />
    <glyph glyph-name="FL0053h" unicode="S" horiz-adv-x="230" 
d="M90 52l0.5 0.5t1.5 0.5q6 0 9.5 -5t3.5 -12h-15v16zM126 52h-9v9l28 16q-1 1 -7.5 2.5t-13.5 3t-13.5 2.5t-7.5 1h-5q-3 0 -7 -7t-9.5 -15t-11.5 -15t-12 -7q-11 0 -19.5 20.5t-14.5 47.5t-9 52t-3 34q0 14 4.5 22.5t4.5 22.5v4l-15 26l-0.5 1t-0.5 3q0 7 3 8.5t6.5 2.5
t7.5 2t6 7q-2 6 -4.5 21t-2.5 21v10q0 16 13 16q6 0 10.5 -7t7.5 -16.5t5.5 -20t4.5 -16.5q1 -6 4 -20t6 -30t6 -30t5 -20q7 -13 25 -24t31 -11q2 0 4 0.5l2 0.5q1 35 -7.5 73t-22 75t-29.5 72t-31 65q-8 14 -18 27t-10 32q0 10 3 12t3 8v6q0 2 -3 13.5t-6.5 24t-6.5 24
t-4 13.5q0 2 -0.5 6t-0.5 7q0 12 2.5 32.5t8 45t13 49t18.5 43t25 29t31 6.5q6 -2 16 -18.5t21.5 -40t23.5 -51t21.5 -51.5t15.5 -42t6 -23q0 -9 -0.5 -12t-6.5 -14q-5 3 -11.5 10.5t-12.5 7.5q-1 0 -2 -0.5l-1 -0.5l-14 -33l-7 9v37v38q0 3 -2 10t-5.5 14t-8 12.5t-8.5 5.5
h-3q-2 -1 -7.5 -5.5t-7.5 -4.5q-3 5 -6 6.5t-2 14.5q0 12 1 13q-8 -5 -14 -24.5t-6 -30.5v-3q0 -2 3 -12.5t3 -12.5q-1 -3 -6.5 -5t-6.5 -4q0 -1 -0.5 -5.5t-0.5 -10.5q0 -10 2 -21t6.5 -21t11 -17t15.5 -8q17 -28 33.5 -68t29 -84t20 -88t7.5 -80q0 -20 -4 -39.5t-8.5 -39
t-9 -39.5t-5.5 -40q-17 -27 -37 -27q-11 0 -14 3.5t-3 14.5zM117 103q1 3 -7 3h-5q-4 0 -2 -3q1 -5 7 -5t7 5zM55 714q-8 -2 -8.5 -10t-0.5 -14h9v24z" />
    <glyph glyph-name="t" unicode="T" horiz-adv-x="422" 
d="M216 86q-8 -5 -14 -18.5t-8 -17.5q-1 0 -2 -0.5t-2 -0.5q-8 0 -9 5.5t-1 10.5v7q0 1 -1.5 7.5t-3 14t-2.5 13.5t-1 8q0 8 -0.5 22t-0.5 32t0.5 33t0.5 21q-14 5 -18 12t-4 15v14q0 19 4 36.5t4 36.5q0 57 -3.5 112.5t-3.5 115.5v25q10 5 12.5 17.5t2.5 24.5v14
q0 5 -0.5 13.5t-0.5 10.5q-1 11 -2.5 29.5t-3 31t-1.5 14.5h-79q-2 0 -7.5 6.5t-7.5 11.5l-0.5 1.5t-0.5 2.5q0 8 9 12t14 6l-7 7h-22q-16 0 -33.5 2t-31.5 12l-4.5 4.5t-2.5 3.5q0 2 2.5 9t4.5 12q1 2 4 4.5t4 2.5h187q-2 5 -4.5 14.5t-2.5 14.5q0 2 -0.5 6.5t-0.5 5.5
q10 0 16.5 -6.5t12.5 -14t13 -14t16 -6.5q2 0 11 4t11 4h7q7 0 16 -0.5t18 -3t15.5 -7.5t8.5 -15h108v-32h-51q2 -2 4 -7t3 -7v-4q0 -5 -3 -8l-6 -6t-6 -7t-3 -10q-32 0 -67 -5t-66 -11v-14v-15q1 -12 2 -30t2 -35.5t2 -30l1 -12.5l8 -7q2 -26 8.5 -50.5t6.5 -50.5v-15
q0 -5 -8 -13q0 -8 0.5 -24t0.5 -35q0 -18 -0.5 -33.5t-0.5 -23.5q0 -3 -1 -13.5t-2.5 -22.5t-2.5 -22.5t-1 -13.5q0 -4 0.5 -15t1.5 -24t2.5 -24.5t2.5 -15.5l14 -14v-4v-3q-1 -2 -4 -7.5t-3 -7.5q0 -3 6 -14.5t8 -14.5v-122q-11 4 -14.5 7.5t-5 8t-2.5 11t-6 16.5
q-5 7 -11 10.5t-11 7t-9 9t-5 16.5zM193 18q0 1 0.5 2.5l0.5 1.5l7 7l1.5 0.5t2.5 0.5q10 0 11 -9.5t1 -15.5q-5 0 -14.5 1t-9.5 12zM223 122l21 -21q2 -5 5 -14.5t3 -14.5h7q-1 5 -1 12v11q0 17 -5.5 26.5t-22.5 15.5q-3 -1 -6 -6.5t-1 -8.5zM216 223v-14q9 3 9 14h-9z
M237 562v-44h7v44h-7zM367 792q-6 0 -6 -7t6 -7q5 0 5 7t-5 7zM270 807q-1 0 -2.5 -0.5l-1.5 -0.5q-3 -1 -7 -7q1 0 1.5 -0.5t1.5 -0.5t2.5 0.5l1.5 0.5l7 7q-1 0 -2 0.5z" />
    <glyph glyph-name="FL0055h" unicode="U" horiz-adv-x="315" 
d="M255 628q0 8 -9 13v-13h9zM99 195h7v39h-7v-39zM253 726q-2 -4 1 -8.5t6 -6.5q16 6 20.5 14.5t4.5 25.5v10v6t1 6h-6q0 -5 -3 -13.5t-5 -14.5zM27 33q0 51 -2.5 101t-2.5 105l-12 324q8 5 10.5 16t2.5 22v14q0 3 -0.5 10.5t-0.5 9.5q-1 10 -2.5 27t-3 28t-1.5 13l28 87
q-2 5 -5 13.5t-3 12.5q0 2 -0.5 6.5l-0.5 4.5q19 0 33.5 -9.5t19.5 -27.5q5 -23 9.5 -39.5t5.5 -28t-2.5 -20t-12.5 -15.5v-28q1 -10 2 -26.5t2 -32t2 -26.5l1 -11l9 -7q0 -8 2.5 -37.5t5 -70.5t5.5 -88t6 -88t4.5 -71.5t1.5 -38.5v-14q0 -4 -8 -9q0 -9 0.5 -23.5t0.5 -29.5
v-21q11 2 18.5 6t7.5 13q0 7 -4 14t-12 12q5 7 13.5 9t17.5 2h17q9 0 11 -1l7 18l6 -4q1 20 1 40v40q0 6 -1.5 34.5t-3.5 68t-4.5 84.5t-4.5 84.5t-3.5 67.5t-1.5 34v14q0 9 3.5 15.5t16.5 11.5q0 5 -0.5 19.5t-0.5 31.5q0 18 0.5 31.5t0.5 21.5q0 1 1 7.5t2.5 14t2.5 13.5
l1 6v6q0 7 1 11.5t9 4.5h4q2 -4 7 -17t13 -18q1 10 4.5 15.5t8.5 9t10.5 7t10.5 10.5q5 9 6 15t2 10.5t4.5 8t13.5 7.5v-117q-2 -4 -7 -14.5t-5 -12.5q0 -5 2.5 -9t3.5 -6v-9l-14 -13q-1 -4 -2 -15t-2 -23t-1.5 -23t-0.5 -15q0 -2 1.5 -29.5t3.5 -68t4 -88t4 -88t3.5 -68.5
t1.5 -30q0 -5 -3 -3.5t-6.5 3t-6.5 1t-3 -9.5l-64 -140l-69 -43l-26 7zM234 451q0 -2 0.5 -3l0.5 -1l7 -7l1 -0.5t2 -0.5q9 0 10 9t1 16q-5 0 -13.5 -1t-8.5 -12z" />
    <glyph glyph-name="FL0056h" unicode="V" horiz-adv-x="325" 
d="M97 122q1 4 4 13.5t5 20.5q4 11 6 20t3 13q1 9 -2.5 19.5l-6.5 19.5q-1 9 -3.5 32.5t-5 49t-3 48t3.5 29.5q-18 30 -28 58.5t-18 58.5t-17.5 61.5t-27.5 66.5l1 3q2 8 10 13t16 7q5 29 13 57t24 55q3 2 5 2.5t4 1.5l4 -1q11 -3 14 -11t2 -18t-4.5 -19.5t-5.5 -15.5
q6 -1 9 0.5t5.5 3.5t6.5 3.5t11 0.5q12 -2 12 -6t-2 -11q-2 -8 -11 -13t-11 -10q-2 -7 0 -29t7 -46.5t12 -45.5t13 -27q0 -6 1 -19.5t2.5 -28.5t3 -28t1.5 -18q2 -11 -0.5 -20t2.5 -19q10 15 13.5 24t7.5 22q2 9 0 15.5t1 15.5q10 34 22 66.5t23 65.5q8 28 11.5 55.5
t11.5 54.5l5 18q3 1 10.5 4t11.5 2q1 0 2 -1l1 -1q2 0 3 -1.5t3 -2.5v-3l-1 -3l-8 -4q-2 -2 -1 -4l1 -2q2 0 2.5 -1t2.5 -1l7.5 2t13.5 3.5t7 1.5q3 -2 8 -5.5t4 -7.5l-29 -109l18 8q-3 -29 -7.5 -51t-11.5 -46l-10 -33l-3 -11l-6 -21l-1 -5l-10 -3l-3 -14q-1 -8 -3 -20
t-6 -24l-7 -26l-7 -25q-5 -13 -8 -24.5t-6 -20.5l-4 -12q-1 -5 -4 -13.5t-6 -17.5t-6.5 -17.5t-6.5 -12.5q-2 -3 -6 -3t-7.5 -0.5t-6 -2t-2.5 -7.5q-2 -8 0.5 -15t5 -14.5t4 -15.5t-0.5 -16q-2 -7 -6 -10.5t-8.5 -7t-8.5 -8.5t-7 -14q-3 1 -10.5 4t-15.5 7t-14 8.5t-7 8.5z
M184 262l-13 -40l8 4l12 41z" />
    <glyph glyph-name="FL0057h" unicode="W" horiz-adv-x="462" 
d="M160 159q-7 -5 -7 -6q0 -2 -1 -7t-2.5 -11t-2.5 -11.5t-1 -6.5q-1 0 -2 -0.5l-1 -0.5q-10 0 -14 8.5t-4 12.5q-1 4 -2.5 15.5t-2.5 24.5t-1.5 24t-0.5 15q-6 -2 -12.5 -1t-8.5 7q-1 10 -3 36t-4 55.5t-4 56t-3 36.5q0 3 -0.5 10t-1.5 14.5t-2.5 14t-2.5 8.5t-3 5.5
t-4 5.5q-1 7 -4 24.5t-6 38t-6 38.5t-4 25q0 4 -4 13.5t-6 13.5v-60q-32 0 -32 22v101q0 4 3.5 10t11.5 10q2 -2 13 -6.5t14 -4.5q2 0 7 2.5l7 3.5h2q9 0 15.5 -8.5t10 -19t5 -19.5t1.5 -11v79q0 5 5 5.5t10 0.5q6 0 11 -1.5t5 -9.5v-149h19t6 -11t-3.5 -19t-3.5 -19
q0 -28 9.5 -57.5t24.5 -54.5q11 23 20 41.5t9 41.5q0 8 -1 14t-7 14v110q-11 -1 -13 2t-2 8q0 4 1 6.5t7 4.5q9 -3 19.5 -11.5t20.5 -8.5q0 11 -3 18t-3 19q0 11 5 17.5t23 17.5h4q8 0 10.5 -4t2.5 -10t-1 -11t-1 -7q2 2 6.5 4t6.5 2q3 0 8 -4.5t6 -6.5q0 -7 -0.5 -24
t-0.5 -36q0 -20 0.5 -36.5t0.5 -23.5q0 -5 0.5 -16.5t1.5 -24.5t2.5 -25.5t2.5 -18.5q2 -31 3.5 -67t16.5 -65q6 12 7 25t1 27t-0.5 25.5t0.5 22.5q1 9 3.5 31t5 46t5 45.5t4.5 30.5v121l3.5 4.5t5.5 6.5l21 21q1 0 2 0.5t2 0.5l3 -1q6 -4 7 -5v-3v-3l-7 -10v-3v-3
q11 2 19.5 8.5t14.5 13.5l22 -16q0 -1 0.5 -5t0.5 -12q0 -7 0.5 -13.5t0.5 -11.5q0 -66 -6 -131.5t-11 -131.5q0 -6 -1 -14t-2 -15.5t-2 -13t-2 -5.5h-7v73q-5 -14 -13 -25t-8 -25q0 -12 1 -19.5t8 -18.5v-228q-3 0 -14 1t-11 6v42q-10 -5 -13 -13.5t-4.5 -17t-3.5 -15
t-10 -7.5q-23 2 -30 12.5t-12 24.5q-2 4 -6 14t-8.5 21t-8 20.5t-4.5 12.5q0 1 -0.5 2t-0.5 3t0.5 4l0.5 2l6 5q0 8 -4.5 18t-10.5 20t-13 19.5t-13 16.5q-13 -18 -21 -40.5t-8 -40.5q0 -4 0.5 -8.5t0.5 -5.5q0 -2 3 -11t3 -11q0 -1 -6.5 -10t-6.5 -10q-1 -3 -2.5 -11.5
t-2.5 -17.5t-1.5 -17.5t-0.5 -11.5l-7 -5l-1.5 -0.5t-2.5 -0.5q-12 0 -15 8t-4 18.5t-2.5 20t-8.5 12.5zM160 179q-6 0 -6 -4q0 -5 6 -5q5 0 5 5q0 4 -5 4zM167 201q-9 -3 -9 -11h9v11zM311 206q0 -6 1 -8.5t6 -7.5q0 2 0.5 4t0.5 4v7q0 4 -7 6q0 -1 -0.5 -2t-0.5 -3z
M290 242v-5h8zM186 353q0 -6 1.5 -13t6.5 -13q7 0 7 6q2 10 2 20h-17zM264 343q-6 0 -6 -5t6 -5q5 0 5 5t-5 5zM256 348q-3 0 -3 -3q0 -4 3.5 -3t3.5 3t-4 3zM415 669h-6q-3 0 -5.5 -21t-4.5 -47t-3 -48.5t-1 -26.5h8l2 14.5t4 23.5q1 5 2 20t2 32t1.5 32.5t0.5 20.5z
M271 648q-2 1 -3 -1t-1 -4q0 -6 4 -6q3 1 3 6q0 3 -3 5z" />
    <glyph glyph-name="FL0058h" unicode="X" horiz-adv-x="301" 
d="M144 516q0 2 -3 13t-7.5 23.5t-9.5 23t-8 11.5q-15 6 -19 19t-5.5 27.5t-5 28t-17.5 20.5q-2 1 -7 2.5t-5 3.5l-0.5 1l-1.5 3q-1 5 -2.5 10.5t-3.5 7.5t-7 8.5t-7 8.5q-6 0 -6 -5q-1 -3 -3.5 -14.5t-4.5 -24t-4 -23.5t-2 -14v-3l14 -28q20 -49 35 -97.5t26 -99.5
q3 -7 9 -10q-12 -18 -24.5 -39t-22.5 -42t-16.5 -39.5t-6.5 -31.5v-6q0 -5 0.5 -9.5t0.5 -9.5v-5q5 -9 9.5 -14t16.5 -5q0 5 0.5 14.5t2.5 18.5t6 16t11 7q0 -39 -3.5 -76t-3.5 -76q11 0 22 9.5t15 11.5q0 17 4 31t8.5 26.5t9 26t5.5 29.5v65l16 66q3 -2 7 -9t7.5 -16
t6 -17.5t2.5 -12.5q-9 -2 -9 -6v-8q0 -2 3.5 -13t8 -23.5t9.5 -22.5t8 -11q15 -6 19 -19.5t5.5 -28t5 -28t17.5 -20.5q2 0 7 -2t6 -4l0.5 -1t1.5 -4q1 -4 2 -9.5t3 -7.5q2 -3 6.5 -9t6.5 -8q7 0 7 5q1 3 3.5 14t5 24t4.5 24t2 14v3l-15 28q-20 50 -34.5 98.5t-26.5 99.5
l-10 10q12 17 25 38t23 41.5t16.5 39.5t6.5 32v6q0 5 -0.5 9t-0.5 9v7q-5 9 -9.5 13.5t-15.5 4.5q0 -6 -0.5 -15t-2.5 -18t-6 -15.5t-11 -6.5q0 38 3 75t3 75q-11 0 -18.5 -7.5t-10.5 -9.5q-14 -17 -23.5 -29t-15 -24t-6.5 -24.5t1 -28.5v-65l-7 -78q-11 7 -19 5
q-5 8 -4.5 15.5t0.5 16.5q0 2 0.5 9.5t0.5 10.5q7 2 7 7v7zM69 615v-11q-5 6 -13.5 17t-8.5 22h16q1 0 2.5 -10.5t3.5 -17.5zM239 208v11q5 -7 13.5 -17.5t8.5 -21.5h-15q-1 0 -3 10.5t-4 17.5zM185 197l7 -6q8 5 8 14q-9 0 -15 -8zM124 626l-8 6q-8 -6 -8 -13q9 0 16 7z
M233 304q4 0 4 -6q0 -5 -4 -5q-6 0 -6 5q0 6 6 6zM63 688q5 0 5 6q0 5 -5 5q-6 0 -6 -5q0 -6 6 -6zM76 520q-5 0 -5 5q0 6 5 6t5 -6q0 -5 -5 -5zM266 180q4 0 4 -5q0 -6 -4 -6q-6 0 -6 6q0 5 6 5zM246 135q-5 0 -5 -5q0 -6 5 -6t5 6q0 5 -5 5zM42 643q-5 0 -5 5q0 6 5 6
q6 0 6 -6q0 -5 -6 -5zM272 163q5 0 5 -6q0 -5 -5 -5q-4 0 -4 5q0 6 4 6zM35 660q-4 0 -4 6q0 5 4 5q5 0 5 -5q0 -6 -5 -6zM63 541q0 1 -0.5 1.5t-0.5 1.5t0.5 2l0.5 1l6 6l1.5 0.5t2.5 0.5t1.5 -0.5t1.5 -0.5zM246 282v-3v-4l-7 -5l-1.5 -0.5t-2.5 -0.5h-1q0 1 -1 1z" />
    <glyph glyph-name="FL0059h" unicode="Y" horiz-adv-x="282" 
d="M157 524q0 2 2 13.5t5 25t6.5 24.5t6.5 13q15 7 18 21t3 29t2 29.5t16 22.5q2 1 7 3t6 4l0.5 1l1.5 3q0 5 1 11t3 8q2 3 5.5 10t5.5 9q8 0 8 -5q1 -3 5 -14.5t7.5 -24t7 -24t3.5 -14.5v-3l-10 -31l-99 -253q-3 -3 -6.5 -11t-6 -17.5t-3.5 -18.5t-1 -13q8 -2 8 -5l1 -8
q0 -2 -2 -13.5t-5 -25t-7 -24.5t-7 -12q-15 -8 -17.5 -22t-2.5 -29t-2 -29t-16 -23l-7 -3.5t-6 -4.5l-0.5 -0.5t-1.5 -2.5q0 -5 -1 -11t-3 -9q-2 -2 -6 -9t-6 -9q-7 0 -7 4q-2 4 -5.5 15.5t-7.5 24.5t-7.5 24t-3.5 14v4l11 29q16 52 26 103.5t16 105.5q2 2 4 4.5t6 6.5
q-15 16 -31 36.5t-29.5 41.5t-22.5 39.5t-10 32.5v6q-1 5 -1 9q0 5 -1 10v6q4 9 8.5 15t15.5 7q0 -6 1.5 -15.5t5 -18.5t8.5 -15.5t13 -6.5q-5 39 -12.5 77.5t-12.5 77.5q11 1 20 -6.5t12 -9.5q2 -18 8 -32t12.5 -26.5t12.5 -26t9 -29.5l8 -67l33 -71q11 7 19 7q5 8 4 16
t-2 17q-1 2 -2 10t-2 10q-8 0 -8 6zM223 633l2 -12q5 8 13 19t6 23l-17 -1q-1 0 -1.5 -11t-2.5 -18zM93 201l-1 11q-5 -8 -13 -19.5t-6 -22.5l16 1q1 0 1.5 11t2.5 19zM151 194l-7 -7q-9 4 -11 13q10 0 18 -6zM166 640l7 7q9 -7 10 -14q-11 0 -17 7zM89 299q-5 0 -4 -5
q0 -6 5 -6q6 0 6 7q-1 4 -7 4zM222 708q-5 0 -5 6q-1 6 4 6q6 0 6 -5q1 -5 -5 -7zM228 533q6 0 4 7q0 5 -5 5q-6 0 -6 -6q1 -6 7 -6zM68 169q-5 0 -5 -6q1 -5 6 -5q6 2 5 6q0 6 -6 5zM95 124q5 0 5 -5q1 -6 -4 -6q-5 -1 -7 5q0 4 6 6zM249 664q5 0 5 6q-2 5 -6 5
q-6 -2 -5 -6q0 -7 6 -5zM63 151q-5 0 -5 -6q1 -5 6 -5t4 6q0 5 -5 5zM254 682q5 0 5 6q-1 7 -6 5q-5 0 -4 -6q0 -5 5 -5zM239 557q0 1 0.5 1.5t0.5 1.5t-0.5 2l-0.5 1l-8 7h-4q-1 0 -1.5 -0.5t-2.5 -0.5zM78 276q0 -1 -0.5 -2t-0.5 -2l1 -2l8 -5l1.5 -0.5t2.5 -0.5t1.5 0.5
t1.5 0.5z" />
    <glyph glyph-name="FL005Ah" unicode="Z" horiz-adv-x="256" 
d="M73 38l119 1q0 11 5.5 14.5t5.5 12.5v3q-1 4 -2 7.5t-2 6.5h35v29h-75q-3 17 -17 20t-23 3h-6q-1 0 -7.5 -3t-8.5 -3l-9 -4q4 23 14.5 49t27.5 40q2 1 5 13.5t5.5 27.5t4 28t1.5 15l-1 11q0 1 -3 5t-6.5 8.5t-7.5 8t-5 3.5q0 6 3.5 13t8 14.5t9.5 13t8 8.5l46 178
q-4 0 -5 8q0 4 5 4q2 0 2 -1l5 17l-10 14q1 0 1.5 0.5t1.5 0.5h2l6 -9l20 82l8 37v3q-1 2 -1.5 8t-2.5 14q1 3 -1 5t-4.5 4l-5 4t-2.5 6v3q0 4 -1.5 8t-3.5 7h36v27h-54q0 5 -6 5q-1 -1 -3 -5h-11q-3 18 -17.5 21t-23.5 3h-5q-2 0 -8 -4.5t-8 -4.5q-6 0 -3.5 -0.5t-0.5 -1
t-20 -0.5t-62 1q-1 0 -3 -1t-2 -3l-4 -12t-2 -8t2 -3.5t4 -4.5q10 -7 22 -9t23 -2h13l5 -7q-4 -2 -9 -5.5t-5 -11.5l1 -3q1 -5 3.5 -10.5t4.5 -5.5h74q-3 -12 -3 -26v-28q0 -13 -3 -24.5t-12 -17.5q-2 -2 -4.5 -15t-5 -28t-4.5 -28t-2 -15l1 -9q0 -7 6 -7q1 -3 2 -12.5
t2 -11.5q0 -10 1 -19t-3 -18q-1 0 -5.5 2.5t-9.5 5.5t-10 4.5t-7 -0.5l-57 -312l-8 -35v-3q0 -2 0.5 -3.5t0.5 -5.5h-12q-4 0 -6 -5t-3.5 -11.5t-1.5 -9.5q0 -1 1.5 -3t3.5 -4q6 -5 13 -7.5t14 -4.5q2 -12 4.5 -21.5t3.5 -13.5q0 -5 5 -5q2 3 5 10.5t4 9.5q2 3 2.5 9t0.5 10
h3q0 -7 3 -4q2 0 2 2l4 -3q-4 -2 -9 -5.5t-5 -11.5l1 -3q2 -4 4.5 -10t3.5 -6zM195 675q2 8 2 21q0 14 1 14l12 1q2 -14 -4 -27t-10 -22zM72 177q-2 -9 -2.5 -22l-0.5 -13l-13 -1q-1 13 5 26.5l10 22.5zM115 169q-8 8 -14 8q2 -12 8 -17zM126 681q5 -8 13 -8q-1 10 -7 17z
M52 139q5 3 5 -5q1 -3 -4 -5q-3 0 -4 4q0 6 3 6zM214 712q-5 -2 -5 5q0 5 4 6q3 0 5 -4q0 -7 -4 -7zM52 309q-3 0 -3 -6q0 -7 3 -7q5 0 5 8q-2 5 -5 5zM190 83q3 0 3 -8q0 -2 -0.5 -4t-2.5 -2t-3.5 2t-1.5 4q0 8 5 8zM203 776q3 0 3 -8q0 -7 -3 -7h-2l-1 11q0 4 3 4zM60 263
l12 -13q-1 0 -1.5 -0.5t-1.5 -0.5l-3 1l-6 7l-1 2l0.5 1.5t0.5 2.5zM121 95l2 -1l-4 -6l-3 -1q-1 0 -1.5 0.5t-1.5 0.5q2 5 3 5.5t3 0.5l0.5 0.5t1.5 0.5zM136 788v-1t1 -1l-4 -6l-1 -0.5t-2 -0.5l-0.5 0.5t-1.5 0.5q2 6 5 6l1 1t2 1zM199 561q4 0 2 9q0 1 -1 1v1l-2 -11h1z
M206 588q0 1 0.5 2t0.5 2l-1 3l-1 -6zM218 732q-2 0 -3 1h5q-1 -1 -2 -1z" />
    <glyph glyph-name="FL005Bh" unicode="[" horiz-adv-x="266" 
d="M51 728q0 -20 8 -42t8 -47q0 -14 -3 -22t-19 -18q-1 -10 -2.5 -36t-2.5 -55t-1.5 -55t-0.5 -37q0 -3 0.5 -9t-0.5 -8l-2 -5t-5 -11t-5 -11t-2 -6q0 -6 4.5 -11.5t9.5 -5.5l-7 -168q-1 -1 -5 -16t-8 -32.5t-7 -33t-3 -18.5q0 -2 6 -7t14 -10.5t15 -10t9 -5.5q3 -2 11 -3.5
t17.5 -2.5t18 -2t11.5 -1q-1 -13 2.5 -15.5t11.5 -2.5q1 0 7 4t12 9.5t11 10.5t5 7h66q3 0 6 5t5.5 11t3.5 12.5t1 9.5h-55l-5 12.5t6 8.5l16 4t8 12v4q-3 4 -5.5 8.5l-2.5 4.5h-64q-5 0 -8.5 20t-5 45.5t-2 50t-0.5 33.5l9 329q0 4 -1 20t-2 34t-2.5 33t-2.5 16l7 9
q21 -7 36.5 -8.5t32.5 -1.5h25h7q5 0 10.5 0.5t10.5 0.5h7q6 4 7 7.5t1 8.5q0 4 -0.5 6.5t-0.5 3.5q-2 1 -10 3.5t-17 6.5t-18 9.5t-12 12.5q-2 3 -0.5 7.5l1.5 4.5h28v13q0 8 -10 9.5t-25 -0.5t-31.5 -5t-29.5 -2t-19 8.5t0 24.5q-1 0 -3 0.5t-4 0.5q-1 0 -7.5 -6
t-14.5 -13.5t-16.5 -14t-12.5 -8.5q-8 -4 -11 -12.5t-4 -19.5t-0.5 -22t0.5 -20z" />
    <glyph glyph-name="FL005Ch" unicode="\" horiz-adv-x="328" 
d="M278 174q8 -1 17.5 -8t11.5 -9q1 0 2 0.5t2 0.5q8 4 7 7.5t-3 7.5l-3 6l-1 5t-2.5 11t-2.5 11t-2 6q-5 14 -17 39q-6 13 -11.5 23t-7.5 14q10 9 11 16t-2 13l-5 10q-6 13 -15 23.5t-16 24.5q-19 41 -35.5 82t-36.5 83l-8 18q-10 0 -16 7.5t-11 15.5l-4 10q-2 4 -4 10
t-4 8q-2 8 -7 22t-8 23.5t-4 10.5l-57 57q1 5 0 13t-3 11l-3 9q-17 -8 -27 -22t-7 -30q4 -21 6 -35.5t5.5 -24t9.5 -14.5t17 -7l5 -10l6 -12q3 -9 8 -22t10 -25.5t8 -22l3 -9.5l-4 -9q7 -19 9.5 -38.5t11.5 -38.5l5 -11q1 -3 12 -6q3 -6 7.5 -17t11.5 -25q6 -13 11.5 -23.5
t8.5 -17.5q1 -2 5.5 -9t9.5 -15t9.5 -15t5.5 -9q1 -3 4 -11t6.5 -17.5t6.5 -18t4 -11.5l-7 -16l1 -2l1 -3q2 -2 6 -4t5 -4t0.5 -12t-1.5 -14l41 -86q7 7 9 10.5t1.5 7.5t-2 8.5t-0.5 13.5q2 7 5.5 12l7 10t5 10.5t-1.5 13.5zM319 134q0 1 -1 2l-1 1l-8 2h-1t-2 -1
q-8 -4 -5.5 -11t4.5 -12q4 2 11 6.5t3 12.5zM260 196l-10 -23q-1 -4 -0.5 -11.5t2.5 -11.5l-6 -3q0 3 -1 5l-2 4l-3 8q-6 12 -5 20.5t13 19.5q3 1 8 -1.5t4 -6.5zM232 271l5 -10q-10 0 -13 6zM100 504l15 -31l-6 -3l-15 31z" />
    <glyph glyph-name="FL005Dh" unicode="]" horiz-adv-x="266" 
d="M225 136q0 20 -8 42t-8 47q0 7 0.5 12t2.5 9.5t6.5 9t12.5 9.5q1 10 2.5 36t2.5 55t1.5 55t0.5 37q0 3 -0.5 9t0.5 8l2 5t5 11t5 11t2 6q0 6 -4.5 11.5t-9.5 5.5l7 168q1 1 5 16t8 32.5t7 33t3 18.5q0 2 -6 7t-14 10.5t-15 10t-9 5.5q-3 1 -11 3t-17.5 3t-18 2t-11.5 1
q1 13 -2.5 15.5t-11.5 2.5q-2 0 -7.5 -4t-11.5 -9.5t-11 -10.5t-5 -7h-66q-3 0 -6 -5t-5.5 -11t-3.5 -12.5t-1 -9.5h55l5 -12.5t-6 -8.5l-16 -4t-8 -12v-4q3 -4 5.5 -8.5l2.5 -4.5h64q5 0 8.5 -20t5 -45.5t2 -50t0.5 -33.5l-9 -329q0 -4 1 -20t2 -34t2.5 -33t2.5 -16l-7 -9
q-21 7 -36.5 8.5t-32.5 1.5h-25h-7q-5 0 -10.5 -0.5t-10.5 -0.5h-7q-6 -4 -7 -7.5t-1 -8.5q0 -4 0.5 -6.5t0.5 -3.5q2 -1 10 -3.5t17 -6.5t18 -9.5t12 -12.5q2 -3 0.5 -7.5l-1.5 -4.5h-28v-13q0 -9 10 -10t25 1t31.5 5t29.5 2t19 -8.5t0 -24.5q1 0 3 -0.5t4 -0.5q1 0 7.5 6
t14.5 13.5t16 14t13 8.5q7 4 10.5 12.5t4.5 19.5t0.5 22t-0.5 20z" />
    <glyph glyph-name="FL005Eh" unicode="^" horiz-adv-x="328" 
d="M229 862q-1 -4 -4 -13.5t-5 -20.5q-4 -11 -6 -20t-3 -13q-1 -9 2.5 -19.5l6.5 -19.5q1 -9 3.5 -32.5t5 -49t3 -48t-3.5 -29.5q18 -30 28 -58.5t18 -58.5t17.5 -61.5t27.5 -66.5l-1 -3q-2 -8 -10 -13t-16 -7q-5 -29 -13 -57t-24 -55q-3 -2 -5 -2.5t-4 -1.5l-4 1
q-11 3 -14 11t-2 18t4.5 19.5t5.5 15.5q-6 1 -9 -0.5t-5.5 -3.5t-6.5 -3.5t-11 -0.5q-12 2 -12 6t2 11q2 8 11 13t11 10q2 7 0 29t-7 46.5t-12 45.5t-13 27q0 6 -1 19.5t-2.5 28.5t-3 28t-1.5 18q-2 11 0.5 20t-2.5 19q-10 -15 -13.5 -24t-7.5 -22q-2 -9 0 -15.5t-1 -15.5
q-10 -34 -22 -66.5t-23 -65.5q-8 -28 -11.5 -55.5t-11.5 -54.5l-5 -18q-3 -1 -10.5 -4t-11.5 -2q-1 0 -2 1l-1 1q-2 0 -3 1.5t-3 2.5v3l1 3l8 4q2 2 1 4l-1 2q-2 0 -2.5 1t-2.5 1l-7.5 -2t-13.5 -3.5t-7 -1.5q-3 2 -8 5.5t-4 7.5l29 109l-18 -8q3 29 7.5 51t11.5 46l10 33
l3 11l6 21l1 5l10 3l3 14q1 8 3 20t6 24l7 26l7 25q5 13 8 24.5t6 20.5l4 12q1 4 4 13l6 18t6.5 17.5t6.5 12.5q2 3 6 3t7.5 0.5t6 2t2.5 7.5q1 7 -1 14.5t-4.5 15t-4 15.5t0.5 16q2 7 6 10.5t8.5 7t8.5 8.5t7 14q3 -1 10.5 -4t15.5 -7t14 -8.5t7 -8.5zM142 722l13 40l-8 -4
l-12 -41z" />
    <glyph glyph-name="FL005Fh" unicode="_" horiz-adv-x="424" 
d="M332 78q2 0 6.5 -5t6.5 -9l1 -3q0 -7 -8 -9.5t-13 -4.5l7 -6h20q15 0 30.5 -1.5t28.5 -8.5q2 -2 4.5 -4t2.5 -3q0 -2 -2.5 -7t-4.5 -10q-3 -5 -7 -5h-172q2 -5 4.5 -12t2.5 -11q0 -2 0.5 -5.5l0.5 -3.5q-9 0 -15.5 5t-12 11t-11.5 11t-14 5q-2 0 -10.5 -3.5t-10.5 -3.5
h-7q-6 0 -14.5 0.5t-16.5 2.5t-14 6t-8 12h-100v25h48q-2 2 -4 5.5t-3 5.5v3q0 8 8.5 11.5t8.5 12.5zM66 41q6 0 6 6q0 5 -6 5q-4 0 -4 -5q0 -6 4 -6zM156 30q1 0 2 0.5l1 0.5q3 0 7 5q-1 0 -1.5 0.5t-1.5 0.5t-2.5 -0.5l-1.5 -0.5l-6 -5q1 0 2 -0.5z" />
    <glyph glyph-name="FL0060h" unicode="`" horiz-adv-x="208" 
d="M200 634q-2 2 -14 18t-27 35.5t-29 36.5t-20 22q-11 8 -20 17t-12 13q-11 -3 -25.5 -13t-25 -19t-13.5 -14.5t10 -0.5q9 4 11 -1.5t2 -14.5t1.5 -20t10.5 -18q-2 1 15 -6.5t38.5 -21.5t41 -33.5t22.5 -43.5q4 4 10.5 12.5t12.5 18.5t9.5 19t1.5 14z" />
    <glyph glyph-name="FL0061h" unicode="a" horiz-adv-x="353" 
d="M246 818q-1 5 -7 7.5t-13.5 3.5t-15.5 1.5t-12 1.5q-3 -12 -5.5 -14.5t-5.5 -3.5t-5.5 -2.5t-4.5 -10.5q-5 -21 -2 -38.5t0 -37.5q0 -7 -2.5 -9t-6.5 -2.5l-8 -1t-6 -3.5q-3 -5 -6.5 -15.5t-7.5 -22t-7 -22.5t-4 -16l-4 -16q-3 -11 -6 -25t-8 -31l-8 -32l-7 -32
q-4 -16 -6.5 -30.5t-4.5 -24.5l-3 -17l-10 -5l-1 -6l-6 -27l-3 -14l-10 -42q-7 -30 -12 -57.5t-9 -63.5l20 10l-32 -138q-1 -5 4 -9.5t10 -6.5q1 0 7.5 1.5t14 4l7.5 2.5q2 0 2.5 -1t2.5 -1l1 -2.5t-1 -4.5l-8 -5l-1 -4v-3q4 -6 6 -6l1 -1t2 -1q4 -1 11.5 3t12.5 5l5 21
q7 29 11 58.5t9 59.5l57 -24l7 14q2 -1 11 -1h16q15 0 24 4q3 -21 4 -38t-1 -23q-2 -8 -11 -14t-11 -17q-2 -8 -2 -14q0 -5 12 -7q7 -2 11 0t7 5t6 4.5t9 0.5q-2 -7 -5.5 -19t-4.5 -25t2.5 -23.5t15.5 -13.5l4 -1q3 1 9 6q16 34 24.5 69t14.5 71q9 4 17 10t10 16l1 3
q-19 44 -29.5 84t-18.5 77.5t-18.5 73.5t-29.5 73q4 9 3.5 37.5t-3 60.5t-5.5 61.5t-4 41.5q-3 11 -6.5 24.5t-2.5 24.5q1 5 3 17t6 26q3 14 6 25.5t4 16.5zM215 262q-13 2 -26 3.5t-25 3.5q-11 8 -28 8q8 26 15.5 51.5t13.5 51.5q3 11 1 19t0 19q5 17 8.5 28.5t13.5 29.5
q5 -12 2.5 -23.5t-0.5 -24.5q0 -7 1.5 -24t3 -35.5t2.5 -35.5t1 -24q5 -5 9 -17.5t8 -29.5zM155 641l-7 -6l12 52l8 5zM228 195q-8 5 -8 17q0 5 4 8q1 -7 2 -13z" />
    <glyph glyph-name="FL0062h" unicode="b" horiz-adv-x="288" 
d="M195 452q-2 3 -3 3q-3 0 -4 -3.5t4 -3.5q4 0 3 4zM51 63q-1 4 -3 4t-3.5 -4t3.5 -4q4 0 3 4zM74 845h-10q3 7 10 7v-7zM171 576q-2 -1 -3 -7.5t-3 -10.5v-5h6v23zM149 707q0 -11 12 -20v5q0 6 -2.5 10.5t-9.5 4.5zM146 670q-5 5 -10.5 12t-10.5 12q1 -12 -2 -23t-7 -21
t-7 -17t-3 -11v-33q0 -6 4 -11t9 -10t9.5 -9t5.5 -8q9 14 15.5 29t11.5 29q-9 15 -8 32t-7 29zM141 440q-9 6 -18 6q-6 0 -9.5 -1t-8.5 -8v21q-4 -2 -10 -6q2 -8 4 -18.5t3 -10.5h14v-266q0 -4 3 -5.5t7 -3t7.5 -4.5t4.5 -9l36 43q-4 14 -1 27t8.5 26.5t10.5 27t5 27.5
q0 3 -0.5 8.5t-1.5 6.5l-14 7q0 8 -1.5 25.5t-5 37t-10.5 38t-18 28.5l-5 -9v12zM59 833q2 -1 6 -5t8 -9q2 -1 6 -2.5t6 -3.5l2 2v4l0.5 -0.5t1.5 -0.5q4 7 5 15.5t1 16.5h11l5.5 -5.5t10.5 -11.5t8 -11q17 -23 32.5 -50.5t28.5 -55t22.5 -54t14.5 -47.5v-28q0 -10 -5.5 -21
t-13 -21.5t-14.5 -20.5t-11 -18l55 -54q-2 -10 -1 -16t3 -11.5t4 -10.5t2 -13q0 -7 -1.5 -11t-6.5 -10q9 3 14 0.5t7.5 -8.5t3.5 -13.5t1 -14.5q0 -9 2 -15q1 -2 7.5 -7t7.5 -7q0 -1 0.5 -5t0.5 -6t-0.5 -6t-0.5 -5q-1 -2 -4 -9.5t-7 -15.5t-7 -15.5t-4 -9.5q-9 -23 -9 -49
v-26q0 -6 0.5 -12.5t1.5 -13.5q-9 -7 -13.5 -13t-9 -11t-10.5 -9.5t-17 -9.5q-10 -4 -26.5 -19t-33 -31.5t-28.5 -30t-13 -13.5h-58q-3 0 -9 10t-12.5 22t-11 23t-4.5 13q0 15 3.5 29t8 28t8.5 28t4 29q0 13 -2.5 21.5t-6 15.5t-6 13t-2.5 13q0 2 0.5 4.5l0.5 2.5l15 -7
q0 11 -0.5 33.5t-0.5 51.5v119q0 29 0.5 51t0.5 33q0 8 0.5 21.5t1 27.5t1.5 26.5t2 19.5q-2 5 -3.5 11.5t-1.5 17.5q0 27 0.5 50t4.5 54q-2 1 -3.5 6t-3.5 10.5t-3 10.5t-1 6q0 12 10 23.5t21 11.5q1 0 2.5 -0.5zM57 389q0 -2 -1.5 -16.5t-3 -32t-3 -33.5t-1.5 -20
q0 -11 6 -17t6 -9v-1q-1 -3 1.5 -1.5t6.5 5.5t7 10t3 13q0 11 -9.5 20t-9.5 11z" />
    <glyph glyph-name="FL2020h" unicode="c" horiz-adv-x="309" 
d="M185 683q33 -50 50.5 -72.5t25 -29t7 -2t-3.5 10.5v137q0 4 -3.5 11t-9 14t-10.5 12.5t-8 5.5h-5l-36 -7h-8q-8 0 -11 7t-12 7q-37 0 -65 -30t-46.5 -72t-28 -85.5t-9.5 -70.5q0 -38 5 -80t7 -79q12 -9 16 -25t4.5 -33.5t1.5 -35t7 -29.5l21 -21q3 -5 5 -18t2 -18h8v14h7
q2 -2 8.5 -13t14.5 -24t15.5 -23.5t11.5 -11.5q11 -1 21 1.5t15 -8.5q6 -12 10.5 -16.5t10.5 -7.5l13 -6.5t17 -12.5q9 5 11 15.5t2.5 22t2.5 21.5t12 13q0 -3 4.5 -16t9.5 -26t9 -19.5t3 2.5q-4 48 -10 76.5t-14.5 44.5t-18 21.5t-19.5 8t-19.5 3.5t-17.5 8q-6 -2 -10 -2
q-9 0 -11 2t-2 6v10q0 5 -5 13q-1 1 -5 5.5t-9 9.5t-9.5 9t-5.5 5q-2 2 -4.5 14.5t-4.5 30t-4 38t-3 39.5t-2 33.5t-1 20.5q0 19 -1 51.5t2 65t12.5 59t30.5 34.5q5 2 15.5 -1t13.5 -7zM207 597v86q0 18 16 18v-10q0 -12 -1 -25.5t-1 -18.5q0 -8 -2 -20t-3.5 -20.5
t-1.5 -9.5h-7zM185 719q-5 -10 -10.5 -12.5t-14.5 -2.5q-2 0 -5.5 0.5t-5.5 0.5q4 22 25 22h4q2 -1 7 -8zM60 317q-8 8 -9 19t-1 21v10h10v-50zM156 755q-5 0 -5 8q0 7 5 7q6 0 6 -7q0 -8 -6 -8zM109 240l-13 -17v7l13 17v-7z" />
    <glyph glyph-name="d" unicode="d" horiz-adv-x="324" 
d="M145 109h-8l-36 -7h-5q-3 0 -8 5.5t-10.5 12.5t-9 14t-3.5 11v137q-6 11 -9.5 25.5t-16.5 17.5v-72l-10 8q0 1 -1.5 19.5t-3.5 51t-4 67.5t-4 69.5t-2 58.5v6q0 8 -0.5 14t-0.5 14v12q0 10 1 42.5t4 67.5t8 62.5t13 27.5q9 0 14.5 -8t8 -18.5t3 -20t0.5 -12.5q10 3 12 13
t2.5 21.5t2.5 22t11 15.5q10 -9 17 -12.5l13 -6.5t10.5 -7.5t10.5 -16.5q5 -11 15 -8.5t21 1.5q4 -1 11.5 -12t15.5 -23.5t14.5 -23.5t8.5 -13h7v14h8q0 -5 2 -18t5 -18l21 -21q6 -12 7 -29.5t1.5 -35t4.5 -33.5t16 -25q2 -37 8.5 -72t6.5 -73q0 -27 -9.5 -70.5t-28.5 -85.5
t-46.5 -72t-64.5 -30q-9 0 -12 7t-11 7zM173 117q-6 0 -6 -8q0 -7 6 -7q5 0 5 7q0 8 -5 8zM144 153q5 -7 7 -8h4q21 0 25 22q-2 0 -5.5 0.5t-5.5 0.5q-9 0 -14.5 -2.5t-10.5 -12.5zM122 275h-7q0 -1 -1.5 -9.5t-3.5 -20.5t-2 -20q0 -5 -1 -18.5t-1 -25.5v-10q16 0 16 18v86z
M144 189q3 -4 13.5 -7t15.5 -1q21 8 33.5 34.5t19.5 58.5t9 64t2 52q0 9 -5.5 37t-12.5 58.5t-14.5 56t-10.5 28.5q-1 1 -5.5 5t-9.5 9l-9 9t-5 6q-5 8 -5 13v10q0 4 -2 6t-11 2q-4 0 -10 -2q-2 -35 -3.5 -63t-3 -53.5t-2 -51t-0.5 -56.5v-13q0 -8 0.5 -15.5t0.5 -15.5v-6
q1 -9 3 -33t4 -50.5t4 -49.5t4 -32zM81 505q0 -13 -4.5 -23t-4.5 -23v-4q7 1 11 7.5t6 15t2.5 16.5t0.5 11h-11zM266 541v-50h10v10q0 10 -1 21t-9 19zM216 635v-7h14v7h-14z" />
    <glyph glyph-name="e" unicode="e" horiz-adv-x="266" 
d="M51 182q0 17 8.5 36.5t8.5 40.5q0 13 -3 19.5t-20 14.5q-1 9 -2.5 31.5t-2.5 47.5t-1.5 47.5t-0.5 31.5q0 2 0.5 7.5t-0.5 7.5l-2 4.5t-5 9.5t-5 9t-2 5q0 5 4.5 10t9.5 5l-7 144q-1 1 -5 14t-8 28.5t-7 29t-3 15.5q0 1 6 5.5t14 9t15 8.5t9 5q3 1 11.5 2.5t17.5 2.5
t17.5 1.5t11.5 0.5q-1 11 2.5 13.5t11.5 2.5q1 0 7 -3.5t12.5 -8t11.5 -9t5 -6.5h65q4 0 7 -4t5 -9.5t3.5 -10.5t1.5 -8h-55q-2 -5 -5 -11t6 -7q8 -2 15.5 -4t7.5 -10v-4q-2 -2 -4.5 -6.5l-2.5 -4.5h-65q-5 0 -8.5 -17t-5 -39t-2 -43t-0.5 -29v-24t9 -24q29 -3 62.5 -8
t59.5 -21l-7 -14q-3 0 -12.5 0.5t-20 -0.5t-18.5 -4t-8 -10q0 -15 16 -22q-5 -5 -13.5 -7t-17.5 -2h-16q-9 0 -11 1l-7 -14v-130q0 -3 -3 -11t-7 -16l-7.5 -15t-4.5 -8l7 -7q22 5 37.5 6.5t32.5 1.5h24h7q5 0 11 -0.5t11 -0.5h7q6 -2 7 -5.5t1 -8.5q0 -2 -0.5 -4.5
t-0.5 -3.5q-2 -1 -10 -3t-17.5 -5.5t-18 -8.5t-11.5 -11q-2 -2 -0.5 -6.5l1.5 -4.5h27v-11q0 -7 -9.5 -11t-23.5 -7t-30 -6.5t-28 -9t-17.5 -14.5t0.5 -24q-1 0 -3 -0.5t-4 -0.5q-1 0 -7.5 5t-14.5 11.5t-16 12.5t-12 8q-8 3 -11.5 10.5t-4.5 16.5t-0.5 18.5t0.5 16.5z" />
    <glyph glyph-name="FL0066h" unicode="f" horiz-adv-x="310" 
d="M70 804q-1 0 -2 0.5l-1 0.5q-2 2 -4.5 7.5t-3.5 7.5q-2 0 -4.5 -3t-2.5 -5t4 -7t3 -7t-7 -7t-7 -7v-29q-2 -5 -7 -15l-7 -14v-94q-12 -3 -14 -9.5t0.5 -15t6 -18.5t3.5 -19q0 -17 1 -32t3 -31q-7 -5 -7 -13q-1 -2 3 -8t7 -12q1 -9 1.5 -18.5t0.5 -18.5v-14
q0 -14 -1.5 -29.5t-6.5 -26.5q-1 -2 -7 -4t-8 -3l-7 -7q4 -39 6 -76t3.5 -73.5t2.5 -74t3 -79.5q1 -2 3 -3.5t4 -3.5l1 -0.5t2 -0.5q12 0 21 6.5t16.5 14t13.5 14t13 6.5q0 -1 -1.5 -8.5t-2 -16.5t1.5 -16t10 -7q1 0 2.5 0.5l1.5 0.5q4 3 7 7q-5 96 -4 189t3 187l26 -11
l7 14q2 -1 11 -1h16q9 0 17.5 2t13.5 7q-16 7 -16 22q0 7 8 10t18.5 4t20 0.5t12.5 -0.5l7 14q-26 16 -59.5 21t-62.5 8l-8 4t-9 3q3 94 3 189q0 5 -0.5 12.5t-0.5 8.5q0 2 -4 7t-3 7q1 3 6.5 8.5t7.5 6.5q1 0 9 -1t18 -2t18.5 -2t9.5 -1t6 -0.5t7 -0.5t5.5 0.5l3.5 0.5
q2 2 5.5 12.5t1.5 15.5h50q0 1 6 7l13.5 13.5l14.5 14.5l9 9q-2 5 -9 9.5t-12 4.5l-106 -1q3 -2 3 -6q0 -7 -5 -7q-6 0 -6 7q0 4 2 6h-65q-3 -5 -13.5 -15.5t-15.5 -13.5l-1.5 -0.5t-2.5 -0.5zM40 277q0 20 9 40q5 -3 8 -8v-7q-2 -6 -4 -15.5t-13 -9.5zM124 812q-5 0 -5 8
q0 7 5 7h6q6 0 11.5 -1t10 -2t4.5 -3t-4.5 -3.5t-10 -3t-11 -2t-6.5 -0.5zM66 722q0 1 0.5 2.5l0.5 1.5q1 3 7 7q0 -1 0.5 -1.5t0.5 -1.5t-0.5 -2.5l-0.5 -1.5l-7 -7q0 1 -0.5 2zM100 517h-8q0 6 8 8v-8zM172 835q-3 0 -4 -1h6q0 1 -2 1z" />
    <glyph glyph-name="FL0067h" unicode="g" horiz-adv-x="343" 
d="M210 699q1 -9 2 -23t1.5 -28.5t0.5 -28.5v-23q28 -3 43 -0.5t21.5 8t6.5 12.5t-2 13l10 108q0 4 -3 12t-7.5 16t-9 14t-7.5 6l-5 1l-36 -3h-8q-8 1 -10.5 8t-11.5 9q-24 2 -46 -10.5t-40.5 -34.5t-33.5 -50.5t-26.5 -57.5t-18 -56t-8.5 -46q-5 -41 -1.5 -78t1.5 -76
q11 -11 13.5 -28t1.5 -36t-2 -37t4 -31l18 -24q3 -7 4 -20.5t0 -18.5l8 -1l1 14h7q2 -2 7.5 -14.5t12 -27t13 -26.5t10.5 -13q11 -2 20.5 -0.5t14.5 -11.5q4 -12 8.5 -17.5t10 -9t12 -8t15.5 -14.5q10 4 13 14.5t4.5 22.5t4.5 22.5t13 12.5q0 -3 -0.5 -13.5t1 -21.5t6 -20
t13.5 -10q8 -1 18 17t19 42t15.5 48t7.5 35l1 12q1 9 1 15t1 15l1 6q2 35 4 87.5t4 99.5q-23 -6 -54 -8.5t-59.5 -4t-47.5 -2t-18 -1.5l52 -52q13 -13 22.5 -19t14 -10t5 -9.5t-3.5 -17.5t-12.5 -34.5t-22.5 -59.5h-7t-13.5 1t-13.5 1.5t-7 0.5q-9 1 -10.5 3t-1.5 6l1 11
q0 7 -4 15q0 1 -4 6t-8.5 10.5t-8.5 10t-5 6.5q-3 4 -7.5 31t-8.5 60t-7 63t-2 40q2 20 7.5 53.5t15.5 67t25 60t37 32.5q5 2 15.5 -3t12.5 -9zM227 643l5 53q2 19 18 18l-1 -11q-2 -13 -4 -27t-3 -19q-1 -13 -4.5 -14l-3.5 -1zM255 294l-11 1q0 3 1.5 11.5t4.5 17t7.5 15
t11.5 7.5v-5q-2 -14 -7 -23.5t-7 -23.5zM214 736q-7 -10 -12.5 -12t-14.5 -1q-2 0 -5.5 1.5t-5.5 1.5q8 23 27 21l4 -1q1 -1 7 -10zM54 342q-8 10 -8 21t2 22l1 10l10 -1zM188 777q-4 0 -4 10q1 6 6 6q6 0 5 -7q0 -9 -7 -9zM94 238l-14 1l1 7l14 -1z" />
    <glyph glyph-name="FL0048h" unicode="h" horiz-adv-x="318" 
d="M245 723q-1 9 -4.5 13.5t-8 7.5t-10 6.5t-10.5 9.5q-4 8 -5 13.5t-2 9t-4.5 6.5t-12.5 6v-102q2 -3 7 -13.5t5 -12.5t-2.5 -6.5t-3.5 -6.5v-6l13 -12q1 -3 1.5 -12.5t1.5 -21t1.5 -21t0.5 -12.5t-0.5 -10.5t-1.5 -16.5t-2 -17.5t-1 -13.5q-20 7 -39.5 9.5t-37.5 4.5v20
v23q-9 5 -11.5 15.5t-2.5 21.5v13q0 5 0.5 12.5t0.5 9.5q1 11 2.5 28t3 28t1.5 13l-27 89q2 5 4.5 13t2.5 13q0 3 0.5 7l0.5 4q-17 0 -32 -9.5t-20 -27.5q-5 -24 -9.5 -40t-5.5 -28t2.5 -20.5t12.5 -16.5v-28q-1 -11 -2 -27l-2 -32t-2 -27l-1 -11l-8 -8q-2 -18 -6 -34h-1
q-5 0 -9.5 -5t-4.5 -12q-1 -1 2 -7.5t6 -11.5q-1 -6 -1 -11v-11v-13q0 -4 8 -12q0 -8 -0.5 -22.5t-0.5 -31.5t0.5 -30.5t0.5 -22.5q0 -3 1 -12.5t2 -20t2 -20t1 -12.5t-0.5 -13.5t-1.5 -22t-2 -22t-2 -14.5l-13 -13v-7q1 -2 3.5 -6.5t2.5 -7.5q0 -2 -5 -12t-7 -15v-110
q9 4 12.5 7t5 7t2 10t5.5 15q5 6 10.5 9.5t10.5 6.5t8.5 8t4.5 15q8 -5 12.5 -17t5.5 -16h4q8 0 9 4.5t1 9.5v7l1 6t2.5 13t2.5 13t1 7q0 8 0.5 20.5t0.5 29.5q0 16 -0.5 29.5t-0.5 18.5q13 5 16.5 11.5t3.5 14.5v13q0 17 -3.5 32.5t-3.5 33.5v38t1 38l6 -2l7 16q2 -1 11 -1
h16q9 0 17.5 2t13.5 8q-16 9 -16 25q0 8 7.5 12t18.5 5v-19q0 -15 0.5 -28.5t0.5 -20.5q-8 -8 -8 -11v-13q0 -23 5.5 -43.5t7.5 -43.5l8 -5l1 -10.5t2 -25.5t2 -30.5t2 -25.5v-25q-9 -8 -12 -16t-2 -19t5 -26t9 -37q5 -17 19 -26t32 -9l-0.5 4t-0.5 6q0 4 -2.5 12t-4.5 13
l27 83q0 2 -1.5 12t-3 26t-2.5 26q0 2 -0.5 9t-0.5 10v13q0 11 2.5 21t10.5 15v19q0 53 -2.5 100.5t-2.5 95.5q0 17 3 32t3 30v13q0 6 -3.5 12t-15.5 10q0 6 0.5 18.5t0.5 27.5t-0.5 27.5t-0.5 18.5q0 1 -1 7t-2.5 12t-2.5 11.5l-1 5.5v8q0 4 -1 8t-9 4h-4q-2 -4 -6.5 -14.5
t-11.5 -15.5zM65 138l-19 -18q-2 -5 -5 -13t-3 -13h-6q1 3 1 6v5v11q0 15 4.5 23t20.5 13q3 -1 6 -5t1 -9zM239 693q2 -3 -1 -8t-6 -5q-16 4 -20 12t-4 22v10v4q0 3 -1 5h5q0 -3 3 -11t5 -12zM91 44q0 1 -0.5 2l-0.5 1l-5 7l-1 0.5t-2 0.5q-9 0 -10 -8.5t-1 -15.5
q5 0 12.5 1t7.5 12zM264 779q0 10 -7.5 11.5t-12.5 1.5q0 -5 1 -13t9 -8q1 0 2 0.5l1 0.5l6 4l0.5 1t0.5 2zM227 317h-7v38h7v-38zM63 231h9v-13q-9 3 -9 13zM245 605h-8q0 10 8 12v-12zM46 542h7v-12q-5 0 -7 -1v13z" />
    <glyph glyph-name="FL0069h" unicode="i" horiz-adv-x="156" 
d="M81 147q-8 -4 -12.5 -14.5t-6.5 -13.5h-4q-8 0 -9 3.5t-1 8.5v6l-1 5t-2.5 11t-2.5 11t-1 6q0 7 -0.5 18t-0.5 25t0.5 25.5t0.5 16.5q-13 4 -16.5 9.5t-3.5 12.5v11q0 14 3.5 28t3.5 29q0 45 -3 88.5t-3 91.5v19q9 5 11.5 14t2.5 19v11q0 4 -0.5 10.5t-0.5 8.5
q-1 9 -2.5 23.5t-3 24t-1.5 11.5l27 76q-2 5 -4.5 12t-2.5 11q0 2 -0.5 5.5l-0.5 3.5q18 0 33 -8t20 -24q5 -20 9.5 -34t5.5 -24.5t-2.5 -17.5t-12.5 -14v-11v-13q1 -9 2 -23.5t2 -28t2 -23l1 -9.5l8 -6q2 -20 8 -39t6 -40v-12q0 -4 -8 -10q0 -7 0.5 -19.5t0.5 -26.5
t-0.5 -26t-0.5 -20q0 -2 -1 -10.5t-2 -17.5t-2 -17.5t-1 -10.5q0 -3 0.5 -12t1.5 -19t2 -19t2 -12l13 -11v-3v-3q-1 -2 -3.5 -6t-2.5 -6t5 -11t7 -12v-95q-9 3 -12.5 5.5t-5 6.5t-2.5 8.5t-5 12.5q-5 6 -10.5 8.5t-10.5 5.5t-8.5 7.5t-4.5 12.5zM61 94q0 1 0.5 2l0.5 1l6 5
l1 0.5t2 0.5q9 0 10 -7.5t1 -12.5q-5 0 -13 1t-8 10zM88 175l19 -16q2 -4 5 -11t3 -11h6q-1 2 -1 4v5v9q0 14 -4.5 20.5t-20.5 11.5q-3 -1 -6 -5t-1 -7zM81 255v-11q9 3 9 11h-9zM100 522v-35h7v35h-7z" />
    <glyph glyph-name="FL006Ah" unicode="j" 
d="M221 429q0 -63 -4.5 -125t-17.5 -122q-1 -3 -4.5 -8t-8 -10.5t-10 -9.5t-9.5 -4q-6 0 -13.5 10t-14.5 22.5t-12 24.5t-7 16q-4 21 -6 34.5t-3 26.5t-2 27t-2 37l-96 -22v-11q0 -3 1 -11.5t2 -18t2 -17.5t2 -10q2 -16 5 -18l3 -2h13q0 -5 -1 -15t-2 -21t-2 -21.5t-1 -14.5
q2 -13 19 -36t40 -45.5t47.5 -39.5t41.5 -17q6 0 12.5 2t6.5 10q0 1 -0.5 2l-0.5 1l-22 22q0 2 1 2.5t1 2.5q11 0 14 -3t13 -3h13t4 1.5l3 4.5t9 8q8 -2 8 -8v-10q0 -10 1.5 -13l2 -4t0 -3t-4.5 -11q1 0 2 -0.5t2 -0.5q15 0 25 14t17 32t10 36t3 26q0 7 -0.5 18.5
t-11.5 11.5h-4q-2 -1 -7 -3t-7 -4v3q0 11 5 27t11.5 33t12.5 32.5t7 26.5v43q4 12 13.5 21t9.5 23q0 2 -0.5 4.5l-0.5 2.5l-44 57q0 1 -0.5 7t-0.5 11q0 1 -0.5 8t1.5 15.5t8 9.5q-2 -5 1 -16t6 -13q2 -3 11.5 3t11.5 6q0 -8 -1 -12.5t-1 -9.5t8 -16q0 3 0.5 13t0.5 12
q0 46 4.5 95t-4.5 94q-4 19 -3 46.5t3 54t3 47.5t-3 27q-35 26 -52.5 30t-23.5 -6.5t-5 -31t2 -43.5l4 -96q0 -1 -1 -5.5t-2.5 -9.5t-2.5 -9t-1 -5q2 -27 -2 -53t-9.5 -51.5t-10.5 -51.5t-5 -53zM41 130v-7l5.5 -8.5t13.5 -20t16.5 -23.5t14.5 -20q5 -8 9 -8.5t14 -0.5
q0 8 -5 15t-11 15q-2 3 -10 11.5t-17.5 17.5t-18 17.5zM291 564q2 0 3 -0.5l1 -0.5l14 -15l0.5 -1t0.5 -2t-0.5 -2t-0.5 -2q-1 0 -6 1t-11 2.5t-11.5 4.5t-7.5 7q-2 3 5.5 4.5t9.5 2.5zM53 407q2 4 -3.5 5t-12.5 -0.5t-13 -6t-6 -10.5v-26q20 -9 39.5 -12t28.5 0.5t3 15.5
t-36 34zM60 176q8 0 11.5 -5t5.5 -12q-1 0 -2 -0.5t-2 -0.5q-8 0 -10.5 6t-2.5 12zM32 337q1 -4 4 -4q2 0 3.5 4t-3.5 4t-4 -4zM336 411q-4 -1 -4 -4q0 -2 3.5 -3.5t3.5 3.5q0 4 -3 4zM149 94l7 -7h-7v7z" />
    <glyph glyph-name="FL006Bh" unicode="k" horiz-adv-x="332" 
d="M57 682q1 8 4.5 12.5t8.5 7.5t10.5 6t10.5 8q4 7 4 13v10q0 5 2.5 8.5t11.5 6.5v-93q-2 -3 -4 -15t-2 -14t2.5 -6t3.5 -6v-6l-13 -10q-1 -3 1.5 -12t5.5 -18.5t6 -18.5t3 -12q0 -2 0.5 -8.5t1.5 -15t2 -16.5t1 -12l26 6q9 5 22 19.5t13 25.5v12q0 4 -0.5 11t-0.5 9
q-1 7 3 23t8.5 32t8.5 28l4 12l27 81q-2 5 -4.5 12.5t-2.5 10.5t-0.5 6.5l-0.5 3.5q19 0 34 -8t20 -25q5 -21 12 -36.5t11 -26.5t3 -19t-10 -15v-25q1 -9 -6.5 -23t-17 -27t-17 -22.5l-7.5 -9.5l-30 -87l64 -119q0 -8 3 -8t6.5 1.5t6.5 2.5t3 -3q0 -3 -1 -11.5t-2 -18.5
t-2 -18.5t-1 -10.5q0 -3 0.5 -12.5t1.5 -20t2 -20t2 -12.5l14 -12v-7q-1 -2 -3.5 -5.5t-2.5 -6.5q0 -2 5 -11.5t7 -12.5v-100q-10 3 -13.5 6t-4.5 7t-2 9t-6 13q-5 6 -10.5 9t-10.5 6t-8.5 7.5t-4.5 13.5q-8 -4 -13 -15.5t-7 -14.5h-4q-8 0 -9 4t-1 9v6l-1 5t-2.5 11
t-2.5 11.5t-1 7.5q0 7 -0.5 18.5t-0.5 26.5t0.5 27.5t0.5 17.5q-13 3 -16.5 8.5t-3.5 13.5v12q0 15 3.5 29t3.5 31q0 8 -3.5 14t-8 11t-8.5 11t-4 14l-6 -1l-7 14q-2 -1 -11 -1h-17q-5 0 -5.5 3t-0.5 7q0 5 0.5 9.5t-2.5 7.5q16 7 16 23q0 7 -7.5 10t-18.5 4v-16
q0 -14 -0.5 -26t-0.5 -19q8 -5 8 -9v-12q0 -21 -5.5 -39.5t-7.5 -38.5l-9 -6l-1 -9.5t-2 -22.5t-2 -27t-2 -23v-24q9 -6 12.5 -13.5t2.5 -17t-5.5 -23.5t-9.5 -34q-5 -15 -19.5 -23t-33.5 -8l0.5 3.5t0.5 5.5q0 3 3 10t5 12l-28 75q0 1 1.5 11t3 24t2.5 23q0 2 0.5 8t0.5 9
v12q0 10 -2.5 19t-10.5 13v18q0 48 2.5 90.5t2.5 86.5q0 15 -3 28.5t-3 27.5v12q0 5 3.5 10.5t15.5 9.5q0 3 -3.5 7t-7 9.5t-7 12t-3.5 12.5q0 14 0.5 25t0.5 18q0 1 1 6t2.5 10.5t2.5 10.5l1 5v6q0 5 1 8.5t9 3.5h4q2 -3 6.5 -13t12.5 -15zM262 154l19 -17q2 -4 5 -11
t3 -12h6q-1 2 -1 5v5v9q0 14 -4.5 21.5t-20.5 12.5q-3 -1 -6 -5.5t-1 -7.5zM64 655q-2 -3 1 -7t6 -4q16 4 20 11t4 19v9v4q0 3 1 5h-5q0 -3 -3 -10.5t-5 -11.5zM234 69q0 1 0.5 2l0.5 1l7 6l1 0.5t2 0.5q9 0 10 -8t1 -14q-5 0 -13.5 1t-8.5 11zM37 734q0 8 8 9.5t13 1.5
q0 -5 -1 -12.5t-10 -7.5q-1 0 -2 0.5l-1 0.5l-6 4l-0.5 1.5t-0.5 2.5zM96 315h7v34h-7v-34zM264 239h-9v-12q9 3 9 12zM77 576h9q0 9 -9 11v-11z" />
    <glyph glyph-name="l" unicode="l" horiz-adv-x="326" 
d="M96 65q-1 0 -2 -0.5l-1 -0.5q-2 -2 -4.5 -7.5t-3.5 -7.5q-2 0 -4.5 3t-2.5 5t4 7t3 7t-7 7t-7 7v6v9v9v5q-2 5 -7 15l-7 14v94q-23 6 -26.5 25t-3.5 38q0 34 4.5 66t4.5 67v14q0 14 -1.5 29.5t-6.5 26.5q-1 2 -7 4t-8 3l-7 7q4 39 6 76t3.5 73.5t2.5 74t3 79.5q1 2 3 3.5
t4 3.5l1 0.5t2 0.5q12 0 21 -6.5t16.5 -14t13.5 -14t13 -6.5q0 1 -1.5 8.5t-2 16.5t1.5 16t10 7q1 0 2.5 -0.5l1.5 -0.5q4 -3 7 -7q-4 -84 0 -167t11 -165.5t13 -165t6 -165.5q0 -5 -0.5 -12.5t-0.5 -8.5q0 -2 -4 -7t-3 -7q1 -3 6.5 -8.5t7.5 -6.5q1 0 5 1t9 2.5t9.5 2.5
t5.5 1t6 0.5t7 0.5t5.5 -0.5l3.5 -0.5q2 -2 5.5 -12.5t1.5 -15.5l64 -4q0 -1 6 -7l13.5 -13.5l14.5 -14.5l9 -9q-2 -5 -9 -9.5t-12 -4.5l-165 4q-3 5 -13.5 15.5t-15.5 13.5l-1.5 0.5t-2.5 0.5zM172 49q-6 0 -6 -7t6 -7q5 0 5 7t-5 7zM150 57q-5 0 -5 -8q0 -7 5 -7q6 0 6 7
q0 8 -6 8zM92 147q0 -1 0.5 -2.5l0.5 -1.5q1 -3 7 -7q0 1 0.5 1.5t0.5 1.5t-0.5 2.5l-0.5 1.5l-7 7q0 -1 -0.5 -2zM92 366v-12q0 -7 8 -9q0 2 0.5 7t0.5 7q0 5 -0.5 12.5t-7.5 9.5q0 -2 -0.5 -7.5t-0.5 -7.5zM40 593q0 -21 9 -40q5 3 8 8v3v4q-2 6 -4 15.5t-13 9.5z" />
    <glyph glyph-name="m" unicode="m" horiz-adv-x="410" 
d="M288 409q-3 -17 -10.5 -30l-15 -26t-13 -26.5t-5.5 -30.5v-8q0 -5 0.5 -10t0.5 -9v-4q0 -2 3.5 -11t3.5 -11t-2.5 -10.5t-4.5 -10.5v-137q-16 -8 -19.5 -15t-3.5 -20q0 -17 8.5 -29.5t8.5 -29.5h-9q-2 16 -9.5 22t-16 10t-16 8.5t-8.5 17.5q-5 33 -10 67.5t-13 69
t-19.5 67.5t-29.5 62v-12q0 -8 -0.5 -18t-0.5 -18v-13q0 -45 8 -87t8 -87q0 -6 -3 -9.5t-7 -6.5t-7.5 -6t-4.5 -9q0 -2 -1 -8.5t-2.5 -13.5t-2.5 -13.5t-1 -7.5l-15 7q0 6 -1 17.5t-2.5 24t-4 24.5t-6.5 20q-2 2 -3.5 4t-3.5 4l-15 -58q-13 8 -22 21.5t-7 28.5q0 2 2 10.5
t4.5 18.5t5 18.5t3.5 10.5v4v3q-2 2 -7.5 4.5t-7.5 2.5v332q-8 8 -8 20v22q0 32 5.5 61.5t2.5 61.5l8 7v108q-7 11 -8 25t-1 25q3 0 10.5 1t14.5 4t11 9t1 16h36q-2 -29 4 -60.5t25 -55.5v-100q3 -1 8.5 -6.5t6.5 -8.5q0 -2 -3.5 -7t-4.5 -7v-4q0 -3 6 -18l14 -35t15 -40.5
t9 -32.5q1 -8 1.5 -20t1.5 -24.5t3.5 -25.5t7.5 -23q5 -7 7 -8q1 10 5 35.5t8.5 54.5t9 54.5t6.5 35.5q1 5 3 12.5t4 9.5l1 0.5t3 0.5q1 0 2 -0.5l1 -0.5l15 -14q4 37 11.5 71l15 68t12.5 68.5t4 72.5q10 6 21 7.5t22 1.5v-63q2 0 3.5 -2.5t3.5 -0.5t4 10.5t4 10.5l0.5 0.5
t1.5 0.5q6 0 12 -15.5t11 -36t8 -39.5t3 -25v-36v-36l7 -7q-3 -106 5.5 -211t8.5 -211v-3q0 -2 -3.5 -10.5t-3.5 -10.5q0 -5 -0.5 -15t-0.5 -21q0 -12 0.5 -21.5t0.5 -14.5q-15 -5 -18.5 -8.5l-5.5 -5.5t-8 -3t-26 -1v-105q0 -1 -2.5 -3t-4.5 -4l-3 -1q-1 0 -2 0.5t-2 0.5
q-13 51 -16.5 104t-5.5 105q-1 24 0 50t1.5 53t-1 53.5t-7.5 52.5q-1 2 -3 7t-4 7zM28 20q0 6 2 10.5t10 4.5h3q2 -5 4.5 -14.5t2.5 -14.5q0 -2 -2.5 -3.5t-4.5 -3.5l-3 -1q-8 0 -10 8t-2 14zM202 56l7 -21v21h-7zM367 114q-3 1 -3 -4t3.5 -3.5t3.5 3.5q0 3 -4 4zM165 225
q0 -8 2 -19t5.5 -22t9 -20.5t12.5 -13.5v7q0 9 -1.5 20.5t-4.5 23t-8.5 21t-13.5 14.5q0 -2 -0.5 -5.5t-0.5 -5.5zM194 258q-5 0 -5 -7q0 -8 5 -8q6 0 6 8q0 7 -6 7zM230 488q0 -2 3 -4.5t5 -2.5v36q-2 -5 -5 -14.5t-3 -14.5zM302 575q-3 0 -3 -11q0 -5 0.5 -9t2.5 -2
q4 4 4 11t-4 11zM108 632q-5 0 -5 -7t5 -7t5 7t-5 7zM101 805q0 7 7 7q8 -2 8.5 -10.5t0.5 -13.5q-16 0 -16 17z" />
    <glyph glyph-name="n" unicode="n" horiz-adv-x="353" 
d="M259 22q2 -5 10 -9.5t17.5 -8t18.5 -5.5t14 -2q0 13 3 20t7 12.5t7 11.5t3 16q0 11 -4.5 21t-9.5 19t-9.5 19t-5.5 21q-2 7 0.5 10t6.5 4l8 2t6 5q1 6 2.5 18t2.5 25.5t1.5 25.5t0.5 18v18q0 13 0.5 28t0.5 33v36v36q0 18 -0.5 33.5t-0.5 26.5v19l8 7v7v31v14v46
q0 34 -1.5 64.5t-6.5 68.5l-18 -15v152q0 5 -6.5 9.5t-11.5 4.5l-4.5 -2t-9.5 -4.5t-9.5 -5l-4.5 -2.5q-2 -1 -3 0t-3 1l-1.5 2t-0.5 4l8 7v4v3q-4 6 -8 7l-1 0.5t-2 0.5q-5 0 -12.5 -6.5t-12.5 -8.5v-22q0 -40 4 -77t4 -76q0 -48 -4 -93.5t-4 -93.5q0 -13 4 -20t4 -20
q0 -19 -1.5 -32t-6.5 -34q-8 11 -9 24t-6 26l-7 24.5t-11 37t-11 37l-7 24.5q-9 6 -22.5 32.5t-26 57.5t-21.5 59t-9 38q0 8 7.5 17.5t7.5 20.5q0 8 -1 14t-14 6q-8 0 -11.5 -3t-5.5 -6.5t-5 -6.5t-9 -3q0 7 0.5 21t-1.5 28t-8.5 24t-20.5 10h-4q-3 -1 -7 -7
q-8 -40 -8.5 -79t1.5 -79q-8 -5 -15 -13.5t-7 -19.5v-3q2 -9 8 -22.5t12 -26.5t11 -24t5 -16q0 -90 -4 -176t-4 -177v-14q0 -8 0.5 -15t0.5 -13v-6l14 -7q0 5 1 18.5t2 28.5t2.5 28.5t2.5 18.5q0 5 4 14t6 14v-230q0 -1 4.5 -12.5t6.5 -16.5q1 -2 3.5 -4.5t3.5 -2.5
q5 0 11.5 2.5t6.5 4.5v72q6 -17 12.5 -32.5t27.5 -15.5v264q0 2 0.5 8t1.5 13t2.5 13t2.5 9q2 2 3.5 4t3.5 4l8 -15l14 7q-2 -10 5 -39.5t17.5 -63t21 -63.5t14.5 -42q5 -12 12 -25t9 -26q0 -5 0.5 -18t0.5 -29q0 -15 -0.5 -28t-0.5 -18zM108 36q2 -2 7 -4t7 -3q1 0 4 -1
t4 -1v18q-5 0 -12.5 -0.5t-9.5 -8.5zM310 230l7 8v-58l-7 -7v57zM150 432q0 2 0.5 7t0.5 7q2 -2 4 -10.5t3 -10.5v-7v-8q-8 2 -8 9v13z" />
    <glyph glyph-name="o" unicode="o" 
d="M43 136q0 7 0.5 18.5t11.5 11.5h4q2 -1 7 -3t7 -4v3q0 11 -5 27t-11.5 33t-12.5 32.5t-7 26.5v8v14v13v8q-4 12 -13.5 21t-9.5 23q0 2 0.5 4.5l0.5 2.5l44 57q0 1 0.5 7t0.5 11q0 1 0.5 8t-1.5 15.5t-8 9.5q2 -5 -1 -16t-6 -13q-2 -3 -11.5 3t-11.5 6q0 -8 1 -12.5
t1 -9.5t-8 -16q0 3 -0.5 13t-0.5 12q0 46 7 92.5t16 91.5q4 19 11 28t14 13.5t14 7t11 8.5q10 18 19.5 41.5t22.5 45t31.5 36.5t45.5 15q2 0 17.5 -15.5t33 -34.5t32 -37t14.5 -22q0 -2 -3 -7t-4 -7v-4q0 -8 4 -14.5t4 -15.5q0 -7 -2.5 -11t-5.5 -7.5t-5.5 -7.5t-2.5 -11
q0 -11 3.5 -15.5t8 -7t9.5 -5t9 -9.5q12 -32 16.5 -78.5t4.5 -89.5v-52v-11q0 -3 -1 -11.5t-2 -18t-2 -17.5t-2 -10q-1 -10 -4.5 -28t-6.5 -30t-3 -14h-13q0 -5 1 -15t2 -21t2 -21.5t1 -14.5q-2 -13 -19 -36t-40 -45.5t-47.5 -39.5t-41.5 -17q-6 0 -12.5 2t-6.5 10
q0 1 0.5 2l0.5 1l22 22q0 2 -1 2.5t-1 2.5q-11 0 -14 -3t-13 -3t-16.5 7t-11.5 17t-10.5 20t-12.5 15q-8 -2 -8 -8v-10q0 -20 7.5 -39t15.5 -37q-1 0 -2 -0.5t-2 -0.5q-15 0 -25 14t-17 32t-10 36t-3 26zM303 130v-7l-5.5 -8.5t-13.5 -20t-16.5 -23.5t-14.5 -20
q-5 -8 -9 -8.5t-14 -0.5q0 8 5 15t11 15q2 3 10 11.5t17.5 17.5t18 17.5zM195 94l-7 -7h7v7zM123 429q0 -63 11.5 -126t24.5 -123q2 -5 5.5 -17.5t12.5 -12.5q6 0 13.5 10t14.5 22.5t12 24.5t7 16q13 75 17.5 156.5t4.5 153.5q8 2 8 9v13q0 8 -3 13t-7 9t-8 8.5t-5 12.5
q-2 5 -3.5 19.5t-4.5 30.5t-9.5 28.5t-18.5 14.5q-3 1 -10 -1t-14.5 -6t-13 -9t-5.5 -9v-3q0 -1 1 -5.5t2.5 -9.5t2.5 -9t1 -5q-2 -27 -8 -52.5t-12 -50t-11 -50t-5 -52.5zM284 176q-8 0 -11.5 -5t-5.5 -12q1 0 2 -0.5t2 -0.5q8 0 10.5 6t2.5 12zM318 389q1 4 -4 4t-3.5 -4
t3.5 -4q3 0 4 4zM8 411q4 -1 4 -4q0 -2 -3.5 -3.5t-3.5 3.5q0 4 3 4zM302 468q0 -5 0.5 -12t8.5 -9v14v12q0 8 -8 10q0 -2 -0.5 -7.5t-0.5 -7.5zM303 540q-5 0 -5 -7t5 -7q6 0 6 7t-6 7zM104 765q0 -16 -6 -31.5t-26 -15.5q0 19 5.5 33t26.5 14zM224 756q5 -6 12.5 -14.5
t18.5 -8.5q0 10 -8.5 16.5t-18.5 6.5h-4zM185 779q-2 0 -3 -0.5l-1 -0.5l-14 -15l-0.5 -1t-0.5 -2t0.5 -2t0.5 -2q1 0 6 1t11 2.5t11.5 4.5t7.5 7q-2 2 -7.5 4t-7.5 3z" />
    <glyph glyph-name="p" unicode="p" horiz-adv-x="288" 
d="M67 42l14 -8q2 5 4.5 18t2.5 18q0 2 -0.5 2.5t-0.5 2.5l-2.5 1.5t-3.5 1.5q-2 -2 -3.5 -7.5t-3.5 -7.5l-1 -0.5t-3 -0.5q-1 0 -2 0.5l-1 0.5q-2 2 -4.5 3.5t-2.5 3.5v101l-22 29q-1 1 -2 13t-2 28t-2 33t-1 27q0 11 -0.5 33t-0.5 51v60v59q0 29 0.5 51.5t0.5 33.5l-15 -7
l-0.5 2.5t-0.5 4.5q0 7 2.5 13t6 13t6 15.5t2.5 21.5q0 15 -4 29t-8.5 28t-8 28t-3.5 29q0 2 4.5 13t11 23t12.5 22t9 10h58q1 0 13 -13.5t28.5 -30t33 -31.5t26.5 -19q11 -5 17 -9.5t10.5 -9.5t9 -11t13.5 -13q-1 -7 -1.5 -13.5t-0.5 -12.5v-26q0 -27 9 -49q1 -2 4 -9.5
t7 -15.5t7 -15.5t4 -9.5q0 -1 0.5 -5t0.5 -6t-0.5 -6t-0.5 -5q-1 -2 -7.5 -7t-7.5 -7q-2 -6 -2 -15q0 -7 -1 -14.5t-3.5 -13.5t-7.5 -8.5t-14 0.5q5 -6 6.5 -10t1.5 -11q0 -8 -2 -13t-4 -10.5t-3 -11.5t1 -16l-80 -79q-2 -2 -10.5 -7t-10.5 -7q-5 -6 -6 -19.5t-1 -27.5v-18
v-15q-1 -10 -3 -35.5t-4.5 -54.5t-4.5 -54.5t-3 -35.5q-5 -8 -14 -10t-15 -4v7q-2 -2 -7 -4t-7 -3q-1 -1 -3.5 -1.5t-3.5 -0.5v24zM88 142q-9 -20 -9 -43h9v43zM96 383v-3q5 -6 10 -7v29q5 -7 8.5 -8t9.5 -1q19 0 30.5 18t17.5 41t8 46t2 33l14 7q1 1 1.5 6.5t0.5 8.5
q0 14 -5 27.5t-10.5 27t-8.5 26.5t1 27l-36 43q-1 -6 -4.5 -9t-7.5 -4.5t-7 -3t-3 -5.5v-266h-14q-1 0 -3 -10.5t-4 -18.5v-4zM196 387q1 4 -3 4q-5 0 -4 -3.5t4 -3.5q1 0 3 3zM52 776q1 4 -3 4q-5 0 -3.5 -4t3.5 -4t3 4z" />
    <glyph glyph-name="q" unicode="q" horiz-adv-x="364" 
d="M78 156q9 -5 13 -12.5t7 -15t7.5 -14t15.5 -9.5q1 0 8 -1t14.5 -2t14 -2t7.5 -2q13 -8 19 -21t6 -27q10 0 21.5 11t22 28.5t20 38t15.5 38.5q5 -14 12 -25t21 -15q2 0 8 -1.5t8 -3.5l0.5 -0.5t2.5 -3.5q2 -5 5 -12t6 -9t9.5 -9t9.5 -9q6 1 5 8q0 4 -1 18.5t-2.5 31
t-2.5 30.5t-2 18l-1 4l-23 32q-14 23 -27.5 45.5t-26.5 45.5q3 18 7 33.5t10 20.5q10 6 16 7.5t9 4.5t4 11.5t1 28.5q0 13 -2.5 38.5t-9 50.5t-18 43.5t-29.5 18.5v-59q-11 17 -13 28t-2 29q0 3 0.5 11.5t0.5 10.5q13 3 21 14q8 -10 16.5 -20.5t24.5 -10.5q0 42 -11 72.5
t-29 56.5t-40.5 50t-46.5 54l-14 14l-1.5 0.5t-2.5 0.5t-2.5 -0.5l-1.5 -0.5l-7 -7v-7l15 -29v-7q-21 8 -37 8q-19 0 -35 6q-2 0 -11 7.5t-11 7.5t-7 -3t-7 -5q-21 -51 -30 -105.5t-11 -111t0.5 -112.5t4.5 -110q-11 1 -13.5 -2.5t-2.5 -11.5q0 -2 0.5 -4.5l0.5 -2.5
q0 -2 7.5 -7.5t7.5 -7.5q8 -14 10.5 -28.5t4.5 -29.5t6 -29.5t15 -27.5q2 -2 8 -7t6 -7q1 -8 -3.5 -12t-10.5 -6.5t-11 -5.5t-5 -9q0 -1 0.5 -2l0.5 -1q6 -14 8 -18.5t13 -4.5q13 0 15.5 9t-0.5 21zM120 512q0 45 11 86t26 83q13 -6 22.5 -35.5t16 -65t9.5 -68t3 -43.5
q0 -8 -0.5 -15t-1.5 -15q-1 2 -2 4.5t-2 5.5q-19 16 -41.5 15t-37.5 -10q-3 27 -3 58zM175 313q0 -2 8 -17.5t18 -31.5q-1 -4 -1 -8v-8t0.5 -11.5t0.5 -8.5l14 -15q-8 -5 -18.5 -9.5t-21.5 -4.5h-3q-10 15 -12.5 24t-2 17t1.5 18t-2 27q-11 13 -21.5 25t-15.5 26.5
t-3.5 31.5t14.5 40q2 -1 4 -1.5t4 -1.5h4l4 1q15 -9 19 -21t8 -28q0 -2 2 -11.5t3 -12.5q-8 -3 -6 -10zM281 216l-2 7q8 -7 19.5 -18t15.5 -25l-17 -4q-1 0 -5.5 13t-9.5 21zM93 753l1 0.5t2 0.5q9 0 11 -8t2 -14h-16v21zM244 645q5 0 5 -7t-5 -7q-6 0 -6 7t6 7zM311 120
q-5 -2 -3 -8q1 -8 6 -6q5 1 4 8t-7 6zM319 181q4 1 6 -5q2 -8 -3 -8q-6 -1 -7 5q-3 6 4 8zM71 170q5 0 5 -7t-5 -7t-5 7t5 7zM331 161q5 2 6 -5t-3 -8t-7 6q-2 7 4 7zM121 696q0 -1 0.5 -2t0.5 -2t-0.5 -2l-0.5 -1l-14 -15q0 1 -0.5 2t-0.5 2t0.5 2l0.5 1zM201 156
q3 -2 3 -4t-3.5 -3.5t-3.5 3.5t4 4zM237 653q3 -2 3 -4t-3.5 -3.5t-3.5 3.5q0 4 4 4zM268 300q1 0 1 -1v0v-4l-2 -3q1 3 1 8z" />
    <glyph glyph-name="r" unicode="r" horiz-adv-x="317" 
d="M172 270v10q0 6 8 8q0 3 0.5 13t0.5 12q0 16 -1 28.5t-14 25.5h-4h-4l-28 -14v-83v-83q-1 -21 -5.5 -37.5t-10 -33t-9.5 -34t-4 -39.5q-3 -2 -11 -12.5t-19 -10.5q0 49 3.5 96.5t3.5 96.5q-8 0 -12.5 -8.5t-6.5 -20t-2.5 -23.5t-0.5 -19q-12 0 -17 6.5t-10 17.5v8
q0 6 -0.5 11.5t-0.5 11.5v8q0 33 3.5 65t8 64.5t8 65t3.5 65.5q0 7 0.5 18.5t0 24t-2.5 25t-6 21.5q-5 10 -9 16t-6.5 12t-4 13t-1.5 19q0 35 1 65t6 70q-2 1 -4.5 7t-5 13.5t-4 14t-1.5 8.5q0 16 14.5 30t29.5 14q2 0 4.5 -0.5l2.5 -0.5q3 -1 7 -5l8.5 -8.5t8 -9t5.5 -6.5
q14 6 17.5 22t3.5 29h15q1 -1 7.5 -7t15.5 -15t13 -14q49 -57 72 -128.5t23 -144.5v-37q0 -32 -5.5 -64t-25.5 -51q24 -130 65 -252l15 -36v-4q0 -4 -2 -18t-4.5 -30t-5 -30.5t-3.5 -18.5q0 -7 -7 -7q-2 2 -7 10.5t-7 11.5q-2 2 -3.5 10t-2.5 13q-1 3 -1.5 4l-0.5 1
q-1 2 -6.5 4.5t-7.5 3.5q-15 9 -18.5 26t-5 36t-6 35.5t-20.5 24.5q-3 1 -8.5 14.5t-10 29.5t-8 30t-3.5 16zM259 50q6 0 6 -7t-6 -7q-5 0 -5 7t5 7zM288 86q-5 0 -5 -7t5 -7t5 7t-5 7zM281 108q-6 0 -6 -7t6 -7q5 0 5 7t-5 7zM252 151v-7q2 -9 4 -22.5t3 -13.5h17
q0 14 -9 28t-15 22v-7zM194 130q7 9 17 9q0 -10 -9 -17zM259 238l-14 -15q1 0 1.5 -0.5t1.5 -0.5t2.5 0.5l1.5 0.5l7 7l0.5 1.5t0.5 2.5t-0.5 2t-0.5 2zM245 266q-6 0 -6 -7t6 -7q5 0 5 7t-5 7zM129 535v-26q0 -16 1.5 -31t6.5 -39q28 18 44.5 48.5t27.5 59.5q-6 9 -8 19.5
t-3 21t-3 20.5t-8 18q-4 4 -9.5 10.5t-11 12t-10 9.5t-5.5 4h-14q-2 -21 -3.5 -36.5t-2.5 -29.5t-1.5 -28.5t-0.5 -32.5zM223 504q-2 -2 -4 -10.5t-3 -11.5q0 -2 -0.5 -3.5t-0.5 -3.5h8v29zM7 598q2 -2 4.5 -10.5t2.5 -11.5q0 -7 -7 -7v29zM193 672q0 -15 16 -24v4
q0 8 -4 14t-12 6zM151 691q-5 0 -5 -7t5 -7q6 0 6 7t-6 7zM94 785v-29h9v5q0 6 -1.5 14t-7.5 10zM86 859v-9h-14q4 9 14 9z" />
    <glyph glyph-name="s" unicode="s" horiz-adv-x="232" 
d="M94 106l1 0.5t2 0.5q6 0 9.5 -4.5t3.5 -10.5h-16v14zM131 106h-9v8l29 14q-2 1 -8 2t-13.5 2t-14 2t-7.5 1h-5q-3 0 -7.5 -6t-10 -12.5t-12 -12.5t-12.5 -6q-12 0 -21 17.5t-15 40.5t-9 44t-3 29q0 13 4.5 20.5t4.5 18.5v4l-15 22l-0.5 1t-0.5 2q0 6 3 7.5t6.5 2.5t7.5 2
t6 6q-2 5 -4.5 18t-2.5 18v8q0 15 15 15q6 0 10.5 -6t7.5 -14.5t5.5 -17.5t4.5 -14q1 -5 4 -17.5t6 -26t6 -25.5t5 -17q8 -11 26.5 -20.5t31.5 -9.5q2 0 4 0.5t3 0.5q1 30 -7.5 62.5t-22.5 64.5t-31 62t-32 56q-8 11 -19 22.5t-11 27.5q0 8 4 10t4 8v4q-1 2 -4 12t-7 21
t-7 20.5t-4 11.5q0 1 -0.5 5t-0.5 6q0 15 6 46.5t18.5 62t32 51.5t45.5 16q16 11 34.5 -7t35 -49.5t27.5 -69.5t11 -68q0 -8 -0.5 -11t-6.5 -11q-5 2 -12.5 8.5t-13.5 6.5q-1 0 -2 -0.5l-1 -0.5l-14 -28l-7 7v32v33q0 3 -2 9t-5.5 12t-8.5 10.5t-10 4.5h-3q-2 -1 -7.5 -4.5
t-7.5 -3.5q-3 3 -6 5t-2 13q0 10 1 11q-4 -2 -8 -8t-7 -13.5t-4.5 -14.5t-1.5 -11v-3q0 -2 3.5 -11t3.5 -11q-1 -2 -7.5 -3.5t-7.5 -3.5q0 -1 -0.5 -5t-0.5 -9q0 -8 2.5 -18t7 -18.5t11.5 -14.5t16 -7q18 -24 35 -58.5t30 -72t21 -75.5t8 -69q0 -17 -4 -33.5t-9.5 -33.5
t-10 -34t-5.5 -34q-17 -23 -39 -23q-11 0 -14 2.5t-3 12.5zM122 150q2 2 -7 2h-5q-4 0 -2 -2q1 -4 7 -4t7 4zM58 675q-8 -2 -8.5 -9t-0.5 -12h9v21z" />
    <glyph glyph-name="FL0054h" unicode="t" horiz-adv-x="380" 
d="M192 147q-8 -4 -12.5 -14.5t-6.5 -13.5h-4q-8 0 -9 3.5t-1 8.5v6l-1 5t-2.5 11t-2.5 11t-1 6q0 7 -0.5 18t-0.5 25t0.5 25.5t0.5 16.5q-13 4 -16.5 9.5t-3.5 12.5v11q0 14 3.5 28t3.5 29q0 45 -2.5 93.5t-2.5 96.5v19q9 5 11.5 14t2.5 19v11q0 4 -0.5 10.5t-0.5 8.5
q-1 9 -2.5 23.5t-3 24t-1.5 11.5h-73q-2 0 -6.5 5t-6.5 9l-1 3q0 7 8 9.5t13 4.5l-7 6h-20q-15 0 -30.5 1.5t-28.5 8.5q-2 2 -4.5 4t-2.5 3q0 2 2.5 7t4.5 10q1 2 3.5 3.5t3.5 1.5h172q-2 5 -4.5 12t-2.5 11q0 2 -0.5 5.5l-0.5 3.5q9 0 15.5 -5t12 -11t11.5 -11t14 -5
q2 0 10.5 3.5t10.5 3.5h7q6 0 14.5 -0.5t16.5 -2.5t14 -6t8 -12h100v-25h-48q2 -2 4 -5.5t3 -5.5v-3q0 -8 -8.5 -11.5t-8.5 -12.5q-29 0 -61.5 -4t-61.5 -9v-11v-13q1 -9 2 -23.5t2 -28t2 -23l1 -9.5l8 -6q2 -20 8 -39t6 -40v-12q0 -4 -8 -10v-56q0 -14 -0.5 -26t-0.5 -20
q0 -2 -1 -10.5t-2 -17.5t-2 -17.5t-1 -10.5q0 -3 0.5 -12t1.5 -19t2 -19t2 -12l13 -11v-3v-3q-1 -2 -3.5 -6t-2.5 -6t5 -11t7 -12v-95q-9 3 -12.5 5.5t-5 6.5t-2.5 8.5t-5 12.5q-5 6 -10.5 8.5t-10.5 5.5t-8.5 7.5t-4.5 12.5zM172 94q0 1 0.5 2l0.5 1l6 5l1 0.5t2 0.5
q9 0 10 -7.5t1 -12.5q-5 0 -13 1t-8 10zM199 175l19 -16q2 -4 5 -11t3 -11h6q-1 2 -1 4v5v9q0 14 -4.5 20.5t-20.5 11.5q-3 -1 -6 -5t-1 -7zM192 255v-11q9 3 9 11h-9zM212 532v-35h7v35h-7zM333 713q-6 0 -6 -6q0 -5 6 -5q4 0 4 5q0 6 -4 6zM243 724q-1 0 -2 -0.5l-1 -0.5
q-3 0 -7 -5q1 0 1.5 -0.5t1.5 -0.5t2.5 0.5l1.5 0.5l6 5q-1 0 -2 0.5z" />
    <glyph glyph-name="FL0075h" unicode="u" horiz-adv-x="329" 
d="M264 608q0 9 -9 12v-12h9zM108 231h7v35h-7v-35zM262 694q-2 -3 1 -7.5t6 -5.5q16 5 20.5 12.5t4.5 22.5v9v5t1 5h-6q0 -5 -3 -12t-5 -12zM36 90q0 45 -2.5 88.5t-2.5 91.5l-12 282q8 5 10.5 14t2.5 19v12q0 3 -0.5 9.5t-0.5 8.5q-1 9 -2.5 23.5t-3 24t-1.5 11.5l28 76
q-2 5 -5 12t-3 11q0 2 -0.5 5.5l-0.5 3.5q19 0 33.5 -8t19.5 -24q5 -20 9.5 -34t5.5 -24.5t-2.5 -17.5t-12.5 -14v-24q1 -9 2 -23.5t2 -28t2 -23l1 -9.5l9 -6q0 -7 2.5 -32.5t5 -61.5t5.5 -76.5t6 -76.5t4.5 -62.5t1.5 -33.5v-12q0 -4 -8 -9q0 -8 0.5 -20t0.5 -26v-17
q11 1 18.5 4t7.5 11q0 16 -16 23q5 6 13.5 8t17.5 2h17q9 0 11 -1l7 15l6 -2q1 17 1 34v35q0 5 -1.5 30t-3.5 59.5t-4.5 73.5t-4.5 73.5t-3.5 59t-1.5 29.5v12q0 8 3.5 13.5t16.5 9.5q0 5 -0.5 17.5t-0.5 27.5q0 16 0.5 27.5t0.5 18.5q0 1 1 7t2.5 12t2.5 11.5l1 5.5v6
q0 5 1 9t9 4h4q2 -3 7 -14.5t13 -15.5q1 9 4.5 13.5t8.5 7.5t10.5 6t10.5 9q5 8 6 13.5t2 9.5t4.5 7t13.5 6v-102q-2 -3 -7 -12.5t-5 -11.5q0 -3 2.5 -7t3.5 -6v-7l-14 -12q-1 -3 -2 -12.5t-2 -20t-1.5 -20.5t-0.5 -13q0 -2 1.5 -26t3.5 -59.5t4 -76.5t4 -76.5t3.5 -59.5
t1.5 -26q0 -4 -3 -3t-6.5 2.5t-6.5 1t-3 -7.5l-64 -122l-69 -38l-26 6zM243 454q0 -1 0.5 -2l0.5 -1l7 -6l1 -0.5t2 -0.5q9 0 10 8t1 14q-5 0 -13.5 -1t-8.5 -11z" />
    <glyph glyph-name="FL0076h" unicode="v" 
d="M105 36q1 5 4 16.5t6 25.5q4 14 6 26t3 17q1 11 -2.5 24.5t-6.5 24.5q-1 12 -4 41.5t-5.5 61.5t-3 60.5t3.5 37.5q-19 37 -29.5 73t-18.5 73.5t-18.5 77.5t-29.5 84l1 3q2 10 10 16t17 10q6 36 14.5 71t24.5 69l9 6l4 -1q12 -3 15.5 -13.5t2.5 -23.5t-4.5 -25t-5.5 -19
q6 -2 9 0t6 5t6.5 4.5t11.5 0.5q12 -2 12 -8q0 -5 -2 -13q-2 -11 -11 -17t-11 -14q-2 -9 0 -36t7.5 -58t12.5 -57.5t14 -33.5q0 -7 1 -24t2.5 -35.5t3 -35.5t1.5 -24q2 -13 -0.5 -24.5t2.5 -23.5q10 18 13.5 29.5t8.5 28.5q2 11 0 19t1 19q10 43 23 83.5t24 83.5
q8 35 12 69.5t12 69.5l5 21q5 1 12.5 5t11.5 3q1 0 2 -1l1 -1q2 0 6 -6v-3l-1 -4l-8 -5q-2 -2 -1 -4.5l1 -2.5q2 0 2.5 -1t2.5 -1l7.5 2.5t14 4t7.5 1.5q5 -2 10 -6.5t4 -9.5l-32 -138l20 10q-4 -36 -9 -63.5t-12 -57.5l-10 -42l-3 -14l-6 -27l-1 -6l-10 -5l-3 -17
q-2 -10 -4.5 -24.5t-6.5 -30.5l-7 -32l-8 -32q-5 -17 -8 -31t-6 -25l-4 -16q-1 -5 -4 -16t-7 -22.5t-7.5 -22t-6.5 -15.5q-2 -3 -6 -3.5l-8 -1t-6.5 -2.5t-2.5 -9q-2 -10 0.5 -19.5t5.5 -19t4.5 -19.5t-0.5 -20q-2 -9 -6.5 -13.5l-9 -9t-8.5 -10t-7 -17.5q-4 1 -12 4.5
t-16.5 9t-14.5 11t-7 10.5zM196 213l-13 -51l8 5l12 52z" />
    <glyph glyph-name="w" unicode="w" horiz-adv-x="468" 
d="M166 79q8 -3 9.5 -15.5t2 -27t4.5 -26t16 -11.5q1 0 2.5 0.5l1.5 0.5l3.5 3.5l3.5 3.5q0 4 0.5 15.5t1.5 24.5t2.5 24t2.5 15q0 1 2 5t5 9t5 9.5t2 5.5t-1 5t-2.5 9t-2.5 9.5t-1 5.5t-0.5 7.5t-0.5 11.5q0 25 8.5 56t21.5 55q6 -9 13.5 -22t14 -27t11 -27.5t4.5 -24.5
q0 -1 -3.5 -4l-3.5 -3l-0.5 -3t-0.5 -5t0.5 -4t0.5 -3q1 -5 5 -17.5t8.5 -27t9 -28.5t6.5 -20q5 -19 12 -34t31 -17q9 2 11 11t3.5 20.5t4.5 23t13 17.5v-57q0 -3 3.5 -5t8 -2.5l9 -1t5.5 -0.5v311q-7 16 -8 26t-1 26q0 20 9 35t14 35v-100h7q1 0 2 7.5t2 17.5t2 21t1 18
q5 89 11 180t6 181q0 6 -0.5 15.5t-0.5 18.5q0 10 -0.5 16t-0.5 7l-22 22q-6 -8 -15.5 -17.5t-20.5 -11.5v3v4l7 14v4v4q-2 3 -7 7l-3 1q-1 0 -2 -0.5t-2 -0.5q-4 -4 -12 -15t-10 -14t-5.5 -8.5l-3.5 -5.5v-166q-2 -12 -4.5 -41.5t-5.5 -62.5t-5.5 -63l-3.5 -42
q-1 -14 -0.5 -31t0.5 -35q0 -19 -1 -37t-7 -34q-8 20 -11.5 42.5t-5 46t-2.5 47t-2 44.5q-1 8 -2.5 25t-2.5 35.5t-1.5 34t-0.5 21.5q0 10 -0.5 33t-0.5 49t0.5 49.5t0.5 33.5q-1 3 -6.5 8.5t-8.5 6.5q-2 0 -7 -3t-7 -5q0 2 1 9t1 15t-2.5 14t-10.5 6h-4q-19 -14 -24 -23.5
t-5 -25.5t3 -25.5t3 -24.5q-10 0 -21 11.5t-20 15.5q-7 -2 -8 -6.5t-1 -9.5q0 -6 2.5 -10t13.5 -3v-151q6 -11 7 -18.5t1 -18.5q0 -31 -9.5 -57t-20.5 -58q-16 35 -26 76t-10 79q0 14 4 25.5t4 25.5q0 16 -6.5 15.5t-19.5 -0.5v204q0 11 -5.5 13t-11.5 2q-5 0 -10 -1t-5 -7
v-108q0 3 -1.5 15.5t-5.5 27t-10 26t-16 11.5h-3q-2 -1 -7.5 -4.5t-7.5 -3.5q-3 0 -14.5 6t-13.5 9q-8 -5 -11.5 -14.5t-3.5 -14.5v-137q0 -31 33 -31v82q2 -5 6 -18t4 -18q1 -10 4 -34.5t7 -52t7 -52t4 -34.5q2 -2 4 -7.5t3 -7.5q1 -3 2.5 -11.5t2.5 -19t1.5 -20t0.5 -13.5
q1 -14 3 -50t4.5 -76.5t4.5 -76t3 -49.5q2 -8 8.5 -9t12.5 1q0 -6 1 -21t2 -32.5t2.5 -33t2.5 -21.5q0 -5 4 -17t14 -12l1 0.5t2 0.5q0 2 1 9.5t2 15.5t2.5 15.5t1.5 9.5q2 3 8 7zM166 108q5 0 5 -7t-5 -7q-6 0 -6 7t6 7zM173 137v-15h-9q0 11 9 15zM323 144q0 2 0.5 4
t0.5 3q8 -2 8 -8v-10q0 -2 -0.5 -5.5t-0.5 -5.5q-5 6 -6.5 10t-1.5 12zM302 194l8 -7h-8v7zM193 346h18q0 -5 -0.5 -14.5t-1.5 -14.5q0 -2 -2.5 -4.5t-4.5 -2.5q-5 8 -7 17.5t-2 18.5zM274 331q5 0 5 -7t-5 -7q-6 0 -6 7t6 7zM266 338q4 -1 4 -3t-3.5 -3.5t-3.5 3.5q0 4 3 3
zM432 778q0 -8 -1 -28.5t-2 -44t-2 -44t-2 -27.5q-1 -8 -2.5 -20.5t-3 -21t-1.5 -9.5h-8q0 3 0.5 18.5t1.5 37.5t2 46t3 45t4 34.5t4 13.5h7zM281 749q3 -2 3 -7q0 -7 -3 -8q-2 -1 -3 2t-1 6q0 2 1 5t3 2z" />
    <glyph glyph-name="FL00B1h" unicode="x" horiz-adv-x="301" 
d="M137 559q0 2 -3 16t-7.5 30t-9.5 29.5t-8 14.5q-10 8 -9 24.5t1 35.5t-6.5 36t-31.5 26l-7 3.5t-5 4.5l-0.5 1t-1.5 4q-1 5 -2.5 13t-3.5 10q-2 3 -6.5 11.5t-6.5 10.5q-6 0 -6 -7q-1 -4 -3.5 -18.5t-4.5 -30.5t-4 -30t-2 -18v-4l14 -36q20 -63 34.5 -124.5t25.5 -127.5
q2 -3 3.5 -6t5.5 -7q-12 -22 -24.5 -49t-22 -53.5t-16 -50.5t-6.5 -40v-8q0 -6 0.5 -11.5t0.5 -11.5v-8q5 -11 9.5 -17.5t15.5 -6.5q0 7 0.5 19t2.5 23.5t6 20t11 8.5q0 -49 -3.5 -96.5t-3.5 -96.5q5 0 11 4t11 8.5t8.5 9t5.5 5.5q0 22 4 39.5t8.5 34l9 33t5.5 37.5v83
l16 85q3 -3 7 -12t7 -20.5t5.5 -22t2.5 -16.5q-8 -2 -8 -8v-10q0 -2 3 -16t7.5 -30t9.5 -29.5t8 -14.5q15 -8 19 -24.5t5.5 -35.5t4.5 -36t17 -26l7 -3.5t6 -4.5l0.5 -1t1.5 -4q1 -5 2 -13t3 -10q2 -3 6.5 -11.5t6.5 -10.5q7 0 7 7q1 4 3 18.5t4.5 30.5t4.5 30t2 18v4
l-14 36q-20 63 -34.5 124.5t-25.5 127.5q-2 2 -4.5 5.5t-5.5 7.5q12 22 24.5 49t22.5 53.5t16.5 50t6.5 40.5v8q0 6 -0.5 11.5t-0.5 11.5v8q-5 11 -9.5 17.5t-15.5 6.5q0 -7 -0.5 -19t-2.5 -23.5t-6 -20t-11 -8.5q6 49 11 96.5t-5 96.5q-11 0 -18 -10.5t-10 -12.5
q-14 -21 -23.5 -37t-14.5 -30.5t-6.5 -30.5t0.5 -37v-83l-6 -99q-12 8 -19 6q-5 9 -4.5 19t0.5 22q0 2 0.5 12t0.5 13q7 2 7 8v10zM63 685v-14q-5 8 -13.5 22t-8.5 28h16q1 0 2.5 -13.5t3.5 -22.5zM230 166v14q5 -8 13.5 -22t8.5 -28h-15q-1 0 -3 13.5t-4 22.5zM177 152
l7 -8q8 7 8 17q-9 0 -15 -9zM117 699l-8 8q-8 -8 -8 -17q8 0 16 9zM224 288q4 0 4 -7t-4 -7q-6 0 -6 7t6 7zM57 779q5 0 5 7t-5 7q-6 0 -6 -7t6 -7zM70 563q-5 0 -5 7t5 7t5 -7t-5 -7zM257 130q4 0 4 -7t-4 -7q-6 0 -6 7t6 7zM237 72q-5 0 -5 -7t5 -7t5 7t-5 7zM37 721
q-5 0 -5 7t5 7t5 -7t-5 -7zM263 108q5 0 5 -7t-5 -7q-4 0 -4 7t4 7zM30 743q-4 0 -4 7t4 7q5 0 5 -7t-5 -7zM57 591q0 1 -0.5 2t-0.5 2t0.5 2.5l0.5 1.5l6 7l1.5 0.5t2.5 0.5t1.5 -0.5t1.5 -0.5zM237 260v-4v-4l-7 -7l-1.5 -0.5t-2.5 -0.5h-1q0 1 -1 1z" />
    <glyph glyph-name="FL0079h" unicode="y" horiz-adv-x="292" 
d="M156 559q0 2 2 16.5t5 31t7 30t7 15.5q15 9 18 26t3 36t2 36t16 28q2 1 7 4t6 5l0.5 1t1.5 4q0 5 1 13t3 11t5.5 12t5.5 11q8 0 8 -6q1 -4 5 -18t8 -30l7.5 -30t3.5 -18v-4l-11 -37l-100 -314q-3 -3 -6.5 -12.5t-6 -21t-3.5 -22.5t-1 -17q8 -2 8 -7l1 -10q0 -2 -2 -16.5
t-5 -31t-7 -30.5t-7 -15q-15 -9 -18 -26t-3 -36t-2 -36.5t-16 -27.5q-2 -1 -7 -4t-6 -5l-0.5 -1t-1.5 -4q0 -5 -1 -13t-3 -11t-6 -12t-6 -11q-7 0 -7 6q-2 4 -5.5 18l-7.5 30l-7.5 30t-3.5 18v4l11 37q16 64 26 127.5t16 129.5q2 2 4 5.5t6 8.5q-15 21 -31 46t-29.5 50.5
t-23 48.5t-10.5 40v8q-1 6 -1 11q0 6 -1 12v8q4 11 8.5 18t15.5 8q1 -7 2.5 -19t5 -23t8.5 -19t13 -7q-5 48 -12.5 95t-12.5 96q6 1 11 -1.5t9 -6.5t7 -7.5t5 -4.5q2 -22 8 -39t12.5 -33t12.5 -32t9 -37l8 -82l34 -88q13 10 19 8q5 10 4 20t-2 21q-1 2 -2 12t-2 13
q-8 2 -8 7zM224 692l1 -14q5 9 13 23.5t6 28.5l-17 -1q-1 0 -1 -14t-2 -23zM91 159l-1 14q-5 -9 -13 -23.5t-6 -28.5l16 1q1 0 1.5 14t2.5 23zM150 150l-7 -8q-9 5 -11 16q11 0 18 -8zM165 701l7 9q10 -8 11 -17q-11 0 -18 8zM87 281q-5 0 -4 -7q0 -7 5 -7q6 0 6 8
q-1 6 -7 6zM222 786q-5 0 -5 7q-1 7 4 7q6 1 6 -6q1 -6 -5 -8zM228 570q6 0 4 8q0 6 -5 6q-6 0 -6 -7q1 -7 7 -7zM66 120q-5 0 -5 -7q1 -7 6 -7q6 2 5 8q0 7 -6 6zM93 65q5 0 5 -7q1 -7 -4 -7q-6 -1 -7 6q0 6 6 8zM249 731q5 0 5 7q-1 7 -6 7q-6 -2 -5 -8q0 -8 6 -6zM61 98
q-5 0 -5 -8q1 -6 6 -6t4 7q0 7 -5 7zM254 753q5 2 5 8q-2 7 -6 6q-5 0 -4 -7q0 -7 5 -7zM239 599q0 1 0.5 2t0.5 2t-0.5 2.5l-0.5 1.5l-8 7h-4q-1 0 -1.5 -0.5t-1.5 -0.5zM76 252q0 -1 -0.5 -2t-0.5 -2t0.5 -2.5l0.5 -1.5l8 -6l1.5 -0.5t2.5 -0.5t1.5 0.5t1.5 0.5z" />
    <glyph glyph-name="FL007Ah" unicode="z" horiz-adv-x="262" 
d="M74 97l122 1q0 8 6 11.5t6 11.5v3q-1 2 -2 5t-3 5h38v24h-79q-3 15 -17.5 17.5t-23.5 2.5h-6q-1 0 -8 -3t-9 -3l-9 -2q4 18 15 39.5t28 32.5q3 1 6 11.5t5.5 23t4 23.5t1.5 13l-1 8q0 1 -3 4.5t-7 7t-8 6.5t-5 4q0 4 3.5 10t8.5 11.5t10 10.5t8 7l47 148q-4 0 -5 6
q0 4 5 4q2 0 3 -1l5 14l-11 10q1 0 1.5 0.5t1.5 0.5h3l6 -7l21 69l9 31v2q-1 2 -2 6.5t-3 11.5q3 5 -5.5 7t-8.5 8v3q0 3 -1.5 6.5t-3.5 5.5h38v22h-57q0 5 -6 5q-1 -1 -3 -5h-11q-2 8 -7 12t-11.5 6t-13 2.5t-11.5 0.5h-5q-2 0 -8 -4t-8 -4q-6 0 -3.5 -0.5t-1 -1
t-21.5 -0.5q-17 0 -64 1q-1 0 -3 -1t-2 -3q-2 -5 -4 -9.5t-2 -6.5l6 -6q10 -6 22.5 -7.5t24.5 -1.5h14l5 -6q-4 -2 -9.5 -5t-5.5 -9l1 -3q2 -4 4.5 -8.5t4.5 -4.5h76q-3 -10 -3 -22q0 -11 -0.5 -22.5t-3.5 -20.5t-12 -14q-2 -2 -4.5 -12.5t-5 -23t-4.5 -23.5t-2 -13l1 -7
q0 -6 6 -6q1 -2 2 -9.5t2 -9.5q0 -8 1 -15.5t-3 -15.5q-1 0 -5.5 2t-10 4.5t-10.5 3.5t-7 0l-60 -257l-8 -29v-3q0 -2 0.5 -3.5t0.5 -3.5h-12q-4 0 -6 -5t-3.5 -10t-1.5 -7q0 -1 5 -6q6 -5 13 -6.5t14 -2.5q3 -11 5.5 -19t3.5 -11q0 -4 6 -4q2 2 5 8l4 8q2 2 2.5 7.5
t0.5 9.5h3q0 -6 4 -4q2 0 2 2l4 -3q-4 -2 -9.5 -4.5t-5.5 -9.5l1 -3q2 -3 4.5 -8t4.5 -5zM199 624q2 7 2 17q0 11 1 11l13 1q2 -11 -4 -21.5t-11 -18.5zM72 212q-2 -8 -2.5 -18.5l-0.5 -10.5l-13 -1q-1 11 5 22t10 19zM117 205q-6 7 -15 7q2 -10 9 -14zM128 629q5 -7 14 -7
q-1 7 -8 14zM52 181q5 2 5 -4q1 -3 -4 -5q-4 0 -5 4q0 5 4 5zM219 655q-5 -3 -5 4q0 4 4 5q3 0 5 -4q0 -5 -4 -5zM52 321q-4 0 -4 -5t4 -5q5 0 5 6q-1 4 -5 4zM194 134q3 0 3 -6q0 -4 -3 -4q-5 0 -5 4q0 6 5 6zM208 707q3 0 3 -6t-3 -6h-2l-1 10q0 2 3 2zM60 283l12 -10
q-1 0 -1.5 -0.5t-1.5 -0.5l-3 1l-6 5l-1 2l0.5 1t0.5 2zM123 144l2 -1l-4 -4l-3 -1q-1 0 -1.5 0.5t-1.5 0.5q3 4 6 4l0.5 0.5t1.5 0.5zM138 717l0.5 -0.5t1.5 -0.5l-5 -5l-1 -0.5t-2 -0.5l-0.5 0.5t-1.5 0.5q2 5 5 5l1 0.5t2 0.5zM203 530q5 0 3 7q0 1 -1 1v1l-3 -9h1z
M211 552q0 1 0.5 1.5t0.5 1.5l-1 2l-1 -4zM223 671q-2 0 -3 1h5q-1 -1 -2 -1z" />
    <glyph glyph-name="FL007Bh" unicode="{" horiz-adv-x="400" 
d="M23 392l65 -35l7 14q2 -1 11 -1h5q-1 -11 -1 -21v-19q0 -21 4 -51.5t12.5 -64t21 -66.5t29 -59.5t37.5 -43t45 -16.5q9 0 18 -11t17 -11h8l36 -7h5q3 0 9 1.5t11.5 4.5t9 7t2.5 8l-32 110q-2 -2 -15 -3t-29 -1q-15 0 -28.5 0.5t-16.5 1.5q-21 9 -32 39.5t-16.5 68.5
t-6 75t-0.5 60q0 7 1.5 24.5t4 39.5t6 46.5t7 45.5t6.5 35.5t5 17.5q1 1 5.5 6t9.5 10.5t9 10.5t5 7q5 8 5 15v11q0 5 2 7.5t11 2.5q5 0 10 -3q8 8 17.5 9.5t19.5 4t19.5 9.5t18 25.5t15 52t9.5 89.5q1 11 -3 3t-9 -23t-9.5 -30.5t-4.5 -18.5q-10 3 -12 14.5t-2.5 25
t-2.5 26t-11 18.5q-10 -11 -17 -15t-13 -7.5t-10.5 -9t-10.5 -18.5q-3 -7 -6.5 -9t-8.5 -1.5t-10 1.5t-11 1q-4 -2 -11.5 -14.5t-15.5 -27.5t-14.5 -27.5t-8.5 -14.5h-7v16h-8q0 -7 -2 -22t-5 -20l-21 -25q-6 -14 -7 -34.5t-1.5 -41t-4.5 -39t-16 -29.5q-1 -15 -2 -30.5
t-3 -31.5l-18 2l-18 2q-7 5 -8.5 5.5t-5.5 -1.5t-13 -5.5t-31 -6.5q-5 0 -9.5 -5t-4.5 -10q0 -1 2 -5t5 -9t5 -9.5l2 -4.5q1 -2 0.5 -7.5t-0.5 -7.5zM283 97q-5 -8 -7 -10h-4q-20 0 -25 26q2 0 5.5 0.5t5.5 0.5q9 0 14.5 -3t10.5 -14zM158 567v-58h-10v11q0 11 1 23.5
t9 23.5zM254 55q6 0 6 -10q0 -7 -6 -7q-5 0 -5 7q0 10 5 10zM207 656v-8l-13 20v9z" />
    <glyph glyph-name="FL007Ch" unicode="|" horiz-adv-x="156" 
d="M77 -82q-8 -4 -12.5 -16.5t-6.5 -15.5h-4q-8 0 -9 4t-1 10v6q0 1 -1 6.5t-2.5 12.5t-2.5 13t-1 8q0 8 -0.5 21t-0.5 30q0 16 0.5 30t0.5 19q-13 4 -16.5 11t-3.5 15v13q0 17 3.5 33t3.5 33v58t-0.5 93.5t-1 111t-1 111.5t-0.5 94v60v23q9 5 11.5 16.5t2.5 22.5v13
q0 5 -0.5 12.5t-0.5 9.5q-1 11 -2.5 28t-3 28.5t-1.5 13.5l27 89q-2 6 -4.5 14.5t-2.5 12.5t-0.5 7.5l-0.5 3.5q18 0 33 -9.5t20 -28.5q5 -24 9.5 -40.5t5.5 -28.5t-2.5 -20.5t-12.5 -15.5v-13v-16q1 -11 2 -27.5t2 -32.5t2 -27.5l1 -11.5l8 -6q2 -25 8 -47t6 -47v-14
q0 -6 -8 -12q0 -4 0.5 -30.5t0.5 -58.5t0.5 -61t0.5 -37q0 -6 -0.5 -24.5t-1 -44t-1 -54t-1 -53t-1 -42t-0.5 -20.5q0 -2 -1 -11.5t-2 -20.5t-2 -20.5t-1 -12.5q0 -4 0.5 -14.5t1.5 -22.5t2 -22.5t2 -13.5l13 -13v-3v-5q-1 -2 -3.5 -6t-2.5 -8q0 -2 5 -12.5t7 -14.5v-111
q-9 3 -12.5 6.5t-5 7.5t-2.5 9.5t-5 14.5q-5 7 -10.5 10.5t-10.5 7t-8.5 8t-4.5 14.5zM57 -144q0 1 0.5 2.5l0.5 1.5l6 5l1 0.5t2 0.5q9 0 10 -8.5t1 -14.5q-5 0 -13 1t-8 12zM84 -49l19 -18q2 -5 5 -13.5t3 -13.5h6q-1 4 -1 7v4v11q0 16 -4.5 24t-20.5 13q-3 -1 -6 -5.5
t-1 -8.5zM77 46v-13q9 3 9 13h-9zM99 676v-41h7v41h-7z" />
    <glyph glyph-name="FL007Dh" unicode="}" horiz-adv-x="400" 
d="M371 460l-65 35l-7 -14q-2 1 -11 1h-5q1 11 1 20v20q0 21 -4 51.5t-12.5 64t-21 66.5t-29 59.5t-37.5 43t-45 16.5q-9 0 -18 11t-17 11h-8l-36 7h-5q-3 0 -9 -1.5t-11.5 -4.5t-9 -7t-2.5 -8l32 -110q1 2 14.5 3t28.5 1q16 0 29.5 -0.5t16.5 -1.5q21 -9 32 -39.5
t16.5 -68.5t6 -75.5t0.5 -59.5q0 -7 -1.5 -24.5t-4 -39.5t-6 -46.5t-7 -45.5t-6.5 -35.5t-5 -17.5q-1 -1 -5.5 -6t-9.5 -10.5t-9 -10.5t-5 -7q-5 -8 -5 -15v-11q0 -5 -2 -7.5t-11 -2.5q-6 0 -10 3q-8 -8 -17.5 -9.5t-19.5 -4t-19.5 -9.5t-18 -25.5t-14.5 -52t-10 -89.5
q-1 -11 3 -3t9 23t9.5 30.5t4.5 18.5q10 -3 12 -14.5t2.5 -25t2.5 -26t11 -18.5q10 11 17 15t13 7.5t10.5 8.5t10.5 19q3 7 6.5 9t8.5 1.5t10 -1.5t11 -1q4 1 11.5 14t15.5 28t14.5 27.5t8.5 14.5h7v-16h8q0 7 2 22t5 20l21 25q6 14 7 34.5t1.5 41t4.5 39t16 29.5
q1 15 2 30.5t3 31.5l18 -2l18 -2q7 -5 8.5 -5.5t5.5 1.5t13 5.5t31 6.5q5 0 9.5 5t4.5 10q0 1 -2 5t-5 9t-5 9.5l-2 4.5q-1 2 -0.5 7.5t0.5 7.5zM111 755q4 7 7 10h4q20 0 25 -26q-2 0 -5.5 -0.5t-5.5 -0.5q-9 0 -14.5 3t-10.5 14zM236 285v58h10v-11q0 -11 -1 -23.5
t-9 -23.5zM140 797q-6 0 -6 10q0 7 6 7q5 0 5 -7q0 -10 -5 -10zM187 196v8l13 -20v-9z" />
    <glyph glyph-name="FL007Eh" unicode="~" horiz-adv-x="247" 
d="M127 441h1q3 0 5 -1q3 -1 5 -1t2 1q0 2 -4.5 7.5t-11 11.5t-13.5 10.5t-13 6.5l-1 -1l-1 7l-2 -3q-3 3 -3 5q-1 1 -4 1q-8 0 -13.5 -3.5t-13.5 -20.5q-1 -1 0 -1h1q3 0 5 1t5.5 -3.5t7.5 -3.5l-2 -4q-4 -3 -8.5 -7t-4.5 -7q-6 -9 -15 -18.5t-17.5 -17t-14.5 -13t-7 -6.5
l-1 -3q0 -4 2.5 -11t6.5 -13.5t8 -12.5t6 -8q1 13 9 22t18.5 15.5t21.5 11t19 8.5q1 -1 2 -1.5t2 -1.5q7 -11 13 -18h-1q-3 0 -6 1v-4q0 -9 3.5 -12.5t8.5 -3.5q6 0 12 5t6 11q0 1 6 -0.5t13 -4t12 -4t3 -0.5q6 9 16 21t19.5 22.5t16.5 18.5t8 9l1 3q0 4 -3 11t-6.5 14
t-7.5 13t-6 8q-2 -13 -10 -22t-18.5 -15.5t-21.5 -11.5t-18 -9l-4 2q-4 5 -7 10z" />
    <glyph glyph-name="FL007Fh" horiz-adv-x="153" 
 />
    <glyph glyph-name="FL00A1h" unicode="&#xa1;" horiz-adv-x="146" 
d="M129 735q-1 -5 -5 -18.5t-9 -28.5q-5 -16 -8 -29.5t-4 -19.5q-12 -3 -31 -2.5t-34.5 2.5t-22 5.5t8.5 6.5q11 2 9.5 8.5t-7 15.5t-10.5 20t-2 23q3 10 9 15t12.5 9.5t12.5 11.5t10 20q6 -1 17.5 -5t23 -9.5t20.5 -12t10 -12.5zM70 524q6 3 10 11l5 10h4q8 0 8.5 -3
t0.5 -6v-4q0 -1 3 -12t3 -13q0 -5 0.5 -13t0.5 -19t-0.5 -18.5t-0.5 -11.5q11 -2 14 -6.5t3 -9.5v-8q0 -11 -3 -21t-3 -21q0 -32 2.5 -64.5t2.5 -66.5v-14q-8 -4 -10 -10.5t-2 -13.5v-9q0 -2 0.5 -6.5t0.5 -6.5q1 -6 2.5 -17t2.5 -18t1 -8l-23 -55q2 -4 4 -9.5t2 -7.5
t0.5 -4.5l0.5 -2.5q-16 0 -29 6t-17 18q-5 15 -8.5 25t-4.5 17.5t2 12.5t11 10v8v10q0 7 -1 17l-2 20t-2 17l-1 7l-6 4q-2 15 -7.5 29t-5.5 29v9q0 2 7 7q0 5 -0.5 14t-0.5 20t0.5 19.5t0.5 13.5q0 1 1 7.5l2 13t2 12.5t1 8t-0.5 8.5t-1.5 14t-2 14t-2 8.5l-11 8v2v3
q1 1 3 3.5t2 4.5t-4 8.5t-6 8.5v70q8 -2 11 -4t4 -5t2 -6.5t5 -9.5q4 -4 8.5 -6l9 -4t7.5 -5t4 -9zM86 562l-1 -2l-4 -4h-3q-8 0 -8.5 5t-0.5 9q3 0 10 -0.5t7 -7.5zM63 503l-16 12q-2 3 -4 8.5t-2 8.5h-6q1 -3 1 -7v-7q0 -10 4 -15t17 -8q3 0 5.5 3t0.5 5zM70 445v9
q-8 -3 -8 -9h8zM53 250v26h-6v-26h6z" />
    <glyph glyph-name="FL00A2h" unicode="&#xa2;" horiz-adv-x="309" 
d="M187 107q0 -10 1.5 -14.5t4 -8t4.5 -7t4 -10.5q4 -17 3.5 -24t7.5 -14v109q5 -2 12 -5t16 -10q10 4 12 13.5t2.5 19t2.5 18t13 11.5q0 -3 4.5 -14t9.5 -22t9.5 -17t3.5 2q-5 57 -16 83t-24.5 36t-28 10.5t-27.5 5.5v6q0 3 0.5 12.5t1 20.5t1 20.5t0.5 11.5v109q3 6 3 12
v14q0 25 -2 47t-4 47l-3 6q-1 0 -1.5 20.5t-0.5 43.5q9 -12 17 -20v28q0 15 17 15v-9q0 -10 -1 -21t-1 -16v-7q0 -3 -1 -7q20 -23 30.5 -33t15 -12t3.5 2t-3 8v117q0 3 -4 9.5t-9 12.5t-11 10.5t-9 4.5h-5l-35 -6q3 14 1 34.5t-6 58.5q-2 19 -8.5 28.5t-14.5 9.5l0.5 -3.5
t0.5 -7.5t0.5 -12.5t2.5 -14.5l-11 -81q-39 0 -68 -26t-49 -61.5t-30 -73t-10 -60.5q0 -33 5 -68.5t8 -67.5q12 -8 16 -21.5t5 -28.5l2 -30t7 -25l22 -18q3 -5 5.5 -15.5t2.5 -15.5h8v12h7q2 -2 9 -11.5t15.5 -20.5t16.5 -20t12 -10q5 -1 10 0t10 1q0 -11 0.5 -19t0.5 -13
q0 -2 0.5 -8t1 -13t1 -12.5t0.5 -6.5v-6v-10t4 -4h2q0 3 2 15.5t6 16.5zM166 654q0 -2 0.5 -3t0.5 -2v-35q0 -11 -0.5 -22.5t-5.5 -16.5v-23q0 -56 1.5 -107.5t1.5 -104.5q0 -11 -0.5 -20.5t-1.5 -19.5q-5 4 -16 12.5t-13 10.5q-3 3 -6.5 24t-6.5 46.5t-5 49t-2 31.5
q0 16 -1 43.5t2 55.5t13 50.5t32 29.5q2 0 3.5 0.5t3.5 0.5zM220 573l2.5 9t4.5 20q-3 4 -6.5 8t-7.5 9v-46h7zM58 376v-43q-8 8 -9 17t-1 17v9h10zM190 140q-3 7 1 13q4 -6 9 -9q3 -9 3 -27v-11v-5q0 -2 1 -6h-3q0 5 -1 13.5t-2 13.5zM178 45q0 -11 3.5 -12t5.5 -1v14
q0 9 -5 9l-1 -1l-2 -5l-0.5 -1.5t-0.5 -2.5zM165 681q0 -5 0.5 -8.5t0.5 -7.5h-2h-12q3 11 13 16zM195 549h3v-41h-3v41zM159 708q-5 0 -5 7q0 6 5 6q3 0 5 -2v-9q-2 -2 -5 -2zM110 273v-6l-14 -14v6z" />
    <glyph glyph-name="FL00A3h" unicode="&#xa3;" horiz-adv-x="396" 
d="M44 452l53 -16q2 -11 -3 -16t-5 -16q0 -8 7 -14q-16 4 -20 -6t-4 -19q0 -6 -2 -10q0 -2 -6.5 -5t-7.5 -5q0 -1 -0.5 -3.5t-0.5 -4.5q0 -1 0.5 -4t0.5 -4q1 -2 4 -6.5t6.5 -10.5t6 -11t3.5 -6q9 -17 9 -34v-19q0 -7 -2 -17q11 -7 17 -13q-14 -1 -31.5 -3t-42.5 -4
q-7 0 -12.5 -4t-5.5 -9q0 -1 3 -5t6.5 -8.5t6.5 -8t2 -3.5q2 -2 1 -7t-1 -7l134 -39l9 13q2 -1 5 -1h9h21q8 0 15.5 0.5t13.5 2.5h3l111 7q1 0 4 11t7.5 30t10 43t10.5 50q-15 -3 -40 -7.5t-50.5 -9t-47.5 -9.5t-30 -9q0 -5 -9 -6t-11 -10l-34 30q3 10 0.5 19t-7.5 18.5
t-9.5 18.5t-4.5 19q0 2 0.5 6.5t1.5 5.5l13 3q0 10 3.5 34t15.5 42l8 -2l9 13q2 -1 5 -1h9h21q12 0 23 1.5t18 6.5q-13 5 -18 10q34 -2 55.5 -4.5t33.5 -3.5t16 0t4 7v14v23t-0.5 23t-0.5 17l-130 -10q0 -4 -4 -3.5t-9.5 2t-10 3t-5.5 -1.5q-8 10 -14 20.5t-11 20.5
q9 10 8.5 21.5t6.5 20.5q22 30 32.5 35.5t19.5 0t23 -15.5t44 -10q-4 20 -6 27.5t-3.5 10.5t-3 5.5t-3.5 12.5q3 2 7 12t4 12q0 8 -10 16t-19 8h-4q-5 -2 -13 -10q-2 -1 -6 -2t-6 -3l-2 2v3l-0.5 -0.5t-1.5 -0.5q-3 5 -4 11t-1 11h-10l-9.5 -7.5t-13.5 -11.5
q-33 -30 -47 -69t-14 -79v-39q-14 1 -36 -1t-57 -6q-7 0 -12.5 -4t-5.5 -9q0 -1 3 -5t6.5 -8.5t6.5 -8t2 -3.5q2 -2 1 -7t-1 -7zM181 618q0 -8 -12 -14v3q0 11 12 11zM160 511v15q2 -1 2.5 -5t2.5 -7v-3h-5zM341 177q1 3 3 3t3.5 -3.5t-3.5 -3.5q-4 0 -3 4zM251 719v-6h9
q-4 6 -9 6z" />
    <glyph glyph-name="FL00A4h" unicode="&#xa4;" horiz-adv-x="354" 
d="M170 210q0 -1 -0.5 -2t-0.5 -2l3 2q0 1 -1 1t-1 1zM193 221h8v4zM13 427q4 -1 4 -2q0 -2 -3.5 -3t-3.5 3q0 2 3 2zM289 277q-4 0 -6 -1q1 -2 1 -4q0 -1 1 -3q4 3 4 8zM324 413q1 3 -4 3q-6 0 -4 -2.5t4 -2.5t4 2zM308 509q-5 0 -5 -4q0 -5 5 -5q6 0 6 5q0 4 -6 4zM74 743
q5 0 5 7t-5 7q-4 0 -4 -7t4 -7zM307 108q-4 0 -4 -7t4 -7q5 0 5 7t-5 7zM81 721q5 0 5 7t-5 7t-5 -7t5 -7zM281 72q5 0 5 -7t-5 -7t-5 7t5 7zM301 130q-6 0 -6 -7t6 -7q4 0 4 7t-4 7zM101 779q-6 0 -6 7t6 7q5 0 5 -7t-5 -7zM221 152q6 9 15 9q0 -10 -8 -17zM161 699
q-8 -9 -16 -9q0 9 8 17zM307 463q0 -3 0.5 -7t9.5 -6v17q0 4 -9 6q0 -2 -0.5 -5t-0.5 -5zM190 661q-2 0 -3 -0.5l-1 -0.5l-14 -9l-0.5 -0.5t-0.5 -1.5t0.5 -2l0.5 -1q2 0 12 1t18 4q0 2 -0.5 3.5t-0.5 3.5q-2 1 -5 1q-2 0 -3 1zM274 166q2 -9 4 -22.5t3 -13.5h15
q0 14 -8.5 28t-13.5 22v-14zM107 685q-2 9 -3.5 22.5t-2.5 13.5h-16q0 -14 8.5 -28t13.5 -22v14zM48 253q0 4 0.5 11.5t11.5 7.5h4q2 -1 5 -1.5t6 -1.5q0 1 2 7q-2 7 -7.5 16.5t-11.5 19t-10.5 18.5t-5.5 15v27q-3 8 -13 13.5t-10 13.5q0 2 0.5 3.5l0.5 1.5l44 37l0.5 3.5
t0.5 7.5l0.5 10t-9.5 11q2 -4 -1 -10.5t-6 -7.5q-2 -2 -11 1.5t-11 3.5q0 -5 1 -7.5t1 -5.5q0 -4 -9 -11q0 2 -0.5 8t-0.5 8q0 29 7.5 58.5t15.5 58.5q4 11 10.5 16.5t13.5 8.5t13.5 4.5t11.5 4.5q-1 5 -2 9.5t-3 9.5h-9q0 12 4 19q-3 11 -6.5 22t-6.5 22l-14 36v4q0 4 2 18
t4 30t4.5 30.5t3.5 18.5q0 7 6 7q2 -2 6.5 -10.5t6.5 -11.5q2 -2 3.5 -10t2.5 -13q1 -3 1.5 -4l0.5 -1q0 -2 5 -4.5l7 -3.5q19 -7 27 -19.5t10 -26.5t0.5 -29t-0.5 -27q11 9 24.5 15t32.5 8q3 23 14 43.5t31 50.5q3 2 10 12.5t18 10.5q8 -40 6 -78.5t-7 -77.5l12 -9
q2 11 2.5 23t0.5 20q11 0 15.5 -6.5t9.5 -17.5v-8q0 -6 0.5 -11.5t0.5 -11.5v-8q0 -13 -4 -30.5t-11 -37.5q5 -3 12.5 -4t12.5 -6q11 -20 15.5 -49.5t4.5 -57.5v-40q0 -2 -1 -7t-2 -11t-2 -11.5t-2 -6.5q-1 -6 -4.5 -17.5t-6 -19.5t-2.5 -9h-14q0 -3 1 -9t2.5 -13.5
t2.5 -13.5t1 -9q-3 -9 -26 -29q1 -1 1 -4q5 4 9.5 6t6.5 4v-5l-13 -13q5 -17 9.5 -33t9.5 -32l14 -36v-4q0 -4 -2 -18t-4.5 -30t-4.5 -30.5t-3 -18.5q0 -7 -7 -7q-2 2 -6.5 10.5t-6.5 11.5q-2 2 -3 10t-2 13q-1 3 -1.5 4l-0.5 1q-1 2 -6 4.5l-7 3.5q-12 8 -16 22.5t-5.5 31
t-3 32.5t-10.5 27h-4v4q-1 1 -7 5h-1q-17 -8 -32.5 -13t-26.5 -5h-2q-5 -29 -14 -54.5t-9 -60.5q-2 -1 -5.5 -5.5t-8.5 -9t-11 -8.5t-11 -4q0 46 3 90.5t4 90.5q-3 3 -7 9q-5 -4 -7 -12.5t-4 -18.5q5 -9 11 -16q-1 0 -2 -0.5t-2 -0.5q-6 0 -9 1v-21q-11 0 -15.5 6.5
t-9.5 17.5v8v5q-11 14 -16 29.5t-5 22.5zM128 438q0 -39 12 -79t24 -78q2 -4 5.5 -12t12.5 -8q7 0 14.5 6.5t14 14.5t11.5 15.5l7 10.5q13 47 17.5 99t4.5 98q9 2 9 6v8q0 5 -3.5 8t-7.5 5.5t-8 5.5t-5 8q-2 3 -3.5 12.5t-4.5 19.5t-9 18t-18 9q-3 1 -10.5 -0.5t-14.5 -4
t-12.5 -5.5t-5.5 -6v-2q0 -1 3 -9t3 -9q-2 -18 -8 -34t-12 -31.5t-11 -31.5t-5 -34z" />
    <glyph glyph-name="FL00A5h" unicode="&#xa5;" horiz-adv-x="342" 
d="M32 335l96 -28q-2 -16 -5 -31t-6 -31q-13 0 -30.5 -1t-44.5 -3q-6 0 -11 -3t-5 -5q0 -1 2.5 -3.5t6 -5.5t6 -5t1.5 -2q2 -2 1 -4.5t-1 -4.5l65 -13q-2 -10 -4.5 -20t-4.5 -20l-11 -37v-4q0 -4 3.5 -18l7.5 -30l7.5 -30t5.5 -18q0 -6 7 -6q2 2 6 11t6 12t3 11t1 13
q1 3 1.5 4l0.5 1q1 2 6 5t7 4q13 9 15.5 24.5t2.5 32.5t1 33.5t11 27.5h9h19q25 0 38 5q-5 1 1.5 0t16 -3t18 -3.5t8.5 0.5q0 8 0.5 17.5t8.5 9.5l8 8q-23 6 -50.5 9t-54.5 5q4 17 6 33.5t2 19.5l-1 10q0 4 -5 6h7q12 0 23 1.5t18 6.5q-21 7 -21 20q0 6 10.5 9t24 4
t26.5 0.5t17 -0.5l9 12q-22 9 -48 14t-52 7l60 188q-5 0 -6 7q0 7 6 7q2 0 4 -2l6 19l-13 12q1 0 1.5 0.5t1.5 0.5h4l8 -7l28 89l11 37v4q0 4 -3.5 18l-7.5 30t-8 30t-5 18q0 6 -8 6q-2 -2 -5.5 -11t-5.5 -12t-3 -11t-1 -13q-1 -3 -1.5 -4l-0.5 -1q-1 -2 -6 -5t-7 -4
q-14 -11 -16 -28t-2 -36t-3 -36t-18 -26q-3 -2 -7 -15.5t-7 -30t-5 -31t-2 -16.5l1 -10q0 -5 8 -7q1 -3 2 -13t2 -12q1 -11 2 -21t-4 -20q-6 2 -19 -8l-34 88l-8 82q-3 21 -9 37t-12.5 32t-12.5 33t-8 39q-2 1 -5 4.5t-7 7.5t-9 6.5t-11 1.5q5 -49 12.5 -96t12.5 -95
q-8 -1 -13 7t-8.5 19t-5 23t-2.5 19q-11 -1 -15.5 -8t-8.5 -18v-8q1 -6 1 -12q0 -5 1 -11v-8q1 -17 10.5 -40t23 -48.5t29.5 -50.5t31 -46q-4 -5 -6 -8.5t-4 -5.5q-1 -5 -1 -10q0 -4 -1 -9q-15 3 -38.5 1t-67.5 -7q-7 0 -12.5 -4t-5.5 -9q0 -1 3 -5t6.5 -8.5t6.5 -8t2 -3.5
q2 -2 1 -7t-1 -7zM274 692q2 9 2 23t1 14l17 1q2 -14 -6 -28.5t-13 -23.5zM141 159q-2 -9 -2.5 -23t-1.5 -14l-16 -1q-2 14 6 28.5t13 23.5zM215 701q7 -8 18 -8q-1 9 -11 17zM200 150q-7 8 -18 8q2 -11 11 -16zM137 281q6 0 7 -6q0 -8 -6 -8q-5 0 -5 7q-1 7 4 7zM299 731
q-6 -2 -6 6q-1 6 5 8q5 0 6 -7q0 -7 -5 -7zM143 65q-6 -2 -6 -8q1 -7 7 -6q5 0 4 7q0 7 -5 7zM116 120q6 1 6 -6q1 -6 -5 -8q-5 0 -6 7q0 7 5 7zM272 786q6 2 5 8q0 7 -6 6q-5 0 -4 -7q0 -7 5 -7zM304 753q-5 0 -5 7q-1 7 4 7q4 1 6 -6q0 -6 -5 -8zM111 98q5 0 5 -7
q1 -7 -4 -7t-6 6q0 8 5 8zM278 570q6 0 4 8q0 2 -0.5 2.5t-0.5 1.5l-4 -12h1zM126 252l7 -7h-8v3q0 1 0.5 2t0.5 2zM289 599q0 1 0.5 2t0.5 2t-0.5 2.5l-0.5 1.5l-2 -6z" />
    <glyph glyph-name="FL00A6h" unicode="&#xa6;" horiz-adv-x="156" 
d="M77 -82q-8 -4 -12.5 -16.5t-6.5 -15.5h-4q-8 0 -9 4t-1 10v6q0 1 -1 6.5t-2.5 12.5t-2.5 13t-1 8q0 8 -0.5 21t-0.5 30q0 16 0.5 30t0.5 19q-13 4 -16.5 11t-3.5 15v13q0 17 3.5 33t3.5 33v58t-0.5 93.5t-1 111t-1 111.5t-0.5 94v60v23q9 5 11.5 16.5t2.5 22.5v13
q0 5 -0.5 12.5t-0.5 9.5q-1 11 -2.5 28t-3 28.5t-1.5 13.5l27 89q-2 6 -4.5 14.5t-2.5 12.5t-0.5 7.5l-0.5 3.5q18 0 33 -9.5t20 -28.5q5 -24 9.5 -40.5t5.5 -28.5t-2.5 -20.5t-12.5 -15.5v-13v-16q1 -11 2 -27.5t2 -32.5t2 -27.5l1 -11.5l8 -6q2 -25 8 -47t6 -47v-14
q0 -6 -8 -12q0 -4 0.5 -30.5t0.5 -58.5t0.5 -61t0.5 -37q0 -6 -0.5 -24.5t-1 -44t-1 -54t-1 -53t-1 -42t-0.5 -20.5q0 -2 -1 -11.5t-2 -20.5t-2 -20.5t-1 -12.5q0 -4 0.5 -14.5t1.5 -22.5t2 -22.5t2 -13.5l13 -13v-3v-5q-1 -2 -3.5 -6t-2.5 -8q0 -2 5 -12.5t7 -14.5v-111
q-9 3 -12.5 6.5t-5 7.5t-2.5 9.5t-5 14.5q-5 7 -10.5 10.5t-10.5 7t-8.5 8t-4.5 14.5zM57 -144q0 1 0.5 2.5l0.5 1.5l6 5l1 0.5t2 0.5q9 0 10 -8.5t1 -14.5q-5 0 -13 1t-8 12zM84 -49l19 -18q2 -5 5 -13.5t3 -13.5h6q-1 4 -1 7v4v11q0 16 -4.5 24t-20.5 13q-3 -1 -6 -5.5
t-1 -8.5zM77 46v-13q9 3 9 13h-9zM99 676v-41h7v41h-7z" />
    <glyph glyph-name="FL00A7h" unicode="&#xa7;" horiz-adv-x="354" 
d="M153 221v4v-4zM341 427q-4 -1 -4 -2q0 -2 3.5 -3t3.5 3q0 2 -3 2zM65 277q4 0 6 -1q-1 -2 -1 -4q0 -1 -1 -3q-4 3 -4 8zM30 413q-2 3 4 3t4 -2.5t-4 -2.5t-4 2zM46 509q5 0 5 -4q0 -5 -5 -5q-6 0 -6 5q0 4 6 4zM280 743q-5 0 -5 7t5 7q4 0 4 -7t-4 -7zM47 108q4 0 4 -7
t-4 -7q-5 0 -5 7t5 7zM273 721q-5 0 -5 7t5 7t5 -7t-5 -7zM73 72q-5 0 -5 -7t5 -7t5 7t-5 7zM53 130q6 0 6 -7t-6 -7q-4 0 -4 7t4 7zM253 779q6 0 6 7t-6 7q-5 0 -5 -7t5 -7zM133 152q-6 9 -15 9q0 -10 8 -17zM193 699q7 -9 16 -9q0 9 -8 17zM47 463q0 -3 -0.5 -7t-9.5 -6
v17q0 4 9 6q0 -2 0.5 -5t0.5 -5zM164 661q2 0 3 -0.5l1 -0.5l14 -9l0.5 -0.5t0.5 -1.5t-0.5 -2l-0.5 -1q-2 0 -12 1t-18 4q0 2 0.5 3.5t0.5 3.5q2 1 4 1q3 0 4 1zM80 166q-2 -9 -4 -22.5t-3 -13.5h-15q0 14 8.5 28t13.5 22v-14zM247 685q2 9 3.5 22.5t2.5 13.5h16
q0 -14 -8.5 -28t-13.5 -22v14zM306 253q0 4 -0.5 11.5t-11.5 7.5h-4q-2 -1 -5 -1.5t-6 -1.5q0 1 -2 7q2 7 7.5 16.5t11.5 19t10.5 18.5t5.5 15v27q3 8 13 13.5t10 13.5q0 2 -0.5 3.5l-0.5 1.5l-44 37l-0.5 3.5t-0.5 7.5l-0.5 10t9.5 11q-2 -4 1 -10.5t6 -7.5q2 -2 11 1.5
t11 3.5q0 -5 -1 -7.5t-1 -5.5q0 -4 9 -11q0 2 0.5 8t0.5 8q0 29 -7.5 58.5t-15.5 58.5q-4 11 -10.5 16.5t-13.5 8.5t-14 4.5t-11 4.5q1 5 2 9.5t3 9.5h9q0 12 -4 19q3 11 6.5 22t6.5 22l14 36v4q0 4 -2 18t-4 30t-4.5 30.5t-3.5 18.5q0 7 -6 7q-2 -2 -6.5 -10.5t-6.5 -11.5
q-2 -2 -3.5 -10t-2.5 -13q-1 -3 -1.5 -4l-0.5 -1q0 -2 -5 -4.5l-7 -3.5q-20 -7 -27.5 -19.5t-9.5 -26.5t-0.5 -29t0.5 -27q-18 27 -38.5 34.5t-38.5 2.5t-32 -20t-20 -33l-12 -9l-29 -20q0 -13 4 -30.5t11 -37.5q-5 -3 -12.5 -4t-12.5 -6q-11 -20 -15.5 -49.5t-4.5 -57.5
v-40q0 -2 1 -7t2 -11t2 -11.5t2 -6.5q1 -6 4.5 -17.5t6 -19.5t2.5 -9h14q0 -3 -1 -9t-2.5 -13.5t-2.5 -13.5t-1 -9q3 -9 26 -29q-1 -1 -1 -4q-5 4 -9.5 6t-6.5 4v-5l13 -13q-5 -17 -9.5 -33t-9.5 -32l-14 -36v-4q0 -4 2 -18t4.5 -30t4.5 -30.5t3 -18.5q0 -7 7 -7
q2 2 6.5 10.5t6.5 11.5q2 2 3 10t2 13q1 3 1.5 4l0.5 1q1 2 6 4.5l7 3.5q12 8 16 22.5t5.5 31t3 32.5t10.5 27h4v4q2 2 3.5 2.5t3.5 2.5h1q12 2 26.5 -2t28.5 -9.5t27 -9.5t22 -1.5t13.5 14.5t2.5 38q20 -5 31.5 -3.5t17.5 6t8 10t2 8.5zM226 438q0 -39 -12 -79t-24 -78
q-2 -4 -5.5 -12t-12.5 -8q-7 0 -14.5 6.5t-14 14.5t-11.5 15.5l-7 10.5q-13 47 -17.5 99t-4.5 98q-9 2 -9 6v8q0 5 3.5 8t7.5 5.5t8 5.5t5 8q2 3 3.5 12.5t4.5 19.5t9 18t18 9q3 1 10.5 -0.5t14.5 -4t12.5 -5.5t5.5 -6v-2q0 -1 -3 -9t-3 -9q2 -18 8 -34t12 -31.5t11 -31.5
t5 -34z" />
    <glyph glyph-name="FL00A8h" unicode="&#xa8;" horiz-adv-x="256" 
d="M10 779q1 -5 9.5 -11.5t19.5 -11.5t22.5 -9t17.5 -5q3 12 9 18.5t12.5 11t12 9.5t8.5 14q3 11 -2 21.5t-10 19t-7 14.5t9 8q14 3 8 6t-21 5.5t-33.5 3t-29.5 -2.5q-1 -6 -3.5 -19t-7.5 -28q-5 -14 -9 -26.5t-5 -17.5zM149 792q1 -5 8.5 -9.5t17.5 -9t19.5 -7.5t14.5 -4
q3 10 8.5 15t11 9t10.5 7.5t8 11.5q3 9 -2 17.5t-9.5 15t-5.5 11.5t8 7q12 2 7 4.5t-18 4.5t-30 2q-16 0 -26 -2l-3 -15t-7 -22t-8 -22t-4 -14z" />
    <glyph glyph-name="FL00B6h" unicode="&#xa9;" horiz-adv-x="1279" 
d="M1265 383q0 -1 -0.5 -2t-0.5 -3l-18 -38h-74l50 -75q2 -2 2 -10v-7q0 -33 -26 -41l-83 17l-9 -111q-9 -21 -32 -21q-20 0 -39 9.5t-46 28.5l-81 -104l-42 -11l-51 58l-157 -94l-27 10v57l-207 -37l-26 17l9 47l-217 21v36l27 31l-133 27q-26 0 -26 36l52 49l-92 49l-8 47
l90 17l-49 68l7 59l99 -12q0 135 38 135h4l93 -39q30 48 53 75.5t46 38.5l74 -57l151 86l33 -29l-9 -29l9 -9l166 38l57 -9l-6 -57h197l17 -20q0 -50 -33 -54l167 -51v-5v-6q0 -46 -59 -55q110 -44 110 -71zM1239 369l-9 17l-133 79l83 27h9l-9 21l-191 46l67 57h-224l16 66
l-217 -37l-7 57l-17 9l-150 -86l-66 57l-90 -111q-10 -2 -14.5 -4l-4.5 -2q-30 0 -83 41l-15 -133l-109 10l9 -39l57 -84l-107 -10l142 -85l-92 -47l200 -51l-67 -54l232 -11l-25 -66l207 48l27 -38l-9 -37l166 93l75 -56l84 115l106 -41l8 135l110 -21q1 6 1.5 8.5t0.5 1.5
q0 27 -68 116zM1077 435l-19 -123l-23 5l6 129zM1063 261l-25 -27l-17 20l20 17zM1000 269q-35 0 -89 84v-82l-22 -3l-3 167l83 -107l6 118l25 -10v-167zM863 271l-20 7q-15 39 -35 39q-18 0 -37 -39h-29q6 87 60 166q5 5 20 5q26 0 37 -53zM724 446l-7 -166l-36 -12l15 170
zM655 264q-35 0 -91 80v-79l-23 -4l-3 168l86 -107l4 116l27 -9v-165zM523 382q-13 -118 -58 -118q-5 -1 -8.5 -1.5t-4.5 -0.5h-11q-41 0 -50 27q0 109 56 147q5 0 5.5 0.5t-0.5 0.5h9q50 0 62 -55zM381 442l-4 -40q-5 3 -7 3.5t-8 0.5q-18 0 -40 -24q-22 -31 -22 -69
q0 -33 31 -33q22 0 29 4l2 -28q-11 -2 -18 -4.5t-13 -2.5q-42 0 -57 73q-1 1 -1 12v10q0 78 108 98zM257 438l-7 -165l-33 -12l14 170zM834 353l-18 56l-29 -56h47zM494 358q0 15 -3 18q-10 22 -29 22q-25 0 -43 -54v-11q0 -40 24 -40q6 0 39 14q12 30 12 51z" />
    <glyph glyph-name="FL00ABh" unicode="&#xab;" horiz-adv-x="296" 
d="M111 299q-1 1 -7.5 6.5t-16 13.5t-20 17t-19.5 17q-1 -1 1 -8q3 -11 -1 -8.5t-11 11.5t-14 21t-9 21l1 1q-7 7 -9 8q-4 8 6.5 24.5t28.5 28.5q1 1 1 -2t-1 -6q0 -1 -1 -6t-2 -10.5t-2 -10.5l-1 -5q0 -2 2 1t4.5 7.5t5.5 8.5t6 4q9 8 17.5 19t16 21.5t13 18.5t6.5 9
q3 2 10 -1t14.5 -8t13.5 -10.5t9 -8.5q-12 -2 -21 -12t-15.5 -23t-11 -27t-8.5 -24q11 -20 26 -38.5t35 -21.5q-3 -3 -9 -8.5t-13.5 -10.5t-14.5 -8t-10 -1zM237 306q-1 1 -7.5 6.5t-16 13.5t-20 17t-19.5 17q-1 -1 1 -8q3 -11 -1 -8.5t-11 11.5t-14 21t-9 21l1 1q-7 7 -9 8
q-4 8 6.5 24.5t28.5 28.5q1 1 1 -2t-1 -6q0 -1 -1 -6t-2 -10.5t-2 -10.5l-1 -5q0 -2 2 1t4.5 7.5t5.5 8.5t6 4q9 8 17.5 19t16 21.5t13 18.5t6.5 9q3 2 10 -1t14.5 -8t13.5 -10.5t9 -8.5q-12 -2 -21 -12t-15.5 -23t-11 -27t-8.5 -24q11 -20 26 -38.5t35 -21.5q-3 -3 -9 -8.5
t-13.5 -10.5t-14.5 -8t-10 -1z" />
    <glyph glyph-name="FL00ACh" unicode="&#xac;" horiz-adv-x="258" 
d="M169 271q2 -8 11 -9t17 -6q4 -3 4.5 -5.5t1.5 -4t4 -3t11 -2.5v42l-6 6t-4 5q0 2 2 3t3 2v3l-11 5q-2 2 -3.5 13.5t-1.5 14.5q0 2 2.5 12.5t2.5 12.5v7h5q12 0 23 1.5t18 6.5q-5 2 -10.5 9.5t-9.5 16.5t-6.5 17t-2.5 11q-36 18 -64 24.5t-51 6.5q-22 0 -40.5 -5t-34.5 -9
q-7 0 -12.5 -4t-5.5 -9q0 -1 3 -5t6.5 -8.5t6.5 -8t2 -3.5q2 -2 1 -7t-1 -7l95 -28v-6q0 -7 -2.5 -13t-2.5 -12v-5q0 -4 2.5 -6t13.5 -4q0 -2 -0.5 -7.5t-0.5 -11.5q0 -7 0.5 -12t0.5 -8q0 -1 3 -7.5t3 -7.5v-2q0 -2 0.5 -3.5t7.5 -1.5h4q1 1 5 5.5t11 6.5zM175 283
q-2 2 0.5 3.5t4.5 2.5q14 -2 17.5 -5t3.5 -9v-5v-1t1 -3h-5q0 2 -2.5 5.5t-4.5 5.5zM152 247q0 -4 7 -4.5t11 -0.5q0 2 -1 5.5t-9 3.5h-2l-5 -2zM169 320h7q0 -5 -7 -5v5z" />
    <glyph glyph-name="FL00ADh" unicode="&#xad;" horiz-adv-x="251" 
d="M27 356q0 2 0.5 7.5t-0.5 7.5l-2 4.5t-5 9.5t-5 9t-2 5q0 5 4.5 10t9.5 5q22 3 36.5 5.5t25 3t18 -1.5t14.5 -7q29 -3 62.5 -8t59.5 -21l-7 -14q-3 0 -12.5 0.5t-20 -0.5t-18.5 -4t-8 -10q0 -15 16 -22q-5 -5 -13.5 -7t-17.5 -2h-16q-9 0 -11 1l-7 -14z" />
    <glyph glyph-name="FL00AEh" unicode="&#xae;" horiz-adv-x="1229" 
d="M1215 369l-9 17l-133 79l83 27h9l-9 21l-191 46l67 57h-224l16 66l-217 -37l-7 57l-17 9l-150 -86l-66 57l-90 -111q-10 -2 -14.5 -4l-4.5 -2q-30 0 -83 41l-15 -133l-109 10l9 -39l57 -84l-107 -10l142 -85l-92 -47l200 -51l-67 -54l232 -11l-25 -66l207 48l27 -38
l-9 -37l166 93l75 -56l84 115l106 -41l8 135l110 -21q1 6 1.5 8.5t0.5 1.5q0 27 -68 116zM1053 435l-19 -123l-23 5l6 129zM1039 261l-25 -27l-17 20l20 17zM976 269q-35 0 -89 84v-82l-22 -3l-3 167l83 -107l6 118l25 -10v-167zM839 271l-20 7q-15 39 -35 39q-18 0 -37 -39
h-29q6 87 60 166q5 5 20 5q26 0 37 -53zM700 446l-7 -166l-36 -12l15 170zM631 264q-35 0 -91 80v-79l-23 -4l-3 168l86 -107l4 116l27 -9v-165zM499 382q-13 -118 -58 -118q-5 -1 -8.5 -1.5t-4.5 -0.5h-11q-41 0 -50 27q0 109 56 147q5 0 5.5 0.5t-0.5 0.5h9q50 0 62 -55z
M357 442l-4 -40q-5 3 -7 3.5t-8 0.5q-18 0 -40 -24q-22 -31 -22 -69q0 -33 31 -33q22 0 29 4l2 -28q-11 -2 -18 -4.5t-13 -2.5q-42 0 -57 73q-1 1 -1 12v10q0 78 108 98zM233 438l-7 -165l-33 -12l14 170zM810 353l-18 56l-29 -56h47zM470 358q0 15 -3 18q-10 22 -29 22
q-25 0 -43 -54v-11q0 -40 24 -40q6 0 39 14q12 30 12 51z" />
    <glyph glyph-name="FL00B2h" unicode="&#xaf;" horiz-adv-x="461" 
d="M112 666q-2 0 -6.5 5t-6.5 9l-1 3q0 7 8 9.5t13 4.5l-7 6h-20q-15 0 -30.5 1.5t-28.5 8.5q-2 2 -4.5 4t-2.5 3q0 2 2.5 7t4.5 10q1 2 3.5 3.5t3.5 1.5h172q-2 5 -4.5 12t-2.5 11q0 2 -0.5 5.5l-0.5 3.5q9 0 15.5 -5t12 -11t11.5 -11t14 -5q2 0 10.5 3.5t10.5 3.5h7
q6 0 14.5 -0.5t16.5 -2.5t14 -6t8 -12h100v-25h-48q2 -2 4 -5.5t3 -5.5v-3q0 -8 -8.5 -11.5t-8.5 -12.5zM378 703q-6 0 -6 -6q0 -5 6 -5q4 0 4 5q0 6 -4 6zM288 714q-1 0 -2 -0.5l-1 -0.5q-3 0 -7 -5q1 0 1.5 -0.5t1.5 -0.5t2.5 0.5l1.5 0.5l6 5q-1 0 -2 0.5z" />
    <glyph glyph-name="FL00B0h" unicode="&#xb0;" horiz-adv-x="121" 
d="M14 792q1 -5 8.5 -9.5t17.5 -9t19.5 -7.5t14.5 -4q3 10 8.5 15t11 9t10.5 7.5t8 11.5q3 9 -2 17.5t-9.5 15t-5.5 11.5t8 7q12 2 7 4.5t-18 4.5t-30 2q-16 0 -26 -2l-3 -15t-7 -22t-8 -22t-4 -14z" />
    <glyph glyph-name="FL00B3h" unicode="&#xb1;" horiz-adv-x="329" 
d="M169 315q7 0 7 5h-7v-5zM153 249l5 2h2q8 0 9 -3.5t1 -5.5q-4 0 -11 0.5t-7 4.5zM190 277q2 -2 4.5 -5.5t2.5 -5.5h5q-1 2 -1 3v1v5q0 6 -3.5 9t-17.5 5q-2 -1 -4.5 -2.5t-0.5 -3.5zM169 271q-7 -2 -11 -6.5t-5 -5.5h-4q-7 0 -7.5 1.5t-0.5 3.5v2q0 1 -3 7.5t-3 7.5
q0 3 -0.5 8t-0.5 12q0 6 0.5 11.5t0.5 7.5q-11 2 -13.5 4t-2.5 6v5q0 6 2.5 12t2.5 13v6l-95 28q0 2 1 7t-1 7q1 0 -2 3.5t-6.5 8t-6.5 8.5t-3 5q0 5 5.5 9t12.5 4q38 4 60.5 6.5t37.5 0.5q4 5 4 11v5q0 2 -0.5 5t-0.5 4q-1 6 -3.5 16l-2.5 10l23 34q-6 8 -6 11q0 2 -0.5 3
l-0.5 1q15 0 28 -3.5t17 -11.5q8 -18 11.5 -26t-11.5 -14v-11q0 -5 1.5 -14.5t2.5 -16t1 -7.5l7 -2q0 -3 1 -4q30 -3 60 -7.5t56 -15.5l-9 -12q-4 0 -17 0.5t-26.5 -0.5t-24 -4t-10.5 -9q0 -13 21 -20q-7 -5 -18 -6.5t-23 -1.5h-5v-7q0 -2 -2.5 -12.5t-2.5 -12.5
q0 -3 1.5 -14.5t3.5 -13.5l11 -5v-3q-1 -1 -3 -2t-2 -3q0 -1 4 -5l6 -6v-42q-8 1 -11 2.5t-4 3t-1.5 4t-4.5 5.5q-8 5 -17 6t-11 9zM26 159q0 2 1 7t-1 7q1 0 -2 3.5t-6.5 8t-6.5 8.5t-3 5q0 5 5.5 9t12.5 4q29 3 48.5 5t33.5 2.5t23.5 -1.5t18.5 -6q39 -2 82.5 -7t78.5 -19
l-9 -12q-4 0 -17 0.5t-26.5 -0.5t-24 -4t-10.5 -9q0 -13 21 -20q-7 -5 -18 -6.5t-23 -1.5h-21h-9q-3 0 -5 1l-9 -13z" />
    <glyph glyph-name="FL00B4h" unicode="&#xb4;" horiz-adv-x="208" 
d="M14 634q2 2 14 18t27 35.5t29 36.5t20 22q11 8 20 17t12 13q10 -3 25 -13t25.5 -19t13.5 -14.5t-10 -0.5q-9 4 -11 -1.5t-2 -14.5t-1.5 -20t-10.5 -18q2 1 -15 -6.5t-38.5 -21.5t-41 -33.5t-22.5 -43.5q-4 4 -10.5 12.5t-12.5 18.5t-9.5 19t-1.5 14z" />
    <glyph glyph-name="FL00B7h" unicode="&#xb7;" horiz-adv-x="125" 
d="M9 370q1 4 4 14t8 22t7 22l3 15q10 2 26 2q17 0 30 -2t18 -4.5t-7 -4.5q-9 -2 -8 -7t5.5 -11.5t9.5 -15t2 -17.5q-3 -8 -8 -11.5t-10.5 -7.5t-11 -9t-8.5 -15q-5 1 -14.5 4t-19.5 7.5t-17.5 9t-8.5 9.5z" />
    <glyph glyph-name="FL00B8h" unicode="&#xb8;" horiz-adv-x="202" 
d="M90 129q-3 -1 -3 -3v-2v-2l-6 -15q0 -3 -0.5 -8t-0.5 -12q0 -6 0.5 -11.5t0.5 -7.5q-11 -2 -13.5 -4t-2.5 -6v-5q0 -6 2.5 -12t2.5 -13v-6l-55 -24l1 -10q0 -3 -1 -4q1 0 -2 -3.5t-6.5 -8t-6.5 -8.5t-3 -5q0 -5 5.5 -9t12.5 -4q18 -5 30.5 -10.5t29.5 -5.5q14 0 35.5 6
t54.5 23q0 3 2.5 11t6.5 17t9.5 16.5t10.5 9.5q-7 5 -18 6.5t-23 1.5h-5v7l-5 25q0 3 1.5 14.5t3.5 13.5l11 5v3q1 0 1 -1h1zM121 105l15 6q1 -5 5 -8q-4 -2 -15 -4l-4 2t-2 3v0q0 1 1 1zM115 117q-7 2 -10 5q5 0 8.5 1t7.5 1q-6 -4 -6 -7zM115 68v5q7 0 7 -5h-7z" />
    <glyph glyph-name="FL00BBh" unicode="&#xbb;" horiz-adv-x="296" 
d="M179 299q1 1 7.5 6.5t16 13.5t20 17t19.5 17q1 -1 -1 -8q-3 -11 1 -8.5t11 11.5t14 21t9 21l-1 1q7 7 9 8q4 8 -6.5 24.5t-28.5 28.5q-1 1 -1 -2t1 -6q0 -1 1 -6t2 -10.5t2 -10.5l1 -5q0 -2 -2 1t-4.5 7.5t-5.5 8.5t-6 4q-9 8 -18 19t-16.5 21.5t-12.5 18.5t-6 9
q-3 2 -10 -1t-14.5 -8t-13.5 -10.5t-9 -8.5q12 -2 21 -12t15.5 -23t11 -27t8.5 -24q-11 -20 -26 -38.5t-35 -21.5q3 -3 9 -8.5t13.5 -10.5t14.5 -8t10 -1zM53 306q1 1 7.5 6.5t16 13.5t20 17t19.5 17q1 -1 -1 -8q-3 -11 1 -8.5t11 11.5t14 21t9 21l-1 1q7 7 9 8
q4 8 -6.5 24.5t-28.5 28.5q-1 1 -1 -2t1 -6q0 -1 1 -6t2 -10.5t2 -10.5l1 -5q0 -2 -2 1t-4.5 7.5t-5.5 8.5t-6 4q-9 8 -18 19t-16.5 21.5t-12.5 18.5t-6 9q-3 2 -10 -1t-14.5 -8t-13.5 -10.5t-9 -8.5q12 -2 21 -12t15.5 -23t11 -27t8.5 -24q-11 -20 -26 -38.5t-35 -21.5
q3 -3 9 -8.5t13.5 -10.5t14.5 -8t10 -1z" />
    <glyph glyph-name="FL00BFh" unicode="&#xbf;" horiz-adv-x="216" 
d="M94 109q1 -5 7 -5t7 5q1 3 -2 3h-5q-9 0 -7 -3zM85 58q0 -11 -3 -14.5t-14 -3.5q-20 0 -37 27q-1 20 -5.5 40t-9 39.5t-8.5 39t-4 39.5q0 36 7.5 80t20 88t29 84t33.5 68q13 -1 21 10.5t16 19.5t18.5 4.5t28.5 -34.5v-6q0 -6 3 -8t3 -12q0 -19 -10 -32t-18 -27
q-15 -30 -31 -65t-29.5 -72t-22 -75t-7.5 -73l2 -0.5t4 -0.5q13 0 31 11t25 24q2 6 5 20t6 30t6 30t4 20q2 6 4.5 16.5t5.5 20t7.5 16.5t10.5 7q13 0 13 -16v-10q0 -6 -2.5 -21t-4.5 -21q2 -6 6 -7t7.5 -2t6.5 -2.5t3 -8.5q0 -2 -0.5 -3l-0.5 -1l-15 -26v-4q0 -14 4.5 -22.5
t4.5 -22.5q0 -9 -3 -34t-9 -52t-14.5 -47.5t-19.5 -20.5q-6 0 -12 7t-11.5 15t-9.5 15t-7 7h-5q-1 0 -7.5 -1t-13.5 -2.5t-13.5 -3t-7.5 -2.5l28 -16v-9h-9zM121 42h-15q0 7 3.5 12t9.5 5q1 0 1.5 -0.5l0.5 -0.5v-16zM198 769q-1 -5 -5 -18.5t-9 -28.5q-5 -16 -8 -29.5
t-4 -19.5q-12 -3 -31 -2.5t-34.5 2.5t-22 5.5t8.5 6.5q11 2 9.5 8.5t-7 15.5t-10.5 20t-2 23q3 10 9 15t12.5 9.5t12.5 11.5t10 20q6 -1 17.5 -5t23 -9.5t20.5 -12t10 -12.5z" />
    <glyph glyph-name="FL00C0h" unicode="&#xc0;" horiz-adv-x="341" 
d="M231 716q-1 4 -7 6t-13.5 3t-15 1.5t-11.5 0.5q-3 -9 -5.5 -11.5t-5.5 -3t-5.5 -2t-4.5 -8.5q-5 -17 -2 -31t0 -31q0 -6 -2.5 -7.5t-6 -2.5t-7.5 -1t-6 -3q-3 -4 -6.5 -12.5t-7.5 -18t-7 -18.5t-4 -13l-4 -13q-2 -9 -5 -20.5t-8 -25.5l-8 -27l-6 -25q-4 -14 -6.5 -25.5
t-4.5 -19.5l-3 -15l-9 -3l-1 -6l-6 -22l-3 -11l-10 -35q-7 -25 -11.5 -47t-8.5 -52l19 8l-31 -113q-1 -4 4 -7.5t10 -5.5q1 0 7 1t13.5 3l7.5 2q2 0 2.5 -1t2.5 -1l1 -1.5t-1 -3.5l-8 -4l-1 -3v-3q2 -2 3 -3.5t3 -1.5l1 -1t2 -1q4 0 11 3.5t12 3.5l5 17q6 24 10 48t9 49
l55 -20l7 12q2 -1 11 -1h16q14 0 23 4q3 -18 4 -31.5t-1 -18.5q-2 -7 -11 -12t-11 -14q-2 -7 -1.5 -11.5t11.5 -6.5q7 -1 11 1t7 4t5.5 3.5t8.5 0.5q-2 -6 -5 -16t-4.5 -20t2 -18.5t15.5 -11.5l4 -1l4 2l4 2q15 29 23.5 57.5t14.5 58.5q9 3 16.5 8t9.5 13l1 3
q-18 36 -28 68.5t-18.5 63t-18 60.5t-27.5 60q4 8 3.5 31t-3 49.5t-5.5 50.5t-4 34l-6.5 19.5t-2.5 20.5q1 5 3 14.5t6 20.5q3 11 6 21t4 14zM200 259q-12 2 -25 3.5t-24 3.5q-12 6 -28 6q8 21 15.5 42t12.5 43q3 8 1 15t0 16q5 14 8.5 23t13.5 24q5 -9 2.5 -18.5
t-0.5 -20.5q0 -6 1.5 -19.5t3 -29.5t2.5 -29.5t1 -19.5q8 -7 16 -39zM142 571l-7 -5l12 43l7 3zM213 204q-8 5 -8 15q0 5 4 6l2 -10t2 -11zM247 798q-2 1 -12 13t-22 26.5t-24 27.5t-16 16q-9 6 -16.5 13t-9.5 9q-9 -2 -21 -9t-21 -14t-11.5 -11t8.5 -1q8 3 9.5 -1t1.5 -11
q0 -6 1.5 -14t8.5 -13q-2 1 12 -4.5t32 -16t33.5 -25t18.5 -32.5q3 3 8.5 9t10.5 13.5t8 14.5t1 10z" />
    <glyph glyph-name="FL00C1h" unicode="&#xc1;" horiz-adv-x="341" 
d="M231 716q-1 4 -7 6t-13.5 3t-15 1.5t-11.5 0.5q-3 -9 -5.5 -11.5t-5.5 -3t-5.5 -2t-4.5 -8.5q-5 -17 -2 -31t0 -31q0 -6 -2.5 -7.5t-6 -2.5t-7.5 -1t-6 -3q-3 -4 -6.5 -12.5t-7.5 -18t-7 -18.5t-4 -13l-4 -13q-2 -9 -5 -20.5t-8 -25.5l-8 -27l-6 -25q-4 -14 -6.5 -25.5
t-4.5 -19.5l-3 -15l-9 -3l-1 -6l-6 -22l-3 -11l-10 -35q-7 -25 -11.5 -47t-8.5 -52l19 8l-31 -113q-1 -4 4 -7.5t10 -5.5q1 0 7 1t13.5 3l7.5 2q2 0 2.5 -1t2.5 -1l1 -1.5t-1 -3.5l-8 -4l-1 -3v-3q2 -2 3 -3.5t3 -1.5l1 -1t2 -1q4 0 11 3.5t12 3.5l5 17q6 24 10 48t9 49
l55 -20l7 12q2 -1 11 -1h16q14 0 23 4q3 -18 4 -31.5t-1 -18.5q-2 -7 -11 -12t-11 -14q-2 -7 -1.5 -11.5t11.5 -6.5q7 -1 11 1t7 4t5.5 3.5t8.5 0.5q-2 -6 -5 -16t-4.5 -20t2 -18.5t15.5 -11.5l4 -1l4 2l4 2q15 29 23.5 57.5t14.5 58.5q9 3 16.5 8t9.5 13l1 3
q-18 36 -28 68.5t-18.5 63t-18 60.5t-27.5 60q4 8 3.5 31t-3 49.5t-5.5 50.5t-4 34l-6.5 19.5t-2.5 20.5q1 5 3 14.5t6 20.5q3 11 6 21t4 14zM200 259q-12 2 -25 3.5t-24 3.5q-12 6 -28 6q8 21 15.5 42t12.5 43q3 8 1 15t0 16q5 14 8.5 23t13.5 24q5 -9 2.5 -18.5
t-0.5 -20.5q0 -6 1.5 -19.5t3 -29.5t2.5 -29.5t1 -19.5q8 -7 16 -39zM142 571l-7 -5l12 43l7 3zM213 204q-8 5 -8 15q0 5 4 6l2 -10t2 -11zM119 798q-2 -3 1 -10t8 -14.5t10.5 -13.5t8.5 -9q3 18 18.5 32.5t33.5 25t31.5 16t12.5 4.5q7 5 8.5 13t1.5 14q0 7 1.5 11t9.5 1
q10 -3 8 1t-11 11t-21 14t-21 9q-2 -2 -9.5 -9t-16.5 -13q-5 -3 -16.5 -16t-23.5 -27.5t-22.5 -26.5t-11.5 -13z" />
    <glyph glyph-name="FL00C2h" unicode="&#xc2;" horiz-adv-x="341" 
d="M231 716q-1 4 -7 6t-13.5 3t-15 1.5t-11.5 0.5q-3 -9 -5.5 -11.5t-5.5 -3t-5.5 -2t-4.5 -8.5q-5 -17 -2 -31t0 -31q0 -6 -2.5 -7.5t-6 -2.5t-7.5 -1t-6 -3q-3 -4 -6.5 -12.5t-7.5 -18t-7 -18.5t-4 -13l-4 -13q-2 -9 -5 -20.5t-8 -25.5l-8 -27l-6 -25q-4 -14 -6.5 -25.5
t-4.5 -19.5l-3 -15l-9 -3l-1 -6l-6 -22l-3 -11l-10 -35q-7 -25 -11.5 -47t-8.5 -52l19 8l-31 -113q-1 -4 4 -7.5t10 -5.5q1 0 7 1t13.5 3l7.5 2q2 0 2.5 -1t2.5 -1l1 -1.5t-1 -3.5l-8 -4l-1 -3v-3q2 -2 3 -3.5t3 -1.5l1 -1t2 -1q4 0 11 3.5t12 3.5l5 17q6 24 10 48t9 49
l55 -20l7 12q2 -1 11 -1h16q14 0 23 4q3 -18 4 -31.5t-1 -18.5q-2 -7 -11 -12t-11 -14q-2 -7 -1.5 -11.5t11.5 -6.5q7 -1 11 1t7 4t5.5 3.5t8.5 0.5q-2 -6 -5 -16t-4.5 -20t2 -18.5t15.5 -11.5l4 -1l4 2l4 2q15 29 23.5 57.5t14.5 58.5q9 3 16.5 8t9.5 13l1 3
q-18 36 -28 68.5t-18.5 63t-18 60.5t-27.5 60q4 8 3.5 31t-3 49.5t-5.5 50.5t-4 34l-6.5 19.5t-2.5 20.5q1 5 3 14.5t6 20.5q3 11 6 21t4 14zM200 259q-12 2 -25 3.5t-24 3.5q-12 6 -28 6q8 21 15.5 42t12.5 43q3 8 1 15t0 16q5 14 8.5 23t13.5 24q5 -9 2.5 -18.5
t-0.5 -20.5q0 -6 1.5 -19.5t3 -29.5t2.5 -29.5t1 -19.5q8 -7 16 -39zM142 571l-7 -5l12 43l7 3zM213 204q-8 5 -8 15q0 5 4 6l2 -10t2 -11zM288 786q-1 1 -6.5 7.5t-13.5 16t-17 20t-17 19.5q1 1 8 -1q10 -3 8 1t-11 11t-21 14t-21 9l-1 -1q-7 7 -8 9q-8 4 -24.5 -6.5
t-28.5 -28.5q-1 -1 2 -1t6 1q1 0 6 1t10.5 2t10.5 2l5 1q2 0 -1 -2t-7.5 -4.5t-8.5 -5.5t-4 -6q-8 -9 -19 -18t-21.5 -16.5t-18.5 -12.5t-9 -6q-2 -3 1 -10t8 -14.5t10.5 -13.5t8.5 -9q2 12 12 21t23 15.5t27 11t24 8.5q20 -11 38.5 -26t21.5 -35q3 3 8.5 9t10.5 13.5
t8 14.5t1 10z" />
    <glyph glyph-name="FL00C3h" unicode="&#xc3;" horiz-adv-x="341" 
d="M231 716q-1 4 -7 6t-13.5 3t-15 1.5t-11.5 0.5q-3 -9 -5.5 -11.5t-5.5 -3t-5.5 -2t-4.5 -8.5q-5 -17 -2 -31t0 -31q0 -6 -2.5 -7.5t-6 -2.5t-7.5 -1t-6 -3q-3 -4 -6.5 -12.5t-7.5 -18t-7 -18.5t-4 -13l-4 -13q-2 -9 -5 -20.5t-8 -25.5l-8 -27l-6 -25q-4 -14 -6.5 -25.5
t-4.5 -19.5l-3 -15l-9 -3l-1 -6l-6 -22l-3 -11l-10 -35q-7 -25 -11.5 -47t-8.5 -52l19 8l-31 -113q-1 -4 4 -7.5t10 -5.5q1 0 7 1t13.5 3l7.5 2q2 0 2.5 -1t2.5 -1l1 -1.5t-1 -3.5l-8 -4l-1 -3v-3q2 -2 3 -3.5t3 -1.5l1 -1t2 -1q4 0 11 3.5t12 3.5l5 17q6 24 10 48t9 49
l55 -20l7 12q2 -1 11 -1h16q14 0 23 4q3 -18 4 -31.5t-1 -18.5q-2 -7 -11 -12t-11 -14q-2 -7 -1.5 -11.5t11.5 -6.5q7 -1 11 1t7 4t5.5 3.5t8.5 0.5q-2 -6 -5 -16t-4.5 -20t2 -18.5t15.5 -11.5l4 -1l4 2l4 2q15 29 23.5 57.5t14.5 58.5q9 3 16.5 8t9.5 13l1 3
q-18 36 -28 68.5t-18.5 63t-18 60.5t-27.5 60q4 8 3.5 31t-3 49.5t-5.5 50.5t-4 34l-6.5 19.5t-2.5 20.5q1 5 3 14.5t6 20.5q3 11 6 21t4 14zM200 259q-12 2 -25 3.5t-24 3.5q-12 6 -28 6q8 21 15.5 42t12.5 43q3 8 1 15t0 16q5 14 8.5 23t13.5 24q5 -9 2.5 -18.5
t-0.5 -20.5q0 -6 1.5 -19.5t3 -29.5t2.5 -29.5t1 -19.5q8 -7 16 -39zM142 571l-7 -5l12 43l7 3zM213 204q-8 5 -8 15q0 5 4 6l2 -10t2 -11zM191 851h1q3 0 5 -1q3 -1 5 -1t2 1q0 2 -4.5 7.5t-11 11.5t-13.5 10.5t-13 6.5l-1 -1l-1 7l-2 -3q-3 3 -3 5q-1 1 -4 1
q-8 0 -13.5 -3.5t-13.5 -20.5q-1 -1 0 -1h1q3 0 5 1t5.5 -3.5t7.5 -3.5l-2 -4q-4 -3 -8.5 -7t-4.5 -7q-6 -9 -15 -18.5t-17.5 -17t-14.5 -13t-7 -6.5l-1 -3q0 -4 2.5 -11t6.5 -13.5t8 -12.5t6 -8q1 13 9 22t18.5 15.5t21.5 11t19 8.5q1 -1 2 -1.5t2 -1.5q7 -11 13 -18h-1
q-3 0 -6 1v-4q0 -9 3.5 -12.5t8.5 -3.5q6 0 12 5t6 11q0 1 6 -0.5t13 -4t12 -4t3 -0.5q6 9 16 21t19.5 22.5t16.5 18.5t8 9l1 3q0 4 -3 11t-6.5 14t-7.5 13t-6 8q-2 -13 -10 -22t-18.5 -15.5t-21.5 -11.5t-18 -9l-4 2q-4 5 -7 10z" />
    <glyph glyph-name="FL00C4h" unicode="&#xc4;" horiz-adv-x="341" 
d="M231 716q-1 4 -7 6t-13.5 3t-15 1.5t-11.5 0.5q-3 -9 -5.5 -11.5t-5.5 -3t-5.5 -2t-4.5 -8.5q-5 -17 -2 -31t0 -31q0 -6 -2.5 -7.5t-6 -2.5t-7.5 -1t-6 -3q-3 -4 -6.5 -12.5t-7.5 -18t-7 -18.5t-4 -13l-4 -13q-2 -9 -5 -20.5t-8 -25.5l-8 -27l-6 -25q-4 -14 -6.5 -25.5
t-4.5 -19.5l-3 -15l-9 -3l-1 -6l-6 -22l-3 -11l-10 -35q-7 -25 -11.5 -47t-8.5 -52l19 8l-31 -113q-1 -4 4 -7.5t10 -5.5q1 0 7 1t13.5 3l7.5 2q2 0 2.5 -1t2.5 -1l1 -1.5t-1 -3.5l-8 -4l-1 -3v-3q2 -2 3 -3.5t3 -1.5l1 -1t2 -1q4 0 11 3.5t12 3.5l5 17q6 24 10 48t9 49
l55 -20l7 12q2 -1 11 -1h16q14 0 23 4q3 -18 4 -31.5t-1 -18.5q-2 -7 -11 -12t-11 -14q-2 -7 -1.5 -11.5t11.5 -6.5q7 -1 11 1t7 4t5.5 3.5t8.5 0.5q-2 -6 -5 -16t-4.5 -20t2 -18.5t15.5 -11.5l4 -1l4 2l4 2q15 29 23.5 57.5t14.5 58.5q9 3 16.5 8t9.5 13l1 3
q-18 36 -28 68.5t-18.5 63t-18 60.5t-27.5 60q4 8 3.5 31t-3 49.5t-5.5 50.5t-4 34l-6.5 19.5t-2.5 20.5q1 5 3 14.5t6 20.5q3 11 6 21t4 14zM200 259q-12 2 -25 3.5t-24 3.5q-12 6 -28 6q8 21 15.5 42t12.5 43q3 8 1 15t0 16q5 14 8.5 23t13.5 24q5 -9 2.5 -18.5
t-0.5 -20.5q0 -6 1.5 -19.5t3 -29.5t2.5 -29.5t1 -19.5q8 -7 16 -39zM142 571l-7 -5l12 43l7 3zM213 204q-8 5 -8 15q0 5 4 6l2 -10t2 -11zM61 785q1 -5 9.5 -11.5t19.5 -11.5t22.5 -9t17.5 -5q3 12 9 18.5t12.5 11t12 9.5t8.5 14q3 11 -2 21.5t-10 19t-7 14.5t9 8q14 3 8 6
t-21 5.5t-33.5 3t-29.5 -2.5q-1 -6 -3.5 -19t-7.5 -28q-5 -14 -9 -26.5t-5 -17.5zM200 798q1 -5 8.5 -9.5t17.5 -9t19.5 -7.5t14.5 -4q3 10 8.5 15t11 9t10.5 7.5t8 11.5q3 9 -2 17.5t-9.5 15t-5.5 11.5t8 7q12 2 7 4.5t-18 4.5t-30 2q-16 0 -26 -2l-3 -15t-7 -22t-8 -22
t-4 -14z" />
    <glyph glyph-name="FL00C5h" unicode="&#xc5;" horiz-adv-x="341" 
d="M231 716q-1 4 -7 6t-13.5 3t-15 1.5t-11.5 0.5q-3 -9 -5.5 -11.5t-5.5 -3t-5.5 -2t-4.5 -8.5q-5 -17 -2 -31t0 -31q0 -6 -2.5 -7.5t-6 -2.5t-7.5 -1t-6 -3q-3 -4 -6.5 -12.5t-7.5 -18t-7 -18.5t-4 -13l-4 -13q-2 -9 -5 -20.5t-8 -25.5l-8 -27l-6 -25q-4 -14 -6.5 -25.5
t-4.5 -19.5l-3 -15l-9 -3l-1 -6l-6 -22l-3 -11l-10 -35q-7 -25 -11.5 -47t-8.5 -52l19 8l-31 -113q-1 -4 4 -7.5t10 -5.5q1 0 7 1t13.5 3l7.5 2q2 0 2.5 -1t2.5 -1l1 -1.5t-1 -3.5l-8 -4l-1 -3v-3q2 -2 3 -3.5t3 -1.5l1 -1t2 -1q4 0 11 3.5t12 3.5l5 17q6 24 10 48t9 49
l55 -20l7 12q2 -1 11 -1h16q14 0 23 4q3 -18 4 -31.5t-1 -18.5q-2 -7 -11 -12t-11 -14q-2 -7 -1.5 -11.5t11.5 -6.5q7 -1 11 1t7 4t5.5 3.5t8.5 0.5q-2 -6 -5 -16t-4.5 -20t2 -18.5t15.5 -11.5l4 -1l4 2l4 2q15 29 23.5 57.5t14.5 58.5q9 3 16.5 8t9.5 13l1 3
q-18 36 -28 68.5t-18.5 63t-18 60.5t-27.5 60q4 8 3.5 31t-3 49.5t-5.5 50.5t-4 34l-6.5 19.5t-2.5 20.5q1 5 3 14.5t6 20.5q3 11 6 21t4 14zM200 259q-12 2 -25 3.5t-24 3.5q-12 6 -28 6q8 21 15.5 42t12.5 43q3 8 1 15t0 16q5 14 8.5 23t13.5 24q5 -9 2.5 -18.5
t-0.5 -20.5q0 -6 1.5 -19.5t3 -29.5t2.5 -29.5t1 -19.5q8 -7 16 -39zM142 571l-7 -5l12 43l7 3zM213 204q-8 5 -8 15q0 5 4 6l2 -10t2 -11zM134 800q1 -5 8.5 -9.5t17.5 -9t19.5 -7.5t14.5 -4q3 10 8.5 15t11 9t10.5 7.5t8 11.5q3 9 -2 17.5t-9.5 15t-5.5 11.5t8 7
q12 2 7 4.5t-18 4.5t-30 2q-16 0 -26 -2l-3 -15t-7 -22t-8 -22t-4 -14z" />
    <glyph glyph-name="FL00C6h" unicode="&#xc6;" horiz-adv-x="453" 
d="M233 818q-1 5 -7 7.5t-13.5 3.5t-15.5 1.5t-12 1.5q-3 -12 -5.5 -14.5t-5.5 -3.5t-5.5 -2.5t-4.5 -10.5q-5 -21 -2 -38.5t0 -37.5q0 -7 -2.5 -9t-6.5 -2.5l-8 -1t-6 -3.5q-3 -5 -6.5 -15.5t-7.5 -22t-7 -22.5t-4 -16l-4 -16q-3 -11 -6 -25t-8 -31l-8 -32l-7 -32
q-4 -16 -6.5 -30.5t-4.5 -24.5l-3 -17l-10 -5l-1 -6l-6 -27l-3 -14l-10 -42q-7 -30 -12 -57.5t-9 -63.5l20 10l-32 -138q-1 -5 4 -9.5t10 -6.5q1 0 7.5 1.5t14 4l7.5 2.5q2 0 2.5 -1t2.5 -1l1 -2.5t-1 -4.5l-8 -5l-1 -4v-3q4 -6 6 -6l1 -1t2 -1q4 -1 11.5 3t12.5 5l5 21
q7 29 11 58.5t9 59.5l57 -24l7 14q2 -1 11 -1h16q15 0 24 4q3 -21 4 -38t-1 -23q-2 -8 -11 -14t-11 -17q-2 -8 -2 -14q0 -5 12 -7q7 -2 11 0t7 5t6 4.5t9 0.5q-2 -7 -5.5 -19t-4.5 -25t2.5 -23.5t15.5 -13.5l4 -1q3 1 9 6q10 21 17 42.5t12 44.5q12 -10 14 -10t4 0.5t3 0.5
q-6 15 -0.5 24t17.5 14.5t28 9t30 6.5t23.5 7t9.5 11v11h-27l-1.5 4.5t0.5 6.5q3 6 11.5 11t18 8.5t17.5 5.5t10 3q0 1 0.5 3.5t0.5 4.5q0 5 -1 8.5t-7 5.5h-7q-5 0 -11 0.5t-11 0.5h-31q-17 0 -32.5 -1.5t-37.5 -6.5l-1 1q-2 6 -3 10l5.5 11t6.5 13.5t5 12.5t2 9v130l7 14
q2 -1 11 -1h16q9 0 17.5 2t13.5 7q-16 7 -16 22q0 7 8 10t18.5 4t20 0.5t12.5 -0.5l7 14q-13 8 -34.5 12.5t-44.5 6.5t-45 3t-37 3q-9 8 -9 24v24t0.5 29t2 43t5 39t8.5 17l104 4l2.5 4.5t4.5 6.5v4q0 8 -7.5 10t-15.5 4q-9 1 -6 7t5 11h55q0 3 -1.5 8t-3.5 10.5t-5 9.5
t-7 4h-65q0 2 -5 6.5t-11.5 9t-12.5 8t-7 3.5q-8 0 -11.5 -2.5t-2.5 -13.5q-3 0 -11.5 -0.5t-17.5 -1.5t-17.5 -2.5t-11.5 -2.5q-6 -2 -21 -12l2 10t3 10q3 14 6 25.5t4 16.5zM202 262q-13 2 -26 3.5t-25 3.5q-11 8 -28 8q8 26 15.5 51.5t13.5 51.5q3 11 1 19t0 19
q5 17 8.5 28.5t13.5 29.5q5 -12 2.5 -23.5t-0.5 -24.5q0 -7 1.5 -24t3 -35.5t2.5 -35.5t1 -24q5 -5 9 -17.5t8 -29.5zM142 641l-7 -6l12 52l8 5zM215 195q-8 5 -8 17q0 5 4 8q1 -7 2 -13z" />
    <glyph glyph-name="FL00C7h" unicode="&#xc7;" horiz-adv-x="309" 
d="M185 683q6 -10 11.5 -17.5t10.5 -15.5v33q0 18 16 18v-10q0 -12 -1 -25.5t-1 -18.5l-1 -15q23 -32 33 -43t13 -11q1 0 1 2q0 4 -3 10v137q0 4 -3.5 11t-9 14t-10.5 12.5t-8 5.5h-5l-36 -7h-8q-8 0 -11 7t-12 7q-37 0 -65 -30t-46.5 -72t-28 -85.5t-9.5 -70.5q0 -38 5 -80
t7 -79q12 -9 16 -25t4.5 -33.5t1.5 -35t7 -29.5l21 -21q3 -5 5 -18t2 -18h8v14h7q1 -2 6 -9.5t11 -18t13 -21t12 -16.5q-3 -1 -3 -3v-2v-2l-6 -15q0 -3 -0.5 -8t-0.5 -12q0 -6 0.5 -11.5t0.5 -7.5q-11 -2 -13.5 -4t-2.5 -6v-5q0 -6 2.5 -12t2.5 -13v-6l-55 -24l1 -10
q0 -3 -1 -4q1 0 -2 -3.5t-6.5 -8t-6.5 -8.5t-3 -5q0 -5 5.5 -9t12.5 -4q18 -5 30.5 -10.5t29.5 -5.5q14 0 35.5 6t54.5 23q0 3 2.5 11t6.5 17t9.5 16.5t10.5 9.5q-7 5 -18 6.5t-23 1.5h-5v7l-5 25q0 3 1.5 14.5t3.5 13.5l11 5v3q1 0 1 -1h1q5 -2 10.5 -5.5t13.5 -10.5
q9 5 11 15.5t2.5 22t2.5 21.5t12 13q0 -3 3 -13t7.5 -21.5t8.5 -20.5t6 -9q1 0 1 5q-4 48 -10 76.5t-14.5 44.5t-18 21.5t-19.5 8t-19.5 3.5t-17.5 8q-6 -2 -10 -2q-9 0 -11 2t-2 6v10q0 5 -5 13q-1 1 -5 5.5t-9 9.5t-9.5 9t-5.5 5q-2 2 -4.5 14.5t-4.5 30t-4 38t-3 39.5
t-2 33.5t-1 20.5q0 12 -0.5 28.5t-0.5 35.5q0 22 1.5 45.5t6.5 44t13.5 35.5t23.5 21q1 1 5 1q6 0 14 -3t10 -6zM185 719q-5 -10 -10.5 -12.5t-14.5 -2.5l-11 1q4 22 25 22h4q2 -1 7 -8zM214 597l2 11.5t4 23.5q-6 7 -13 18v-53h7zM60 367v-50q-8 8 -9 18t-1 19v3v10h10z
M169 105l15 6q1 -5 5 -8q-4 -2 -15 -4l-4 2t-2 3v0q0 1 1 1zM156 755q-5 0 -5 8q0 7 5 7q6 0 6 -7q0 -8 -6 -8zM109 247v-7l-13 -17v7zM163 117q-7 2 -10 5q5 0 8.5 1t7.5 1q-6 -4 -6 -7zM163 68v5q7 0 7 -5h-7z" />
    <glyph glyph-name="FL00C8h" unicode="&#xc8;" horiz-adv-x="266" 
d="M55 150q0 -7 -0.5 -16.5t0.5 -18.5t4.5 -16.5t11.5 -10.5q4 -2 12 -8t16 -12.5t14.5 -11.5t7.5 -5q2 0 4 0.5t3 0.5q-6 15 -0.5 24t17.5 14.5t28 9t30 6.5t23.5 7t9.5 11v11h-27l-1.5 4.5t0.5 6.5q3 6 11.5 11t18 8.5t17.5 5.5t10 3q0 1 0.5 3.5t0.5 4.5q0 5 -1 8.5
t-7 5.5h-7q-5 0 -11 0.5t-11 0.5h-7h-24q-17 0 -32.5 -1.5t-37.5 -6.5l-7 7q1 1 4.5 8l7.5 15t7 16t3 11v130l7 14q2 -1 11 -1h16q9 0 17.5 2t13.5 7q-16 7 -16 22q0 7 8 10t18.5 4t20 0.5t12.5 -0.5l7 14q-26 16 -59.5 21t-62.5 8q-9 8 -9 24v24t0.5 29t2 43t5 39t8.5 17
h65l2.5 4.5t4.5 6.5v4q0 8 -7.5 10t-15.5 4q-9 1 -6 7t5 11h55q0 3 -1.5 8t-3.5 10.5t-5 9.5t-7 4h-65q0 2 -5 6.5t-11.5 9t-12.5 8t-7 3.5q-8 0 -11.5 -2.5t-2.5 -13.5q-3 0 -11.5 -0.5t-17.5 -1.5t-17.5 -2.5t-11.5 -2.5q-2 -1 -9 -5t-15 -8.5t-14 -9t-6 -5.5
q0 -2 3 -15.5t7 -29t8 -28.5t5 -14l7 -144q-5 0 -9.5 -5t-4.5 -10q0 -1 2 -5t5 -9t5 -9.5l2 -4.5q1 -2 0.5 -7.5t-0.5 -7.5q0 -9 0.5 -31.5t1.5 -47.5t2.5 -47.5t2.5 -31.5q17 -8 20 -14.5t3 -19.5q0 -21 -8.5 -40.5t-8.5 -36.5zM181 834q-2 1 -12 13t-22 26.5t-24 27.5
t-16 16q-9 6 -16.5 13t-9.5 9q-9 -2 -21 -9t-21 -14t-11.5 -11t8.5 -1q8 3 9.5 -1t1.5 -11q0 -6 1.5 -14t8.5 -13q-2 1 12 -4.5t32 -16t33.5 -25t18.5 -32.5q3 3 8.5 9t10.5 13.5t8 14.5t1 10z" />
    <glyph glyph-name="FL00C9h" unicode="&#xc9;" horiz-adv-x="266" 
d="M55 150q0 -7 -0.5 -16.5t0.5 -18.5t4.5 -16.5t11.5 -10.5q4 -2 12 -8t16 -12.5t14.5 -11.5t7.5 -5q2 0 4 0.5t3 0.5q-6 15 -0.5 24t17.5 14.5t28 9t30 6.5t23.5 7t9.5 11v11h-27l-1.5 4.5t0.5 6.5q3 6 11.5 11t18 8.5t17.5 5.5t10 3q0 1 0.5 3.5t0.5 4.5q0 5 -1 8.5
t-7 5.5h-7q-5 0 -11 0.5t-11 0.5h-7h-24q-17 0 -32.5 -1.5t-37.5 -6.5l-7 7q1 1 4.5 8l7.5 15t7 16t3 11v130l7 14q2 -1 11 -1h16q9 0 17.5 2t13.5 7q-16 7 -16 22q0 7 8 10t18.5 4t20 0.5t12.5 -0.5l7 14q-26 16 -59.5 21t-62.5 8q-9 8 -9 24v24t0.5 29t2 43t5 39t8.5 17
h65l2.5 4.5t4.5 6.5v4q0 8 -7.5 10t-15.5 4q-9 1 -6 7t5 11h55q0 3 -1.5 8t-3.5 10.5t-5 9.5t-7 4h-65q0 2 -5 6.5t-11.5 9t-12.5 8t-7 3.5q-8 0 -11.5 -2.5t-2.5 -13.5q-3 0 -11.5 -0.5t-17.5 -1.5t-17.5 -2.5t-11.5 -2.5q-2 -1 -9 -5t-15 -8.5t-14 -9t-6 -5.5
q0 -2 3 -15.5t7 -29t8 -28.5t5 -14l7 -144q-5 0 -9.5 -5t-4.5 -10q0 -1 2 -5t5 -9t5 -9.5l2 -4.5q1 -2 0.5 -7.5t-0.5 -7.5q0 -9 0.5 -31.5t1.5 -47.5t2.5 -47.5t2.5 -31.5q17 -8 20 -14.5t3 -19.5q0 -21 -8.5 -40.5t-8.5 -36.5zM55 818q-2 -3 1 -10t8 -14.5t10.5 -13.5
t8.5 -9q3 18 18.5 32.5t33.5 25t31.5 16t12.5 4.5q7 5 8.5 13t1.5 14q0 7 1.5 11t9.5 1q10 -3 8 1t-11 11t-21 14t-21 9q-2 -2 -9.5 -9t-16.5 -13q-5 -3 -16.5 -16t-23.5 -27.5t-22.5 -26.5t-11.5 -13z" />
    <glyph glyph-name="FL00CAh" unicode="&#xca;" horiz-adv-x="266" 
d="M55 150q0 -7 -0.5 -16.5t0.5 -18.5t4.5 -16.5t11.5 -10.5q4 -2 12 -8t16 -12.5t14.5 -11.5t7.5 -5q2 0 4 0.5t3 0.5q-6 15 -0.5 24t17.5 14.5t28 9t30 6.5t23.5 7t9.5 11v11h-27l-1.5 4.5t0.5 6.5q3 6 11.5 11t18 8.5t17.5 5.5t10 3q0 1 0.5 3.5t0.5 4.5q0 5 -1 8.5
t-7 5.5h-7q-5 0 -11 0.5t-11 0.5h-7h-24q-17 0 -32.5 -1.5t-37.5 -6.5l-7 7q1 1 4.5 8l7.5 15t7 16t3 11v130l7 14q2 -1 11 -1h16q9 0 17.5 2t13.5 7q-16 7 -16 22q0 7 8 10t18.5 4t20 0.5t12.5 -0.5l7 14q-26 16 -59.5 21t-62.5 8q-9 8 -9 24v24t0.5 29t2 43t5 39t8.5 17
h65l2.5 4.5t4.5 6.5v4q0 8 -7.5 10t-15.5 4q-9 1 -6 7t5 11h55q0 3 -1.5 8t-3.5 10.5t-5 9.5t-7 4h-65q0 2 -5 6.5t-11.5 9t-12.5 8t-7 3.5q-8 0 -11.5 -2.5t-2.5 -13.5q-3 0 -11.5 -0.5t-17.5 -1.5t-17.5 -2.5t-11.5 -2.5q-2 -1 -9 -5t-15 -8.5t-14 -9t-6 -5.5
q0 -2 3 -15.5t7 -29t8 -28.5t5 -14l7 -144q-5 0 -9.5 -5t-4.5 -10q0 -1 2 -5t5 -9t5 -9.5l2 -4.5q1 -2 0.5 -7.5t-0.5 -7.5q0 -9 0.5 -31.5t1.5 -47.5t2.5 -47.5t2.5 -31.5q17 -8 20 -14.5t3 -19.5q0 -21 -8.5 -40.5t-8.5 -36.5zM229 819q-1 1 -6.5 7.5t-13.5 16t-17 20
t-17 19.5q1 1 8 -1q10 -3 8 1t-11 11t-21 14t-21 9l-1 -1q-7 7 -8 9q-8 4 -24.5 -6.5t-28.5 -28.5q-1 -1 2 -1t6 1q1 0 6 1t10.5 2t10.5 2l5 1q2 0 -1 -2t-7.5 -4.5t-8.5 -5.5t-4 -6q-8 -9 -19 -18t-21.5 -16.5t-18.5 -12.5t-9 -6q-2 -3 1 -10t8 -14.5t10.5 -13.5t8.5 -9
q2 12 12 21t23 15.5t27 11t24 8.5q10 -5 22 -10.5t23 -11.5t18.5 -13.5t9.5 -17.5q6 5 12.5 18.5t2.5 20.5z" />
    <glyph glyph-name="FL00CBh" unicode="&#xcb;" horiz-adv-x="266" 
d="M55 150q0 -7 -0.5 -16.5t0.5 -18.5t4.5 -16.5t11.5 -10.5q4 -2 12 -8t16 -12.5t14.5 -11.5t7.5 -5q2 0 4 0.5t3 0.5q-6 15 -0.5 24t17.5 14.5t28 9t30 6.5t23.5 7t9.5 11v11h-27l-1.5 4.5t0.5 6.5q3 6 11.5 11t18 8.5t17.5 5.5t10 3q0 1 0.5 3.5t0.5 4.5q0 5 -1 8.5
t-7 5.5h-7q-5 0 -11 0.5t-11 0.5h-7h-24q-17 0 -32.5 -1.5t-37.5 -6.5l-7 7q1 1 4.5 8l7.5 15t7 16t3 11v130l7 14q2 -1 11 -1h16q9 0 17.5 2t13.5 7q-16 7 -16 22q0 7 8 10t18.5 4t20 0.5t12.5 -0.5l7 14q-26 16 -59.5 21t-62.5 8q-9 8 -9 24v24t0.5 29t2 43t5 39t8.5 17
h65l2.5 4.5t4.5 6.5v4q0 8 -7.5 10t-15.5 4q-9 1 -6 7t5 11h55q0 3 -1.5 8t-3.5 10.5t-5 9.5t-7 4h-65q0 2 -5 6.5t-11.5 9t-12.5 8t-7 3.5q-8 0 -11.5 -2.5t-2.5 -13.5q-3 0 -11.5 -0.5t-17.5 -1.5t-17.5 -2.5t-11.5 -2.5q-2 -1 -9 -5t-15 -8.5t-14 -9t-6 -5.5
q0 -2 3 -15.5t7 -29t8 -28.5t5 -14l7 -144q-5 0 -9.5 -5t-4.5 -10q0 -1 2 -5t5 -9t5 -9.5l2 -4.5q1 -2 0.5 -7.5t-0.5 -7.5q0 -9 0.5 -31.5t1.5 -47.5t2.5 -47.5t2.5 -31.5q17 -8 20 -14.5t3 -19.5q0 -21 -8.5 -40.5t-8.5 -36.5zM6 818q1 -5 9.5 -11.5t19.5 -11.5t22.5 -9
t17.5 -5q3 12 9 18.5t12.5 11t12 9.5t8.5 14q3 11 -2 21.5t-10 19t-7 14.5t9 8q14 3 8 6t-21 5.5t-33.5 3t-29.5 -2.5q-1 -6 -3.5 -19t-7.5 -28q-5 -14 -9 -26.5t-5 -17.5zM145 831q1 -5 8.5 -9.5t17.5 -9t19.5 -7.5t14.5 -4q3 10 8.5 15t11 9t10.5 7.5t8 11.5q3 9 -2 17.5
t-9.5 15t-5.5 11.5t8 7q12 2 7 4.5t-18 4.5t-30 2q-16 0 -26 -2l-3 -15t-7 -22t-8 -22t-4 -14z" />
    <glyph glyph-name="FL00CCh" unicode="&#xcc;" horiz-adv-x="156" 
d="M105 484v-35h-7v35h7zM88 217q0 -8 -9 -11v11h9zM86 137q-2 3 1 7t6 5q16 -5 20.5 -11.5t4.5 -20.5v-9v-5q0 -2 1 -4h-6q0 4 -3 11t-5 11zM59 56q0 -9 8 -10t13 -1q0 5 -1 12.5t-10 7.5q-1 0 -2 -0.5l-1 -0.5l-6 -5l-0.5 -1t-0.5 -2zM79 109q1 -8 4.5 -12.5t8.5 -7.5
t10.5 -5.5t10.5 -8.5q4 -8 5 -12.5t2.5 -8.5t5 -6.5t12.5 -5.5v95q-2 3 -7 12t-5 11t2.5 6t3.5 6v3v3l-13 11q-1 3 -2 12t-2 19t-1.5 19t-0.5 12q0 2 1 10.5t2 17.5t2 17.5t1 10.5q0 8 0.5 20t0.5 26t-0.5 26.5t-0.5 19.5q8 6 8 10v12q0 21 -6 40t-8 39l-8 6l-1 9.5t-2 23
t-2 28t-2 23.5v13v11q9 7 12.5 14t2.5 17.5t-5.5 24.5t-9.5 34q-5 16 -20 24t-33 8l0.5 -3.5t0.5 -5.5q0 -4 2.5 -11t4.5 -12l-27 -76q0 -2 1.5 -11.5t3 -24t2.5 -23.5q0 -2 0.5 -8.5t0.5 -10.5v-11q0 -10 -2.5 -19t-11.5 -14v-19q0 -48 3 -91.5t3 -88.5q0 -15 -3.5 -29
t-3.5 -28v-11q0 -7 3.5 -12.5t16.5 -9.5q0 -5 -0.5 -16.5t-0.5 -25.5t0.5 -25t0.5 -18q0 -1 1 -6t2.5 -11t2.5 -11l1 -5v-6q0 -5 1 -8.5t9 -3.5h4q2 3 6.5 13.5t12.5 14.5zM134 816q-2 1 -12 13t-22 26.5t-24 27.5t-16 16q-9 6 -16.5 13t-9.5 9q-9 -2 -21 -9t-21 -14
t-11.5 -11t8.5 -1q8 3 9.5 -1t1.5 -11q0 -6 1.5 -14t8.5 -13q-2 1 12 -4.5t32 -16t33.5 -25t18.5 -32.5q3 3 8.5 9t10.5 13.5t8 14.5t1 10z" />
    <glyph glyph-name="FL00CDh" unicode="&#xcd;" horiz-adv-x="156" 
d="M105 484v-35h-7v35h7zM88 217q0 -8 -9 -11v11h9zM86 137q-2 3 1 7t6 5q16 -5 20.5 -11.5t4.5 -20.5v-9v-5q0 -2 1 -4h-6q0 4 -3 11t-5 11zM59 56q0 -9 8 -10t13 -1q0 5 -1 12.5t-10 7.5q-1 0 -2 -0.5l-1 -0.5l-6 -5l-0.5 -1t-0.5 -2zM79 109q1 -8 4.5 -12.5t8.5 -7.5
t10.5 -5.5t10.5 -8.5q4 -8 5 -12.5t2.5 -8.5t5 -6.5t12.5 -5.5v95q-2 3 -7 12t-5 11t2.5 6t3.5 6v3v3l-13 11q-1 3 -2 12t-2 19t-1.5 19t-0.5 12q0 2 1 10.5t2 17.5t2 17.5t1 10.5q0 8 0.5 20t0.5 26t-0.5 26.5t-0.5 19.5q8 6 8 10v12q0 21 -6 40t-8 39l-8 6l-1 9.5t-2 23
t-2 28t-2 23.5v13v11q9 7 12.5 14t2.5 17.5t-5.5 24.5t-9.5 34q-5 16 -20 24t-33 8l0.5 -3.5t0.5 -5.5q0 -4 2.5 -11t4.5 -12l-27 -76q0 -2 1.5 -11.5t3 -24t2.5 -23.5q0 -2 0.5 -8.5t0.5 -10.5v-11q0 -10 -2.5 -19t-11.5 -14v-19q0 -48 3 -91.5t3 -88.5q0 -15 -3.5 -29
t-3.5 -28v-11q0 -7 3.5 -12.5t16.5 -9.5q0 -5 -0.5 -16.5t-0.5 -25.5t0.5 -25t0.5 -18q0 -1 1 -6t2.5 -11t2.5 -11l1 -5v-6q0 -5 1 -8.5t9 -3.5h4q2 3 6.5 13.5t12.5 14.5zM-14 806q-2 -3 1 -10t8 -14.5t10.5 -13.5t8.5 -9q3 18 18.5 32.5t33.5 25t31.5 16t12.5 4.5
q7 5 8.5 13t1.5 14q0 7 1.5 11t9.5 1q10 -3 8 1t-11 11t-21 14t-21 9q-2 -2 -9.5 -9t-16.5 -13q-5 -3 -16.5 -16t-23.5 -27.5t-22.5 -26.5t-11.5 -13z" />
    <glyph glyph-name="FL00CEh" unicode="&#xce;" horiz-adv-x="156" 
d="M105 484v-35h-7v35h7zM88 217q0 -8 -9 -11v11h9zM86 137q-2 3 1 7t6 5q16 -5 20.5 -11.5t4.5 -20.5v-9v-5q0 -2 1 -4h-6q0 4 -3 11t-5 11zM59 56q0 -9 8 -10t13 -1q0 5 -1 12.5t-10 7.5q-1 0 -2 -0.5l-1 -0.5l-6 -5l-0.5 -1t-0.5 -2zM79 109q1 -8 4.5 -12.5t8.5 -7.5
t10.5 -5.5t10.5 -8.5q4 -8 5 -12.5t2.5 -8.5t5 -6.5t12.5 -5.5v95q-2 3 -7 12t-5 11t2.5 6t3.5 6v3v3l-13 11q-1 3 -2 12t-2 19t-1.5 19t-0.5 12q0 2 1 10.5t2 17.5t2 17.5t1 10.5q0 8 0.5 20t0.5 26t-0.5 26.5t-0.5 19.5q8 6 8 10v12q0 21 -6 40t-8 39l-8 6l-1 9.5t-2 23
t-2 28t-2 23.5v13v11q9 7 12.5 14t2.5 17.5t-5.5 24.5t-9.5 34q-5 16 -20 24t-33 8l0.5 -3.5t0.5 -5.5q0 -4 2.5 -11t4.5 -12l-27 -76q0 -2 1.5 -11.5t3 -24t2.5 -23.5q0 -2 0.5 -8.5t0.5 -10.5v-11q0 -10 -2.5 -19t-11.5 -14v-19q0 -48 3 -91.5t3 -88.5q0 -15 -3.5 -29
t-3.5 -28v-11q0 -7 3.5 -12.5t16.5 -9.5q0 -5 -0.5 -16.5t-0.5 -25.5t0.5 -25t0.5 -18q0 -1 1 -6t2.5 -11t2.5 -11l1 -5v-6q0 -5 1 -8.5t9 -3.5h4q2 3 6.5 13.5t12.5 14.5zM164 828q-1 1 -6.5 7.5t-13.5 16t-17 20t-17 19.5q1 1 8 -1q10 -3 8 1t-11 11t-21 14t-21 9l-1 -1
q-7 7 -8 9q-8 4 -24.5 -6.5t-28.5 -28.5q-1 -1 2 -1t6 1q1 0 6 1t10.5 2t10.5 2l5 1q2 0 -1 -2t-7.5 -4.5t-8.5 -5.5t-4 -6q-8 -9 -19 -18t-21.5 -16.5t-18.5 -12.5t-9 -6q-2 -3 1 -10t8 -14.5t10.5 -13.5t8.5 -9q2 12 12 21t23 15.5t27 11t24 8.5q20 -11 38.5 -26t21.5 -35
q3 3 8.5 9t10.5 13.5t8 14.5t1 10z" />
    <glyph glyph-name="FL00CFh" unicode="&#xcf;" horiz-adv-x="156" 
d="M105 484v-35h-7v35h7zM88 217q0 -8 -9 -11v11h9zM86 137q-2 3 1 7t6 5q16 -5 20.5 -11.5t4.5 -20.5v-9v-5q0 -2 1 -4h-6q0 4 -3 11t-5 11zM59 56q0 -9 8 -10t13 -1q0 5 -1 12.5t-10 7.5q-1 0 -2 -0.5l-1 -0.5l-6 -5l-0.5 -1t-0.5 -2zM79 109q1 -8 4.5 -12.5t8.5 -7.5
t10.5 -5.5t10.5 -8.5q4 -8 5 -12.5t2.5 -8.5t5 -6.5t12.5 -5.5v95q-2 3 -7 12t-5 11t2.5 6t3.5 6v3v3l-13 11q-1 3 -2 12t-2 19t-1.5 19t-0.5 12q0 2 1 10.5t2 17.5t2 17.5t1 10.5q0 8 0.5 20t0.5 26t-0.5 26.5t-0.5 19.5q8 6 8 10v12q0 21 -6 40t-8 39l-8 6l-1 9.5t-2 23
t-2 28t-2 23.5v13v11q9 7 12.5 14t2.5 17.5t-5.5 24.5t-9.5 34q-5 16 -20 24t-33 8l0.5 -3.5t0.5 -5.5q0 -4 2.5 -11t4.5 -12l-27 -76q0 -2 1.5 -11.5t3 -24t2.5 -23.5q0 -2 0.5 -8.5t0.5 -10.5v-11q0 -10 -2.5 -19t-11.5 -14v-19q0 -48 3 -91.5t3 -88.5q0 -15 -3.5 -29
t-3.5 -28v-11q0 -7 3.5 -12.5t16.5 -9.5q0 -5 -0.5 -16.5t-0.5 -25.5t0.5 -25t0.5 -18q0 -1 1 -6t2.5 -11t2.5 -11l1 -5v-6q0 -5 1 -8.5t9 -3.5h4q2 3 6.5 13.5t12.5 14.5zM-62 818q1 -5 9.5 -11.5t19.5 -11.5t22.5 -9t17.5 -5q3 12 9 18.5t12.5 11t12 9.5t8.5 14
q3 11 -2 21.5t-10 19t-7 14.5t9 8q14 3 8 6t-21 5.5t-33.5 3t-29.5 -2.5q-1 -6 -3.5 -19t-7.5 -28q-5 -14 -9 -26.5t-5 -17.5zM77 831q1 -5 8.5 -9.5t17.5 -9t19.5 -7.5t14.5 -4q3 10 8.5 15t11 9t10.5 7.5t8 11.5q3 9 -2 17.5t-9.5 15t-5.5 11.5t8 7q12 2 7 4.5t-18 4.5
t-30 2q-16 0 -26 -2l-3 -15t-7 -22t-8 -22t-4 -14z" />
    <glyph glyph-name="FL00D0h" unicode="&#xd0;" horiz-adv-x="411" 
d="M26 419l81 -29q2 -32 4 -63t3.5 -47.5t1.5 -18.5l10 -8v72q13 -3 16.5 -17.5t9.5 -25.5v-137q0 -4 3.5 -11t9 -14t10.5 -12.5t8 -5.5h5l36 7h8q8 0 11 -7t12 -7q37 0 64.5 30t46.5 72t28.5 85.5t9.5 70.5q0 38 -6.5 73t-8.5 72q-12 9 -16 25t-4.5 33.5t-1.5 35t-7 29.5
l-21 21q-3 5 -5 18t-2 18h-8v-14h-7q-2 2 -8.5 13t-14.5 23.5t-15.5 23.5t-11.5 12q-11 1 -21 -1.5t-15 8.5q-6 12 -10.5 16.5t-10.5 7.5l-13 6.5t-17 12.5q-9 -5 -11 -15.5t-2.5 -22t-2.5 -21.5t-12 -13q0 3 -0.5 12.5t-3 20t-8 18.5t-14.5 8q-8 0 -13 -27.5t-8 -62.5
t-4 -67.5t-1 -42.5v-12q0 -8 0.5 -14t0.5 -14v-6v-20q0 -10 1 -22q-13 0 -31 -2.5t-45 -5.5q-6 0 -11 -5t-5 -10q-1 -1 2 -5t6 -9t6 -9.5t2 -4.5q2 -2 1 -7.5t-1 -7.5zM231 189q-2 9 -4 32t-4 49.5t-4 50.5t-3 33v6q0 8 -0.5 15.5t-0.5 15.5v1q6 1 12 6q-8 1 -12 6v26
q11 5 28.5 5.5t23.5 0.5l8 14q-14 7 -29 11.5t-30 7.5q1 37 3 73t5 86q6 2 10 2q9 0 11 -2t2 -6v-10q0 -5 5 -13q1 -2 5 -6l9 -9t9.5 -9t5.5 -5q3 -3 10.5 -28.5t14.5 -56t12.5 -58.5t5.5 -37q0 -20 -2 -52t-9 -64t-19.5 -58.5t-33.5 -34.5q-5 -2 -15.5 1t-13.5 7zM209 275
v-86q0 -18 -16 -18v10q0 12 1 25.5t1 18.5q0 8 2 20t3.5 20.5t1.5 9.5h7zM231 153q5 10 10.5 12.5t14.5 2.5q2 0 5.5 -0.5t5.5 -0.5q-4 -22 -25 -22h-4q-2 1 -7 8zM353 541q8 -8 9 -19t1 -21v-10h-10v50zM168 505h11q0 -4 -0.5 -13t-3.5 -18q-3 0 -6.5 0.5t-7.5 0.5
q2 8 4.5 15t2.5 15zM260 117q5 0 5 -8q0 -7 -5 -7q-6 0 -6 7q0 8 6 8zM303 635h14v-7h-14v7z" />
    <glyph glyph-name="FL00D1h" unicode="&#xd1;" horiz-adv-x="353" 
d="M141 339q0 2 0.5 5t0.5 5q2 -2 3.5 -8t2.5 -8v-5v-5q-7 2 -7 6v10zM299 197v-42l-7 -5v42zM101 51q2 -2 6.5 -3.5t6.5 -2.5q1 0 4 -0.5t4 -0.5v13h-12t-9 -6zM244 40q2 -3 9.5 -6.5t16.5 -6t17.5 -4t12.5 -1.5q0 9 3 14t7 9t7 8.5t3 11.5q0 8 -4 15.5t-9 14t-9.5 14
t-5.5 15.5q-2 5 0.5 7t6 3t7.5 1.5t6 3.5q1 4 2.5 13t2.5 19t1.5 18.5t0.5 12.5v14q0 9 0.5 20t0.5 24v26v26q0 14 -0.5 25t-0.5 19v14l8 5v6v22v10v34q0 24 -1.5 46t-6.5 51l-18 -12v111q0 4 -5.5 7.5t-10.5 3.5q-1 0 -7 -2.5t-13 -5.5l-7 -3q-2 -1 -3 0t-3 1l-1 1t0 3l7 6
v2v3q-2 2 -3.5 3t-3.5 2h-3q-5 0 -12 -4.5t-12 -5.5v-17q0 -29 4 -55.5t4 -55.5q0 -35 -4 -68t-4 -68q0 -10 4 -15t4 -15q0 -14 -1.5 -23t-6.5 -25q-8 9 -8.5 18.5t-5.5 18.5q-2 5 -6.5 18t-10.5 27t-11 27t-7 18q-8 4 -20.5 23t-24.5 42t-20.5 43.5t-8.5 27.5q0 6 7 12.5
t7 14.5q0 7 -1 11t-13 4q-7 0 -10 -2t-5.5 -5t-5 -5t-8.5 -2q0 6 0.5 16t-1.5 20t-8 17.5t-19 7.5h-4q-2 -1 -3.5 -2t-3.5 -3q-8 -30 -8.5 -58t1.5 -57q-7 -5 -13.5 -10.5t-6.5 -14.5v-2q2 -7 7.5 -16.5t11.5 -19t10.5 -17.5t4.5 -12q0 -66 -4 -128t-4 -128v-11
q0 -6 0.5 -11t0.5 -9v-4l14 -6q0 4 1 13.5t2 20.5t2 21t2 13q0 5 3.5 11t5.5 10v-167q0 -1 4.5 -9.5t6.5 -12.5q1 -2 3.5 -3t3.5 -1q5 0 11 1t6 3v53q5 -13 11.5 -24t26.5 -11v192q0 4 2 15.5t4 16.5q2 1 3 2l3 3l8 -11l14 6q-2 -8 4.5 -29.5t16 -46t19.5 -46t14 -30.5
q5 -8 11.5 -17.5t8.5 -19.5q0 -4 0.5 -13.5t0.5 -21.5q0 -11 -0.5 -20t-0.5 -13zM173 815h1q3 0 5 -1q3 -1 5 -1t2 1q0 2 -4.5 7.5t-11 11.5t-13.5 10.5t-13 6.5l-1 -1l-1 7l-2 -3q-3 3 -3 5q-1 1 -4 1q-8 0 -13.5 -3.5t-13.5 -20.5q-1 -1 0 -1h1q3 0 5 1t5.5 -3.5t7.5 -3.5
l-2 -4q-4 -3 -8.5 -7t-4.5 -7q-6 -9 -15 -18.5t-17.5 -17t-14.5 -13t-7 -6.5l-1 -3q0 -4 2.5 -11t6.5 -13.5t8 -12.5t6 -8q1 13 9 22t18.5 15.5t21.5 11t19 8.5q1 -1 2 -1.5t2 -1.5q7 -11 13 -18h-1q-3 0 -6 1v-4q0 -9 3.5 -12.5t8.5 -3.5q6 0 12 5t6 11q0 1 6 -0.5t13 -4
t12 -4t3 -0.5q6 9 16 21t19.5 22.5t16.5 18.5t8 9l1 3q0 4 -3 11t-6.5 14t-7.5 13t-6 8q-2 -13 -10 -22t-18.5 -15.5t-21.5 -11.5t-18 -9l-4 2q-4 5 -7 10z" />
    <glyph glyph-name="FL00D2h" unicode="&#xd2;" 
d="M186 671q2 -1 7.5 -2t7.5 -3q-2 -3 -7.5 -5.5t-11.5 -4t-11 -2t-6 -0.5l-0.5 1t-0.5 2t0.5 2l0.5 1l14 11l1 0.5t3 0.5zM225 654q10 0 18.5 -5t8.5 -13q-11 0 -18.5 6.5t-12.5 11.5h4zM103 660q-20 0 -25.5 -11t-5.5 -25q20 0 25.5 12t5.5 24zM299 485q6 0 6 -5
q0 -6 -6 -6q-5 0 -5 6q0 5 5 5zM298 428q0 2 0.5 6t0.5 6q8 -2 8 -7v-10v-11q-8 2 -8.5 7t-0.5 9zM9 384q-3 0 -3 -3q0 -5 3.5 -3.5t3.5 3.5t-4 3zM314 367q-2 -3 -4 -3t-3.5 3t3.5 3t4 -3zM280 200q0 -5 -2.5 -9t-10.5 -4l-1 0.5t-2 0.5q2 5 5 8.5t11 3.5zM122 398
q0 21 5 41t11 39.5t11.5 39t7.5 41.5q0 1 -3 10.5t-3 11.5v2q0 4 5.5 8t12.5 7t14 4.5t10 0.5q12 -2 18 -12t9 -22t4.5 -23.5t3.5 -15.5q1 -6 5 -9.5t8 -6.5t7 -7t3 -10v-10q0 -5 -8 -7q0 -57 -4.5 -121t-17.5 -122q-2 -3 -7 -12.5t-11.5 -19t-14 -17.5t-13.5 -8
q-9 0 -12.5 9.5t-5.5 14.5q-12 47 -23.5 96t-11.5 98zM193 131h-7l7 5v-5zM299 165q-3 -2 -11.5 -9t-17.5 -14.5t-17 -14t-10 -8.5l-11 -11t-5 -12h14t9 7q8 8 20 22t20 23.5t9 10.5v6zM43 170q0 -6 3 -20.5t9.5 -28.5t17 -25t24.5 -11q1 0 2 0.5t2 0.5q-8 14 -15 28.5
t-7 30.5v8q0 6 8 6q7 -4 12 -12t10 -15.5t11.5 -13t16.5 -5.5t12.5 2t13.5 2q0 -1 1 -1t1 -2l-21 -17l-0.5 -1t-0.5 -2q0 -6 6 -7.5t12 -1.5q17 0 41 13t47 31t39.5 36t18.5 28q0 3 -1 11t-2 17t-2 17t-1 11h13q0 1 2.5 10.5t6 23.5t4.5 22q1 1 2 7.5t2 14t2 14.5t1 9v8v41
q0 34 -4.5 70t-15.5 61q-4 5 -9 7t-9.5 4t-8 5.5t-3.5 12.5q0 6 2.5 9t5.5 5.5t5.5 6t2.5 9.5t-4 11t-4 12v3q1 2 4 5.5t3 4.5q0 4 -14 18t-31.5 29t-32.5 27t-17 12q-27 0 -45 -11.5t-31 -28.5t-22.5 -35.5t-18.5 -32.5q-4 -5 -11 -7t-14 -5.5t-14 -10t-11 -21.5
q-8 -35 -15 -71.5t-7 -72.5q0 -2 0.5 -10t0.5 -10q8 10 8 13q0 4 -1 7t-1 10q2 0 11 -4.5t11 -2.5q3 2 6 10t1 12q6 0 8 -6.5t1.5 -12t-0.5 -6.5q0 -5 -0.5 -9.5l-0.5 -4.5l-43 -45l-0.5 -2t-0.5 -4q0 -11 9.5 -17.5t12.5 -16.5v-6v-10v-11v-6q1 -9 7 -21.5t12.5 -25.5
t11.5 -25.5t5 -21.5v-1q-2 1 -7 2.5t-7 2.5h-4q-11 0 -11.5 -9t-0.5 -14zM244 785q-2 1 -12 13t-22 26.5t-24 27.5t-16 16q-9 6 -16.5 13t-9.5 9q-9 -2 -21 -9t-21 -14t-11.5 -11t8.5 -1q8 3 9.5 -1t1.5 -11q0 -6 1.5 -14t8.5 -13q-2 1 12 -4.5t32 -16t33.5 -25t18.5 -32.5
q3 3 8.5 9t10.5 13.5t8 14.5t1 10z" />
    <glyph glyph-name="FL00D3h" unicode="&#xd3;" 
d="M186 671q2 -1 7.5 -2t7.5 -3q-2 -3 -7.5 -5.5t-11.5 -4t-11 -2t-6 -0.5l-0.5 1t-0.5 2t0.5 2l0.5 1l14 11l1 0.5t3 0.5zM225 654q10 0 18.5 -5t8.5 -13q-11 0 -18.5 6.5t-12.5 11.5h4zM103 660q-20 0 -25.5 -11t-5.5 -25q20 0 25.5 12t5.5 24zM299 485q6 0 6 -5
q0 -6 -6 -6q-5 0 -5 6q0 5 5 5zM298 428q0 2 0.5 6t0.5 6q8 -2 8 -7v-10v-11q-8 2 -8.5 7t-0.5 9zM9 384q-3 0 -3 -3q0 -5 3.5 -3.5t3.5 3.5t-4 3zM314 367q-2 -3 -4 -3t-3.5 3t3.5 3t4 -3zM280 200q0 -5 -2.5 -9t-10.5 -4l-1 0.5t-2 0.5q2 5 5 8.5t11 3.5zM122 398
q0 21 5 41t11 39.5t11.5 39t7.5 41.5q0 1 -3 10.5t-3 11.5v2q0 4 5.5 8t12.5 7t14 4.5t10 0.5q12 -2 18 -12t9 -22t4.5 -23.5t3.5 -15.5q1 -6 5 -9.5t8 -6.5t7 -7t3 -10v-10q0 -5 -8 -7q0 -57 -4.5 -121t-17.5 -122q-2 -3 -7 -12.5t-11.5 -19t-14 -17.5t-13.5 -8
q-9 0 -12.5 9.5t-5.5 14.5q-12 47 -23.5 96t-11.5 98zM193 131h-7l7 5v-5zM299 165q-3 -2 -11.5 -9t-17.5 -14.5t-17 -14t-10 -8.5l-11 -11t-5 -12h14t9 7q8 8 20 22t20 23.5t9 10.5v6zM43 170q0 -6 3 -20.5t9.5 -28.5t17 -25t24.5 -11q1 0 2 0.5t2 0.5q-8 14 -15 28.5
t-7 30.5v8q0 6 8 6q7 -4 12 -12t10 -15.5t11.5 -13t16.5 -5.5t12.5 2t13.5 2q0 -1 1 -1t1 -2l-21 -17l-0.5 -1t-0.5 -2q0 -6 6 -7.5t12 -1.5q17 0 41 13t47 31t39.5 36t18.5 28q0 3 -1 11t-2 17t-2 17t-1 11h13q0 1 2.5 10.5t6 23.5t4.5 22q1 1 2 7.5t2 14t2 14.5t1 9v8v41
q0 34 -4.5 70t-15.5 61q-4 5 -9 7t-9.5 4t-8 5.5t-3.5 12.5q0 6 2.5 9t5.5 5.5t5.5 6t2.5 9.5t-4 11t-4 12v3q1 2 4 5.5t3 4.5q0 4 -14 18t-31.5 29t-32.5 27t-17 12q-27 0 -45 -11.5t-31 -28.5t-22.5 -35.5t-18.5 -32.5q-4 -5 -11 -7t-14 -5.5t-14 -10t-11 -21.5
q-8 -35 -15 -71.5t-7 -72.5q0 -2 0.5 -10t0.5 -10q8 10 8 13q0 4 -1 7t-1 10q2 0 11 -4.5t11 -2.5q3 2 6 10t1 12q6 0 8 -6.5t1.5 -12t-0.5 -6.5q0 -5 -0.5 -9.5l-0.5 -4.5l-43 -45l-0.5 -2t-0.5 -4q0 -11 9.5 -17.5t12.5 -16.5v-6v-10v-11v-6q1 -9 7 -21.5t12.5 -25.5
t11.5 -25.5t5 -21.5v-1q-2 1 -7 2.5t-7 2.5h-4q-11 0 -11.5 -9t-0.5 -14zM107 782q-2 -3 1 -10t8 -14.5t10.5 -13.5t8.5 -9q3 18 18.5 32.5t33.5 25t31.5 16t12.5 4.5q7 5 8.5 13t1.5 14q0 7 1.5 11t9.5 1q10 -3 8 1t-11 11t-21 14t-21 9q-2 -2 -9.5 -9t-16.5 -13
q-5 -3 -16.5 -16t-23.5 -27.5t-22.5 -26.5t-11.5 -13z" />
    <glyph glyph-name="FL00D4h" unicode="&#xd4;" 
d="M186 671q2 -1 7.5 -2t7.5 -3q-2 -3 -7.5 -5.5t-11.5 -4t-11 -2t-6 -0.5l-0.5 1t-0.5 2t0.5 2l0.5 1l14 11l1 0.5t3 0.5zM225 654q10 0 18.5 -5t8.5 -13q-11 0 -18.5 6.5t-12.5 11.5h4zM103 660q-20 0 -25.5 -11t-5.5 -25q20 0 25.5 12t5.5 24zM299 485q6 0 6 -5
q0 -6 -6 -6q-5 0 -5 6q0 5 5 5zM298 428q0 2 0.5 6t0.5 6q8 -2 8 -7v-10v-11q-8 2 -8.5 7t-0.5 9zM9 384q-3 0 -3 -3q0 -5 3.5 -3.5t3.5 3.5t-4 3zM314 367q-2 -3 -4 -3t-3.5 3t3.5 3t4 -3zM280 200q0 -5 -2.5 -9t-10.5 -4l-1 0.5t-2 0.5q2 5 5 8.5t11 3.5zM122 398
q0 21 5 41t11 39.5t11.5 39t7.5 41.5q0 1 -3 10.5t-3 11.5v2q0 4 5.5 8t12.5 7t14 4.5t10 0.5q12 -2 18 -12t9 -22t4.5 -23.5t3.5 -15.5q1 -6 5 -9.5t8 -6.5t7 -7t3 -10v-10q0 -5 -8 -7q0 -57 -4.5 -121t-17.5 -122q-2 -3 -7 -12.5t-11.5 -19t-14 -17.5t-13.5 -8
q-9 0 -12.5 9.5t-5.5 14.5q-12 47 -23.5 96t-11.5 98zM193 131h-7l7 5v-5zM299 165q-3 -2 -11.5 -9t-17.5 -14.5t-17 -14t-10 -8.5l-11 -11t-5 -12h14t9 7q8 8 20 22t20 23.5t9 10.5v6zM43 170q0 -6 3 -20.5t9.5 -28.5t17 -25t24.5 -11q1 0 2 0.5t2 0.5q-8 14 -15 28.5
t-7 30.5v8q0 6 8 6q7 -4 12 -12t10 -15.5t11.5 -13t16.5 -5.5t12.5 2t13.5 2q0 -1 1 -1t1 -2l-21 -17l-0.5 -1t-0.5 -2q0 -6 6 -7.5t12 -1.5q17 0 41 13t47 31t39.5 36t18.5 28q0 3 -1 11t-2 17t-2 17t-1 11h13q0 1 2.5 10.5t6 23.5t4.5 22q1 1 2 7.5t2 14t2 14.5t1 9v8v41
q0 34 -4.5 70t-15.5 61q-4 5 -9 7t-9.5 4t-8 5.5t-3.5 12.5q0 6 2.5 9t5.5 5.5t5.5 6t2.5 9.5t-4 11t-4 12v3q1 2 4 5.5t3 4.5q0 4 -14 18t-31.5 29t-32.5 27t-17 12q-27 0 -45 -11.5t-31 -28.5t-22.5 -35.5t-18.5 -32.5q-4 -5 -11 -7t-14 -5.5t-14 -10t-11 -21.5
q-8 -35 -15 -71.5t-7 -72.5q0 -2 0.5 -10t0.5 -10q8 10 8 13q0 4 -1 7t-1 10q2 0 11 -4.5t11 -2.5q3 2 6 10t1 12q6 0 8 -6.5t1.5 -12t-0.5 -6.5q0 -5 -0.5 -9.5l-0.5 -4.5l-43 -45l-0.5 -2t-0.5 -4q0 -11 9.5 -17.5t12.5 -16.5v-6v-10v-11v-6q1 -9 7 -21.5t12.5 -25.5
t11.5 -25.5t5 -21.5v-1q-2 1 -7 2.5t-7 2.5h-4q-11 0 -11.5 -9t-0.5 -14zM272 773q-1 1 -6.5 7.5t-13.5 16t-17 20t-17 19.5q1 1 8 -1q10 -3 8 1t-11 11t-21 14t-21 9l-1 -1q-7 7 -8 9q-8 4 -24.5 -6.5t-28.5 -28.5q-1 -1 2 -1t6 1q1 0 6 1t10.5 2t10.5 2l5 1q2 0 -1 -2
t-7.5 -4.5t-8.5 -5.5t-4 -6q-8 -9 -19 -18t-21.5 -16.5t-18.5 -12.5t-9 -6q-2 -3 1 -10t8 -14.5t10.5 -13.5t8.5 -9q2 12 12 21t23 15.5t27 11t24 8.5q20 -11 38.5 -26t21.5 -35q3 3 8.5 9t10.5 13.5t8 14.5t1 10z" />
    <glyph glyph-name="FL00D5h" unicode="&#xd5;" 
d="M43 170q0 -6 3 -20.5t9.5 -28.5t17 -25t24.5 -11l4 1q-8 14 -15 28.5t-7 30.5v8q0 6 8 6q7 -4 12 -12t10 -15.5t11.5 -13t16.5 -5.5t12.5 2t13.5 2q0 -1 1 -1t1 -2l-21 -17l-0.5 -1t-0.5 -2q0 -6 6 -7.5t12 -1.5q17 0 41 13t47 31t39.5 36t18.5 28l-6 56h13q0 1 2.5 10.5
t6 23.5t4.5 22q1 1 2 7.5t2 14t2 14.5t1 9v49q0 34 -4.5 70t-15.5 61q-4 5 -9 7t-9.5 4t-8 5.5t-3.5 12.5q0 6 2.5 9t5.5 5.5t5.5 6t2.5 9.5t-4 11t-4 12v3q1 2 4 5.5t3 4.5q0 4 -14 18t-31.5 29t-32.5 27t-17 12q-27 0 -45 -11.5t-31 -28.5t-22.5 -35.5t-18.5 -32.5
q-4 -5 -11 -7t-14 -5.5t-13.5 -10t-10.5 -21.5q-9 -35 -16 -71.5t-7 -72.5l1 -20q8 10 8 13q0 4 -1 7t-1 10q2 0 9 -4t11 -4q1 0 1.5 0.5l0.5 0.5q2 2 5 7.5t3 10.5q0 3 -1 4q6 -1 8 -6.5t2 -10.5q0 -3 -0.5 -5.5l-0.5 -2.5q0 -5 -0.5 -9.5l-0.5 -4.5l-43 -45l-0.5 -2
t-0.5 -4q0 -11 9.5 -17.5t12.5 -16.5v-33q1 -9 7 -21.5t12.5 -25.5t11.5 -25.5t5 -21.5v-1l-14 5h-4q-8 0 -10 -5.5t-2 -10.5v-7zM122 398q0 21 5 41t11 39.5t11.5 39t7.5 41.5q0 1 -3 10.5t-3 11.5v2q0 3 4.5 6.5t11 6.5t13 5t10.5 2h3q12 -2 18 -12t9 -22t4.5 -23.5
t3.5 -15.5q1 -6 5 -9.5t8 -6.5t7 -7t3 -10v-10q0 -5 -8 -7q0 -57 -4.5 -121t-17.5 -122q-2 -3 -7 -12.5t-11.5 -19t-14 -17.5t-13.5 -8q-9 0 -12.5 9.5t-5.5 14.5l-2 8l-2 8q-11 44 -21 88.5t-10 89.5zM187 835h1q3 0 5 -1q3 -1 5 -1t2 1q0 2 -4.5 7.5t-11 11.5t-13.5 10.5
t-13 6.5l-1 -1l-1 7l-2 -3q-3 3 -3 5q-1 1 -4 1q-8 0 -13.5 -3.5t-13.5 -20.5q-1 -1 0 -1h1q3 0 5 1t5.5 -3.5t7.5 -3.5l-2 -4q-4 -3 -8.5 -7t-4.5 -7q-6 -9 -15 -18.5t-17.5 -17t-14.5 -13t-7 -6.5l-1 -3q0 -4 2.5 -11t6.5 -13.5t8 -12.5t6 -8q1 13 9 22t18.5 15.5t21.5 11
t19 8.5q1 -1 2 -1.5t2 -1.5q7 -11 13 -18h-1q-3 0 -6 1v-4q0 -9 3.5 -12.5t8.5 -3.5q6 0 12 5t6 11q0 1 6 -0.5t13 -4t12 -4t3 -0.5q6 9 16 21t19.5 22.5t16.5 18.5t8 9l1 3q0 4 -3 11t-6.5 14t-7.5 13t-6 8q-2 -13 -10 -22t-18.5 -15.5t-21.5 -11.5t-18 -9l-4 2q-4 5 -7 10
zM299 165q-3 -2 -11.5 -9t-17.5 -14.5t-17 -14t-10 -8.5l-11 -11t-5 -12h10q7 0 13 7q8 8 20 22t20 23.5t9 10.5v6zM103 660q-20 0 -25.5 -11t-5.5 -25q20 0 25.5 12t5.5 24zM186 671q2 -1 7.5 -2t7.5 -3q-2 -3 -7.5 -5.5t-11.5 -4t-11 -2t-6 -0.5l-0.5 1t-0.5 2t0.5 2
l0.5 1l14 11l1 0.5t3 0.5zM225 654q10 0 18.5 -5t8.5 -13q-11 0 -18.5 6.5t-12.5 11.5h4zM298 428l1 12q8 -2 8 -7v-21q-6 2 -7.5 5.5t-1.5 6.5v4zM280 200q0 -5 -2.5 -9t-10.5 -4l-1 0.5t-2 0.5l1 1v1q2 5 4.5 7.5t10.5 2.5zM299 485q6 0 6 -5q0 -6 -6 -6q-5 0 -5 6
q0 5 5 5zM314 367q-2 -3 -4 -3q-4 0 -4 4q0 2 4 2t4 -2v-1zM9 384q-3 0 -3 -3t2 -3q5 0 5 3q0 2 -4 3zM193 131h-7l7 5v-5z" />
    <glyph glyph-name="FL00D6h" unicode="&#xd6;" 
d="M186 671q2 -1 7.5 -2t7.5 -3q-2 -3 -7.5 -5.5t-11.5 -4t-11 -2t-6 -0.5l-0.5 1t-0.5 2t0.5 2l0.5 1l14 11l1 0.5t3 0.5zM225 654q10 0 18.5 -5t8.5 -13q-11 0 -18.5 6.5t-12.5 11.5h4zM103 660q-20 0 -25.5 -11t-5.5 -25q20 0 25.5 12t5.5 24zM299 485q6 0 6 -5
q0 -6 -6 -6q-5 0 -5 6q0 5 5 5zM298 428q0 2 0.5 6t0.5 6q8 -2 8 -7v-10v-11q-8 2 -8.5 7t-0.5 9zM9 384q-3 0 -3 -3q0 -5 3.5 -3.5t3.5 3.5t-4 3zM314 367q-2 -3 -4 -3t-3.5 3t3.5 3t4 -3zM280 200q0 -5 -2.5 -9t-10.5 -4l-1 0.5t-2 0.5q2 5 5 8.5t11 3.5zM122 398
q0 21 5 41t11 39.5t11.5 39t7.5 41.5q0 1 -3 10.5t-3 11.5v2q0 4 5.5 8t12.5 7t14 4.5t10 0.5q12 -2 18 -12t9 -22t4.5 -23.5t3.5 -15.5q1 -6 5 -9.5t8 -6.5t7 -7t3 -10v-10q0 -5 -8 -7q0 -57 -4.5 -121t-17.5 -122q-2 -3 -7 -12.5t-11.5 -19t-14 -17.5t-13.5 -8
q-9 0 -12.5 9.5t-5.5 14.5q-12 47 -23.5 96t-11.5 98zM193 131h-7l7 5v-5zM299 165q-3 -2 -11.5 -9t-17.5 -14.5t-17 -14t-10 -8.5l-11 -11t-5 -12h14t9 7q8 8 20 22t20 23.5t9 10.5v6zM43 170q0 -6 3 -20.5t9.5 -28.5t17 -25t24.5 -11q1 0 2 0.5t2 0.5q-8 14 -15 28.5
t-7 30.5v8q0 6 8 6q7 -4 12 -12t10 -15.5t11.5 -13t16.5 -5.5t12.5 2t13.5 2q0 -1 1 -1t1 -2l-21 -17l-0.5 -1t-0.5 -2q0 -6 6 -7.5t12 -1.5q17 0 41 13t47 31t39.5 36t18.5 28q0 3 -1 11t-2 17t-2 17t-1 11h13q0 1 2.5 10.5t6 23.5t4.5 22q1 1 2 7.5t2 14t2 14.5t1 9v8v41
q0 34 -4.5 70t-15.5 61q-4 5 -9 7t-9.5 4t-8 5.5t-3.5 12.5q0 6 2.5 9t5.5 5.5t5.5 6t2.5 9.5t-4 11t-4 12v3q1 2 4 5.5t3 4.5q0 4 -14 18t-31.5 29t-32.5 27t-17 12q-27 0 -45 -11.5t-31 -28.5t-22.5 -35.5t-18.5 -32.5q-4 -5 -11 -7t-14 -5.5t-14 -10t-11 -21.5
q-8 -35 -15 -71.5t-7 -72.5q0 -2 0.5 -10t0.5 -10q8 10 8 13q0 4 -1 7t-1 10q2 0 11 -4.5t11 -2.5q3 2 6 10t1 12q6 0 8 -6.5t1.5 -12t-0.5 -6.5q0 -5 -0.5 -9.5l-0.5 -4.5l-43 -45l-0.5 -2t-0.5 -4q0 -11 9.5 -17.5t12.5 -16.5v-6v-10v-11v-6q1 -9 7 -21.5t12.5 -25.5
t11.5 -25.5t5 -21.5v-1q-2 1 -7 2.5t-7 2.5h-4q-11 0 -11.5 -9t-0.5 -14zM46 778q1 -5 9.5 -11.5t19.5 -11.5t22.5 -9t17.5 -5q3 12 9 18.5t12.5 11t12 9.5t8.5 14q3 11 -2 21.5t-10 19t-7 14.5t9 8q14 3 8 6t-21 5.5t-33.5 3t-29.5 -2.5q-1 -6 -3.5 -19t-7.5 -28
q-5 -14 -9 -26.5t-5 -17.5zM185 791q1 -5 8.5 -9.5t17.5 -9t19.5 -7.5t14.5 -4q3 10 8.5 15t11 9t10.5 7.5t8 11.5q3 9 -2 17.5t-9.5 15t-5.5 11.5t8 7q12 2 7 4.5t-18 4.5t-30 2q-16 0 -26 -2l-3 -15t-7 -22t-8 -22t-4 -14z" />
    <glyph glyph-name="FL00D7h" unicode="&#xd7;" horiz-adv-x="345" 
d="M159 496q0 1 -3.5 10t-8.5 19.5t-10.5 19.5t-9.5 10q-17 5 -21 16t-5.5 23.5t-5.5 23.5t-20 17q-2 1 -7.5 2t-5.5 3l-0.5 1l-1.5 3l-2.5 7.5t-4.5 6.5l-7.5 7.5t-8.5 7.5q-6 0 -6 -5q-2 -3 -4.5 -12t-5 -19.5t-4.5 -20t-2 -11.5v-3l16 -24q23 -41 38.5 -81.5t28.5 -83.5
l4 -4t6 -4q-14 -15 -27.5 -33t-24.5 -35.5t-18 -33.5t-7 -26v-5q0 -5 0.5 -8t0.5 -8v-4q5 -8 10 -12.5t19 -4.5q0 4 0.5 12.5t2.5 16t6.5 13.5t12.5 6q0 -33 -4 -64t-4 -64q6 0 12 2.5t12 5.5t10.5 6t6.5 4q0 14 4.5 25.5t9.5 22.5l10 22t7 25v55l18 55q4 -2 8 -8t7.5 -13
t6 -14t2.5 -11q-9 -2 -9 -6v-6q0 -2 3.5 -11t9 -19.5t11 -19t8.5 -9.5q17 -6 21.5 -17t6 -23t5.5 -23.5t20 -17.5q2 0 7.5 -2t6.5 -2l0.5 -1t2.5 -4q1 -3 2 -8t3 -6q2 -2 6.5 -7.5t7.5 -7.5q8 0 8 5q1 3 3.5 12t5.5 20t5.5 20t2.5 12v2l-17 23q-22 42 -38 83t-30 84
q-2 2 -5 4l-6 4q14 15 28 32.5t25.5 34.5t18.5 33t7 27v5q0 4 -0.5 7.5t-0.5 7.5v7q-6 8 -11 11t-17 3q0 -5 -0.5 -12.5t-2.5 -15t-6.5 -13t-12.5 -5.5q0 32 3.5 63t3.5 63q-12 0 -20.5 -6.5t-12.5 -7.5q-16 -14 -26.5 -24.5t-16.5 -20t-7 -20t1 -24.5v-55l-7 -65
q-7 3 -12.5 3.5t-9.5 0.5q-5 7 -4.5 13t0.5 14q0 2 0.5 8t0.5 9q8 2 8 5v7zM75 578v-9q-5 5 -14.5 14t-9.5 19h18q1 0 2.5 -8.5t3.5 -15.5zM265 236v9q6 -5 15 -14t9 -18h-16q-2 0 -4 9t-4 14zM204 227l8 -5q9 4 9 12q-10 0 -17 -7zM136 587l-9 6q-8 -6 -8 -11q9 0 17 5z
M258 317q4 0 4 -4q0 -5 -4 -5q-7 0 -7 5q0 4 7 4zM69 640q5 0 5 5q0 4 -5 4q-7 0 -7 -4q0 -5 7 -5zM83 499q-6 0 -6 4q0 5 6 5q5 0 5 -5q0 -4 -5 -4zM294 213q5 0 5 -4q0 -5 -5 -5q-6 0 -6 5q0 4 6 4zM273 176q-6 0 -6 -5t6 -5q5 0 5 5t-5 5zM45 602q-5 0 -5 5q0 4 5 4
q7 0 7 -4q0 -5 -7 -5zM301 199q5 0 5 -5t-5 -5t-5 5t5 5zM37 616q-4 0 -4 6q0 4 4 4q6 0 6 -4q0 -6 -6 -6zM69 517q0 1 -0.5 1.5l-0.5 0.5l1 2l6 6l1.5 0.5t2.5 0.5t1.5 -0.5t2.5 -0.5zM273 299v-3v-3l-8 -4l-2 -0.5t-3 -0.5h-1q0 1 -1 1z" />
    <glyph glyph-name="FL00D8h" unicode="&#xd8;" 
d="M43 205q0 -8 4.5 -26t13.5 -34q-1 -4 -1 -7v-2l-1 -7q-2 -4 -2.5 -7.5t4.5 -7.5q1 0 2 -0.5l1 -0.5q2 1 5.5 5t8.5 8q2 -2 8 -4q-1 -12 4.5 -19t9.5 -20q0 -9 -1 -14t-1.5 -9t1 -8t7.5 -11l32 89q-2 6 -2 18h1q10 0 12.5 2t13.5 2q0 -1 1 -1t1 -2l-21 -17l-0.5 -1
t-0.5 -2q0 -6 6 -7.5t12 -1.5q17 0 41 13t47 31t39.5 36t18.5 28q0 3 -1 11t-2 17t-2 17t-1 11h13q0 1 2.5 10.5t6 23.5t4.5 22q1 1 2 7.5t2 14t2 14.5t1 9v49q0 34 -4.5 70t-15.5 61q-4 5 -9 7t-9.5 4t-8 5.5t-3.5 12.5q0 6 2.5 9t5.5 5.5t5.5 6t2.5 9.5q0 4 -2 7.5t-4 7.5
q0 6 2 16q1 2 2 3t1 2l-2 4q1 5 1.5 9.5t1.5 9.5q2 17 -6 31.5t-21 22.5l-0.5 -3.5t-1.5 -5.5q-1 -3 -2 -11.5t0 -13.5l-5 -6q-10 9 -20 17.5t-18.5 15.5t-14.5 11.5t-7 4.5q-27 0 -45 -11.5t-31 -28.5t-22.5 -35.5t-18.5 -32.5q-4 -5 -11 -7t-14 -5.5t-14 -10t-11 -21.5
q-8 -35 -15 -71.5t-7 -72.5q0 -2 0.5 -10t0.5 -10q8 10 8 13q0 4 -1 7t-1 10q2 0 11 -4.5t11 -2.5q3 2 6 10t1 12q6 0 8 -6.5t1.5 -12t-0.5 -6.5q0 -5 -0.5 -9.5l-0.5 -4.5l-43 -45l-0.5 -2t-0.5 -4q0 -11 9.5 -17.5t12.5 -16.5v-33q1 -9 7 -21.5t12.5 -25.5t11.5 -25.5
t5 -21.5v-1q-2 1 -7 2.5t-7 2.5h-4q-11 0 -11.5 -9t-0.5 -14zM122 433q0 21 5 41t11 39.5t11.5 39t7.5 41.5q0 1 -3 10.5t-3 11.5v2q0 4 5.5 8t12.5 7t14 4.5t10 0.5q16 -3 23 -22q-2 -9 -3.5 -17t-3.5 -14q-2 -2 -3.5 -8.5t-3.5 -10.5l-2 -11q-4 -8 -8.5 -15.5t-12.5 -7.5
l-7 -19q-13 -36 -24 -71t-22 -69q-2 15 -3 30t-1 30zM158 249l4.5 9t7.5 15.5t7.5 16t4.5 9.5q2 7 6.5 18t9.5 25t8.5 26t5.5 18q8 3 9 6l4 11q8 20 10 40.5t7 40.5l-4 9l1.5 5t3.5 12q0 -56 -5 -118.5t-17 -119.5q-2 -3 -7 -12.5t-11.5 -19t-14 -17.5t-13.5 -8
q-9 0 -12.5 9.5t-5.5 14.5q-1 1 -1 3zM299 200q-3 -2 -11.5 -9t-17.5 -14.5t-17 -14t-10 -8.5l-11 -11t-5 -12h14t9 7q8 8 20 22t20 23.5t9 10.5v6zM103 695q-20 0 -25.5 -11t-5.5 -25q20 0 25.5 12t5.5 24zM101 154q-1 4 3.5 6.5t6.5 1.5q9 -12 10 -20.5t-4 -21.5l-3 -7
q-1 -3 -1 -10l-5 3q1 4 1.5 11.5t-0.5 11.5zM183 707l3 -1q2 -1 7.5 -2t7.5 -3q-2 -3 -7.5 -5.5t-11.5 -4t-11 -2t-6 -0.5l-0.5 1t-0.5 2t0.5 2l0.5 1l14 11l1 0.5t3 0.5zM55 89q-3 -8 2.5 -12.5t8.5 -7.5q2 6 4 13t-5 12q-1 1 -2 1v0l-6 -2l-1 -1.5t-1 -2.5zM221 689h4
q16 0 25 -11l-5 -7q-8 2 -13.5 8t-10.5 10zM298 463q0 2 0.5 6t0.5 6q8 -2 8 -7v-21q-8 2 -8.5 7t-0.5 9zM226 475l5 -3l-12 -32l-4 3zM280 235q0 -5 -2.5 -9t-10.5 -4l-1 0.5t-2 0.5q2 5 5 8.5t11 3.5zM299 520q6 0 6 -5q0 -6 -6 -6q-5 0 -5 6q0 5 5 5zM250 536q1 -2 1 -4
v-10q0 -5 -7 -7q2 5 3 10t3 11zM314 402q-2 -3 -4 -3t-3.5 3t3.5 3t4 -3zM9 419q-3 0 -3 -3q0 -5 3.5 -3.5t3.5 3.5t-4 3zM193 171v-5h-7z" />
    <glyph glyph-name="FL00D9h" unicode="&#xd9;" horiz-adv-x="332" 
d="M240 407q0 10 8.5 11t13.5 1q0 -6 -1 -14t-10 -8q-1 0 -2 0.5l-1 0.5l-7 6l-0.5 1t-0.5 2zM126 40l26 -6l69 38l64 122q0 7 3 7.5t6.5 -1t6.5 -2.5t3 3q0 2 -1.5 26t-3.5 59.5t-4 76.5t-4 76.5t-3.5 59.5t-1.5 26q0 3 0.5 13t1.5 20.5t2 20t2 12.5l14 12v7q-1 2 -3.5 6
t-2.5 7q0 2 5 11.5t7 12.5v102q-10 -3 -13.5 -6t-4.5 -7t-2 -9.5t-6 -13.5q-5 -6 -10.5 -9t-10.5 -6t-8.5 -7.5t-4.5 -13.5q-8 4 -13 15.5t-7 14.5h-4q-8 0 -9 -4t-1 -9v-6l-1 -5.5t-2.5 -11.5t-2.5 -12t-1 -7q0 -7 -0.5 -18.5t-0.5 -27.5q0 -15 0.5 -27.5t0.5 -17.5
q-13 -4 -16.5 -9.5t-3.5 -13.5v-12q0 -5 1.5 -29.5t3.5 -59t4.5 -73.5t4.5 -73.5t3.5 -59.5t1.5 -30v-35q0 -17 -1 -34l-6 2l-7 -15q-2 1 -11 1h-17q-9 0 -17.5 -2t-13.5 -8q16 -7 16 -23q0 -8 -7.5 -11t-18.5 -4v17q0 14 -0.5 26t-0.5 20q8 5 8 9v12q0 7 -1.5 33.5
t-4.5 62.5t-6 76.5t-5.5 76.5t-5 62t-2.5 32l-9 6l-1 9.5t-2 23t-2 28t-2 23.5v24q9 7 12.5 14t2.5 17.5t-5.5 24.5t-9.5 34q-5 16 -19.5 24t-33.5 8l0.5 -3.5t0.5 -5.5q0 -4 3 -11t5 -12l-28 -76q0 -2 1.5 -11.5t3 -24t2.5 -23.5q0 -2 0.5 -8.5t0.5 -9.5v-12
q0 -10 -2.5 -19t-10.5 -14l12 -282q0 -48 2.5 -91.5t2.5 -88.5zM259 647l19 17q2 5 5 12t3 12h6q-1 -2 -1 -5v-5v-9q0 -15 -4.5 -22.5t-20.5 -12.5q-3 1 -6 5.5t-1 7.5zM105 219h7v-35h-7v35zM261 561h-9v12q9 -3 9 -12zM212 833q-2 1 -12 13t-22 26.5t-24 27.5t-16 16
q-9 6 -16.5 13t-9.5 9q-9 -2 -21 -9t-21 -14t-11.5 -11t8.5 -1q8 3 9.5 -1t1.5 -11q0 -6 1.5 -14t8.5 -13q-2 1 12 -4.5t32 -16t33.5 -25t18.5 -32.5q3 3 8.5 9t10.5 13.5t8 14.5t1 10z" />
    <glyph glyph-name="FL00DAh" unicode="&#xda;" horiz-adv-x="332" 
d="M110 830q-2 -3 1 -10t8 -14.5t10.5 -13.5t8.5 -9q3 18 18.5 32.5t33.5 25t31.5 16t12.5 4.5q7 5 8.5 13t1.5 14q0 7 1.5 11t9.5 1q10 -3 8 1t-11 11t-21 14t-21 9q-2 -2 -9.5 -9t-16.5 -13q-5 -3 -16.5 -16t-23.5 -27.5t-22.5 -26.5t-11.5 -13zM240 407q0 10 8.5 11
t13.5 1q0 -6 -1 -14t-10 -8q-1 0 -2 0.5l-1 0.5l-7 6l-0.5 1t-0.5 2zM126 40l26 -6l69 38l64 122q0 7 3 7.5t6.5 -1t6.5 -2.5t3 3q0 2 -1.5 26t-3.5 59.5t-4 76.5t-4 76.5t-3.5 59.5t-1.5 26q0 3 0.5 13t1.5 20.5t2 20t2 12.5l14 12v7q-1 2 -3.5 6t-2.5 7q0 2 5 11.5t7 12.5
v102q-10 -3 -13.5 -6t-4.5 -7t-2 -9.5t-6 -13.5q-5 -6 -10.5 -9t-10.5 -6t-8.5 -7.5t-4.5 -13.5q-8 4 -13 15.5t-7 14.5h-4q-8 0 -9 -4t-1 -9v-6l-1 -5.5t-2.5 -11.5t-2.5 -12t-1 -7q0 -7 -0.5 -18.5t-0.5 -27.5q0 -15 0.5 -27.5t0.5 -17.5q-13 -4 -16.5 -9.5t-3.5 -13.5
v-12q0 -5 1.5 -29.5t3.5 -59t4.5 -73.5t4.5 -73.5t3.5 -59.5t1.5 -30v-35q0 -17 -1 -34l-6 2l-7 -15q-2 1 -11 1h-17q-9 0 -17.5 -2t-13.5 -8q16 -7 16 -23q0 -8 -7.5 -11t-18.5 -4v17q0 14 -0.5 26t-0.5 20q8 5 8 9v12q0 7 -1.5 33.5t-4.5 62.5t-6 76.5t-5.5 76.5t-5 62
t-2.5 32l-9 6l-1 9.5t-2 23t-2 28t-2 23.5v24q9 7 12.5 14t2.5 17.5t-5.5 24.5t-9.5 34q-5 16 -19.5 24t-33.5 8l0.5 -3.5t0.5 -5.5q0 -4 3 -11t5 -12l-28 -76q0 -2 1.5 -11.5t3 -24t2.5 -23.5q0 -2 0.5 -8.5t0.5 -9.5v-12q0 -10 -2.5 -19t-10.5 -14l12 -282
q0 -48 2.5 -91.5t2.5 -88.5zM259 647l19 17q2 5 5 12t3 12h6q-1 -2 -1 -5v-5v-9q0 -15 -4.5 -22.5t-20.5 -12.5q-3 1 -6 5.5t-1 7.5zM105 219h7v-35h-7v35zM261 561h-9v12q9 -3 9 -12z" />
    <glyph glyph-name="FL00DBh" unicode="&#xdb;" horiz-adv-x="332" 
d="M126 40l26 -6l69 38l64 122q0 7 3 7.5t6.5 -1t6.5 -2.5t3 3q0 2 -1.5 26t-3.5 59.5t-4 76.5t-4 76.5t-3.5 59.5t-1.5 26q0 3 0.5 13t1.5 20.5t2 20t2 12.5l14 12v7q-1 2 -3.5 6t-2.5 7q0 2 5 11.5t7 12.5v102q-10 -3 -13.5 -6t-4.5 -7t-2 -9.5t-6 -13.5q-5 -6 -10.5 -9
t-10.5 -6t-8.5 -7.5t-4.5 -13.5q-8 4 -13 15.5t-7 14.5h-4q-8 0 -9 -4t-1 -9v-6l-1 -5.5t-2.5 -11.5t-2.5 -12t-1 -7q0 -7 -0.5 -18.5t-0.5 -27.5q0 -15 0.5 -27.5t0.5 -17.5q-13 -4 -16.5 -9.5t-3.5 -13.5v-12q0 -5 1.5 -29.5t3.5 -59t4.5 -73.5t4.5 -73.5t3.5 -59.5
t1.5 -30v-35q0 -17 -1 -34l-6 2l-7 -15q-2 1 -11 1h-17q-9 0 -17.5 -2t-13.5 -8q16 -7 16 -23q0 -8 -7.5 -11t-18.5 -4v17q0 14 -0.5 26t-0.5 20q8 5 8 9v12q0 7 -1.5 33.5t-4.5 62.5t-6 76.5t-5.5 76.5t-5 62t-2.5 32l-9 6l-1 9.5t-2 23t-2 28t-2 23.5v24q9 7 12.5 14
t2.5 17.5t-5.5 24.5t-9.5 34q-5 16 -19.5 24t-33.5 8l0.5 -3.5t0.5 -5.5q0 -4 3 -11t5 -12l-28 -76q0 -2 1.5 -11.5t3 -24t2.5 -23.5q0 -2 0.5 -8.5t0.5 -9.5v-12q0 -10 -2.5 -19t-10.5 -14l12 -282q0 -48 2.5 -91.5t2.5 -88.5zM260 832q-1 1 -6.5 7.5t-13.5 16t-17 20
t-17 19.5q1 1 8 -1q10 -3 8 1t-11 11t-21 14t-21 9l-1 -1q-7 7 -8 9q-8 4 -24.5 -6.5t-28.5 -28.5q-1 -1 2 -1t6 1q1 0 6 1t10.5 2t10.5 2l5 1q2 0 -1 -2t-7.5 -4.5t-8.5 -5.5t-4 -6q-8 -9 -19 -18t-21.5 -16.5t-18.5 -12.5t-9 -6q-2 -3 1 -10t8 -14.5t10.5 -13.5t8.5 -9
q2 12 12 21t23 15.5t27 11t24 8.5q20 -11 38.5 -26t21.5 -35q3 3 8.5 9t10.5 13.5t8 14.5t1 10zM259 647l19 17q2 5 5 12t3 12h6q-1 -2 -1 -5v-5v-9q0 -15 -4.5 -22.5t-20.5 -12.5q-3 1 -6 5.5t-1 7.5zM240 407q0 10 8.5 11t13.5 1q0 -6 -1 -14t-10 -8q-1 0 -2 0.5l-1 0.5
l-7 6l-0.5 1t-0.5 2zM105 219h7v-35h-7v35zM261 561h-9v12q9 -3 9 -12z" />
    <glyph glyph-name="FL00DCh" unicode="&#xdc;" horiz-adv-x="332" 
d="M47 830q1 -5 9.5 -11.5t19.5 -11.5t22.5 -9t17.5 -5q3 12 9 18.5t12.5 11t12 9.5t8.5 14q3 11 -2 21.5t-10 19t-7 14.5t9 8q14 3 8 6t-21 5.5t-33.5 3t-29.5 -2.5q-1 -6 -3.5 -19t-7.5 -28q-5 -14 -9 -26.5t-5 -17.5zM186 843q1 -5 8.5 -9.5t17.5 -9t19.5 -7.5t14.5 -4
q3 10 8.5 15t11 9t10.5 7.5t8 11.5q3 9 -2 17.5t-9.5 15t-5.5 11.5t8 7q12 2 7 4.5t-18 4.5t-30 2q-16 0 -26 -2l-3 -15t-7 -22t-8 -22t-4 -14zM240 407q0 10 8.5 11t13.5 1q0 -6 -1 -14t-10 -8q-1 0 -2 0.5l-1 0.5l-7 6l-0.5 1t-0.5 2zM126 40l26 -6l69 38l64 122
q0 7 3 7.5t6.5 -1t6.5 -2.5t3 3q0 2 -1.5 26t-3.5 59.5t-4 76.5t-4 76.5t-3.5 59.5t-1.5 26q0 3 0.5 13t1.5 20.5t2 20t2 12.5l14 12v7q-1 2 -3.5 6t-2.5 7q0 2 5 11.5t7 12.5v102q-10 -3 -13.5 -6t-4.5 -7t-2 -9.5t-6 -13.5q-5 -6 -10.5 -9t-10.5 -6t-8.5 -7.5t-4.5 -13.5
q-8 4 -13 15.5t-7 14.5h-4q-8 0 -9 -4t-1 -9v-6l-1 -5.5t-2.5 -11.5t-2.5 -12t-1 -7q0 -7 -0.5 -18.5t-0.5 -27.5q0 -15 0.5 -27.5t0.5 -17.5q-13 -4 -16.5 -9.5t-3.5 -13.5v-12q0 -5 1.5 -29.5t3.5 -59t4.5 -73.5t4.5 -73.5t3.5 -59.5t1.5 -30v-35q0 -17 -1 -34l-6 2
l-7 -15q-2 1 -11 1h-17q-9 0 -17.5 -2t-13.5 -8q16 -7 16 -23q0 -8 -7.5 -11t-18.5 -4v17q0 14 -0.5 26t-0.5 20q8 5 8 9v12q0 7 -1.5 33.5t-4.5 62.5t-6 76.5t-5.5 76.5t-5 62t-2.5 32l-9 6l-1 9.5t-2 23t-2 28t-2 23.5v24q9 7 12.5 14t2.5 17.5t-5.5 24.5t-9.5 34
q-5 16 -19.5 24t-33.5 8l0.5 -3.5t0.5 -5.5q0 -4 3 -11t5 -12l-28 -76q0 -2 1.5 -11.5t3 -24t2.5 -23.5q0 -2 0.5 -8.5t0.5 -9.5v-12q0 -10 -2.5 -19t-10.5 -14l12 -282q0 -48 2.5 -91.5t2.5 -88.5zM259 647l19 17q2 5 5 12t3 12h6q-1 -2 -1 -5v-5v-9q0 -15 -4.5 -22.5
t-20.5 -12.5q-3 1 -6 5.5t-1 7.5zM105 219h7v-35h-7v35zM261 561h-9v12q9 -3 9 -12z" />
    <glyph glyph-name="FL00DDh" unicode="&#xdd;" horiz-adv-x="282" 
d="M93 265q-1 0 -1.5 -0.5t-1.5 -0.5t-2.5 0.5l-1.5 0.5l-8 5l-1 2q0 1 0.5 2t0.5 2zM223 569q2 0 2.5 0.5t1.5 0.5h4l8 -7l0.5 -1t0.5 -2t-0.5 -1.5t-0.5 -1.5zM254 682q-5 0 -5 5q-1 6 4 6q5 2 6 -5q0 -6 -5 -6zM63 151q5 0 5 -5q1 -6 -4 -6t-6 5q0 6 5 6zM249 664
q-6 -2 -6 5q-1 4 5 6q4 0 6 -5q0 -6 -5 -6zM95 124q-6 -2 -6 -6q2 -6 7 -5q5 0 4 6q0 5 -5 5zM68 169q6 1 6 -5q1 -4 -5 -6q-5 0 -6 5q0 6 5 6zM228 533q-6 0 -7 6q0 6 6 6q5 0 5 -5q2 -7 -4 -7zM222 708q6 2 5 7q0 5 -6 5q-5 0 -4 -6q0 -6 5 -6zM89 299q6 0 7 -4
q0 -7 -6 -7q-5 0 -5 6q-1 5 4 5zM166 640q6 -7 17 -7q-1 7 -10 14zM151 194q-8 6 -18 6q2 -9 11 -13zM93 201q-2 -8 -2.5 -19t-1.5 -11l-16 -1q-2 11 6 22.5t13 19.5zM223 633q2 7 2.5 18t1.5 11l17 1q2 -12 -6 -23t-13 -19zM158 517q0 -6 8 -6q1 -2 2 -10t2 -10q1 -9 2 -17
t-4 -16q-8 0 -19 -7l-33 71l-8 67q-3 16 -9 29.5t-12.5 26t-12.5 26.5t-8 32q-3 2 -12 9.5t-20 6.5q5 -39 12.5 -77.5t12.5 -77.5q-8 0 -13 6.5t-8.5 15.5t-5 18.5t-1.5 15.5q-11 -1 -15.5 -7t-8.5 -15v-6q1 -5 1 -10q0 -4 1 -9v-6q1 -14 10 -32.5t22.5 -39.5t29.5 -41.5
t31 -36.5q-4 -4 -6 -6.5t-4 -4.5q-6 -54 -16 -105.5t-26 -103.5l-11 -29v-4q0 -3 3.5 -14t7.5 -24t7.5 -24.5t5.5 -15.5q0 -4 7 -4q2 2 6 9t6 9q2 3 3 9t1 11q1 2 1.5 2.5l0.5 0.5q1 2 6 4.5l7 3.5q14 9 16 23t2 29t2.5 29t17.5 22q3 1 7 12t7 24.5t5 25t2 13.5l-1 8
q0 3 -8 5q0 4 1 13t3.5 18.5t6 17.5t6.5 11l99 253l10 31v3q0 3 -3.5 14.5t-7 24t-7.5 24t-5 14.5q0 5 -8 5q-2 -2 -5.5 -9t-5.5 -10q-2 -2 -3 -8t-1 -11l-1.5 -3l-0.5 -1q-1 -2 -6 -4t-7 -3q-14 -8 -16 -22.5t-2 -29.5t-3 -29t-18 -21q-3 -2 -6.5 -13t-6.5 -24.5t-5 -25
t-2 -13.5zM103 743q3 18 18.5 32.5t33.5 25t31.5 16t12.5 4.5q7 5 8.5 13t1.5 14q0 7 1.5 11t9.5 1q10 -3 8 1t-11 11t-21 14t-21 9q-2 -2 -9.5 -9t-16.5 -13q-5 -3 -16.5 -16t-23.5 -27.5t-22.5 -26.5t-11.5 -13z" />
    <glyph glyph-name="FL00DEh" unicode="&#xde;" horiz-adv-x="288" 
d="M66 104l14 -8q2 5 4 16t2 15q0 2 -0.5 2.5t-0.5 2.5l-5 3q-2 -2 -3.5 -6.5t-3.5 -6.5l-1 -0.5t-3 -0.5q-1 0 -2 0.5l-1 0.5q-2 2 -4.5 2.5t-2.5 2.5v88l-21 25q-1 1 -2 11.5t-2 24.5t-2 28.5t-1 23.5q0 10 -0.5 28.5t-0.5 44.5v52v51q0 26 0.5 45t0.5 28l-15 -5l-0.5 1.5
t-0.5 3.5q0 6 2.5 11.5t6 11.5t6 13.5t2.5 18.5q0 13 -4 25.5t-8.5 24.5t-8 24t-3.5 25q0 1 4.5 10.5t11 20.5t12.5 19.5t9 8.5h56q1 0 -0.5 -19t-2 -43t2.5 -45t13 -25q11 -4 29.5 -11.5t38 -16t37 -17t26.5 -14.5q0 -5 -0.5 -11t-0.5 -11v-23q0 -25 8 -42q1 -2 4 -8.5
t7 -13.5t7 -13.5t4 -7.5q0 -1 0.5 -4.5t0.5 -5.5t-0.5 -5.5t-0.5 -4.5q-1 -2 -7.5 -6t-7.5 -6q-2 -4 -2 -13q0 -12 -4 -24t-21 -7q5 -5 6.5 -8.5t1.5 -10.5t-2 -11.5l-4 -9t-3 -9.5t1 -14l-79 -68q-2 -2 -10 -6t-10 -6q-5 -5 -6 -16.5t-1 -24.5v-15v-14q-2 -17 -5.5 -42
t-5.5 -42q-5 -7 -14 -8.5t-15 -3.5v7q-2 -2 -6.5 -4t-6.5 -3q-1 -1 -3.5 -1.5t-3.5 -0.5v22zM86 190q-8 -15 -8 -37h8v37zM90 327v-3q2 -2 5 -3.5l5 -2.5v25q5 -5 8.5 -6t9.5 -1q19 0 30 15.5t17 35.5t8 39.5t2 28.5l14 6q1 1 1.5 6t0.5 7q0 12 -5 24t-10.5 23.5t-8.5 23
t1 23.5l-35 37q-1 -5 -4.5 -7.5t-7.5 -4t-7 -3t-3 -4.5v-230h-14q-1 0 -3 -9t-4 -17v-3zM189 330q1 4 -3 4q-5 0 -4 -3t4 -3q1 0 3 2zM52 740q1 3 -3 3q-5 0 -3.5 -3.5t3.5 -3.5t3 4z" />
    <glyph glyph-name="FL00DFh" unicode="&#xdf;" horiz-adv-x="328" 
d="M176 444l4 -1q11 -9 17.5 -26t10.5 -35t5 -34t1 -24l13 -5q1 -1 1.5 -6.5t0.5 -8.5q0 -13 -4.5 -25t-9.5 -24t-8 -24t0 -25l-34 -39q-1 6 -4.5 8.5t-7 4t-6.5 3t-3 4.5l-14 -138q1 0 12.5 12t27.5 27.5t32 29t25 16.5q11 4 16.5 8.5t9.5 9.5t8.5 10.5t13.5 11.5
q-1 5 -1.5 11.5t-0.5 11.5v24q0 24 9 45q1 2 4 8.5t6.5 14t6.5 14t4 8.5q0 1 0.5 4.5t0.5 5.5t-0.5 5.5t-0.5 4.5q-1 2 -7.5 6.5t-6.5 6.5q-2 6 -2 13q0 12 -4 25t-21 8q5 5 6 9t1 10q0 7 -2 12t-3.5 9.5t-2.5 10.5t1 15l-53 49q7 14 9 32t2 37v26q0 52 -14.5 102.5
t-48.5 90.5q-4 5 -13.5 15l-9.5 10h-11q0 -7 -1 -15t-4 -14q-1 0 -1.5 0.5l-0.5 0.5v-4l-2 -2q-2 2 -6 3.5t-6 2.5q-2 2 -5.5 0t-7.5 -5.5t-7.5 -6t-4.5 -2.5l-10.5 -6t-23.5 -12.5t-24 -12.5l-11 -6q-2 0 -1.5 -33.5t3 -88t6.5 -124.5t8.5 -143.5t9.5 -144t8.5 -126.5
t6 -91t2.5 -38q0 -1 5 -4.5t12 -7.5t12.5 -7.5t7.5 -4.5q-1 -7 -2.5 24.5t-4 86.5t-5 126.5t-5.5 146t-6 145t-5.5 122t-5 78t-4.5 13.5q20 0 33 6.5t21.5 13.5t14 12.5t12.5 4t16 -13t25 -37.5q7 -12 6.5 -26.5t8.5 -28.5q-5 -13 -11.5 -26.5t-14.5 -26.5q-1 3 -5.5 1.5
t-10 -3.5t-9.5 -2.5t-4 4.5q-12 -33 -14 -50.5t1 -25t8 -8.5t6 -1v-18q5 5 8.5 6t8.5 1q9 0 18 -6zM183 688q12 0 12 -14v-4q-12 7 -12 18zM204 568v-20h-5v4q2 4 2.5 9.5t2.5 6.5zM111 813v7q-6 0 -9 -7h9zM227 456q1 -4 -2 -4q-5 0 -4 3.5t4 3.5z" />
    </font>
</defs>
</svg>
