<?xml version="1.0" encoding="utf-8"?>
<!-- Generator: Adobe Illustrator 16.0.0, SVG Export Plug-In . SVG Version: 6.00 Build 0)  -->
<!DOCTYPE svg PUBLIC "-//W3C//DTD SVG 1.1//EN" "http://www.w3.org/Graphics/SVG/1.1/DTD/svg11.dtd">
<svg version="1.1" id="Layer_1" xmlns="http://www.w3.org/2000/svg" xmlns:xlink="http://www.w3.org/1999/xlink" x="0px" y="0px"
	 width="48px" height="48px" viewBox="0 0 48 48" enable-background="new 0 0 48 48" xml:space="preserve">
<path fill="#FFD400" d="M37.4,0H10.6C4.7,0,0,4.8,0,10.6v26.9C0,43.2,4.7,48,10.6,48h26.9C43.2,48,48,43.2,48,37.4V10.6
	C48,4.8,43.2,0,37.4,0 M30.6,22.1l-0.2,2.3h-4.3v14.4h-5.8V24.3h-2.9V22v-3.5h2.9V16c0-2.4,1.1-6,6.1-6h4.5v5h-3.2
	c-0.5,0-1.3,0.3-1.3,1.4v2.3H31L30.6,22.1z"/>
</svg>
