<?xml version="1.0" encoding="utf-8"?>
<!-- Generator: Adobe Illustrator 16.0.0, SVG Export Plug-In . SVG Version: 6.00 Build 0)  -->
<!DOCTYPE svg PUBLIC "-//W3C//DTD SVG 1.1//EN" "http://www.w3.org/Graphics/SVG/1.1/DTD/svg11.dtd">
<svg version="1.1" id="Layer_1" xmlns="http://www.w3.org/2000/svg" xmlns:xlink="http://www.w3.org/1999/xlink" x="0px" y="0px"
	 width="48px" height="48px" viewBox="0 0 48 48" enable-background="new 0 0 48 48" xml:space="preserve">
<g>
	<path fill="#FFD400" d="M24,18.4c-3.1,0-5.6,2.5-5.6,5.6c0,3.1,2.5,5.6,5.6,5.6c3.1,0,5.6-2.5,5.6-5.6C29.6,20.9,27.1,18.4,24,18.4
		 M31,10.5H17c-3.6,0-6.5,2.9-6.5,6.5v14c0,3.6,2.9,6.5,6.5,6.5h14c3.6,0,6.5-2.9,6.5-6.5V17C37.5,13.4,34.6,10.5,31,10.5 M24,32.4
		c-4.6,0-8.4-3.801-8.4-8.4c0-4.6,3.8-8.4,8.4-8.4c4.6,0,8.4,3.8,8.4,8.4C32.4,28.6,28.6,32.4,24,32.4 M32.7,17.2
		c-1.101,0-2-0.9-2-2c0-1.1,0.899-2,2-2c1.1,0,2,0.9,2,2C34.7,16.3,33.8,17.2,32.7,17.2 M37.4,0H10.6C4.8,0,0,4.8,0,10.6v26.9
		C0,43.2,4.8,48,10.6,48h26.9C43.2,48,48,43.2,48,37.4V10.6C48,4.8,43.2,0,37.4,0 M40.3,31c0,5.1-4.2,9.3-9.3,9.3H17
		c-5.1,0-9.3-4.2-9.3-9.3V17c0-5.1,4.2-9.3,9.3-9.3h14c5.1,0,9.3,4.2,9.3,9.3V31z"/>
</g>
</svg>
