<?xml version="1.0" encoding="utf-8"?>
<!-- Generator: Adobe Illustrator 16.0.0, SVG Export Plug-In . SVG Version: 6.00 Build 0)  -->
<!DOCTYPE svg PUBLIC "-//W3C//DTD SVG 1.1//EN" "http://www.w3.org/Graphics/SVG/1.1/DTD/svg11.dtd">
<svg version="1.1" id="Layer_1" xmlns="http://www.w3.org/2000/svg" xmlns:xlink="http://www.w3.org/1999/xlink" x="0px" y="0px"
	 width="285.4px" height="156.8px" viewBox="0 0 285.4 156.8" enable-background="new 0 0 285.4 156.8" xml:space="preserve">
<g>
	<polygon fill="#FFFFFF" points="15.1,42.2 28.6,40.4 27.9,43.9 18.3,45.1 16.9,52.2 25.8,51.1 25.1,54.5 16.2,55.7 14.5,63.9 
		24.3,62.6 23.6,66.1 9.8,67.9 	"/>
	<polygon fill="#FFFFFF" points="31,40.1 34.8,39.6 29.5,65.3 25.7,65.8 	"/>
	<g>
		<defs>
			<polygon id="SVGID_1_" points="0,36.7 285.4,0 285.4,120 0,156.8 			"/>
		</defs>
		<clipPath id="SVGID_2_">
			<use xlink:href="#SVGID_1_"  overflow="visible"/>
		</clipPath>
		<path clip-path="url(#SVGID_2_)" fill="#FDB827" d="M43.4,47.1c0.7-3.3,2.1-5.5,4-6.9c1.9-1.4,4-2,6.9-2.4c5.8-0.7,8,1,6.9,6.1
			l-2.6,12.5c-0.4,1.8-0.9,4.2-0.3,5.2l-6.8,0.9c-0.1-0.8,0-1.8,0.2-2.7l-0.1,0c-1.4,2.3-3.9,3.8-6.3,4.1c-4,0.5-5.9-1.3-4.8-6.6
			c0.6-2.8,2.2-5.4,4.2-6.6c2-1.2,4.7-2,6.8-2.8c2.3-0.9,2.7-1.3,3.1-3.1c0.3-1.5-0.2-2.3-1.8-2.1c-2,0.3-2.8,1.5-3.2,3.7L43.4,47.1
			z M49.1,58.5c1.5-0.2,3-1.3,3.5-3.7c0.4-2,0.7-3.3,0.9-4.3c-2.5,1.5-3.5,1.7-4.2,2.3c-0.9,0.7-1.4,1.5-1.7,2.8
			C47.3,57.6,47.8,58.7,49.1,58.5"/>
		<path clip-path="url(#SVGID_2_)" fill="#FDB827" d="M65.9,36.9l6.8-0.9l-0.6,2.9l0.1,0c1.5-2.3,3.8-3.9,6.4-4.2
			c4-0.5,5.7,1.3,4.8,6l-3.8,18.2l-7.1,0.9L76,43.2c0.4-1.8-0.1-2.7-1.4-2.5c-1.4,0.2-2.8,1.4-3.3,3.8L68,60.4l-7.1,0.9L65.9,36.9z"
			/>
		<path clip-path="url(#SVGID_2_)" fill="#FDB827" d="M87.4,39.1l-2.9,0.4l1.1-5l2.9-0.4l1.5-7.2l7.1-0.9l-1.5,7.2l3.3-0.4l-1.1,5
			l-3.3,0.4L92,50.5c-0.4,1.7,0.2,2.2,1.8,2c0.3,0,0.7-0.1,1-0.2l-1,4.9c-1.4,0.4-2.8,0.6-4.1,0.8c-4.9,0.6-6.1-0.1-4.9-5.8
			L87.4,39.1z"/>
		<path clip-path="url(#SVGID_2_)" fill="#FDB827" d="M100.4,32.5l7.1-0.9l-5,24.3l-7.1,0.9L100.4,32.5z M105.3,23.2l6.8-0.9l-5.7,7
			l-4.6,0.6L105.3,23.2z"/>
		<path clip-path="url(#SVGID_2_)" fill="#FDB827" d="M118.1,51L118.1,51c-0.5,0.9-1.2,1.8-2.1,2.6c-1,0.8-2.2,1.4-3.8,1.6
			c-4.8,0.6-6.6-2.6-4.7-11.7c1.5-7.6,3.7-13.1,9.5-13.9c2-0.3,4,0.1,4.6,2.6l0.1,0l2.2-10.4l7.1-0.9l-6.7,32.1l-6.8,0.9L118.1,51z
			 M118.8,34.7c-2.6,0.3-3.3,3.3-4.2,7.7c-0.8,3.9-1.5,7.6,1.2,7.3c2.1-0.3,3.1-2.9,4.1-7.7C120.7,37.7,121.2,34.4,118.8,34.7"/>
		<path clip-path="url(#SVGID_2_)" fill="#FDB827" d="M128.8,40.8c1.5-7.3,4.2-13.1,12.4-14.1c8.7-1.1,8.6,4.2,7.1,11.5
			c-1.5,7.3-4.2,13.1-12.4,14.1C127.3,53.4,127.4,48,128.8,40.8 M140.3,31.4c-2.1,0.3-3.2,2.5-4.3,8.4c-1.2,5.9-1.1,8,1.1,7.7
			c2.2-0.3,3-2.4,4.2-8.3C142.5,33.1,142.5,31.1,140.3,31.4"/>
		<path clip-path="url(#SVGID_2_)" fill="#FDB827" d="M152.8,30.7l-2.9,0.4l1.1-5l2.9-0.4l1.5-7.2l7.1-0.9l-1.5,7.2l3.3-0.4l-1,5
			l-3.3,0.4L157.4,42c-0.3,1.7,0.2,2.2,1.8,2c0.3,0,0.7-0.1,1-0.2l-1,4.9c-1.4,0.4-2.8,0.6-4.1,0.8c-4.9,0.6-6.1-0.1-4.9-5.8
			L152.8,30.7z"/>
		<path clip-path="url(#SVGID_2_)" fill="#FDB827" d="M162.3,36.5c1.5-7.3,4.2-13.1,12.4-14.1c8.7-1.1,8.6,4.2,7.1,11.5
			c-1.5,7.3-4.2,13.1-12.4,14.1C160.8,49,160.9,43.7,162.3,36.5 M173.8,27.1c-2.1,0.3-3.2,2.5-4.3,8.4c-1.2,5.9-1.1,8,1.1,7.7
			c2.2-0.3,3-2.4,4.2-8.3C176,28.8,176,26.8,173.8,27.1"/>
		<path clip-path="url(#SVGID_2_)" fill="#FFFFFF" d="M195.6,25.1l3.6-0.5l-0.5,2.4l0.1,0c1.2-1.8,2.8-3.2,4.8-3.4
			c4.3-0.6,5.3,3,3.9,9.7c-1.7,8.1-5.3,10.3-7.9,10.7c-2,0.3-3.4-0.6-3.7-2.2l-0.1,0l-1.8,8.6l-3.8,0.5L195.6,25.1z M198.9,41
			c2.2-0.3,3.5-2.1,4.6-7.4c0.9-4.4,0.9-7.1-1.7-6.8c-2.6,0.3-3.7,3.1-4.6,7.3C196.2,38.8,196.2,41.4,198.9,41"/>
		<path clip-path="url(#SVGID_2_)" fill="#FFFFFF" d="M220.8,36.8c-0.1,0.7,0.1,1.3,0.7,1.2c0.2,0,0.5-0.1,0.6-0.2l-0.5,2.5
			c-0.5,0.3-1.2,0.6-1.9,0.7c-1.7,0.2-2.9-0.3-2.7-2.1l-0.1,0c-1.4,2-3.1,3.2-5.3,3.4c-3,0.4-4.6-1.1-3.8-4.8
			c0.9-4.3,2.9-5.5,5.6-6.6l3.1-1.2c1.4-0.6,2.4-1.1,2.7-2.8c0.4-1.8,0-2.8-2-2.5c-2.5,0.3-3.3,2.2-3.6,4.1l-3.6,0.5
			c0.8-4.1,2.9-6.6,7.9-7.2c3.3-0.4,5.7,0.6,5,4L220.8,36.8z M218.4,31.1c-1.1,0.9-3.3,1.7-4.6,2.3c-1.2,0.7-1.9,1.9-2.2,3.3
			c-0.3,1.6,0.2,2.8,1.8,2.6c2.3-0.3,3.7-2.2,4.3-5L218.4,31.1z"/>
		<path clip-path="url(#SVGID_2_)" fill="#FFFFFF" d="M226.9,21.1l3.8-0.5l-0.6,3l0.1,0c1.3-2.3,3-3.8,5.1-4.1c0.4-0.1,0.7,0,0.9,0
			l-0.8,4c-0.2,0-0.9-0.1-1.5,0c-1.7,0.2-3.9,1.3-4.7,4.9L226.7,40l-3.8,0.5L226.9,21.1z"/>
		<path clip-path="url(#SVGID_2_)" fill="#FFFFFF" d="M246.1,33.5c-0.1,0.7,0.1,1.3,0.7,1.2c0.2,0,0.5-0.1,0.6-0.2l-0.5,2.5
			c-0.5,0.3-1.2,0.6-1.9,0.7c-1.7,0.2-2.9-0.3-2.7-2.1l-0.1,0c-1.4,2-3.1,3.2-5.3,3.4c-3,0.4-4.6-1.1-3.8-4.8
			c0.9-4.3,2.9-5.5,5.6-6.6l3.1-1.2c1.4-0.6,2.4-1.1,2.7-2.8c0.4-1.8,0-2.8-2-2.5c-2.5,0.3-3.3,2.2-3.6,4.1l-3.6,0.5
			c0.8-4.1,2.9-6.6,7.9-7.2c3.3-0.4,5.7,0.6,5,4L246.1,33.5z M243.7,27.8c-1.1,0.9-3.3,1.7-4.6,2.3c-1.2,0.7-1.9,1.9-2.2,3.3
			c-0.3,1.6,0.2,2.8,1.8,2.6c2.3-0.3,3.7-2.2,4.3-5L243.7,27.8z"/>
		<polygon clip-path="url(#SVGID_2_)" fill="#FFFFFF" points="66.8,65.5 72.3,64.8 67.1,89.7 61.6,90.5 		"/>
		<path clip-path="url(#SVGID_2_)" fill="#FFFFFF" d="M71.7,80c1.2-5.7,3.3-10.1,9.6-10.9c6.7-0.9,6.7,3.2,5.5,8.9
			c-1.2,5.7-3.3,10.1-9.6,10.9C70.5,89.8,70.5,85.7,71.7,80 M80.6,72.8c-1.6,0.2-2.4,1.9-3.4,6.5c-1,4.6-0.8,6.2,0.8,6
			c1.7-0.2,2.3-1.8,3.3-6.5C82.3,74.1,82.3,72.6,80.6,72.8"/>
		<path clip-path="url(#SVGID_2_)" fill="#FFFFFF" d="M92.8,80.6c-0.2,0.8-0.2,1.6-0.1,2.1c0.2,0.5,0.6,0.8,1.5,0.7
			c1.3-0.2,2.1-1.1,2.4-2.2c0.2-0.9-0.1-1.7-1.6-2c-4.2-1-6.2-1.6-5.4-5.6c0.8-3.8,3.8-6,8.2-6.6c5.2-0.7,6.1,1.7,5.6,4.4l-0.1,0.6
			l-4.9,0.6l0.1-0.3c0.3-1.6-0.2-2-1.4-1.9c-1.5,0.2-2,1-2.2,2c-0.7,3.3,8.6,0,7.1,7.3c-0.8,3.8-3.8,6.5-8.3,7.1
			c-4.9,0.6-6.6-1-5.8-4.7l0.2-0.8L92.8,80.6z"/>
		<path clip-path="url(#SVGID_2_)" fill="#FFFFFF" d="M121.6,80.5L121.6,80.5c-0.4,0.7-0.9,1.4-1.7,2c-0.7,0.6-1.7,1.1-3,1.3
			c-3.7,0.5-5.1-2-3.6-9c1.2-5.9,2.9-10.2,7.4-10.8c1.5-0.2,3.1,0.1,3.6,2l0.1,0l1.7-8.1l5.5-0.7l-5.2,24.9l-5.3,0.7L121.6,80.5z
			 M122.2,67.8c-2,0.3-2.6,2.5-3.3,6c-0.6,3-1.2,5.9,0.9,5.7c1.6-0.2,2.4-2.3,3.2-5.9C123.6,70.2,124,67.6,122.2,67.8"/>
		<path clip-path="url(#SVGID_2_)" fill="#FFFFFF" d="M130.8,72.4c1.2-5.7,3.3-10.1,9.6-10.9c6.7-0.9,6.7,3.2,5.5,8.9
			c-1.2,5.7-3.3,10.1-9.6,10.9C129.6,82.2,129.6,78.1,130.8,72.4 M139.7,65.2c-1.6,0.2-2.4,1.9-3.4,6.5c-1,4.6-0.8,6.2,0.8,6
			c1.7-0.2,2.3-1.8,3.3-6.5C141.4,66.5,141.4,65,139.7,65.2"/>
		<polygon clip-path="url(#SVGID_2_)" fill="#FFFFFF" points="151.8,54.6 157.3,53.9 152.1,78.8 146.6,79.5 		"/>
		<path clip-path="url(#SVGID_2_)" fill="#FFFFFF" d="M156.6,69.1c1.2-5.7,3.3-10.1,9.6-10.9c6.7-0.9,6.7,3.2,5.5,8.9
			c-1.2,5.7-3.3,10.1-9.6,10.9C155.4,78.9,155.5,74.8,156.6,69.1 M165.5,61.9c-1.6,0.2-2.4,1.9-3.4,6.5c-1,4.6-0.8,6.2,0.8,6
			c1.7-0.2,2.3-1.8,3.3-6.5C167.2,63.2,167.2,61.6,165.5,61.9"/>
		<path clip-path="url(#SVGID_2_)" fill="#FFFFFF" d="M176.2,57.4l5.3-0.7l-0.5,2.6l0.1,0c1.1-1.8,2.8-3.4,5.1-3.7
			c0.3,0,0.5-0.1,0.9,0l-1.1,5.3c-0.5,0-1,0-1.5,0.1c-2.2,0.3-3.8,1.4-4.3,3.9l-2.2,10.7l-5.5,0.7L176.2,57.4z"/>
		<path clip-path="url(#SVGID_2_)" fill="#FFFFFF" d="M191.1,65.5l-0.2,1.2c-0.6,2.9-0.5,4.3,1.1,4.1c1.4-0.2,2.1-1.3,2.7-3.7
			l5.1-0.7c-1.1,4.7-4,7.3-8.6,7.9c-6.9,0.9-6.5-4-5.3-9.6c1.1-5.3,3.4-9.4,9.4-10.2c6.8-0.9,6.4,3.5,5.1,9.9L191.1,65.5z
			 M195.7,61.7c0.5-2.6,0.5-4-1-3.8c-1.8,0.2-2.4,1.8-3,4.4L195.7,61.7z"/>
		<path clip-path="url(#SVGID_2_)" fill="#FFFFFF" d="M206.2,66c-0.2,0.8-0.2,1.6-0.1,2.1c0.2,0.5,0.6,0.8,1.5,0.7
			c1.3-0.2,2.1-1.1,2.4-2.2c0.2-0.9-0.1-1.7-1.6-2c-4.2-1-6.2-1.6-5.4-5.6c0.8-3.8,3.8-6,8.2-6.6c5.2-0.7,6.1,1.7,5.6,4.4l-0.1,0.6
			l-4.9,0.6l0.1-0.3c0.3-1.6-0.2-2-1.4-1.9c-1.5,0.2-2,1-2.2,2c-0.7,3.3,8.6,0,7.1,7.3c-0.8,3.8-3.8,6.5-8.3,7.1
			c-4.9,0.6-6.6-1-5.8-4.7l0.2-0.8L206.2,66z"/>
		<path clip-path="url(#SVGID_2_)" fill="#FFFFFF" d="M229.4,50.5l5.3-0.7l-0.5,2.2l0.1,0c1.2-1.8,3-3,5-3.3
			c1.6-0.2,3.6-0.2,3.9,2.3c1.8-2.4,3.1-3.2,5.2-3.5c3.1-0.4,4.4,1,3.7,4.6l-2.9,14.1l-5.5,0.7l2.6-12.9c0.3-1.4-0.1-2.1-1.1-2
			c-1.1,0.1-2.1,1.1-2.5,2.9L240,67.5l-5.5,0.7l2.6-12.9c0.3-1.4-0.1-2.1-1.1-2c-1.1,0.1-2.1,1.1-2.5,2.9L231,68.7l-5.5,0.7
			L229.4,50.5z"/>
		<path clip-path="url(#SVGID_2_)" fill="#FFFFFF" d="M254.9,52.9c0.5-2.6,1.6-4.2,3.1-5.3c1.5-1.1,3.1-1.6,5.4-1.9
			c4.5-0.6,6.2,0.8,5.4,4.7l-2,9.7c-0.3,1.4-0.7,3.2-0.2,4l-5.3,0.7c-0.1-0.6,0-1.4,0.1-2.1l-0.1,0c-1.1,1.8-3,3-4.9,3.2
			c-3.1,0.4-4.6-1-3.7-5.1c0.4-2.2,1.7-4.2,3.2-5.1c1.5-0.9,3.6-1.6,5.3-2.2c1.8-0.7,2.1-1,2.4-2.4c0.2-1.2-0.1-1.8-1.4-1.7
			c-1.5,0.2-2.1,1.2-2.5,2.8L254.9,52.9z M259.3,61.7c1.2-0.1,2.3-1,2.8-2.9c0.3-1.6,0.5-2.5,0.7-3.3c-1.9,1.2-2.7,1.3-3.3,1.8
			c-0.7,0.5-1.1,1.2-1.3,2.2C257.9,61,258.3,61.8,259.3,61.7 M264.2,39.3l5.3-0.7l-4.4,5.4l-3.6,0.5L264.2,39.3z"/>
		<path clip-path="url(#SVGID_2_)" fill="#FFFFFF" d="M274.7,57.2c-0.2,0.8-0.2,1.6-0.1,2.1c0.2,0.5,0.6,0.8,1.5,0.7
			c1.3-0.2,2.1-1.1,2.4-2.2c0.2-0.9-0.1-1.7-1.6-2c-4.2-1-6.2-1.6-5.4-5.6c0.8-3.8,3.8-6,8.2-6.6c5.2-0.7,6.1,1.7,5.6,4.4l-0.1,0.6
			l-4.9,0.6l0.1-0.3c0.3-1.6-0.2-2-1.4-1.9c-1.5,0.2-2,1-2.2,2c-0.7,3.3,8.6,0,7.1,7.3c-0.8,3.8-3.8,6.5-8.3,7.1
			c-4.9,0.6-6.6-1-5.8-4.7l0.2-0.8L274.7,57.2z"/>
		<path clip-path="url(#SVGID_2_)" fill="#FED631" d="M44.1,119.4l0.9-2.8l0.9-3.3l1.1-3.3l1.1-3.6l0.5-2.8l0.9-3.3l0.5-3.7l0.4-3.1
			l0.4-3.6c0,0,0.9-2.4,1.6-4.9c0.7-2.4,1.3-3,1.3-3l1.8-4.9c0,0-1.4-1.2-2-0.3c-0.5,1-1.3,0.7-1.8-2.1c-0.5-2.8,0.5-1.3,0.7-2.1
			c0.2-0.7-1.1-0.6-1.1-0.6s-1.3,1.4-2.3,2.3c-1.1,0.9-1.8,3.5-1.8,3.5l-1.8,3.1l-1.4,3.4l-1.3,2.5l-1.8,4.5l-2,4.2
			c0,0-1.1,2.5-1.6,3.6c-0.5,1.1-1.6,3.1-1.6,3.1l-1.8,3.6l-2.6,4.3l-2.6,4.8l-2.1,2.2v-1.6c0-1.6,0.5-3.1,0.5-3.1l0.4-2.6l0.4-3.8
			l0.2-3.6l0.5-5.4c0,0,0-1.4,0.5-4c0.5-2.6,0.9-5.3,0.9-5.3l1.4-3.4c0,0-0.5-0.7-0.1-2.1c0.4-1.5,0-1.8-2-3
			c-0.5-0.3-0.9-0.4-0.9-0.4s-0.9-1-3.2-1.4c0,0-0.9,1.2-0.9,1.9c0,0.7-1.3,3.9-1.3,3.9s-1.1,1.2-2.7,6.1c-1.6,4.9-1.4,2.7-1.4,2.7
			l-0.9,3.2v3.6l-0.9,3.7c0,0-1.1,2.1-1.8,3.8c-0.7,1.7-2,4.9-2,4.9l-1.6,5.4l-1.3,4.5l-1.3,3.6l-1.1,3.9l-1.4,4.3l-1.4,4.1
			l-1.1,3.4l-2,3.8c0,0-2.5,5.7-2.1,7.3c0.4,1.6,0,2,0,2l2.1-2.2l0.2,1.4c0,0-2.5,3-2.4,3.9c0.1,0.9,2-0.3,2-0.3l2.7-1.9
			c0,0,1.3-1.6,2.3-3c1.1-1.4,0.5-1.3,1.1-2.8c0.5-1.5,0.4-1.1,0.9-3c0.5-1.9,0.7-3.3,0.7-3.3l1.1-2.8c0,0,0.4-1.1,1.1-2.5
			c0.7-1.3,1.3-3.9,1.3-3.9l2-3.8c0,0,1.4-2.2,2.9-6.1c1.4-3.9-0.2,5.9-0.2,5.9l-2.1,4.2c0,0,0.4,2.6,0.4,4.4s-0.5,2.9-0.4,9.2
			l1.6,0c0,0,2.5,0.4,3.6-0.6c1.1-1,0.5-0.8,2-2.4c1.4-1.6,0.5-1.1,1.8-2.9c1.3-1.8,1.4-3.4,1.4-3.4l1.7-4.3c0,0,0.5-1.8,7.3-13.1
			c6.8-11.3,3.2-4.7,3.2-4.7l-0.4,2.7c0,0,0,2-0.2,3.1c-0.2,1.1-0.9,2.4-0.9,2.4s-0.7,1.9-0.9,3.2c-0.2,1.3-1.4,3.4-1.6,4.9
			c-0.2,1.5-1.4,4.8-1.4,4.8l-0.7,6l-1.1,7.1c0,0,1.1,0.9,2.1,1.2c1.1,0.2,1.8-3.1,1.8-3.1l0.4,1.4c0,0,0.7,0.3,1.6-0.2
			c0.9-0.5,0.9-1.2,0.9-1.2l0.5-2l0.4-3.8l0.4-3.1c0,0,0.2-1.1,0.9-3c0.7-1.9,1.4-3.4,1.4-3.4l0.7-2.4l1.1-3l0.7-4.6L44.1,119.4z
			 M93.9,108.6c0,0-0.1,0.1-0.1,0.1C93.8,108.6,93.8,108.6,93.9,108.6 M94,108.4C94.2,108.3,94.2,108.3,94,108.4 M89.2,131.5
			c0.2-0.9,0-2.3,0-2.3s-0.7-1.5,0.1-2.2c0.8-0.8,0.3-0.7,1-2c0.7-1.3,0.4,0,0.7-1.3c0.4-1.3-0.7-1.5,0-2.1c0.7-0.6,0.7-1,1.1-1.8
			c0.4-0.8,0.8-1.7,1-2.6c0.2-0.9,0-2.5,0-2.5c0.2-1.1,1.1-2.3,1.1-3.2c0,0,0.2-0.6,0-1.3c0,0-0.5-1.4-1.1-0.8
			c0.2-0.1,0.4-0.4,0.7-0.6c-1.3,1.2-2.4,2.1-2.4,2.1s-1.2,0.8-2.1,0.5c-1.4-0.5-1.6-0.7-0.9-1.3c0.7-0.6,1.1-0.3,1.1-1.4
			c0-1.1-0.7-1.5-2.5-0.6c-1.8,0.9-0.5-0.3-1.8,0.9c-1.3,1.2,0.2-0.2-1.3,1.2c-1.4,1.4-1.1,1-2.1,2.2c-1.1,1.2,0.2-0.7-1.1,1.2
			l-1.3,2c0,0,1.6-6.9-1.8-6.7c-3.4,0.2-4.7,4.1-6.8,4.8c-2.1,0.6-3.2,1-3.8,1c-0.5,0.1-2-0.8-2-0.8l-2-0.6c-1.3-0.7-2-1-2.7-0.9
			c-0.7,0.1-0.7,1.5-0.5,2.4c0.2,0.9,0.4-0.4,0.2,0.9c-0.2,1.3-0.7,2.2-1.1,3.2c-0.4,0.9,0,3,0,3v1.6c0,0,0,1.4-0.2,2.2
			c-0.2,0.7-0.2,1.1-0.2,1.8c0,0.7,0.4,0.8,0,1.8c-0.4,0.9-0.9,2.4-0.9,2.4l-0.5,2.4c0,0-0.4,0.9-0.7,1.9c-0.4,0.9-0.2,1.6-1.1,2.3
			c-0.9,0.7-1.3,0.9-1.8,1.5c-0.5,0.6-0.4,0.9-1.3,1.6c-0.9,0.7-2,1.5-2,1.5s-1.1-1.5-1.1-2.2c0-0.7-0.4-1,0.2-1.8
			c0.5-0.8,1.6-2.4,1.6-2.4l1.6-2.9l0.9-2.6c0,0,0.2-1.1,0.5-2.1c0.4-0.9,1.4-1.4,1.3-2.5c-0.2-1.1-0.4-1.7,0-2.5
			c0.7-1.5,1.4-3.1,1.4-3.1c0.4-1.3,0.5-2.2,0.5-3.1V116c0,0,0.5-0.8,0.4-1.5c-0.2-0.7-0.9-1.9-0.9-1.9c-1.6,0.6-4.1,1.8-4.1,1.8
			s-1.6,1.5-2,2.4c-0.4,0.9,0,2.5,0,2.5l-1.8,2.2v2.1l-0.9,2.1l-1.3,1.8l-0.9,2.3v2l-1.1,2.5v2.1c0,0-1.4,4.7-1.4,6.1v3.2l0.9,1.9
			c0.9,1,2,2.3,2,2.3c1.3,0.6,3.9,0.4,3.9,0.4s0.4-0.5,1.2-0.9c0.7-0.5,1.3-0.9,2-1.5c0.7-0.6,2.1-1.9,2.1-1.9s0.2-0.7,1.4-2.3
			c1.3-1.6,1.6-2.2,2-2.9c0.4-0.8,0.5-1,1.1-1.9c0.5-1,1.1-1.7,1.4-2.5c0.4-0.8,1.1-2.6,1.1-2.6l1.1-3.4c0,0,0.4-0.7,0.9-1.7
			c0.5-1-0.5,4,0.9-1.9l1.4-5.9c0.2-1.1,3.4-1.9,3.4-1.9s0.7,3,0,3.8c-0.7,0.8-0.9,1.2-1.3,2.3c-0.4,1.1-0.4,0.2-0.7,1.9
			c-0.4,1.7-0.4,1.7-0.7,2.9c-0.4,1.2-0.5,1.6-0.5,2.1s-0.5,2-0.5,2l-0.5,2c-0.4,1.1-0.4,2-0.5,2.6c-0.2,0.6-0.4,1.8-0.4,1.8
			l-0.5,2.6l-0.2,1.8v1.8l2.3,1.7l2.5-1.8l2.7-3.2l0.9-1.7l0.9-1.7c0,0-1.1-0.9,0-1.6c1.1-0.7,2.1-2.6,2.3-3.3
			c0.2-0.7,1.3-2.8,1.4-3.4c0.2-0.6-0.9-1.3,0-2l0.9-0.7v-1.6c0.7-1.5,0.7-4.6,1.8-5.4c1.1-0.9,2-2.4,2-2.4c1.1-1.2,1.4-2,2-2
			c0.5-0.1,0,1.8,0,1.8s-0.9,1.9-0.9,2.4s-0.2,1.3-0.4,1.8c-0.2,0.6-0.5,1.9-0.5,1.9s-0.4,2.2-0.5,2.7c-0.2,0.5-0.5,0.7-0.7,1.6
			c-0.2,0.9-0.2,1.3-0.4,1.8c-0.2,0.6-0.5,1.9-0.5,1.9l-0.5,2l-0.5,1.7c-0.2,0.6-0.5,2-0.5,2s-0.2,1.5-0.4,2.6c-0.2,1.1-0.2,2-0.2,2
			v2l1.3-0.7l1.6,0.3c1.1-0.3,2.5-1.2,2.5-1.2c0.9-0.7,1.6-1.6,2-2.2c0.4-0.6,0.5-1.1,1.1-1.9c0.5-0.8,0.7-1.5,0.9-2.1
			c0.2-0.6,0-2.3,0-2.3s0.9-1.2,1.3-2C88.7,132.6,89,132.4,89.2,131.5 M93.1,109.3C93,109.4,93,109.4,93.1,109.3 M66.7,120.7
			C66.7,120.7,66.5,121.8,66.7,120.7 M235.2,99.4C235.2,99.6,235.2,99.6,235.2,99.4 M235.2,99.1c0,0,0,0.1,0,0.2
			C235.2,99.2,235.2,99.2,235.2,99.1 M196.6,104.4C196.6,104.6,196.6,104.5,196.6,104.4 M196.6,104
			C196.6,104.1,196.6,104.1,196.6,104C196.6,104.1,196.6,104,196.6,104 M196.6,104.1c0,0,0,0.1,0,0.1
			C196.6,104.2,196.6,104.2,196.6,104.1 M113.5,112.8c0,0,0-0.1,0.1-0.3C113.6,112.6,113.5,112.7,113.5,112.8 M113.6,112.5
			c0-0.1,0-0.1,0-0.2C113.6,112.4,113.6,112.4,113.6,112.5 M113.5,112.8C113.5,112.9,113.5,112.8,113.5,112.8 M215,98.3l1.3,0.6
			c0.5-1.9-0.6-4.2-1.3-4.7c-1.4-1.1,0.2-1-3.4-2.6c-0.5-0.2-1.6,0.2-1.6,0.2s-3-1-4.7,0.5c-1.6,1.5-4.3,2.4-4.7,3.9
			c-0.1,0.3-0.2,0.8-0.4,1.2c-1.6,0.3-3,0.5-3.3,0.5c-0.5,0.1-2-0.8-2-0.8l-2-0.6c-1.3-0.7-2-1-2.7-0.9c-0.7,0.1-0.7,1.5-0.5,2.4
			c0.2,0.8,0.3-0.3,0.2,0.7c0-0.1,0-0.1,0-0.2c0,0.1,0,0.2,0,0.3c-0.2,1.3-0.7,2.2-1.1,3.2c-0.4,0.9,0,3,0,3v1.6c0,0,0,1.4-0.2,2.2
			c-0.2,0.7-0.2,1.1-0.2,1.8c0,0.7,0.4,0.8,0,1.8c-0.4,0.9-0.9,2.4-0.9,2.4l-0.5,2.4l-0.7,1.9c-0.4,0.9-0.2,1.6-1.1,2.3
			c-0.9,0.7-1.3,0.9-1.8,1.5c-0.5,0.6-0.4,0.9-1.3,1.6c-0.9,0.7-2,1.5-2,1.5s-1.1-1.5-1.1-2.2c0-0.7-0.4-1,0.2-1.8
			c0.5-0.8,1.6-2.4,1.6-2.4l1.6-2.9l0.9-2.6c0,0,0.2-1.1,0.5-2.1c0.4-0.9,1.4-1.4,1.3-2.5c-0.2-1.1-0.4-1.7,0-2.5
			c0.7-1.5,1.4-3.1,1.4-3.1c0.4-1.3,0.5-2.2,0.5-3.1v-1.6c0,0,0.5-0.8,0.4-1.5c-0.2-0.7-0.9-1.9-0.9-1.9c-1.6,0.6-4.1,1.8-4.1,1.8
			s-1.6,1.5-2,2.4c-0.4,0.9,0,2.5,0,2.5l-1.8,2.2v2.1l-0.9,2.1l-1.3,1.8l-0.9,2.3v2l-1.1,2.5v2.1c0,0-1.4,4.7-1.4,6.1v3.2l0.9,1.9
			c0.9,1,2,2.3,2,2.3c1.3,0.6,3.8,0.4,3.8,0.4s0.4-0.5,1.2-0.9c0.7-0.5,1.3-0.9,2-1.5c0.7-0.6,2.1-1.9,2.1-1.9s0.2-0.7,1.4-2.3
			c1.3-1.6,1.6-2.2,2-2.9c0.4-0.8,0.5-1,1.1-1.9c0.5-1,1.1-1.8,1.4-2.5c0.4-0.8,1.1-2.6,1.1-2.6l1.1-3.4c0,0,0.4-0.7,0.9-1.7
			c0.5-1-0.5,4,0.9-1.9l1.4-5.9c0.1-0.4,1-0.8,2.2-1.2v1.6v2c0,1.1-1.4,0.2,0,2.7c1.4,2.5,2,1.2,2,2.8s0.5,5.6,0.5,5.6v2.5
			c0,0-0.2,0.9-0.5,1.9c-0.4,0.9-0.7,1.9-0.7,1.9c-1.3,0.7-3.3,1.3-3.3,1.3l-3.5,0.4c0,0-1.1-0.4-1.6,0.2c-0.5,0.6,0,2,0,2.3
			c0,0,0.3,0.9,0.7,1.2c1.6,1,3.2,1.6,3.2,1.6l2.6-0.3c0,0,1.1,0,2.1-0.3c1.1-0.3,2.3-1.6,2.3-1.6l2.3-1.9l2-2l1.1-1.9l1.4-2.2
			c0,0,0-2,0-2.7c0-0.7,0-0.9,0.2-2.2c0.2-1.3,0.6-2.8,0.6-3.5c0-0.7-0.4-1.5-0.4-1.5s1.8,2.2-0.9-1.5c-2.7-3.8-3.2-4.8-3.2-4.8
			c-0.2-1.2-0.2-1.6-0.2-2.5s-1.1,0.3,0-0.9c1.1-1.2,3.2-2,3.2-2c0.9,1,1.4,1.2,2,1.5c0.5,0.3,0.9,0.2,0.9,0.2l0.9-0.8
			C213.9,99.3,213.7,97.7,215,98.3 M216.1,99.3c0-0.1,0-0.1,0-0.2C216.1,99.2,216.1,99.3,216.1,99.3 M216,99.6
			C216,99.7,216,99.7,216,99.6 M216.1,99.3c0,0.1-0.1,0.2-0.1,0.3C216.1,99.5,216.1,99.4,216.1,99.3 M253.6,89.2
			c-1.4-1.1,0.2-1-3.4-2.6c-0.5-0.2-1.6,0.2-1.6,0.2s-3-1-4.7,0.5c-1.6,1.5-4.3,2.4-4.7,3.9c-0.1,0.3-0.2,0.8-0.4,1.2
			c-1.6,0.3-3,0.5-3.3,0.5c-0.5,0.1-2-0.8-2-0.8l-2-0.6c-1.3-0.7-2-1-2.7-0.9c-0.7,0.1-0.7,1.5-0.5,2.4c0.2,0.9,0.4-0.4,0.2,0.9
			c-0.2,1.3-0.7,2.2-1.1,3.2c-0.4,0.9,0,3,0,3v1.6c0,0,0,1.4-0.2,2.2c-0.2,0.7-0.2,1.1-0.2,1.8c0,0.7,0.4,0.8,0,1.8
			c-0.4,0.9-0.9,2.4-0.9,2.4l-0.5,2.4c0,0-0.4,0.9-0.7,1.9c-0.4,0.9-0.2,1.6-1.1,2.3c-0.9,0.7-1.3,0.9-1.8,1.5
			c-0.5,0.6-0.4,0.9-1.3,1.6c-0.9,0.7-2,1.5-2,1.5s-1.1-1.5-1.1-2.2c0-0.7-0.4-1,0.2-1.8c0.5-0.8,1.6-2.4,1.6-2.4l1.6-2.9l0.9-2.6
			c0,0,0.2-1.1,0.5-2.1c0.4-0.9,1.4-1.4,1.3-2.5c-0.2-1.1-0.4-1.7,0-2.5c0.7-1.5,1.4-3.1,1.4-3.1c0.4-1.3,0.5-2.2,0.5-3.1v-1.6
			c0,0,0.5-0.8,0.4-1.5c-0.2-0.7-0.9-1.9-0.9-1.9c-1.6,0.6-4.1,1.8-4.1,1.8s-1.6,1.5-2,2.4c-0.4,0.9,0,2.5,0,2.5l-1.8,2.2v2.1
			l-0.9,2.1l-1.3,1.8l-0.9,2.3v2l-1.1,2.5v2.1c0,0-1.4,4.7-1.4,6.1v3.2l0.9,1.9c0.9,1,2,2.3,2,2.3c1.3,0.6,3.9,0.4,3.9,0.4
			s0.4-0.5,1.2-0.9c0.7-0.5,1.3-0.9,2-1.5c0.7-0.6,2.1-1.9,2.1-1.9s0.2-0.7,1.4-2.3c1.3-1.6,1.6-2.2,2-2.9s0.5-1,1.1-1.9
			c0.5-1,1.1-1.7,1.4-2.5c0.4-0.8,1.1-2.6,1.1-2.6l1.1-3.4c0,0,0.4-0.7,0.9-1.7c0.5-1-0.5,4,0.9-1.9l1.4-5.9c0.1-0.4,1-0.8,2.2-1.2
			v1.6v2c0,1.1-1.4,0.2,0,2.7c1.4,2.5,2,1.2,2,2.8s0.5,5.6,0.5,5.6v2.5c0,0-0.2,0.9-0.5,1.9c-0.4,0.9-0.7,1.9-0.7,1.9
			c-1.3,0.7-3.3,1.3-3.3,1.3l-3.5,0.4c0,0-1.1-0.4-1.6,0.2s0,2,0,2.3c0,0,0.3,0.9,0.7,1.2c1.6,1,3.2,1.6,3.2,1.6l2.6-0.3
			c0,0,1.1,0,2.1-0.3c1.1-0.3,2.3-1.6,2.3-1.6l2.3-1.9l2-2l1.1-1.9l1.4-2.2c0,0,0-2,0-2.7c0-0.7,0-0.9,0.2-2.2
			c0.2-1.3,0.6-2.8,0.6-3.5c0-0.7-0.4-1.5-0.4-1.5s1.8,2.2-0.9-1.5c-2.7-3.8-3.2-4.8-3.2-4.8c-0.2-1.2-0.2-1.6-0.2-2.5
			s-1.1,0.3,0-0.9c1.1-1.2,3.2-2,3.2-2c0.9,1,1.4,1.2,2,1.5s0.9,0.2,0.9,0.2l0.9-0.8c1.4-0.7,1.3-2.3,2.5-1.8l1.3,0.6
			C255.4,92,254.3,89.7,253.6,89.2 M254.8,94.2C254.7,94.6,254.5,95.1,254.8,94.2 M175.1,90.9c0,0,0.1,0,0.1,0
			C175.2,90.9,175.2,90.9,175.1,90.9 M121.9,118.2c0.2-0.9,3.3-11.8,3.9-12.7c0.7-1,0.7-1.6,2.2-3.2c1.5-1.6,5-2.1,9.6-3.5
			c4.6-1.5,26.2-4.7,27.5-4.8s3.7-0.5,5-0.4c1.3,0,4.4-1.4,4.4-1.4l-2.8-0.5l3.5-0.7l2.6-0.6c2.6-0.6,1.7-0.2,3.7-0.5
			c2-0.3,6.1-1,6.1-1l3.9-0.5c0.4-0.1,4.1-1,2.4-1.8l-6.3,0.2l-5.7,0.5c0,0-6.7,0.7-9.6,1.2c0.6-0.1,1.1-0.3,1.1-0.3l1-0.3l4-1.4
			l-5-0.3c0,0-2.2,0.2-5.2,1.4c0,0-0.1,0-0.1,0.1c0.1,0,0.1-0.1,0.1-0.1l-1.5,0.4l-1.7,0.2c-0.7,0.1,0-1,0-1s-3.7,0.4-8.3,0.7
			c-4.6,0.4,0,0-3.1,0.7c-3.1,0.7-2.4,0.4-3.3,0.4c-0.9,0-3.5,0.4-3.5,0.4l-3.2,1.4l-4.2,0.8l-3.3,0.4c-1.1,0.1-2.6,0.6-4.8,0.8
			l-1.5,0.2l0.2-1.4c0.2-1.4,1.3-1.8,2.8-2.9c1.5-1.1-0.6-1.4-0.2-3.2c0.4-1.8,0.2-1.8-0.9-2.9c-1.1-1.2-5,0.6-7,2.2l-1.3,1.9
			l-0.9,2.3v2.4c0,0-1.1,2.8-2.4,4l-2.2,1.6l-2.8,0.4l-3.5,1.5c0,0-1.1,0.8-2.1,1.6s-2.1,1.8-2.1,1.8l1.3,0.9
			c1.3,0.9,3.7-2.7,2.8,0.2c-0.4,1.4-0.5,2.2-0.3,2.6c-0.3-0.3-0.9-0.6-2.3-1.2c-0.5-0.2-1.6,0.2-1.6,0.2s-3-1-4.7,0.5
			c-1.6,1.5-4.3,2.4-4.7,3.9c-0.4,1.5-1.8,4.2-1.8,4.2v4.1v2c0,1.1-1.4,0.2,0,2.7c1.4,2.5,2,1.2,2,2.8s0.5,5.6,0.5,5.6v2.5
			c0,0-0.2,0.9-0.5,1.9c-0.4,0.9-0.7,1.9-0.7,1.9c-1.3,0.7-3.3,1.3-3.3,1.3l-3.5,0.4c0,0-1.1-0.4-1.6,0.2c-0.5,0.6,0,2,0,2.3
			c0,0,0.3,0.9,0.7,1.2c1.6,1,3.2,1.6,3.2,1.6l2.6-0.3c0,0,1.1,0,2.1-0.3c1.1-0.3,2.3-1.6,2.3-1.6l2.3-1.9l2-2l1.1-1.9l1.4-2.2
			c0,0,0-2,0-2.7c0-0.7,0-0.9,0.2-2.2c0.2-1.3,0.6-2.8,0.6-3.5c0-0.7-0.4-1.5-0.4-1.5s1.8,2.2-0.9-1.5c-2.7-3.8-3.2-4.8-3.2-4.8
			c-0.2-1.2-0.2-1.6-0.2-2.5s-1.1,0.3,0-0.9c1.1-1.2,3.2-2,3.2-2c0.9,1,1.4,1.2,2,1.5c0.5,0.3,0.9,0.2,0.9,0.2l0.9-0.8
			c1.4-0.7,1.3-2.3,2.5-1.8l1.3,0.6c0.5-1.9-0.6-4.2-1.3-4.7c-0.7-0.5-0.7-0.8-0.9-1.1c0.7,0.3,2.3-0.9,2.3-0.9
			c1.8,1.6,1.3-1.3,3.9-1.7c2.6-0.4-2,4.7-5.5,19.7c-3.5,15-3.7,18.8-3.7,18.8l2.8-0.4c0.4-0.8,1.7-2.1,1.3-3.4c0,0,0.7,1.9,1.1,3
			l2.1-0.3l0.2-1.7l0.4-2.2c0,0,0-1.3,0.4-2.5c0.4-1.1,0.2-1.6,0.9-3.2c0.7-1.6,0.4-2,0.7-3.1c0.2-1.1,0.9-3.8,1.5-5.5
			S121.7,119.1,121.9,118.2 M175.3,90.9c0.1,0,0.3-0.1,0.5-0.1C175.6,90.8,175.5,90.8,175.3,90.9 M176.4,90.7c0.1,0,0.2,0,0.2,0
			C176.6,90.6,176.5,90.6,176.4,90.7 M175.8,90.8c0.3-0.1,0.5-0.1,0.6-0.1C176.2,90.7,176,90.7,175.8,90.8 M145.7,116.5
			c0,0-0.2-2.2-0.2-3s0-1.3,0.4-3.1c0.2-0.8,2.7-4.5,2.7-4.5l-0.1-1.7c0,0,0.2-2,0-3.2l-1.3-1.7c0,0-0.9,0.4-2,0.3
			c-1.1-0.2-2.2,1-3.1,1c-0.9,0-1.3,0.9-2.4,1.5c-1.1,0.6-1.5,1.7-2.8,1.4c-1.3-0.3-2.2-1.9-4.4-1.7c-2.2,0.2-3.3,4.9-3.3,4.9
			s-0.4,2.7-0.4,3.3s-0.4,2.5-0.4,2.5l-0.7,1.2c-0.7,1.2-0.7,3.6-2.4,8.7c-1.7,5.1-5.9,15.1-5.7,15.7c0.2,0.6,1.1,0.3,2.4,1
			c0,0,1.7,0,3.1-0.2c1.3-0.2,1.5,0.7,2.6,1.6v-3l1.5-5v-3.5c0,0,0.9-1.9,1.3-2.8c0.4-0.9,1.1-3.2,1.5-4.4c0.4-1.2,2-4.1,2.4-5.2
			c0.4-1.1,2-0.9,3.3-0.6l1.1,2l-0.9,2.8c0,0,1.1,0.4,2.8-0.4c0,0,2.4-0.6,4.1-1.8C145.8,118,145.5,117.8,145.7,116.5 M173.4,108.4
			c0,0,0.7-1.4,1.5-3.3c0.9-2,0.2-1,0.4-1.9c0.2-0.9,0.9-2.9,0.9-2.9s0.7-1.4,0-4c-0.7-2.6-0.9,0.6-2.8,1.1c-1.1-0.1,0,0-3.3,0.9
			c0,0-1.3,1.6-2,3l-1.1,2.3c0,0-0.7,1.4-1.3,2.7c-0.7,1.3,0,1.2,0,1.2s-0.4,1.4-1.7,2.8c-1.3,1.5,0.4,1,0,1.9
			c-0.4,0.8-1.1,4.1-1.1,4.1v1.3c0,0-0.9,1.8-1.3,2.7c-0.4,0.9-0.9,1.4-2,2.7c-1.1,1.2-4.1,5.8-3.9,4.6c0.2-1.1,0.4-2.5,0.4-2.5
			s0.4-2,1.9-4.4c1.4-2.4-0.5-1,0-2.5c0.5-1.5,0-2.7,0-2.7l1.6-3.3l0.7-3.8l1.1-3.8l1.5-4.6l-0.4-1.5c-0.4-1.5,0,0-3.7,2.9
			c-1.1,0.8-1.3,0.2-2,0.3c-0.7,0.1-1.7-0.6-2.2-1.4c-0.4-0.8-0.9,0.1-1.5,0.2l-1.1,2.1c-1.1,2.1,0,0-0.9,2.5c-0.9,2.5,0,0-0.2,2.2
			c-0.2,2.2,0,2.6,0,2.6s-1.1,1.7-2.3,6c-1.2,4.3,0,2.2,0,2.2v2.6c0,0-0.8,2.7-1.2,3.9c-0.4,1.1-0.7,2.7-1.8,3.9
			c-1.2,1.2,0.3,2.4,0.3,2.4s-0.7,2.9,0,4.4c0,0,2.4,1,2.7-0.1c0.3-1.1,1-1.4,1-0.3c0,1.1,0.7,1.9,2.2,2c0.7,0.1,1.5-1.4,3.9-3.5
			c1.5-1.1,0,0,3.1-3c3.1-3,0,0,0.2,1.3c0,0,0.4,2.1,0.9,4.2c0,0,1.3-0.5,2.2-0.3c0.9,0.2,1.7-0.1,5.9-0.8c4.1-0.6,0.2-2.6,0.2-2.6
			s0.2-1.1,0.4-2.5c0.2-1.3,0.2-1.6,0.7-3.8c0.1-0.6,0.2-0.9,0.2-1c0,0,0,0.1,0,0.1c0-0.1,0-0.1,0-0.2c0.2-1.1,0.2-1.1,0.7-2.3
			c0.4-1.1,1.1-4.9,1.1-4.9s0.2-1.6,0.4-2.3c0.2-0.8,0.4-1.9,1.7-3.2C174.7,110.6,173.4,108.4,173.4,108.4"/>
	</g>
</g>
</svg>
