<?xml version="1.0" encoding="utf-8"?>
<!-- Generator: Adobe Illustrator 16.0.0, SVG Export Plug-In . SVG Version: 6.00 Build 0)  -->
<!DOCTYPE svg PUBLIC "-//W3C//DTD SVG 1.1//EN" "http://www.w3.org/Graphics/SVG/1.1/DTD/svg11.dtd">
<svg version="1.1" id="Layer_1" xmlns="http://www.w3.org/2000/svg" xmlns:xlink="http://www.w3.org/1999/xlink" x="0px" y="0px"
	 width="240.4px" height="82px" viewBox="0 0 240.4 82" enable-background="new 0 0 240.4 82" xml:space="preserve">
<g>
	<defs>
		<rect id="SVGID_1_" width="240.4" height="82"/>
	</defs>
	<clipPath id="SVGID_2_">
		<use xlink:href="#SVGID_1_"  overflow="visible"/>
	</clipPath>
	<g clip-path="url(#SVGID_2_)">
		<defs>
			<rect id="SVGID_3_" width="240.4" height="82"/>
		</defs>
		<clipPath id="SVGID_4_">
			<use xlink:href="#SVGID_3_"  overflow="visible"/>
		</clipPath>
		<path clip-path="url(#SVGID_4_)" fill="#FBBA00" d="M80.1,82l3.5-13.4l4.1-0.3c1-0.1,1.6-0.1,2,0.1c0.6,0.2,0.9,0.6,1.1,1.2
			c0.2,0.6,0.2,1.3-0.1,2.3c-0.3,1.2-0.9,2.2-1.7,3c-0.8,0.8-1.9,1.3-3.4,1.4l-2.8,0.2l-1.4,5.4L80.1,82z M83.3,74.9l2.8-0.2
			c0.9-0.1,1.6-0.3,2.1-0.8c0.5-0.4,0.9-1.1,1.1-1.9c0.1-0.5,0.2-1,0.1-1.3c-0.1-0.4-0.3-0.6-0.5-0.7c-0.2-0.1-0.7-0.1-1.5-0.1
			l-2.8,0.2L83.3,74.9z"/>
		<path clip-path="url(#SVGID_4_)" fill="#FBBA00" d="M95.3,79.6c-0.6,0.5-1.1,0.9-1.7,1.2c-0.5,0.3-1.1,0.4-1.6,0.5
			c-0.8,0.1-1.4-0.1-1.7-0.6c-0.4-0.5-0.4-1.1-0.2-2c0.1-0.6,0.4-1.1,0.7-1.5c0.3-0.5,0.7-0.8,1.2-1.1c0.5-0.3,1.1-0.5,1.9-0.7
			c1.1-0.3,2-0.5,2.5-0.8l0.1-0.4c0.2-0.7,0.2-1.1,0-1.4c-0.2-0.4-0.7-0.5-1.4-0.5c-0.6,0.1-1.1,0.2-1.5,0.5
			c-0.4,0.3-0.7,0.8-1.1,1.5l-1.2-0.1c0.5-1.1,1-1.8,1.7-2.4c0.7-0.5,1.6-0.8,2.6-0.9c0.8-0.1,1.4,0,1.8,0.3
			c0.4,0.3,0.6,0.6,0.6,1.1c0,0.5-0.1,1.1-0.3,2l-0.6,2.2c-0.4,1.5-0.6,2.5-0.7,2.9c0,0.4,0,0.8,0,1.1l-1.4,0.1
			C95.2,80.4,95.2,80,95.3,79.6 M96.2,75.9c-0.5,0.3-1.3,0.6-2.3,0.8c-0.6,0.1-1,0.3-1.3,0.4c-0.3,0.1-0.5,0.3-0.7,0.6
			c-0.2,0.2-0.3,0.5-0.4,0.8c-0.1,0.5-0.1,0.8,0.1,1.1c0.2,0.3,0.6,0.4,1.1,0.3c0.5,0,0.9-0.2,1.4-0.5c0.4-0.3,0.8-0.6,1.1-1.1
			c0.3-0.4,0.6-1,0.8-1.8L96.2,75.9z"/>
		<path clip-path="url(#SVGID_4_)" fill="#FBBA00" d="M98.3,80.5l2.5-9.7l1.2-0.1l-0.4,1.5c0.5-0.7,0.9-1.2,1.2-1.4
			c0.3-0.2,0.6-0.4,0.9-0.4c0.4,0,0.8,0.1,1.2,0.4l-0.8,1.6c-0.3-0.2-0.6-0.3-0.9-0.3c-0.3,0-0.6,0.1-0.8,0.4
			c-0.3,0.2-0.5,0.5-0.7,0.9c-0.3,0.6-0.6,1.3-0.8,2l-1.3,5.1L98.3,80.5z"/>
		<path clip-path="url(#SVGID_4_)" fill="#FBBA00" d="M108.6,78.4c-0.6,0.5-1.1,0.9-1.7,1.2c-0.5,0.3-1.1,0.4-1.6,0.5
			c-0.8,0.1-1.4-0.1-1.7-0.6c-0.4-0.5-0.4-1.1-0.2-2c0.1-0.6,0.4-1.1,0.7-1.5c0.3-0.5,0.7-0.8,1.2-1.1c0.5-0.3,1.1-0.5,1.9-0.7
			c1.1-0.3,2-0.5,2.5-0.8L110,73c0.2-0.7,0.2-1.1,0-1.4c-0.2-0.4-0.7-0.5-1.4-0.5c-0.6,0.1-1.1,0.2-1.5,0.5
			c-0.4,0.3-0.7,0.8-1.1,1.5l-1.2-0.1c0.5-1.1,1-1.8,1.7-2.4c0.7-0.5,1.6-0.8,2.6-0.9c0.8-0.1,1.4,0,1.8,0.3
			c0.4,0.3,0.6,0.6,0.6,1.1c0,0.5-0.1,1.1-0.3,2l-0.6,2.2c-0.4,1.5-0.6,2.5-0.7,2.9c0,0.4,0,0.8,0,1.1l-1.4,0.1
			C108.6,79.3,108.6,78.9,108.6,78.4 M109.5,74.8c-0.5,0.3-1.3,0.6-2.3,0.8c-0.6,0.1-1,0.3-1.3,0.4c-0.3,0.1-0.5,0.3-0.7,0.6
			c-0.2,0.2-0.3,0.5-0.4,0.8c-0.1,0.5-0.1,0.8,0.1,1.1c0.2,0.3,0.6,0.4,1.1,0.3c0.5,0,0.9-0.2,1.4-0.5c0.4-0.3,0.8-0.6,1.1-1.1
			c0.3-0.4,0.6-1,0.8-1.8L109.5,74.8z"/>
		<path clip-path="url(#SVGID_4_)" fill="#FBBA00" d="M117.6,75.3l1.2,0.1c-0.5,1.2-1.1,2.1-1.8,2.7c-0.8,0.7-1.6,1-2.4,1.1
			c-1,0.1-1.7-0.3-2.2-1.1c-0.4-0.8-0.4-2,0-3.7c0.4-1.7,1.1-3,2-3.9c0.9-0.9,1.9-1.4,2.9-1.5c0.8-0.1,1.4,0.1,1.8,0.6
			c0.4,0.5,0.6,1.2,0.5,2.2l-1.3,0.3c0-0.6,0-1.1-0.3-1.4c-0.2-0.3-0.6-0.4-1-0.4c-0.6,0.1-1.3,0.4-1.8,1c-0.6,0.6-1,1.6-1.4,2.9
			c-0.3,1.3-0.4,2.3-0.1,2.8c0.3,0.6,0.7,0.8,1.3,0.8c0.5,0,1-0.3,1.4-0.7C117,76.8,117.3,76.2,117.6,75.3"/>
		<path clip-path="url(#SVGID_4_)" fill="#FBBA00" d="M125.3,75.1l1.3,0.1c-0.5,1.1-1.1,1.9-1.8,2.4c-0.7,0.6-1.5,0.9-2.4,1
			c-1.1,0.1-1.9-0.3-2.3-1.1c-0.5-0.8-0.5-2-0.1-3.6c0.4-1.7,1.1-3,2-3.9c0.9-0.9,1.9-1.5,3-1.5c1-0.1,1.7,0.3,2.2,1.1
			c0.4,0.8,0.5,2,0,3.7l-0.1,0.4l-5.8,0.5c-0.2,1.1-0.2,1.9,0.1,2.4c0.3,0.5,0.8,0.7,1.4,0.7C123.7,77.2,124.5,76.5,125.3,75.1
			 M121.6,72.8l4.3-0.4c0.2-0.8,0.1-1.4,0-1.8c-0.3-0.6-0.7-0.8-1.4-0.8c-0.6,0-1.2,0.3-1.7,0.9C122.3,71.3,121.9,72,121.6,72.8"/>
		<path clip-path="url(#SVGID_4_)" fill="#FBBA00" d="M130.8,76.2l-0.2,1.4c-0.4,0.1-0.7,0.2-1,0.2c-0.5,0-0.8,0-1-0.2
			c-0.2-0.2-0.4-0.4-0.4-0.7c0-0.3,0.1-1,0.4-1.9l1.5-5.6l-1,0.1l0.3-1.3l1-0.1l0.6-2.4l1.6-1.1l-0.9,3.4L133,68l-0.3,1.3l-1.3,0.1
			l-1.5,5.7c-0.1,0.5-0.2,0.9-0.1,1c0.1,0.2,0.2,0.3,0.5,0.3C130.4,76.4,130.6,76.3,130.8,76.2"/>
		<path clip-path="url(#SVGID_4_)" fill="#FBBA00" d="M137,76c-0.6,0.5-1.1,0.9-1.7,1.2c-0.5,0.3-1.1,0.4-1.6,0.5
			c-0.8,0.1-1.4-0.1-1.7-0.6c-0.4-0.5-0.4-1.1-0.2-2c0.1-0.6,0.4-1.1,0.7-1.5c0.3-0.5,0.7-0.8,1.2-1.1c0.5-0.3,1.1-0.5,1.9-0.7
			c1.1-0.3,2-0.5,2.5-0.8l0.1-0.4c0.2-0.7,0.2-1.1,0-1.4c-0.2-0.4-0.7-0.5-1.4-0.5c-0.6,0.1-1.1,0.2-1.5,0.5
			c-0.4,0.3-0.7,0.8-1.1,1.5l-1.2-0.1c0.5-1.1,1-1.8,1.7-2.4c0.7-0.5,1.6-0.8,2.6-0.9c0.8-0.1,1.4,0,1.8,0.3
			c0.4,0.3,0.6,0.6,0.6,1.1c0,0.5-0.1,1.1-0.3,2L139,73c-0.4,1.5-0.6,2.5-0.7,2.9c0,0.4,0,0.8,0,1.1l-1.4,0.1
			C137,76.8,137,76.4,137,76 M137.9,72.3c-0.5,0.3-1.3,0.6-2.3,0.8c-0.6,0.1-1,0.3-1.3,0.4c-0.3,0.1-0.5,0.3-0.7,0.6
			c-0.2,0.2-0.3,0.5-0.4,0.8c-0.1,0.5-0.1,0.8,0.1,1.1c0.2,0.3,0.6,0.4,1.1,0.3c0.5,0,0.9-0.2,1.4-0.5c0.5-0.3,0.8-0.6,1.1-1.1
			s0.6-1,0.8-1.8L137.9,72.3z"/>
		<path clip-path="url(#SVGID_4_)" fill="#FBBA00" d="M140,76.9l2.5-9.7l1.2-0.1l-0.4,1.3c0.4-0.5,0.8-0.9,1.3-1.2
			c0.5-0.3,1-0.5,1.5-0.5c0.5,0,1,0.1,1.3,0.3c0.3,0.3,0.5,0.7,0.5,1.2c0.5-0.6,0.9-1,1.4-1.4c0.5-0.3,1-0.5,1.5-0.5
			c0.7-0.1,1.3,0.1,1.6,0.6c0.3,0.5,0.3,1.3,0,2.4l-1.7,6.6l-1.3,0.1l1.6-6.1c0.2-0.7,0.3-1.2,0.2-1.5c0-0.3-0.1-0.5-0.3-0.6
			s-0.4-0.2-0.7-0.2c-0.6,0-1.1,0.3-1.6,0.8c-0.5,0.5-0.8,1.2-1.1,2.2l-1.5,5.6l-1.3,0.1l1.7-6.3c0.2-0.8,0.2-1.4,0.1-1.7
			c-0.2-0.3-0.4-0.4-0.9-0.4c-0.6,0.1-1.1,0.3-1.6,0.9c-0.5,0.5-0.9,1.4-1.2,2.8l-1.3,5L140,76.9z"/>
		<path clip-path="url(#SVGID_4_)" fill="#FBBA00" d="M153.3,71c0.4-1.7,1.1-3,2-3.9c0.9-0.9,1.9-1.4,3-1.5c1-0.1,1.8,0.3,2.3,1.1
			c0.5,0.8,0.5,2,0.1,3.6c-0.5,1.7-1.1,3.1-2.1,4c-0.9,0.9-1.9,1.4-3,1.5c-1,0.1-1.8-0.3-2.3-1.1C152.9,73.9,152.9,72.7,153.3,71
			 M154.7,70.9c-0.3,1.3-0.4,2.2-0.1,2.7s0.8,0.8,1.4,0.8c0.6-0.1,1.2-0.4,1.8-1.1c0.6-0.7,1.1-1.6,1.4-2.8c0.3-1.2,0.3-2.2,0.1-2.7
			c-0.3-0.6-0.8-0.8-1.4-0.8c-0.6,0.1-1.2,0.4-1.8,1.1C155.4,68.7,155,69.7,154.7,70.9"/>
		<polygon clip-path="url(#SVGID_4_)" fill="#FBBA00" points="160.8,75.1 164.4,61.8 165.7,61.6 162.2,75 		"/>
		<polygon clip-path="url(#SVGID_4_)" fill="#FBBA00" points="171.7,72.1 172.7,68.4 169.8,68.7 170.2,67.1 173.1,66.9 174.1,63.2 
			175.3,63.1 174.4,66.8 177.3,66.5 176.9,68.1 174,68.3 173,72 		"/>
		<path clip-path="url(#SVGID_4_)" fill="#FBBA00" d="M190.4,68l1.3,0.3c-0.7,1.5-1.6,2.7-2.5,3.5c-1,0.8-2,1.3-3.2,1.4
			c-1,0.1-1.8-0.1-2.4-0.5c-0.6-0.4-0.9-1.2-1.1-2.2c-0.2-1.1,0-2.3,0.3-3.8c0.4-1.5,0.9-2.7,1.7-3.8c0.7-1.1,1.5-1.9,2.4-2.5
			c0.9-0.6,1.8-0.9,2.8-1c1-0.1,1.8,0.2,2.4,0.8c0.6,0.6,0.8,1.5,0.8,2.8l-1.5,0.5c0-1.8-0.7-2.7-2.1-2.5c-0.7,0.1-1.4,0.3-2,0.7
			c-0.6,0.4-1.2,1-1.7,1.9s-0.9,1.8-1.3,3c-0.5,1.8-0.5,3.2-0.1,4c0.4,0.9,1.1,1.2,2.2,1.2c0.8-0.1,1.5-0.4,2.2-1
			S189.9,69.2,190.4,68"/>
		<path clip-path="url(#SVGID_4_)" fill="#FBBA00" d="M197.6,70.8c-0.6,0.5-1.1,0.9-1.7,1.2c-0.5,0.3-1.1,0.4-1.6,0.5
			c-0.8,0.1-1.4-0.1-1.7-0.6c-0.4-0.5-0.4-1.1-0.2-2c0.1-0.6,0.4-1.1,0.7-1.5c0.3-0.5,0.7-0.8,1.2-1.1c0.5-0.3,1.1-0.5,1.9-0.7
			c1.1-0.3,2-0.5,2.5-0.8l0.1-0.4c0.2-0.7,0.2-1.1,0-1.4c-0.2-0.4-0.7-0.5-1.4-0.5c-0.6,0.1-1.1,0.2-1.5,0.5
			c-0.4,0.3-0.7,0.8-1.1,1.5l-1.2-0.1c0.5-1.1,1-1.8,1.7-2.4c0.7-0.5,1.6-0.8,2.6-0.9c0.8-0.1,1.4,0,1.8,0.3
			c0.4,0.3,0.6,0.6,0.6,1.1s-0.1,1.1-0.3,2l-0.6,2.2c-0.4,1.5-0.6,2.5-0.7,2.9c0,0.4,0,0.8,0,1.1l-1.4,0.1
			C197.5,71.7,197.5,71.3,197.6,70.8 M198.4,67.2c-0.5,0.3-1.3,0.6-2.3,0.8c-0.6,0.1-1,0.3-1.3,0.4c-0.3,0.1-0.5,0.3-0.7,0.6
			c-0.2,0.2-0.3,0.5-0.4,0.8c-0.1,0.5-0.1,0.8,0.1,1.1c0.2,0.3,0.6,0.4,1.1,0.3c0.5,0,0.9-0.2,1.4-0.5c0.4-0.3,0.8-0.6,1.1-1.1
			c0.3-0.4,0.6-1,0.8-1.8L198.4,67.2z"/>
		<path clip-path="url(#SVGID_4_)" fill="#FBBA00" d="M200.9,71.7l2.2-8.4l-1.2,0.1l0.3-1.3l1.2-0.1l0.3-1c0.2-0.8,0.4-1.3,0.7-1.7
			c0.3-0.4,0.6-0.7,0.9-0.9c0.4-0.2,0.8-0.4,1.3-0.4c0.4,0,0.8,0,1.2,0.1l-0.6,1.4c-0.3,0-0.5,0-0.8,0c-0.4,0-0.7,0.2-0.9,0.4
			s-0.4,0.6-0.6,1.2l-0.2,0.9l1.5-0.1l-0.3,1.3l-1.5,0.1l-2.2,8.4L200.9,71.7z"/>
		<path clip-path="url(#SVGID_4_)" fill="#FBBA00" d="M210.9,67.8l1.3,0.1c-0.5,1.1-1.1,1.9-1.8,2.4c-0.7,0.6-1.5,0.9-2.4,1
			c-1.1,0.1-1.9-0.3-2.3-1c-0.5-0.8-0.5-2-0.1-3.6c0.4-1.7,1.1-3,2-3.9c0.9-0.9,1.9-1.4,3-1.5c1-0.1,1.7,0.3,2.2,1.1
			c0.4,0.8,0.5,2,0,3.7l-0.1,0.4l-5.8,0.5c-0.2,1.1-0.2,1.9,0.1,2.4c0.3,0.5,0.8,0.7,1.4,0.7C209.3,69.9,210.1,69.2,210.9,67.8
			 M207.2,65.5l4.3-0.4c0.2-0.8,0.1-1.4,0-1.8c-0.3-0.6-0.7-0.8-1.4-0.8c-0.6,0-1.2,0.3-1.7,0.9C207.9,64,207.5,64.7,207.2,65.5"/>
		<path clip-path="url(#SVGID_4_)" fill="#FBBA00" d="M213.6,70.6l2.5-9.7l1.3-0.1l-2.5,9.7L213.6,70.6z M216.1,59.8l1.6-2.6
			l1.7-0.1l-2.3,2.7L216.1,59.8z"/>
		<path clip-path="url(#SVGID_4_)" fill="#FBBA00" d="M217.3,70.3l2.5-9.7l1.2-0.1l-0.4,1.4c0.4-0.6,0.9-1,1.4-1.3
			c0.5-0.3,1-0.5,1.5-0.5c0.4,0,0.8,0,1.1,0.2c0.3,0.1,0.5,0.3,0.7,0.6s0.2,0.6,0.2,1c0,0.4-0.1,1.1-0.4,2l-1.6,5.9l-1.3,0.1
			l1.6-5.9c0.2-0.7,0.3-1.2,0.2-1.5c0-0.3-0.2-0.6-0.4-0.7c-0.2-0.2-0.5-0.2-0.8-0.2c-0.6,0.1-1.2,0.3-1.7,0.8
			c-0.5,0.5-0.9,1.4-1.2,2.5l-1.4,5.3L217.3,70.3z"/>
		<path clip-path="url(#SVGID_4_)" fill="#FBBA00" d="M231,67.9c-0.6,0.5-1.1,0.9-1.7,1.2c-0.5,0.3-1.1,0.4-1.6,0.5
			c-0.8,0.1-1.4-0.1-1.7-0.6c-0.4-0.5-0.4-1.1-0.2-2c0.1-0.6,0.4-1.1,0.7-1.5c0.3-0.5,0.7-0.8,1.2-1.1c0.5-0.3,1.1-0.5,1.9-0.7
			c1.1-0.3,2-0.5,2.5-0.8l0.1-0.4c0.2-0.7,0.2-1.1,0-1.4c-0.2-0.4-0.7-0.5-1.4-0.5c-0.6,0.1-1.1,0.2-1.5,0.5
			c-0.4,0.3-0.7,0.8-1.1,1.5l-1.2-0.1c0.5-1.1,1-1.8,1.7-2.4c0.7-0.5,1.6-0.8,2.6-0.9c0.8-0.1,1.4,0,1.8,0.3
			c0.4,0.3,0.6,0.6,0.6,1.1c0,0.5-0.1,1.1-0.3,2L233,65c-0.4,1.5-0.6,2.5-0.7,2.9c0,0.4,0,0.8,0,1.1l-1.4,0.1
			C230.9,68.8,230.9,68.4,231,67.9 M231.9,64.3c-0.5,0.3-1.3,0.6-2.3,0.8c-0.6,0.1-1,0.3-1.3,0.4c-0.3,0.1-0.5,0.3-0.7,0.6
			c-0.2,0.2-0.3,0.5-0.4,0.8c-0.1,0.5-0.1,0.8,0.1,1.1s0.6,0.4,1.1,0.3c0.5,0,0.9-0.2,1.4-0.5c0.4-0.3,0.8-0.6,1.1-1.1
			c0.3-0.4,0.6-1,0.8-1.8L231.9,64.3z"/>
		<path clip-path="url(#SVGID_4_)" fill="#FFFFFF" d="M240.4,2.8c0,0.4-0.1,0.7-0.3,1.1c-0.2,0.3-0.5,0.6-0.8,0.8
			c-0.3,0.2-0.7,0.3-1.1,0.4c-0.4,0-0.7,0-1.1-0.2c-0.3-0.2-0.6-0.4-0.8-0.7c-0.2-0.3-0.3-0.7-0.3-1s0.1-0.7,0.3-1.1
			c0.2-0.3,0.5-0.6,0.8-0.8c0.3-0.2,0.7-0.3,1.1-0.4c0.4,0,0.7,0,1.1,0.2c0.3,0.2,0.6,0.4,0.8,0.7C240.3,2,240.4,2.4,240.4,2.8
			 M240,2.8c0-0.5-0.2-0.9-0.5-1.2c-0.3-0.3-0.7-0.4-1.2-0.4c-0.5,0-0.9,0.2-1.2,0.6c-0.3,0.4-0.5,0.8-0.5,1.3
			c0,0.5,0.2,0.9,0.5,1.2c0.3,0.3,0.7,0.4,1.2,0.4c0.5,0,0.9-0.2,1.2-0.6C239.8,3.7,240,3.3,240,2.8 M237.3,1.9l1-0.1
			c0.3,0,0.5,0,0.6,0.1c0.1,0.1,0.2,0.3,0.2,0.5c0,0.2-0.1,0.3-0.1,0.4c-0.1,0.1-0.3,0.2-0.5,0.3c0.1,0,0.2,0.1,0.2,0.1
			c0.1,0,0.1,0.1,0.2,0.2c0,0,0.1,0.2,0.4,0.6l-0.7,0.1c-0.2-0.4-0.4-0.7-0.4-0.7c-0.1-0.1-0.1-0.1-0.2-0.1c0,0,0,0-0.1,0v0.9
			l-0.6,0V1.9z M237.9,2.8l0.2,0c0.2,0,0.3-0.1,0.3-0.1c0.1-0.1,0.1-0.1,0.1-0.2s0-0.1-0.1-0.2c-0.1,0-0.2-0.1-0.3-0.1l-0.3,0V2.8z"
			/>
		<g clip-path="url(#SVGID_4_)">
			<g>
				<defs>
					<rect id="SVGID_5_" x="3.3" y="3.7" width="232.8" height="58.8"/>
				</defs>
				<clipPath id="SVGID_6_">
					<use xlink:href="#SVGID_5_"  overflow="visible"/>
				</clipPath>
				<g clip-path="url(#SVGID_6_)">
					<defs>
						<path id="SVGID_7_" d="M13.8,22.3l18-1.5c3.5-0.3,6.3,0,8.2,0.8c1.9,0.8,3.4,2.1,4.3,3.8c0.9,1.7,1.4,3.8,1.4,6.2
							c0,2.4-0.4,4.9-1.1,7.7c-1.1,4.3-2.5,7.6-4,10.1c-1.6,2.4-3.4,4.5-5.5,6.3c-2.1,1.7-4.2,3-6.3,3.6c-2.8,1-5.4,1.5-7.5,1.7
							l-18,1.5L13.8,22.3z M23.5,30.4l-5.7,21.9l3-0.3c2.5-0.2,4.4-0.7,5.6-1.3c1.2-0.7,2.3-1.7,3.3-3.2c1-1.5,1.9-3.8,2.7-7
							c1.1-4.2,1.2-7.1,0.3-8.5c-0.9-1.5-3-2-6.1-1.8L23.5,30.4z"/>
					</defs>
					<clipPath id="SVGID_8_">
						<use xlink:href="#SVGID_7_"  overflow="visible"/>
					</clipPath>
					
						<linearGradient id="SVGID_9_" gradientUnits="userSpaceOnUse" x1="-4.882813e-004" y1="82.0229" x2="0.9995" y2="82.0229" gradientTransform="matrix(0 -41.7298 -41.7298 0 3447.3459 62.4302)">
						<stop  offset="0" style="stop-color:#B2B2B2"/>
						<stop  offset="0.2403" style="stop-color:#B2B2B2"/>
						<stop  offset="1" style="stop-color:#FFFFFF"/>
					</linearGradient>
					<rect x="3.3" y="20.5" clip-path="url(#SVGID_8_)" fill="url(#SVGID_9_)" width="42.5" height="41.9"/>
				</g>
				<g clip-path="url(#SVGID_6_)">
					<defs>
						<path id="SVGID_10_" d="M45.6,44.7c1.2-4.4,3.6-8.2,7.3-11.3c3.7-3.1,8-4.9,13-5.3c5.7-0.5,9.5,0.8,11.6,4
							c1.6,2.5,1.9,5.8,0.9,9.7c-1.2,4.5-3.6,8.2-7.2,11.3c-3.6,3.1-8,4.9-13.1,5.3c-4.6,0.4-7.9-0.5-10.1-2.6
							C45.1,53.2,44.4,49.5,45.6,44.7 M56.6,43.8c-0.7,2.6-0.7,4.5,0,5.6c0.7,1.2,1.8,1.7,3.4,1.5c1.6-0.1,3-0.9,4.3-2.2
							c1.3-1.3,2.3-3.3,3.1-6c0.7-2.5,0.6-4.3-0.1-5.5c-0.7-1.1-1.8-1.7-3.3-1.5c-1.6,0.1-3.1,0.9-4.4,2.2
							C58.2,39.3,57.2,41.2,56.6,43.8"/>
					</defs>
					<clipPath id="SVGID_11_">
						<use xlink:href="#SVGID_10_"  overflow="visible"/>
					</clipPath>
					
						<linearGradient id="SVGID_12_" gradientUnits="userSpaceOnUse" x1="0" y1="82.0269" x2="1" y2="82.0269" gradientTransform="matrix(0 -30.5052 -30.5052 0 2564.1445 58.5083)">
						<stop  offset="0" style="stop-color:#B2B2B2"/>
						<stop  offset="0.2403" style="stop-color:#B2B2B2"/>
						<stop  offset="1" style="stop-color:#FFFFFF"/>
					</linearGradient>
					<rect x="44.4" y="27.6" clip-path="url(#SVGID_11_)" fill="url(#SVGID_12_)" width="35" height="31.2"/>
				</g>
				<g clip-path="url(#SVGID_6_)">
					<defs>
						<path id="SVGID_13_" d="M84.9,27.1L95,26.3l-1.1,4.2c1.9-1.9,3.7-3.3,5.4-4.1c1.7-0.9,3.6-1.4,5.7-1.6c2.3-0.2,4,0.1,5.1,0.8
							c1.1,0.7,1.9,1.8,2.3,3.4c2.2-2,4.1-3.5,5.7-4.3c1.6-0.8,3.4-1.3,5.5-1.5c3-0.3,5.2,0.5,6.4,2.2c1.2,1.7,1.3,4.5,0.3,8.4
							L125.5,52L114.6,53l4.3-16.5c0.3-1.3,0.4-2.3,0-2.9c-0.5-0.9-1.2-1.4-2.3-1.3c-1.3,0.1-2.4,0.7-3.5,1.7c-1,1-1.8,2.6-2.4,4.7
							l-3.9,15l-10.9,0.9l4.2-16c0.3-1.3,0.5-2.1,0.5-2.6c0-0.7-0.3-1.3-0.8-1.7c-0.5-0.4-1.1-0.6-1.8-0.5c-1.3,0.1-2.4,0.7-3.5,1.7
							c-1.1,1-1.9,2.7-2.5,4.9l-3.9,14.8l-10.9,0.9L84.9,27.1z"/>
					</defs>
					<clipPath id="SVGID_14_">
						<use xlink:href="#SVGID_13_"  overflow="visible"/>
					</clipPath>
					
						<linearGradient id="SVGID_15_" gradientUnits="userSpaceOnUse" x1="4.882813e-004" y1="82.02" x2="1.0005" y2="82.02" gradientTransform="matrix(0 -32.9465 -32.9465 0 2806.5291 56.1489)">
						<stop  offset="0" style="stop-color:#B2B2B2"/>
						<stop  offset="0.2403" style="stop-color:#B2B2B2"/>
						<stop  offset="1" style="stop-color:#FFFFFF"/>
					</linearGradient>
					<rect x="77.3" y="23" clip-path="url(#SVGID_14_)" fill="url(#SVGID_15_)" width="54" height="33.2"/>
				</g>
				<g clip-path="url(#SVGID_6_)">
					<defs>
						<path id="SVGID_16_" d="M139.5,11.8l10.9-0.9l-2,7.6l-10.9,0.9L139.5,11.8z M136.6,22.8l10.9-0.9l-7.6,29L129,51.7L136.6,22.8
							z"/>
					</defs>
					<clipPath id="SVGID_17_">
						<use xlink:href="#SVGID_16_"  overflow="visible"/>
					</clipPath>
					
						<linearGradient id="SVGID_18_" gradientUnits="userSpaceOnUse" x1="-4.882813e-004" y1="82.0239" x2="0.9995" y2="82.0239" gradientTransform="matrix(0 -40.8932 -40.8932 0 3493.9043 51.7427)">
						<stop  offset="0" style="stop-color:#B2B2B2"/>
						<stop  offset="0.2403" style="stop-color:#B2B2B2"/>
						<stop  offset="1" style="stop-color:#FFFFFF"/>
					</linearGradient>
					<rect x="129" y="10.9" clip-path="url(#SVGID_17_)" fill="url(#SVGID_18_)" width="21.4" height="40.9"/>
				</g>
				<g clip-path="url(#SVGID_6_)">
					<defs>
						<path id="SVGID_19_" d="M151.7,21.5l10.1-0.9l-1.2,4.7c2-2.1,3.9-3.6,5.7-4.5c1.8-1,3.8-1.5,6-1.7c3-0.3,5.1,0.5,6.4,2.1
							c1.2,1.7,1.3,4.4,0.3,8.2l-4.8,18.4l-10.9,0.9l4.2-15.9c0.5-1.8,0.5-3.1,0-3.8c-0.5-0.7-1.3-1-2.5-0.9
							c-1.3,0.1-2.5,0.7-3.6,1.8c-1.1,1.1-2,2.9-2.7,5.6L155,49.5l-10.9,0.9L151.7,21.5z"/>
					</defs>
					<clipPath id="SVGID_20_">
						<use xlink:href="#SVGID_19_"  overflow="visible"/>
					</clipPath>
					
						<linearGradient id="SVGID_21_" gradientUnits="userSpaceOnUse" x1="4.882813e-004" y1="82.02" x2="1.0005" y2="82.02" gradientTransform="matrix(0 -31.3758 -31.3758 0 2735.4565 50.4614)">
						<stop  offset="0" style="stop-color:#B2B2B2"/>
						<stop  offset="0.2403" style="stop-color:#B2B2B2"/>
						<stop  offset="1" style="stop-color:#FFFFFF"/>
					</linearGradient>
					<rect x="144.1" y="18.9" clip-path="url(#SVGID_20_)" fill="url(#SVGID_21_)" width="35.9" height="31.6"/>
				</g>
				<g clip-path="url(#SVGID_6_)">
					<defs>
						<path id="SVGID_22_" d="M194.4,27.1l-10.1-0.2c0.9-1.9,1.8-3.4,2.8-4.5c1-1.1,2.3-2.1,3.9-3c1.1-0.6,2.6-1.2,4.5-1.7
							c1.8-0.5,3.8-0.8,5.8-0.9c3.3-0.3,5.8-0.3,7.7-0.1c1.9,0.2,3.3,0.8,4.3,1.9c0.7,0.7,1.1,1.8,1.3,3.3c0.1,1.5,0,2.9-0.3,4.2
							l-3.4,12.8c-0.4,1.4-0.6,2.4-0.6,3.2c0,0.8,0.1,1.7,0.3,2.9l-10.2,0.9c-0.2-0.7-0.3-1.3-0.4-1.6c0-0.4,0-1,0.1-1.8
							c-1.8,1.5-3.5,2.6-5,3.4c-2.1,1-4.5,1.6-7,1.8c-3.4,0.3-5.8-0.3-7.1-1.7c-1.3-1.4-1.7-3.3-1.1-5.7c0.6-2.2,1.7-4.1,3.3-5.6
							c1.6-1.5,4.3-2.8,7.8-3.8c4.3-1.2,7.1-2,8.4-2.4c1.3-0.4,2.7-1,4.2-1.6c0.4-1.4,0.3-2.3-0.1-2.8c-0.4-0.5-1.3-0.7-2.7-0.6
							c-1.8,0.1-3.2,0.6-4.2,1.2C195.9,24.9,195.1,25.8,194.4,27.1 M202.3,32.1c-1.6,0.7-3.3,1.3-5.1,1.8c-2.4,0.8-3.9,1.5-4.7,2.1
							c-0.8,0.7-1.2,1.4-1.4,2.1c-0.2,0.9-0.1,1.6,0.3,2.1c0.5,0.5,1.3,0.7,2.4,0.6c1.2-0.1,2.4-0.5,3.6-1.2
							c1.2-0.7,2.1-1.5,2.8-2.4c0.7-0.9,1.2-2,1.5-3.4L202.3,32.1z"/>
					</defs>
					<clipPath id="SVGID_23_">
						<use xlink:href="#SVGID_22_"  overflow="visible"/>
					</clipPath>
					
						<linearGradient id="SVGID_24_" gradientUnits="userSpaceOnUse" x1="0" y1="82.0278" x2="1" y2="82.0278" gradientTransform="matrix(0 -30.9744 -30.9744 0 2737.8171 47.4302)">
						<stop  offset="0" style="stop-color:#B2B2B2"/>
						<stop  offset="0.2403" style="stop-color:#B2B2B2"/>
						<stop  offset="1" style="stop-color:#FFFFFF"/>
					</linearGradient>
					<rect x="179.4" y="16.4" clip-path="url(#SVGID_23_)" fill="url(#SVGID_24_)" width="35.4" height="31.3"/>
				</g>
				<g clip-path="url(#SVGID_6_)">
					<defs>
						<polygon id="SVGID_25_" points="225.2,4.6 236.1,3.7 225.6,43.5 214.7,44.5 						"/>
					</defs>
					<clipPath id="SVGID_26_">
						<use xlink:href="#SVGID_25_"  overflow="visible"/>
					</clipPath>
					
						<linearGradient id="SVGID_27_" gradientUnits="userSpaceOnUse" x1="0" y1="82.0239" x2="1" y2="82.0239" gradientTransform="matrix(0 -40.8154 -40.8154 0 3573.2468 44.4614)">
						<stop  offset="0" style="stop-color:#B2B2B2"/>
						<stop  offset="0.2403" style="stop-color:#B2B2B2"/>
						<stop  offset="1" style="stop-color:#FFFFFF"/>
					</linearGradient>
					<rect x="214.7" y="3.7" clip-path="url(#SVGID_26_)" fill="url(#SVGID_27_)" width="21.4" height="40.8"/>
				</g>
			</g>
		</g>
		<path clip-path="url(#SVGID_4_)" fill="#FFFFFF" d="M11.9,19.8l18-1.5c3.5-0.3,6.3,0,8.2,0.8c1.9,0.8,3.4,2.1,4.3,3.8
			c0.9,1.7,1.4,3.8,1.4,6.2c0,2.4-0.4,4.9-1.1,7.7c-1.1,4.3-2.5,7.6-4,10.1c-1.6,2.4-3.4,4.5-5.5,6.3c-2.1,1.7-4.2,3-6.3,3.6
			c-2.8,1-5.4,1.5-7.5,1.7l-18,1.5L11.9,19.8z M21.6,27.9l-5.7,21.9l3-0.3c2.5-0.2,4.4-0.7,5.6-1.3c1.2-0.7,2.3-1.7,3.3-3.2
			c1-1.5,1.9-3.8,2.7-7c1.1-4.2,1.2-7.1,0.3-8.5c-0.9-1.5-3-2-6.1-1.8L21.6,27.9z"/>
		<path clip-path="url(#SVGID_4_)" fill="#FFFFFF" d="M43.7,42.2c1.2-4.4,3.6-8.2,7.3-11.3c3.7-3.1,8-4.9,13-5.3
			c5.7-0.5,9.5,0.8,11.6,4c1.6,2.5,1.9,5.8,0.9,9.7c-1.2,4.5-3.6,8.2-7.2,11.3c-3.6,3.1-8,4.9-13.1,5.3c-4.6,0.4-7.9-0.5-10.1-2.6
			C43.2,50.7,42.5,47,43.7,42.2 M54.6,41.3c-0.7,2.6-0.7,4.5,0,5.6c0.7,1.2,1.8,1.7,3.4,1.5c1.6-0.1,3-0.9,4.3-2.2
			c1.3-1.3,2.3-3.3,3.1-6c0.7-2.5,0.6-4.3-0.1-5.5c-0.7-1.1-1.8-1.7-3.3-1.5c-1.6,0.1-3.1,0.9-4.4,2.2
			C56.3,36.8,55.3,38.7,54.6,41.3"/>
		<path clip-path="url(#SVGID_4_)" fill="#FFFFFF" d="M83,24.6l10.2-0.9L92,28c1.9-1.9,3.7-3.3,5.4-4.1c1.7-0.9,3.6-1.4,5.7-1.6
			c2.3-0.2,4,0.1,5.1,0.8c1.1,0.7,1.9,1.8,2.3,3.4c2.2-2,4.1-3.5,5.7-4.3c1.6-0.8,3.4-1.3,5.5-1.5c3-0.3,5.2,0.5,6.4,2.2
			c1.2,1.7,1.3,4.5,0.3,8.4l-4.8,18.2l-10.9,0.9L117,34c0.3-1.3,0.3-2.3,0-2.9c-0.5-0.9-1.2-1.4-2.3-1.3c-1.3,0.1-2.4,0.7-3.5,1.7
			c-1,1-1.8,2.6-2.4,4.7l-3.9,15L94,52.1l4.2-16c0.3-1.3,0.5-2.1,0.5-2.6c0-0.7-0.3-1.3-0.7-1.7c-0.5-0.4-1.1-0.6-1.8-0.5
			c-1.3,0.1-2.4,0.7-3.5,1.7c-1.1,1-1.9,2.7-2.5,4.9l-3.9,14.8l-10.9,0.9L83,24.6z"/>
		<path clip-path="url(#SVGID_4_)" fill="#FFFFFF" d="M137.6,9.3l10.9-0.9l-2,7.5l-10.9,0.9L137.6,9.3z M134.7,20.3l10.9-0.9
			l-7.6,29l-10.9,0.9L134.7,20.3z"/>
		<path clip-path="url(#SVGID_4_)" fill="#FFFFFF" d="M149.8,19l10.1-0.9l-1.2,4.7c2-2.1,3.9-3.6,5.7-4.5c1.8-1,3.8-1.5,6-1.7
			c3-0.3,5.1,0.5,6.4,2.1c1.2,1.7,1.3,4.4,0.3,8.2l-4.8,18.4l-10.9,0.9l4.2-15.9c0.5-1.8,0.5-3.1,0-3.8c-0.5-0.7-1.3-1-2.5-0.9
			c-1.3,0.1-2.5,0.7-3.6,1.8c-1.1,1.1-2,2.9-2.7,5.6L153.1,47L142.2,48L149.8,19z"/>
		<path clip-path="url(#SVGID_4_)" fill="#FFFFFF" d="M192.5,24.6l-10.1-0.2c0.9-1.9,1.8-3.4,2.8-4.5c1-1.1,2.3-2.1,3.9-3
			c1.1-0.6,2.6-1.2,4.5-1.7c1.8-0.5,3.8-0.8,5.8-0.9c3.3-0.3,5.8-0.3,7.7-0.1c1.9,0.2,3.3,0.8,4.3,1.9c0.7,0.7,1.1,1.8,1.3,3.3
			c0.1,1.5,0,2.9-0.3,4.2L209,36.3c-0.4,1.4-0.6,2.4-0.6,3.2c0,0.8,0.1,1.7,0.3,2.9l-10.2,0.9c-0.2-0.7-0.3-1.3-0.4-1.6
			c0-0.4,0-1,0.1-1.8c-1.8,1.5-3.5,2.6-5,3.4c-2.1,1-4.5,1.6-7,1.8c-3.4,0.3-5.8-0.3-7.1-1.7c-1.3-1.4-1.7-3.3-1.1-5.7
			c0.6-2.2,1.7-4.1,3.3-5.6c1.6-1.5,4.3-2.8,7.8-3.8c4.3-1.2,7.1-2,8.4-2.4s2.7-1,4.2-1.6c0.4-1.4,0.3-2.3-0.1-2.8s-1.3-0.7-2.7-0.6
			c-1.8,0.2-3.2,0.6-4.2,1.2C194,22.4,193.2,23.3,192.5,24.6 M200.4,29.6c-1.6,0.7-3.3,1.3-5.1,1.8c-2.4,0.8-3.9,1.5-4.7,2.1
			c-0.8,0.6-1.2,1.4-1.4,2.1c-0.2,0.9-0.1,1.6,0.3,2.1c0.5,0.5,1.3,0.7,2.4,0.6c1.2-0.1,2.4-0.5,3.6-1.2c1.2-0.7,2.1-1.5,2.8-2.4
			c0.7-0.9,1.2-2,1.5-3.4L200.4,29.6z"/>
		<polygon clip-path="url(#SVGID_4_)" fill="#FFFFFF" points="223.3,2.1 234.2,1.2 223.7,41.1 212.8,42 		"/>
	</g>
	<g clip-path="url(#SVGID_2_)">
		<defs>
			<path id="SVGID_28_" d="M22.4,28.9l2.2-0.2c2.7-0.2,4.5,0.2,5.2,1.4c0.5,0.8,0.9,2.8-0.4,7.7c-0.8,3.1-1.7,5.3-2.6,6.7
				c-0.9,1.3-1.8,2.3-2.9,2.8c-1.1,0.6-2.8,1-5.2,1.2l-1.6,0.1L22.4,28.9z M24.6,27.6l-3,0.3l-5.7,21.9l3-0.3
				c2.5-0.2,4.4-0.7,5.6-1.3c1.2-0.7,2.3-1.7,3.3-3.2c1-1.5,1.9-3.8,2.7-7c1.1-4.2,1.2-7.1,0.3-8.5c-0.8-1.2-2.4-1.8-4.8-1.8
				C25.6,27.6,25.1,27.6,24.6,27.6 M11.9,19.8l18-1.5c3.5-0.3,6.3,0,8.2,0.8c1.9,0.8,3.4,2.1,4.3,3.8c0.9,1.7,1.4,3.8,1.4,6.2
				c0,2.4-0.4,4.9-1.1,7.7c-1.1,4.3-2.5,7.6-4,10.1c-1.6,2.4-3.4,4.5-5.5,6.3c-2.1,1.7-4.2,3-6.3,3.6c-2.8,1-5.4,1.5-7.5,1.7
				l-18,1.5L11.9,19.8z M29.9,17.3l-18,1.5l-0.8,0.1l-0.2,0.8L0.4,59.7L0,61.1L1.4,61l18-1.5c2.2-0.2,4.9-0.8,7.8-1.8
				c2.2-0.7,4.5-2,6.7-3.9c2.2-1.8,4.1-4,5.8-6.5c1.6-2.5,3-6,4.2-10.4c0.7-2.8,1.1-5.5,1.1-8c0-2.5-0.5-4.8-1.5-6.6
				c-1-1.9-2.6-3.3-4.8-4.2c-1.5-0.6-3.5-1-5.9-1C31.8,17.1,30.9,17.2,29.9,17.3"/>
		</defs>
		<clipPath id="SVGID_29_">
			<use xlink:href="#SVGID_28_"  overflow="visible"/>
		</clipPath>
		
			<linearGradient id="SVGID_30_" gradientUnits="userSpaceOnUse" x1="0" y1="82.0239" x2="1" y2="82.0239" gradientTransform="matrix(0 -43.9569 -43.9569 0 3627.9558 61.0864)">
			<stop  offset="0" style="stop-color:#662483"/>
			<stop  offset="1" style="stop-color:#009FE3"/>
		</linearGradient>
		<rect y="17.1" clip-path="url(#SVGID_29_)" fill="url(#SVGID_30_)" width="44.9" height="44"/>
	</g>
	<g clip-path="url(#SVGID_2_)">
		<defs>
			<path id="SVGID_31_" d="M55.6,46.3c-0.5-0.9-0.5-2.6,0.1-4.8c0.6-2.3,1.5-4.1,2.7-5.3c1.2-1.1,2.4-1.8,3.7-1.9
				c1.1-0.1,1.9,0.2,2.4,1.1c0.5,0.9,0.5,2.5-0.1,4.7c-0.6,2.5-1.6,4.3-2.7,5.5c-1.1,1.1-2.3,1.7-3.6,1.8c-0.1,0-0.3,0-0.4,0
				C56.7,47.4,56,47,55.6,46.3 M62.1,33.2c-1.6,0.1-3.1,0.9-4.4,2.2c-1.4,1.3-2.4,3.3-3,5.8c-0.7,2.6-0.7,4.5,0,5.6
				c0.7,1.2,1.8,1.7,3.4,1.5c1.6-0.1,3-0.9,4.3-2.2c1.3-1.3,2.3-3.3,3.1-6c0.7-2.5,0.6-4.3-0.1-5.5c-0.6-1-1.6-1.5-2.9-1.5
				C62.4,33.2,62.3,33.2,62.1,33.2 M45.9,53.3c-2.7-2.6-3.4-6.3-2.2-11.1c1.2-4.4,3.6-8.2,7.3-11.3c3.7-3.1,8-4.9,13-5.3
				c5.7-0.5,9.5,0.8,11.6,4c1.6,2.5,1.9,5.8,0.9,9.7c-1.2,4.5-3.6,8.2-7.2,11.3c-3.6,3.1-8,4.9-13.1,5.3C55.3,56,54.7,56,54,56
				C50.5,56,47.7,55.1,45.9,53.3 M64,24.5c-5.2,0.4-9.8,2.3-13.6,5.6c-3.8,3.3-6.4,7.3-7.6,11.9c-1.3,5.1-0.5,9.2,2.4,12.1
				c2.4,2.3,6.1,3.3,10.9,2.9c5.3-0.5,10-2.3,13.8-5.6c3.8-3.2,6.4-7.3,7.6-11.9c1.1-4.2,0.8-7.8-1-10.5c-1.9-3-5.4-4.5-10.2-4.5
				C65.5,24.4,64.7,24.5,64,24.5"/>
		</defs>
		<clipPath id="SVGID_32_">
			<use xlink:href="#SVGID_31_"  overflow="visible"/>
		</clipPath>
		
			<linearGradient id="SVGID_33_" gradientUnits="userSpaceOnUse" x1="0" y1="82.0278" x2="1" y2="82.0278" gradientTransform="matrix(0 -32.6166 -32.6166 0 2735.4036 57.0552)">
			<stop  offset="0" style="stop-color:#662483"/>
			<stop  offset="1" style="stop-color:#009FE3"/>
		</linearGradient>
		<rect x="41.4" y="24.4" clip-path="url(#SVGID_32_)" fill="url(#SVGID_33_)" width="37.2" height="32.9"/>
	</g>
	<g clip-path="url(#SVGID_2_)">
		<defs>
			<path id="SVGID_34_" d="M116.2,22.2c1.6-0.8,3.4-1.3,5.5-1.5c3-0.3,5.2,0.5,6.4,2.2c1.2,1.7,1.3,4.5,0.3,8.4l-4.8,18.2l-10.9,0.9
				L117,34c0.3-1.3,0.3-2.3,0-2.9c-0.5-0.9-1.2-1.4-2.3-1.3c-1.3,0.1-2.4,0.7-3.5,1.7c-1,1-1.8,2.6-2.4,4.7l-3.9,15L94,52.1l4.2-16
				c0.3-1.3,0.5-2.1,0.5-2.6c0-0.7-0.3-1.3-0.7-1.7c-0.5-0.4-1.1-0.6-1.8-0.5c-1.3,0.1-2.4,0.7-3.5,1.7c-1.1,1-1.9,2.7-2.5,4.9
				l-3.9,14.8l-10.9,0.9l7.6-29l10.2-0.9L92,28c1.9-1.9,3.7-3.3,5.4-4.1c1.7-0.9,3.6-1.4,5.7-1.6c2.3-0.2,4,0.1,5.1,0.8
				c1.1,0.7,1.9,1.8,2.3,3.4C112.7,24.4,114.6,23,116.2,22.2 M121.7,19.7c-2.2,0.2-4.2,0.7-5.9,1.6c-1.4,0.7-3,1.8-4.8,3.4
				c-0.5-1.1-1.2-1.9-2.2-2.5c-1.3-0.8-3.2-1.1-5.7-0.9c-2.2,0.2-4.3,0.8-6.1,1.7c-1,0.5-2.1,1.2-3.2,2.1l0.3-1.1l0.4-1.4l-1.4,0.1
				L83,23.6l-0.8,0.1L82,24.4l-7.6,29L74,54.8l1.4-0.1l10.9-0.9l0.8-0.1l0.2-0.8l3.9-14.8c0.5-2,1.2-3.4,2.1-4.3
				c0.9-0.8,1.8-1.3,2.8-1.4c0.5,0,0.9,0,1.1,0.3c0.3,0.2,0.4,0.5,0.4,1c0,0.1,0,0.6-0.4,2.2l-4.2,16l-0.4,1.4l1.4-0.1l10.9-0.9
				l0.8-0.1l0.2-0.8l3.9-15c0.5-1.9,1.2-3.3,2.1-4.1c0.8-0.8,1.7-1.3,2.8-1.3c0.7-0.1,1.1,0.2,1.4,0.8c0.1,0.2,0.3,0.7-0.1,2.1
				l-4.3,16.5l-0.4,1.4l1.4-0.1l10.9-0.9l0.8-0.1l0.2-0.8l4.8-18.2c1.1-4.3,1-7.3-0.4-9.3c-1.3-1.7-3.3-2.6-6.1-2.6
				C122.5,19.6,122.1,19.7,121.7,19.7"/>
		</defs>
		<clipPath id="SVGID_35_">
			<use xlink:href="#SVGID_34_"  overflow="visible"/>
		</clipPath>
		
			<linearGradient id="SVGID_36_" gradientUnits="userSpaceOnUse" x1="-4.882813e-004" y1="82.0181" x2="0.9995" y2="82.0181" gradientTransform="matrix(0 -35.1679 -35.1679 0 2986.6692 54.8052)">
			<stop  offset="0" style="stop-color:#662483"/>
			<stop  offset="1" style="stop-color:#009FE3"/>
		</linearGradient>
		<rect x="74" y="19.6" clip-path="url(#SVGID_35_)" fill="url(#SVGID_36_)" width="56.5" height="35.2"/>
	</g>
	<g clip-path="url(#SVGID_2_)">
		<defs>
			<path id="SVGID_37_" d="M134.7,20.3l10.9-0.9l-7.6,29l-10.9,0.9L134.7,20.3z M145.6,18.3l-10.9,0.9l-0.8,0.1l-0.2,0.8l-7.6,29
				l-0.4,1.4l1.4-0.1l10.9-0.9l0.8-0.1l0.2-0.8l7.6-29l0.4-1.4L145.6,18.3z M137.6,9.3l10.9-0.9l-2,7.5l-10.9,0.9L137.6,9.3z
				 M148.5,7.3l-10.9,0.9l-0.8,0.1l-0.2,0.8l-2,7.6l-0.4,1.4l1.4-0.1l10.9-0.9l0.8-0.1l0.2-0.8l2-7.5l0.4-1.4L148.5,7.3z"/>
		</defs>
		<clipPath id="SVGID_38_">
			<use xlink:href="#SVGID_37_"  overflow="visible"/>
		</clipPath>
		
			<linearGradient id="SVGID_39_" gradientUnits="userSpaceOnUse" x1="-4.882813e-004" y1="82.0239" x2="0.9995" y2="82.0239" gradientTransform="matrix(0 -43.224 -43.224 0 3683.1833 50.3989)">
			<stop  offset="0" style="stop-color:#662483"/>
			<stop  offset="1" style="stop-color:#009FE3"/>
		</linearGradient>
		<rect x="125.7" y="7.2" clip-path="url(#SVGID_38_)" fill="url(#SVGID_39_)" width="24.1" height="43.2"/>
	</g>
	<g clip-path="url(#SVGID_2_)">
		<defs>
			<path id="SVGID_40_" d="M164.4,18.4c1.8-1,3.8-1.5,6-1.7c3-0.3,5.1,0.5,6.4,2.1c1.2,1.7,1.3,4.4,0.3,8.2l-4.8,18.4l-10.9,0.9
				l4.2-15.9c0.5-1.8,0.5-3.1,0-3.8c-0.5-0.7-1.3-1-2.5-0.9c-1.3,0.1-2.5,0.7-3.6,1.8c-1.1,1.1-2,2.9-2.7,5.6L153.1,47L142.2,48
				l7.6-29l10.1-0.9l-1.2,4.7C160.7,20.8,162.6,19.3,164.4,18.4 M170.4,15.6c-2.4,0.2-4.5,0.8-6.4,1.9c-1.1,0.6-2.2,1.4-3.4,2.3
				l0.4-1.4l0.4-1.4l-1.4,0.1L149.8,18L149,18l-0.2,0.8l-7.6,29l-0.4,1.4l1.4-0.1l10.9-0.9l0.8-0.1l0.2-0.8l3.7-13.9
				c0.6-2.4,1.4-4.1,2.4-5.1c0.9-0.9,1.8-1.4,2.9-1.5c1.2-0.1,1.5,0.3,1.6,0.5c0.1,0.2,0.4,0.9-0.2,3l-4.2,15.9l-0.4,1.4l1.4-0.1
				l10.9-0.9l0.8-0.1l0.2-0.8l4.8-18.4c1.1-4.2,0.9-7.1-0.5-9.1c-1.2-1.7-3.3-2.6-6-2.6C171.2,15.5,170.8,15.6,170.4,15.6"/>
		</defs>
		<clipPath id="SVGID_41_">
			<use xlink:href="#SVGID_40_"  overflow="visible"/>
		</clipPath>
		
			<linearGradient id="SVGID_42_" gradientUnits="userSpaceOnUse" x1="0" y1="82.019" x2="1" y2="82.019" gradientTransform="matrix(0 -33.5954 -33.5954 0 2915.467 49.1177)">
			<stop  offset="0" style="stop-color:#662483"/>
			<stop  offset="1" style="stop-color:#009FE3"/>
		</linearGradient>
		<rect x="140.8" y="15.5" clip-path="url(#SVGID_41_)" fill="url(#SVGID_42_)" width="38.4" height="33.6"/>
	</g>
	<g clip-path="url(#SVGID_2_)">
		<defs>
			<path id="SVGID_43_" d="M190.3,37c-0.1-0.2-0.3-0.4-0.1-1.1c0.1-0.5,0.5-1,1.1-1.5c0.4-0.4,1.5-1,4.3-1.9
				c1.1-0.4,2.2-0.7,3.3-1.1c-0.3,1.2-0.8,2.2-1.3,2.9c-0.6,0.8-1.4,1.4-2.4,2.1c-1,0.6-2.1,1-3.2,1c-0.2,0-0.3,0-0.4,0
				C190.9,37.3,190.5,37.2,190.3,37 M195.3,31.5c-2.4,0.8-3.9,1.5-4.7,2.1c-0.8,0.6-1.2,1.4-1.4,2.1c-0.2,0.9-0.1,1.6,0.3,2.1
				c0.5,0.5,1.3,0.7,2.4,0.6c1.2-0.1,2.4-0.5,3.6-1.2c1.2-0.7,2.1-1.5,2.8-2.4c0.7-0.9,1.2-2,1.5-3.4l0.5-1.8
				C198.7,30.3,197,30.9,195.3,31.5 M182.3,24.3c0.9-1.9,1.8-3.4,2.9-4.5c1-1.1,2.3-2.1,3.9-3c1.1-0.6,2.6-1.2,4.5-1.7
				c1.8-0.5,3.8-0.8,5.8-0.9c3.3-0.3,5.8-0.3,7.7-0.1c1.9,0.2,3.3,0.8,4.3,1.9c0.7,0.7,1.1,1.8,1.3,3.3c0.1,1.5,0,2.9-0.3,4.2
				L209,36.3c-0.4,1.4-0.6,2.4-0.6,3.2c0,0.8,0.1,1.7,0.3,2.9l-10.2,0.9c-0.2-0.7-0.3-1.3-0.4-1.6c0-0.4,0-1,0.1-1.8
				c-1.8,1.5-3.5,2.6-5,3.4c-2.1,1-4.5,1.6-7,1.8c-3.4,0.3-5.8-0.3-7.1-1.7c-1.3-1.4-1.7-3.3-1.1-5.7c0.6-2.2,1.7-4.1,3.3-5.6
				c1.6-1.5,4.3-2.8,7.8-3.8c4.3-1.2,7.1-2,8.4-2.4c1.3-0.4,2.7-1,4.2-1.6c0.4-1.4,0.3-2.3-0.1-2.8c-0.4-0.5-1.3-0.7-2.7-0.6
				c-1.8,0.1-3.2,0.6-4.2,1.2c-0.8,0.5-1.6,1.4-2.4,2.7L182.3,24.3z M199.4,13.2c-2.1,0.2-4.1,0.5-6,1c-1.9,0.5-3.5,1.1-4.7,1.8
				c-1.7,1-3.1,2.1-4.2,3.3c-1.1,1.2-2.1,2.8-3,4.8l-0.7,1.4l1.5,0l10.1,0.2l0.7,0l0.3-0.6c0.7-1.1,1.3-1.9,2-2.3
				c0.9-0.6,2.1-0.9,3.7-1c1.5-0.1,1.8,0.2,1.9,0.2c0,0,0.2,0.3,0,1.4c-1.3,0.5-2.5,1-3.6,1.4c-1.3,0.4-4.1,1.2-8.3,2.4
				c-3.8,1-6.5,2.4-8.3,4c-1.8,1.7-3,3.7-3.7,6.1c-0.7,2.7-0.3,4.9,1.3,6.6c1.5,1.7,4.2,2.4,7.9,2c2.7-0.2,5.1-0.9,7.4-1.9
				c1.1-0.5,2.3-1.2,3.5-2.1c0.1,0.4,0.2,1,0.4,1.6l0.2,0.7l0.8-0.1l10.2-0.9l1.3-0.1l-0.3-1.2c-0.2-1.1-0.3-1.9-0.3-2.6
				c0-0.7,0.2-1.7,0.6-3l3.4-12.8c0.4-1.5,0.5-3,0.4-4.6c-0.2-1.7-0.7-3-1.5-3.9c-1.2-1.2-2.8-2-4.9-2.2c-0.8-0.1-1.8-0.1-2.9-0.1
				C202.9,12.9,201.3,13,199.4,13.2"/>
		</defs>
		<clipPath id="SVGID_44_">
			<use xlink:href="#SVGID_43_"  overflow="visible"/>
		</clipPath>
		
			<linearGradient id="SVGID_45_" gradientUnits="userSpaceOnUse" x1="0" y1="82.0288" x2="1" y2="82.0288" gradientTransform="matrix(0 -33.0779 -33.0779 0 2908.4624 45.9927)">
			<stop  offset="0" style="stop-color:#662483"/>
			<stop  offset="1" style="stop-color:#009FE3"/>
		</linearGradient>
		<rect x="176.3" y="12.9" clip-path="url(#SVGID_44_)" fill="url(#SVGID_45_)" width="37.6" height="33.3"/>
	</g>
	<g clip-path="url(#SVGID_2_)">
		<defs>
			<path id="SVGID_46_" d="M223.3,2.1l10.9-0.9l-10.5,39.9L212.8,42L223.3,2.1z M234.2,0.1L223.3,1l-0.8,0.1l-0.2,0.8l-10.5,39.9
				l-0.4,1.4l1.4-0.1l10.9-0.9l0.8-0.1l0.2-0.8l10.5-39.9l0.4-1.3L234.2,0.1z"/>
		</defs>
		<clipPath id="SVGID_47_">
			<use xlink:href="#SVGID_46_"  overflow="visible"/>
		</clipPath>
		
			<linearGradient id="SVGID_48_" gradientUnits="userSpaceOnUse" x1="4.882813e-004" y1="82.0239" x2="1.0005" y2="82.0239" gradientTransform="matrix(0 -43.1418 -43.1418 0 3762.1592 43.1489)">
			<stop  offset="0" style="stop-color:#662483"/>
			<stop  offset="1" style="stop-color:#009FE3"/>
		</linearGradient>
		<rect x="211.4" y="0" clip-path="url(#SVGID_47_)" fill="url(#SVGID_48_)" width="24.2" height="43.1"/>
	</g>
	<g clip-path="url(#SVGID_2_)">
		<defs>
			<rect id="SVGID_49_" width="240.4" height="82"/>
		</defs>
		<clipPath id="SVGID_50_">
			<use xlink:href="#SVGID_49_"  overflow="visible"/>
		</clipPath>
		<g clip-path="url(#SVGID_50_)">
			<g>
				<defs>
					<rect id="SVGID_51_" x="2.8" y="2.3" width="230.1" height="56.4"/>
				</defs>
				<clipPath id="SVGID_52_">
					<use xlink:href="#SVGID_51_"  overflow="visible"/>
				</clipPath>
				<g clip-path="url(#SVGID_52_)">
					<defs>
						<path id="SVGID_53_" d="M37.6,20c-1.8-0.7-4.4-1-7.7-0.7l-17.2,1.4L2.8,58.7l16.6-1.4c2.1-0.2,4.5-0.7,7.3-1.7
							c1.9-0.6,3.9-1.8,5.9-3.4c2-1.6,3.8-3.7,5.3-6c1.5-2.3,2.8-5.6,3.9-9.7c0.7-2.6,1-5.1,1-7.4c0-2.2-0.4-4.1-1.3-5.7
							C40.6,21.9,39.4,20.8,37.6,20 M31.5,38.1c-0.9,3.4-1.8,5.8-2.9,7.4c-1.1,1.6-2.3,2.9-3.7,3.6c-1.4,0.8-3.4,1.2-6.1,1.5l-3,0.3
							l-1.4,0.1l0.4-1.4l5.7-21.9l0.2-0.8l0.8-0.1l3-0.3c3.5-0.3,5.9,0.4,7,2.2C32.8,30.5,32.7,33.5,31.5,38.1"/>
					</defs>
					<clipPath id="SVGID_54_">
						<use xlink:href="#SVGID_53_"  overflow="visible"/>
					</clipPath>
					<defs>
						<filter id="Adobe_OpacityMaskFilter" filterUnits="userSpaceOnUse" x="2.8" y="19.1" width="40" height="39.7">
							<feColorMatrix  type="matrix" values="1 0 0 0 0  0 1 0 0 0  0 0 1 0 0  0 0 0 1 0"/>
						</filter>
					</defs>
					<mask maskUnits="userSpaceOnUse" x="2.8" y="19.1" width="40" height="39.7" id="SVGID_55_">
						<g filter="url(#Adobe_OpacityMaskFilter)">
							
								<linearGradient id="SVGID_56_" gradientUnits="userSpaceOnUse" x1="-4.882813e-004" y1="82.0229" x2="0.9995" y2="82.0229" gradientTransform="matrix(0 -39.4914 -39.4914 0 3261.9885 58.7427)">
								<stop  offset="0" style="stop-color:#B3B3B3"/>
								<stop  offset="0.2403" style="stop-color:#B3B3B3"/>
								<stop  offset="1" style="stop-color:#000000"/>
							</linearGradient>
							<rect x="2.8" y="19.1" clip-path="url(#SVGID_54_)" fill="url(#SVGID_56_)" width="40" height="39.7"/>
						</g>
					</mask>
					
						<linearGradient id="SVGID_57_" gradientUnits="userSpaceOnUse" x1="-4.882813e-004" y1="82.0229" x2="0.9995" y2="82.0229" gradientTransform="matrix(0 -39.4914 -39.4914 0 3261.9888 58.7427)">
						<stop  offset="0" style="stop-color:#C6C6C6"/>
						<stop  offset="0.2403" style="stop-color:#C6C6C6"/>
						<stop  offset="1" style="stop-color:#FFFFFF"/>
					</linearGradient>
					<rect x="2.8" y="19.1" clip-path="url(#SVGID_54_)" mask="url(#SVGID_55_)" fill="url(#SVGID_57_)" width="40" height="39.7"/>
				</g>
				<g clip-path="url(#SVGID_52_)">
					<defs>
						<path id="SVGID_58_" d="M64,26.6c-4.7,0.4-8.9,2.1-12.3,5c-3.5,2.9-5.8,6.5-6.9,10.7c-1.2,4.4-0.5,7.7,1.9,10.1
							c2,1.9,5.1,2.7,9.4,2.3c4.9-0.4,9.1-2.1,12.5-5c3.4-2.9,5.7-6.5,6.8-10.7c1-3.7,0.7-6.7-0.8-8.9C72.8,27.4,69.2,26.2,64,26.6
							 M66.5,40.4c-0.8,2.9-1.9,5.1-3.4,6.5c-1.5,1.5-3.2,2.3-5.1,2.5c-1.9,0.2-3.4-0.5-4.3-2c-0.9-1.4-0.9-3.5-0.1-6.4
							c0.7-2.7,1.8-4.9,3.4-6.4c1.6-1.5,3.3-2.4,5.1-2.5c1.9-0.2,3.3,0.5,4.2,2C67.2,35.5,67.2,37.6,66.5,40.4"/>
					</defs>
					<clipPath id="SVGID_59_">
						<use xlink:href="#SVGID_58_"  overflow="visible"/>
					</clipPath>
					<defs>
						<filter id="Adobe_OpacityMaskFilter_1_" filterUnits="userSpaceOnUse" x="43.6" y="26.2" width="32.8" height="29">
							<feColorMatrix  type="matrix" values="1 0 0 0 0  0 1 0 0 0  0 0 1 0 0  0 0 0 1 0"/>
						</filter>
					</defs>
					<mask maskUnits="userSpaceOnUse" x="43.6" y="26.2" width="32.8" height="29" id="SVGID_60_">
						<g filter="url(#Adobe_OpacityMaskFilter_1_)">
							
								<linearGradient id="SVGID_61_" gradientUnits="userSpaceOnUse" x1="0" y1="82.0278" x2="1" y2="82.0278" gradientTransform="matrix(0 -28.3835 -28.3835 0 2388.1907 54.9458)">
								<stop  offset="0" style="stop-color:#B3B3B3"/>
								<stop  offset="0.2403" style="stop-color:#B3B3B3"/>
								<stop  offset="1" style="stop-color:#000000"/>
							</linearGradient>
							<rect x="43.6" y="26.2" clip-path="url(#SVGID_59_)" fill="url(#SVGID_61_)" width="32.8" height="29"/>
						</g>
					</mask>
					
						<linearGradient id="SVGID_62_" gradientUnits="userSpaceOnUse" x1="0" y1="82.0278" x2="1" y2="82.0278" gradientTransform="matrix(0 -28.3835 -28.3835 0 2388.1907 54.9458)">
						<stop  offset="0" style="stop-color:#C6C6C6"/>
						<stop  offset="0.2403" style="stop-color:#C6C6C6"/>
						<stop  offset="1" style="stop-color:#FFFFFF"/>
					</linearGradient>
					
						<rect x="43.6" y="26.2" clip-path="url(#SVGID_59_)" mask="url(#SVGID_60_)" fill="url(#SVGID_62_)" width="32.8" height="29"/>
				</g>
				<g clip-path="url(#SVGID_52_)">
					<defs>
						<path id="SVGID_63_" d="M121.7,21.8c-1.9,0.2-3.6,0.6-5.1,1.3c-1.5,0.7-3.3,2.1-5.4,4.1l-1.3,1.2l-0.4-1.6
							c-0.4-1.3-1-2.2-1.9-2.8c-0.9-0.6-2.4-0.8-4.4-0.6c-2,0.2-3.7,0.7-5.3,1.5c-1.6,0.8-3.3,2.1-5.1,3.9l-2.6,2.6l0.9-3.5l0.8-2.9
							l-8,0.7l-7,26.8l8.7-0.7l3.7-14c0.6-2.4,1.5-4.2,2.8-5.4c1.3-1.2,2.7-1.9,4.2-2c1.1-0.1,1.9,0.2,2.6,0.7
							c0.7,0.6,1,1.3,1.1,2.3c0,0.4,0,1.1-0.5,2.9l-3.8,14.6l8.7-0.7l3.7-14.2c0.6-2.3,1.5-4,2.7-5.2c1.2-1.2,2.6-1.9,4.2-2
							c1.5-0.1,2.6,0.5,3.3,1.8c0.4,0.8,0.5,2,0,3.6l-4,15.1l8.7-0.7l4.6-17.4c0.9-3.6,0.9-6.1-0.1-7.6
							C126.2,22.1,124.3,21.6,121.7,21.8"/>
					</defs>
					<clipPath id="SVGID_64_">
						<use xlink:href="#SVGID_63_"  overflow="visible"/>
					</clipPath>
					<defs>
						<filter id="Adobe_OpacityMaskFilter_2_" filterUnits="userSpaceOnUse" x="76.7" y="21.6" width="51.5" height="30.9">
							<feColorMatrix  type="matrix" values="1 0 0 0 0  0 1 0 0 0  0 0 1 0 0  0 0 0 1 0"/>
						</filter>
					</defs>
					<mask maskUnits="userSpaceOnUse" x="76.7" y="21.6" width="51.5" height="30.9" id="SVGID_65_">
						<g filter="url(#Adobe_OpacityMaskFilter_2_)">
							
								<linearGradient id="SVGID_66_" gradientUnits="userSpaceOnUse" x1="-4.882813e-004" y1="82.02" x2="0.9995" y2="82.02" gradientTransform="matrix(0 -30.7142 -30.7142 0 2621.6716 52.4614)">
								<stop  offset="0" style="stop-color:#B3B3B3"/>
								<stop  offset="0.2403" style="stop-color:#B3B3B3"/>
								<stop  offset="1" style="stop-color:#000000"/>
							</linearGradient>
							<rect x="76.7" y="21.6" clip-path="url(#SVGID_64_)" fill="url(#SVGID_66_)" width="51.5" height="30.9"/>
						</g>
					</mask>
					
						<linearGradient id="SVGID_67_" gradientUnits="userSpaceOnUse" x1="-4.882813e-004" y1="82.019" x2="0.9995" y2="82.019" gradientTransform="matrix(0 -30.7142 -30.7142 0 2621.6716 52.4614)">
						<stop  offset="0" style="stop-color:#C6C6C6"/>
						<stop  offset="0.2403" style="stop-color:#C6C6C6"/>
						<stop  offset="1" style="stop-color:#FFFFFF"/>
					</linearGradient>
					
						<rect x="76.7" y="21.6" clip-path="url(#SVGID_64_)" mask="url(#SVGID_65_)" fill="url(#SVGID_67_)" width="51.5" height="30.9"/>
				</g>
				<g clip-path="url(#SVGID_52_)">
					<defs>
						<polygon id="SVGID_68_" points="147.1,9.5 138.4,10.3 137,15.6 145.7,14.9 						"/>
					</defs>
					<clipPath id="SVGID_69_">
						<use xlink:href="#SVGID_68_"  overflow="visible"/>
					</clipPath>
					<defs>
						<filter id="Adobe_OpacityMaskFilter_3_" filterUnits="userSpaceOnUse" x="137" y="9.5" width="10.1" height="6.1">
							<feColorMatrix  type="matrix" values="1 0 0 0 0  0 1 0 0 0  0 0 1 0 0  0 0 0 1 0"/>
						</filter>
					</defs>
					<mask maskUnits="userSpaceOnUse" x="137" y="9.5" width="10.1" height="6.1" id="SVGID_70_">
						<g filter="url(#Adobe_OpacityMaskFilter_3_)">
							
								<linearGradient id="SVGID_71_" gradientUnits="userSpaceOnUse" x1="0" y1="82.0229" x2="1" y2="82.0229" gradientTransform="matrix(0 -6.1244 -6.1244 0 644.3885 15.6489)">
								<stop  offset="0" style="stop-color:#B3B3B3"/>
								<stop  offset="0.2403" style="stop-color:#B3B3B3"/>
								<stop  offset="1" style="stop-color:#000000"/>
							</linearGradient>
							<rect x="137" y="9.5" clip-path="url(#SVGID_69_)" fill="url(#SVGID_71_)" width="10.1" height="6.1"/>
						</g>
					</mask>
					
						<linearGradient id="SVGID_72_" gradientUnits="userSpaceOnUse" x1="0" y1="82.0229" x2="1" y2="82.0229" gradientTransform="matrix(0 -6.1244 -6.1244 0 644.3885 15.6489)">
						<stop  offset="0" style="stop-color:#C6C6C6"/>
						<stop  offset="0.2403" style="stop-color:#C6C6C6"/>
						<stop  offset="1" style="stop-color:#FFFFFF"/>
					</linearGradient>
					<rect x="137" y="9.5" clip-path="url(#SVGID_69_)" mask="url(#SVGID_70_)" fill="url(#SVGID_72_)" width="10.1" height="6.1"/>
				</g>
				<g clip-path="url(#SVGID_52_)">
					<defs>
						<polygon id="SVGID_73_" points="135.5,21.3 128.5,48.1 137.2,47.3 144.2,20.5 						"/>
					</defs>
					<clipPath id="SVGID_74_">
						<use xlink:href="#SVGID_73_"  overflow="visible"/>
					</clipPath>
					<defs>
						<filter id="Adobe_OpacityMaskFilter_4_" filterUnits="userSpaceOnUse" x="128.5" y="20.5" width="15.7" height="27.5">
							<feColorMatrix  type="matrix" values="1 0 0 0 0  0 1 0 0 0  0 0 1 0 0  0 0 0 1 0"/>
						</filter>
					</defs>
					<mask maskUnits="userSpaceOnUse" x="128.5" y="20.5" width="15.7" height="27.5" id="SVGID_75_">
						<g filter="url(#Adobe_OpacityMaskFilter_4_)">
							
								<linearGradient id="SVGID_76_" gradientUnits="userSpaceOnUse" x1="0" y1="82.0239" x2="1" y2="82.0239" gradientTransform="matrix(0 -27.5372 -27.5372 0 2395.0381 48.0708)">
								<stop  offset="0" style="stop-color:#B3B3B3"/>
								<stop  offset="0.2403" style="stop-color:#B3B3B3"/>
								<stop  offset="1" style="stop-color:#000000"/>
							</linearGradient>
							<rect x="128.5" y="20.5" clip-path="url(#SVGID_74_)" fill="url(#SVGID_76_)" width="15.7" height="27.5"/>
						</g>
					</mask>
					
						<linearGradient id="SVGID_77_" gradientUnits="userSpaceOnUse" x1="0" y1="82.0239" x2="1" y2="82.0239" gradientTransform="matrix(0 -27.5372 -27.5372 0 2395.0381 48.0708)">
						<stop  offset="0" style="stop-color:#C6C6C6"/>
						<stop  offset="0.2403" style="stop-color:#C6C6C6"/>
						<stop  offset="1" style="stop-color:#FFFFFF"/>
					</linearGradient>
					
						<rect x="128.5" y="20.5" clip-path="url(#SVGID_74_)" mask="url(#SVGID_75_)" fill="url(#SVGID_77_)" width="15.7" height="27.5"/>
				</g>
				<g clip-path="url(#SVGID_52_)">
					<defs>
						<path id="SVGID_78_" d="M170.4,17.7c-2.1,0.2-3.9,0.7-5.6,1.6c-1.7,0.9-3.5,2.3-5.4,4.3l-2.7,2.7l1-3.6l0.9-3.4l-7.9,0.7
							l-7,26.8l8.7-0.7l3.4-13.1c0.8-2.9,1.7-4.9,3-6.1c1.3-1.3,2.7-2,4.3-2.1c2-0.2,2.9,0.6,3.4,1.3c0.6,1,0.7,2.5,0.1,4.6
							l-3.8,14.6l8.8-0.7l4.6-17.6c0.9-3.5,0.9-6-0.2-7.4C174.9,18,173.1,17.5,170.4,17.7"/>
					</defs>
					<clipPath id="SVGID_79_">
						<use xlink:href="#SVGID_78_"  overflow="visible"/>
					</clipPath>
					<defs>
						<filter id="Adobe_OpacityMaskFilter_5_" filterUnits="userSpaceOnUse" x="143.6" y="17.5" width="33.4" height="29.3">
							<feColorMatrix  type="matrix" values="1 0 0 0 0  0 1 0 0 0  0 0 1 0 0  0 0 0 1 0"/>
						</filter>
					</defs>
					<mask maskUnits="userSpaceOnUse" x="143.6" y="17.5" width="33.4" height="29.3" id="SVGID_80_">
						<g filter="url(#Adobe_OpacityMaskFilter_5_)">
							
								<linearGradient id="SVGID_81_" gradientUnits="userSpaceOnUse" x1="0" y1="82.02" x2="1" y2="82.02" gradientTransform="matrix(0 -29.1474 -29.1474 0 2550.9248 46.7896)">
								<stop  offset="0" style="stop-color:#B3B3B3"/>
								<stop  offset="0.2403" style="stop-color:#B3B3B3"/>
								<stop  offset="1" style="stop-color:#000000"/>
							</linearGradient>
							<rect x="143.6" y="17.5" clip-path="url(#SVGID_79_)" fill="url(#SVGID_81_)" width="33.4" height="29.3"/>
						</g>
					</mask>
					
						<linearGradient id="SVGID_82_" gradientUnits="userSpaceOnUse" x1="0" y1="82.02" x2="1" y2="82.02" gradientTransform="matrix(0 -29.1474 -29.1474 0 2550.9407 46.7896)">
						<stop  offset="0" style="stop-color:#C6C6C6"/>
						<stop  offset="0.2403" style="stop-color:#C6C6C6"/>
						<stop  offset="1" style="stop-color:#FFFFFF"/>
					</linearGradient>
					
						<rect x="143.6" y="17.5" clip-path="url(#SVGID_79_)" mask="url(#SVGID_80_)" fill="url(#SVGID_82_)" width="33.4" height="29.3"/>
				</g>
				<g clip-path="url(#SVGID_52_)">
					<defs>
						<path id="SVGID_83_" d="M210.6,16.8c-0.8-0.9-2.1-1.4-3.7-1.6c-1.8-0.2-4.3-0.2-7.5,0.1c-2,0.2-3.9,0.5-5.6,0.9
							c-1.7,0.4-3.1,0.9-4.2,1.5c-1.5,0.8-2.7,1.8-3.6,2.8c-0.7,0.7-1.3,1.7-1.9,2.8l7.9,0.2c0.8-1.2,1.5-2,2.4-2.5
							c1.2-0.8,2.8-1.2,4.7-1.4c1.8-0.1,2.9,0.1,3.5,0.9c0.6,0.8,0.7,2,0.3,3.7l-0.1,0.5l-0.5,0.2c-1.5,0.7-3,1.2-4.3,1.7
							c-1.3,0.4-4.2,1.3-8.5,2.4c-3.4,0.9-5.9,2.1-7.4,3.5c-1.5,1.4-2.5,3-3,5c-0.5,2-0.2,3.6,0.9,4.8c1.1,1.2,3.2,1.7,6.3,1.4
							c2.4-0.2,4.7-0.8,6.7-1.7c1.5-0.7,3.1-1.7,4.8-3.2l2-1.7l-0.3,2.5c-0.1,1-0.1,1.4-0.1,1.6c0,0.1,0,0.3,0.1,0.7l8.1-0.7
							c-0.1-0.7-0.1-1.3-0.1-1.9c0-0.8,0.2-2,0.6-3.4l3.4-12.8c0.3-1.2,0.4-2.5,0.3-3.8C211.5,18.3,211.2,17.4,210.6,16.8
							 M201.4,29.8l-0.5,1.8c-0.4,1.5-1,2.8-1.7,3.8c-0.8,1-1.8,1.9-3.2,2.7c-1.3,0.8-2.7,1.2-4.1,1.3c-1.5,0.1-2.6-0.2-3.2-0.9
							c-0.5-0.5-0.9-1.5-0.5-3c0.3-1,0.9-1.9,1.8-2.7c0.9-0.7,2.5-1.5,5.1-2.3c1.7-0.6,3.4-1.2,5-1.8l1.9-0.8L201.4,29.8z"/>
					</defs>
					<clipPath id="SVGID_84_">
						<use xlink:href="#SVGID_83_"  overflow="visible"/>
					</clipPath>
					<defs>
						<filter id="Adobe_OpacityMaskFilter_6_" filterUnits="userSpaceOnUse" x="178.6" y="15" width="33.2" height="29.1">
							<feColorMatrix  type="matrix" values="1 0 0 0 0  0 1 0 0 0  0 0 1 0 0  0 0 0 1 0"/>
						</filter>
					</defs>
					<mask maskUnits="userSpaceOnUse" x="178.6" y="15" width="33.2" height="29.1" id="SVGID_85_">
						<g filter="url(#Adobe_OpacityMaskFilter_6_)">
							
								<linearGradient id="SVGID_86_" gradientUnits="userSpaceOnUse" x1="0" y1="82.0278" x2="1" y2="82.0278" gradientTransform="matrix(0 -28.8602 -28.8602 0 2562.4946 43.8833)">
								<stop  offset="0" style="stop-color:#B3B3B3"/>
								<stop  offset="0.2403" style="stop-color:#B3B3B3"/>
								<stop  offset="1" style="stop-color:#000000"/>
							</linearGradient>
							<rect x="178.6" y="15" clip-path="url(#SVGID_84_)" fill="url(#SVGID_86_)" width="33.2" height="29.1"/>
						</g>
					</mask>
					
						<linearGradient id="SVGID_87_" gradientUnits="userSpaceOnUse" x1="0" y1="82.0278" x2="1" y2="82.0278" gradientTransform="matrix(0 -28.8602 -28.8602 0 2562.4946 43.8833)">
						<stop  offset="0" style="stop-color:#C6C6C6"/>
						<stop  offset="0.2403" style="stop-color:#C6C6C6"/>
						<stop  offset="1" style="stop-color:#FFFFFF"/>
					</linearGradient>
					
						<rect x="178.6" y="15" clip-path="url(#SVGID_84_)" mask="url(#SVGID_85_)" fill="url(#SVGID_87_)" width="33.2" height="29.1"/>
				</g>
				<g clip-path="url(#SVGID_52_)">
					<defs>
						<polygon id="SVGID_88_" points="224.1,3.1 214.2,40.8 222.9,40.1 232.8,2.3 						"/>
					</defs>
					<clipPath id="SVGID_89_">
						<use xlink:href="#SVGID_88_"  overflow="visible"/>
					</clipPath>
					<defs>
						<filter id="Adobe_OpacityMaskFilter_7_" filterUnits="userSpaceOnUse" x="214.2" y="2.3" width="18.7" height="38.5">
							<feColorMatrix  type="matrix" values="1 0 0 0 0  0 1 0 0 0  0 0 1 0 0  0 0 0 1 0"/>
						</filter>
					</defs>
					<mask maskUnits="userSpaceOnUse" x="214.2" y="2.3" width="18.7" height="38.5" id="SVGID_90_">
						<g filter="url(#Adobe_OpacityMaskFilter_7_)">
							
								<linearGradient id="SVGID_91_" gradientUnits="userSpaceOnUse" x1="4.882813e-004" y1="82.0239" x2="1.0005" y2="82.0239" gradientTransform="matrix(0 -38.4758 -38.4758 0 3379.4353 40.8052)">
								<stop  offset="0" style="stop-color:#B3B3B3"/>
								<stop  offset="0.2403" style="stop-color:#B3B3B3"/>
								<stop  offset="1" style="stop-color:#000000"/>
							</linearGradient>
							<rect x="214.2" y="2.3" clip-path="url(#SVGID_89_)" fill="url(#SVGID_91_)" width="18.7" height="38.5"/>
						</g>
					</mask>
					
						<linearGradient id="SVGID_92_" gradientUnits="userSpaceOnUse" x1="4.882813e-004" y1="82.0239" x2="1.0005" y2="82.0239" gradientTransform="matrix(0 -38.4758 -38.4758 0 3379.4353 40.8052)">
						<stop  offset="0" style="stop-color:#C6C6C6"/>
						<stop  offset="0.2403" style="stop-color:#C6C6C6"/>
						<stop  offset="1" style="stop-color:#FFFFFF"/>
					</linearGradient>
					
						<rect x="214.2" y="2.3" clip-path="url(#SVGID_89_)" mask="url(#SVGID_90_)" fill="url(#SVGID_92_)" width="18.7" height="38.5"/>
				</g>
			</g>
		</g>
		<path clip-path="url(#SVGID_50_)" fill="#FFFFFF" d="M15.9,50.8l-1.4,0.1l0.4-1.4l5.7-21.9l0.1-0.2l-0.4,0l-0.8,0.1l-0.2,0.8
			l-5.7,21.9l-0.4,1.4l1.4-0.1l3-0.3c2.7-0.2,4.7-0.7,6.1-1.5c0.1-0.1,0.2-0.1,0.3-0.2c-1.3,0.5-2.9,0.8-5,1L15.9,50.8z"/>
		<path clip-path="url(#SVGID_50_)" fill="#FFFFFF" d="M37.6,20c-1.8-0.7-4.4-1-7.7-0.7l-17.2,1.4l-0.1,0.6l16-1.3
			c3.4-0.3,6-0.1,7.7,0.7c1.7,0.7,3,1.8,3.8,3.4c0.9,1.6,1.3,3.5,1.3,5.7c0,2.3-0.3,4.8-1,7.4c-1.1,4.1-2.4,7.4-3.9,9.8
			c-1.5,2.3-3.3,4.3-5.3,6c-1.1,0.9-2.3,1.7-3.4,2.3c1.6-0.7,3.2-1.7,4.8-3c2-1.6,3.8-3.7,5.3-6c1.5-2.3,2.8-5.6,3.9-9.7
			c0.7-2.6,1-5.1,1-7.4c0-2.2-0.4-4.1-1.3-5.7C40.6,21.9,39.4,20.8,37.6,20"/>
		<path clip-path="url(#SVGID_50_)" fill="#FFFFFF" d="M53.8,47.5c-0.9-1.4-0.9-3.5-0.1-6.4c0.7-2.7,1.8-4.9,3.4-6.4
			c0.6-0.6,1.2-1,1.8-1.4c-1.1,0.4-2.2,1.1-3.2,2.1c-1.5,1.5-2.6,3.6-3.4,6.4c-0.8,2.9-0.7,5,0.1,6.4c0.9,1.5,2.4,2.1,4.3,2
			c1.2-0.1,2.3-0.5,3.3-1.1c-0.6,0.2-1.3,0.4-1.9,0.4C56.1,49.6,54.7,48.9,53.8,47.5"/>
		<path clip-path="url(#SVGID_50_)" fill="#FFFFFF" d="M64,26.6c-3.1,0.3-6,1.1-8.6,2.5c2.2-1,4.6-1.6,7.2-1.8
			c5.3-0.4,8.9,0.7,10.7,3.5c1.5,2.3,1.7,5.3,0.8,8.9c-1.1,4.2-3.4,7.8-6.8,10.7c-1.1,1-2.3,1.8-3.6,2.5c1.8-0.8,3.5-1.8,5-3.1
			c3.4-2.9,5.7-6.5,6.8-10.7c1-3.7,0.7-6.7-0.8-8.9C72.8,27.4,69.2,26.2,64,26.6"/>
		<polygon clip-path="url(#SVGID_50_)" fill="#FFFFFF" points="89.6,28.5 88.7,32 90.3,30.4 91,27.8 91.8,25 83.8,25.6 83.6,26.2 
			90.4,25.6 		"/>
		<path clip-path="url(#SVGID_50_)" fill="#FFFFFF" d="M108.1,27.5l0.4,1.6l1.3-1.2l-0.3-1.1c-0.4-1.3-1-2.3-1.9-2.8
			c-0.9-0.6-2.4-0.8-4.4-0.6c-2,0.2-3.7,0.7-5.3,1.5c-0.1,0.1-0.3,0.2-0.4,0.2c1.3-0.5,2.7-0.9,4.3-1c2-0.2,3.5,0,4.4,0.6
			C107.1,25.2,107.7,26.2,108.1,27.5"/>
		<path clip-path="url(#SVGID_50_)" fill="#FFFFFF" d="M121.7,21.8c-1.9,0.2-3.6,0.6-5.1,1.3c-0.2,0.1-0.3,0.2-0.5,0.3
			c1.3-0.5,2.7-0.8,4.2-1c2.7-0.2,4.5,0.4,5.5,1.8c1,1.4,1.1,4,0.1,7.6l-4.4,16.8l1.2-0.1l4.6-17.4c0.9-3.6,0.9-6.1-0.1-7.6
			C126.2,22.2,124.3,21.6,121.7,21.8"/>
		<path clip-path="url(#SVGID_50_)" fill="#FFFFFF" d="M106.5,36.7l-3.6,13.6l1.2-0.1l3.7-14.2c0.6-2.3,1.5-4,2.7-5.2
			c0.4-0.4,0.8-0.7,1.3-1c-0.9,0.3-1.8,0.9-2.6,1.7C107.9,32.6,107.1,34.3,106.5,36.7"/>
		<path clip-path="url(#SVGID_50_)" fill="#FFFFFF" d="M87.8,38.4l-3.5,13.4l1.2-0.1l3.7-14c0.6-2.4,1.5-4.2,2.8-5.4
			c0.4-0.4,0.9-0.7,1.3-1c-1,0.3-1.9,0.9-2.7,1.7C89.3,34.2,88.4,36,87.8,38.4"/>
		<polygon clip-path="url(#SVGID_50_)" fill="#FFFFFF" points="138.3,10.8 145.7,10.2 144.5,15 145.7,14.9 147.1,9.5 138.4,10.3 		
			"/>
		<polygon clip-path="url(#SVGID_50_)" fill="#FFFFFF" points="135.4,21.8 142.8,21.2 135.9,47.4 137.2,47.3 144.2,20.5 135.5,21.3 
					"/>
		<path clip-path="url(#SVGID_50_)" fill="#FFFFFF" d="M170.4,17.7c-2.1,0.2-3.9,0.7-5.6,1.6c-0.1,0-0.1,0.1-0.2,0.1
			c1.3-0.5,2.8-0.9,4.4-1c2.7-0.2,4.5,0.4,5.5,1.8c1,1.4,1.1,3.9,0.2,7.4l-4.5,17l1.2-0.1l4.6-17.6c0.9-3.5,0.9-6-0.2-7.4
			C174.9,18,173.1,17.5,170.4,17.7"/>
		<path clip-path="url(#SVGID_50_)" fill="#FFFFFF" d="M154.3,33.6l-3.3,12.5l1.2-0.1l3.4-13.1c0.8-2.9,1.7-4.9,3-6.1
			c0.4-0.4,0.9-0.8,1.4-1.1c-1,0.3-1.9,0.9-2.8,1.8C156.1,28.8,155.1,30.8,154.3,33.6"/>
		<polygon clip-path="url(#SVGID_50_)" fill="#FFFFFF" points="156.3,23.4 155.4,27 157,25.3 157.7,22.7 158.6,19.3 150.6,20 
			150.5,20.6 157.2,20 		"/>
		<path clip-path="url(#SVGID_50_)" fill="#FFFFFF" d="M210.6,16.8c-0.8-0.9-2.1-1.4-3.7-1.6c-1.8-0.2-4.3-0.2-7.5,0.1
			c-2,0.2-3.9,0.5-5.6,0.9c-1.7,0.4-3.1,0.9-4.2,1.5c0,0-0.1,0.1-0.1,0.1c0.8-0.4,1.8-0.7,2.9-1c1.8-0.4,3.7-0.7,5.6-0.9
			c3.2-0.3,5.7-0.3,7.5-0.1c1.6,0.2,2.9,0.7,3.7,1.6c0.6,0.6,0.9,1.5,1,2.7c0.1,1.3,0,2.6-0.3,3.8l-3.4,12.8
			c-0.4,1.5-0.6,2.6-0.6,3.4c0,0.4,0,0.8,0.1,1.3l1.4-0.1c-0.1-0.7-0.1-1.3-0.1-1.9c0-0.8,0.2-1.9,0.6-3.4l3.4-12.8
			c0.3-1.2,0.4-2.5,0.3-3.8C211.5,18.3,211.2,17.4,210.6,16.8"/>
		<path clip-path="url(#SVGID_50_)" fill="#FFFFFF" d="M194.3,21c-0.5,0.2-0.9,0.4-1.3,0.6c-0.7,0.4-1.3,1-1.9,1.8l0.9,0
			C192.7,22.4,193.4,21.6,194.3,21"/>
		<path clip-path="url(#SVGID_50_)" fill="#FFFFFF" d="M188.7,38.5c-0.5-0.5-0.9-1.5-0.5-3c0.3-1,0.9-1.9,1.8-2.7
			c0.3-0.2,0.6-0.4,1-0.7c-1.1,0.5-1.9,0.9-2.4,1.3c-0.9,0.8-1.6,1.7-1.8,2.7c-0.4,1.5,0.1,2.5,0.5,3c0.7,0.7,1.7,1,3.2,0.9
			c1.4-0.1,2.7-0.6,4.1-1.3c0,0,0,0,0.1,0c-0.9,0.4-1.8,0.6-2.8,0.7C190.5,39.5,189.4,39.2,188.7,38.5"/>
		<polygon clip-path="url(#SVGID_50_)" fill="#FFFFFF" points="224.1,3.1 223.9,3.6 231.4,3 221.6,40.2 222.9,40.1 232.8,2.3 		"/>
	</g>
</g>
</svg>
