<?xml version="1.0" encoding="utf-8"?>
<!-- Generator: Adobe Illustrator 16.0.0, SVG Export Plug-In . SVG Version: 6.00 Build 0)  -->
<!DOCTYPE svg PUBLIC "-//W3C//DTD SVG 1.1//EN" "http://www.w3.org/Graphics/SVG/1.1/DTD/svg11.dtd">
<svg version="1.1" id="Layer_1" xmlns="http://www.w3.org/2000/svg" xmlns:xlink="http://www.w3.org/1999/xlink" x="0px" y="0px"
	 width="74.7px" height="16.8px" viewBox="0 0 74.7 16.8" enable-background="new 0 0 74.7 16.8" xml:space="preserve">
<polygon fill="#FFFFFF" points="5.5,11 6.1,10.4 6.4,10.6 6,11 6.3,11.3 6.6,10.9 6.9,11.1 6.5,11.5 7,12 6.8,12.2 "/>
<g>
	<defs>
		<rect id="SVGID_1_" y="0" width="74.7" height="16.8"/>
	</defs>
	<clipPath id="SVGID_2_">
		<use xlink:href="#SVGID_1_"  overflow="visible"/>
	</clipPath>
	<path clip-path="url(#SVGID_2_)" fill="#FFFFFF" d="M9.4,8.7C9.6,9,9.5,9.3,9.3,9.6C8.9,9.9,8.4,9.9,8,9.6C7.7,9.3,7.6,8.8,7.9,8.4
		C8.1,8.2,8.5,8,8.9,8.2L8.6,8.4c-0.2,0-0.4,0-0.5,0.2C8,8.8,8,9.2,8.2,9.4c0.2,0.2,0.6,0.2,0.8,0C9.2,9.2,9.2,9,9.2,8.9L9.4,8.7z"
		/>
	<path clip-path="url(#SVGID_2_)" fill="#FFFFFF" d="M12.2,5.6c-0.8-1-1.8-2.2-1.8-2.8V0H8.1v2.8c0,1.3,1,2.6,2.2,4.2
		c1.5,1.9,3.2,4.1,2.5,5.8c-0.5,1.4-3.6,1.8-5.1,1.8H7.7c-1.6,0-4.8-0.4-5.3-1.8C1.7,11,3.6,8.5,5.1,6.6c1.2-1.5,2.1-2.7,2.1-3.8V0
		H4.9v2.8c0,0.4-1,1.6-1.6,2.4c-1.8,2.3-4.2,5.3-3,8.4c1.2,3.1,6.5,3.2,7.5,3.2c0.9,0,6-0.1,7.2-3.2C16.1,10.6,13.9,7.8,12.2,5.6"/>
	<path clip-path="url(#SVGID_2_)" fill="#FFFFFF" d="M7.6,6.6c-2,0-3.7,1.6-3.7,3.6s1.7,3.6,3.7,3.6c2.1,0,3.7-1.6,3.7-3.6
		S9.6,6.6,7.6,6.6 M4.5,10.2c0-0.7,0.3-1.3,0.7-1.8l4.4,4.2C9,13,8.3,13.2,7.6,13.2C5.9,13.2,4.5,11.9,4.5,10.2 M9.9,12.2L5.5,8
		c0.6-0.5,1.3-0.8,2.1-0.8c1.7,0,3.1,1.4,3.1,3C10.7,11,10.4,11.7,9.9,12.2"/>
	<path clip-path="url(#SVGID_2_)" fill="#FFFFFF" d="M19.4,13.4V5.2c0-1.8,1-4,4.4-4c2.5,0,3.8,1.8,3.8,3.6c0,1.1-0.5,2-1.5,2.5
		c1.5,0.5,1.7,1.3,1.7,2.7v3.4h-2.6V10c0-0.9-0.4-1.4-1.4-1.4h-1V6.4C23.9,6.4,25,6.2,25,5c0-0.9-0.7-1.4-1.5-1.4
		C22.7,3.6,22,4.1,22,5v8.4H19.4z"/>
	<path clip-path="url(#SVGID_2_)" fill="#FFFFFF" d="M33.3,7.1c1.3,0,2.1,0.8,2.1,2.2c0,1.4-0.8,2.2-2.1,2.2s-2.1-0.8-2.1-2.2
		C31.2,7.8,32.1,7.1,33.3,7.1 M33.3,4.9c-2.7,0-4.4,2-4.4,4.4c0,2.4,1.7,4.4,4.4,4.4c2.7,0,4.4-2,4.4-4.4C37.7,6.8,36,4.9,33.3,4.9"
		/>
	<path clip-path="url(#SVGID_2_)" fill="#FFFFFF" d="M44.7,7.3h-1.5c-1.3,0-2.1,0.8-2.1,2c0,1.1,0.8,2,2.1,2h1.5v2.2h-1.6
		c-2.7,0-4.3-1.6-4.3-4.2s1.6-4.1,4.3-4.1h1.6V7.3z"/>
	<path clip-path="url(#SVGID_2_)" fill="#FFFFFF" d="M46.1,13.4V7.6c0-1.8,1.5-2.8,3.6-2.8c2.1,0,3.6,1,3.6,2.8v5.7h-2.3v-5
		c0-0.9-0.5-1.3-1.3-1.3c-0.8,0-1.3,0.5-1.3,1.3v5H46.1z"/>
	<path clip-path="url(#SVGID_2_)" fill="#FFFFFF" d="M60.9,13.4V8.7c0-1-0.8-1.6-2-1.6c-1.1,0-1.9,1-1.9,2.2c0,1.1,0.8,2,2,2
		c0.5,0,0.9-0.1,1.3-0.3v2.3c-0.5,0.1-1,0.2-1.4,0.2c-2.7,0-4.1-2-4.1-4.1c0-2.7,1.9-4.4,4.2-4.4c2.6,0,4.3,1.6,4.3,3.7v4.8H60.9z"
		/>
	<path clip-path="url(#SVGID_2_)" fill="#FFFFFF" d="M64.8,13.4V5.1H67v1.6h0C67.4,5.6,68.2,5,69.2,5h0.5v2.3h-0.5
		c-1.1,0-1.9,0.8-1.9,2v4.1H64.8z"/>
	<path clip-path="url(#SVGID_2_)" fill="#FFFFFF" d="M70.6,13.4V5c0-1.9,0.7-3.6,3.2-3.6h0.9v2.2h-0.9c-0.6,0-0.9,0.2-0.9,0.8v0.6
		h1.8v2.1h-1.8v6.2H70.6z"/>
</g>
</svg>
